%TF.GenerationSoftware,KiCad,Pcbnew,7.0.10*%
%TF.CreationDate,2024-02-08T11:08:36-05:00*%
%TF.ProjectId,bottom_plate,626f7474-6f6d-45f7-906c-6174652e6b69,rev?*%
%TF.SameCoordinates,Original*%
%TF.FileFunction,Profile,NP*%
%FSLAX46Y46*%
G04 Gerber Fmt 4.6, Leading zero omitted, Abs format (unit mm)*
G04 Created by KiCad (PCBNEW 7.0.10) date 2024-02-08 11:08:36*
%MOMM*%
%LPD*%
G01*
G04 APERTURE LIST*
%TA.AperFunction,Profile*%
%ADD10C,0.150000*%
%TD*%
G04 APERTURE END LIST*
D10*
X147730000Y-48087000D02*
X206580000Y-48087000D01*
X126330000Y-42147000D02*
X126330000Y-38387000D01*
X106830000Y-54547000D02*
G75*
G03*
X107330000Y-54047000I0J500000D01*
G01*
X107830000Y-42647000D02*
X125830000Y-42647000D01*
X69330000Y-112947000D02*
X69330000Y-55047000D01*
X107330000Y-54047000D02*
X107330000Y-43147000D01*
X169743491Y-149092940D02*
G75*
G03*
X169633554Y-149050247I-234891J-441960D01*
G01*
X125830000Y-42647000D02*
G75*
G03*
X126330000Y-42147000I0J500000D01*
G01*
X147230000Y-38387000D02*
X147230000Y-47587000D01*
X69830000Y-54547000D02*
X106830000Y-54547000D01*
X207080000Y-48587000D02*
G75*
G03*
X206580000Y-48087000I-500000J0D01*
G01*
X207080000Y-48587000D02*
X207080000Y-120612628D01*
X186696142Y-158106832D02*
X169743488Y-149092946D01*
X126830000Y-37887000D02*
G75*
G03*
X126330000Y-38387000I0J-500000D01*
G01*
X147230000Y-38387000D02*
G75*
G03*
X146730000Y-37887000I-500000J0D01*
G01*
X150756702Y-144192003D02*
X131382701Y-142604785D01*
X126830000Y-37887000D02*
X146730000Y-37887000D01*
X147230000Y-47587000D02*
G75*
G03*
X147730000Y-48087000I500000J0D01*
G01*
X69330000Y-112947000D02*
G75*
G03*
X69830000Y-113447000I500000J0D01*
G01*
X131024016Y-142407107D02*
G75*
G03*
X131382702Y-142604785I399484J300607D01*
G01*
X108980510Y-113447000D02*
X69830000Y-113447000D01*
X131024017Y-142407107D02*
X109380020Y-113646348D01*
X109380014Y-113646353D02*
G75*
G03*
X108980510Y-113447000I-399514J-300647D01*
G01*
X207021719Y-120846872D02*
G75*
G03*
X207079999Y-120612627I-441719J234272D01*
G01*
X107830000Y-42647000D02*
G75*
G03*
X107330000Y-43147000I0J-500000D01*
G01*
X186696148Y-158106821D02*
G75*
G03*
X187372609Y-157899609I234752J441421D01*
G01*
X207021731Y-120846878D02*
X187372609Y-157899609D01*
X169633554Y-149050245D02*
X150840678Y-144206160D01*
X150840678Y-144206161D02*
G75*
G03*
X150756702Y-144192005I-124678J-483439D01*
G01*
X69830000Y-54547000D02*
G75*
G03*
X69330000Y-55047000I0J-500000D01*
G01*
M02*
