%TF.GenerationSoftware,KiCad,Pcbnew,7.0.1-3b83917a11~171~ubuntu22.04.1*%
%TF.CreationDate,2023-03-24T21:38:12-04:00*%
%TF.ProjectId,whisper,77686973-7065-4722-9e6b-696361645f70,v1.0.0*%
%TF.SameCoordinates,Original*%
%TF.FileFunction,Copper,L1,Top*%
%TF.FilePolarity,Positive*%
%FSLAX46Y46*%
G04 Gerber Fmt 4.6, Leading zero omitted, Abs format (unit mm)*
G04 Created by KiCad (PCBNEW 7.0.1-3b83917a11~171~ubuntu22.04.1) date 2023-03-24 21:38:12*
%MOMM*%
%LPD*%
G01*
G04 APERTURE LIST*
G04 Aperture macros list*
%AMRotRect*
0 Rectangle, with rotation*
0 The origin of the aperture is its center*
0 $1 length*
0 $2 width*
0 $3 Rotation angle, in degrees counterclockwise*
0 Add horizontal line*
21,1,$1,$2,0,0,$3*%
G04 Aperture macros list end*
%TA.AperFunction,SMDPad,CuDef*%
%ADD10R,0.900000X0.900000*%
%TD*%
%TA.AperFunction,WasherPad*%
%ADD11C,1.000000*%
%TD*%
%TA.AperFunction,SMDPad,CuDef*%
%ADD12R,0.900000X1.250000*%
%TD*%
%TA.AperFunction,ComponentPad*%
%ADD13C,0.600000*%
%TD*%
%TA.AperFunction,SMDPad,CuDef*%
%ADD14RotRect,2.600000X2.600000X85.000000*%
%TD*%
%TA.AperFunction,SMDPad,CuDef*%
%ADD15R,2.600000X2.600000*%
%TD*%
%TA.AperFunction,ComponentPad*%
%ADD16R,1.778000X1.778000*%
%TD*%
%TA.AperFunction,SMDPad,CuDef*%
%ADD17R,0.900000X1.200000*%
%TD*%
%TA.AperFunction,ComponentPad*%
%ADD18C,1.905000*%
%TD*%
%TA.AperFunction,SMDPad,CuDef*%
%ADD19R,1.143000X0.635000*%
%TD*%
%TA.AperFunction,ComponentPad*%
%ADD20C,1.700000*%
%TD*%
%TA.AperFunction,ComponentPad*%
%ADD21O,1.700000X1.700000*%
%TD*%
%TA.AperFunction,ComponentPad*%
%ADD22R,1.752600X1.752600*%
%TD*%
%TA.AperFunction,ComponentPad*%
%ADD23C,1.752600*%
%TD*%
%TA.AperFunction,ComponentPad*%
%ADD24RotRect,1.778000X1.778000X265.000000*%
%TD*%
%TA.AperFunction,SMDPad,CuDef*%
%ADD25RotRect,0.900000X1.200000X265.000000*%
%TD*%
%TA.AperFunction,SMDPad,CuDef*%
%ADD26RotRect,2.600000X2.600000X80.000000*%
%TD*%
%TA.AperFunction,ComponentPad*%
%ADD27RotRect,1.778000X1.778000X260.000000*%
%TD*%
%TA.AperFunction,SMDPad,CuDef*%
%ADD28RotRect,0.900000X1.200000X260.000000*%
%TD*%
%TA.AperFunction,SMDPad,CuDef*%
%ADD29R,1.200000X0.900000*%
%TD*%
%TA.AperFunction,ComponentPad*%
%ADD30C,2.000000*%
%TD*%
%TA.AperFunction,ComponentPad*%
%ADD31O,1.200000X1.700000*%
%TD*%
%TA.AperFunction,ComponentPad*%
%ADD32R,1.200000X1.700000*%
%TD*%
%TA.AperFunction,ComponentPad*%
%ADD33R,3.200000X2.000000*%
%TD*%
%TA.AperFunction,ComponentPad*%
%ADD34C,1.500000*%
%TD*%
%TA.AperFunction,ComponentPad*%
%ADD35R,2.000000X2.000000*%
%TD*%
%TA.AperFunction,SMDPad,CuDef*%
%ADD36RotRect,2.600000X2.600000X345.000000*%
%TD*%
%TA.AperFunction,ComponentPad*%
%ADD37RotRect,1.778000X1.778000X165.000000*%
%TD*%
%TA.AperFunction,SMDPad,CuDef*%
%ADD38RotRect,0.900000X1.200000X165.000000*%
%TD*%
%TA.AperFunction,ViaPad*%
%ADD39C,0.800000*%
%TD*%
%TA.AperFunction,Conductor*%
%ADD40C,0.250000*%
%TD*%
G04 APERTURE END LIST*
D10*
%TO.P,T1,*%
%TO.N,*%
X252691727Y-82731727D03*
X252691727Y-84931727D03*
D11*
X254891727Y-83831727D03*
X257891727Y-83831727D03*
D10*
X260091727Y-82731727D03*
X260091727Y-84931727D03*
D12*
%TO.P,T1,1*%
%TO.N,RAW*%
X258641727Y-85906727D03*
%TO.P,T1,2*%
%TO.N,JST*%
X255641727Y-85906727D03*
%TO.P,T1,3*%
%TO.N,N/C*%
X254141727Y-85906727D03*
%TD*%
D13*
%TO.P,REF\u002A\u002A,1*%
%TO.N,col_1*%
X166591727Y-121941727D03*
%TD*%
%TO.P,REF\u002A\u002A,1*%
%TO.N,col_3*%
X202591727Y-70431727D03*
%TD*%
D14*
%TO.P,S18,1*%
%TO.N,col_2*%
X217149804Y-151650613D03*
%TO.P,S18,2*%
%TO.N,near_fan*%
X218334783Y-163348404D03*
%TD*%
D15*
%TO.P,S12,1*%
%TO.N,col_4*%
X220666727Y-114631727D03*
%TO.P,S12,2*%
%TO.N,index_bottom*%
X209116727Y-116831727D03*
%TD*%
D13*
%TO.P,REF\u002A\u002A,1*%
%TO.N,col_3*%
X202591727Y-87431727D03*
%TD*%
D16*
%TO.P,D14,1*%
%TO.N,row_3*%
X221201727Y-90581727D03*
D17*
X219041727Y-90581727D03*
%TO.P,D14,2*%
%TO.N,index_top*%
X215741727Y-90581727D03*
D18*
X213581727Y-90581727D03*
%TD*%
D13*
%TO.P,REF\u002A\u002A,1*%
%TO.N,middle_bottom*%
X191041727Y-106591727D03*
%TD*%
D16*
%TO.P,D12,1*%
%TO.N,row_1*%
X221201727Y-124581727D03*
D17*
X219041727Y-124581727D03*
%TO.P,D12,2*%
%TO.N,index_bottom*%
X215741727Y-124581727D03*
D18*
X213581727Y-124581727D03*
%TD*%
D16*
%TO.P,D9,1*%
%TO.N,row_1*%
X203201727Y-114381727D03*
D17*
X201041727Y-114381727D03*
%TO.P,D9,2*%
%TO.N,middle_bottom*%
X197741727Y-114381727D03*
D18*
X195581727Y-114381727D03*
%TD*%
D13*
%TO.P,REF\u002A\u002A,1*%
%TO.N,index_bottom*%
X209041727Y-116791727D03*
%TD*%
D16*
%TO.P,D16,1*%
%TO.N,row_2*%
X239201727Y-111831727D03*
D17*
X237041727Y-111831727D03*
%TO.P,D16,2*%
%TO.N,inner_home*%
X233741727Y-111831727D03*
D18*
X231581727Y-111831727D03*
%TD*%
D13*
%TO.P,REF\u002A\u002A,1*%
%TO.N,col_4*%
X220591727Y-97631727D03*
%TD*%
D15*
%TO.P,S5,1*%
%TO.N,col_1*%
X166666727Y-87941727D03*
%TO.P,S5,2*%
%TO.N,pinkie_top*%
X155116727Y-90141727D03*
%TD*%
%TO.P,S2,1*%
%TO.N,col_0*%
X148666727Y-92191727D03*
%TO.P,S2,2*%
%TO.N,outer_top*%
X137116727Y-94391727D03*
%TD*%
D16*
%TO.P,D8,1*%
%TO.N,row_3*%
X185201727Y-85141727D03*
D17*
X183041727Y-85141727D03*
%TO.P,D8,2*%
%TO.N,ring_top*%
X179741727Y-85141727D03*
D18*
X177581727Y-85141727D03*
%TD*%
D15*
%TO.P,S7,1*%
%TO.N,col_2*%
X184666727Y-92191727D03*
%TO.P,S7,2*%
%TO.N,ring_home*%
X173116727Y-94391727D03*
%TD*%
D13*
%TO.P,REF\u002A\u002A,1*%
%TO.N,pinkie_top*%
X155041727Y-90101727D03*
%TD*%
%TO.P,REF\u002A\u002A,1*%
%TO.N,col_4*%
X263467651Y-162047069D03*
%TD*%
D16*
%TO.P,D2,1*%
%TO.N,row_3*%
X149201727Y-102141727D03*
D17*
X147041727Y-102141727D03*
%TO.P,D2,2*%
%TO.N,outer_top*%
X143741727Y-102141727D03*
D18*
X141581727Y-102141727D03*
%TD*%
D13*
%TO.P,REF\u002A\u002A,1*%
%TO.N,pinkie_bottom*%
X155041727Y-124101727D03*
%TD*%
%TO.P,REF\u002A\u002A,1*%
%TO.N,col_1*%
X166591727Y-87941727D03*
%TD*%
%TO.P,REF\u002A\u002A,1*%
%TO.N,col_0*%
X148591727Y-92191727D03*
%TD*%
%TO.P,REF\u002A\u002A,1*%
%TO.N,inner_top*%
X227041727Y-87041727D03*
%TD*%
D15*
%TO.P,S17,1*%
%TO.N,col_5*%
X238666727Y-84881727D03*
%TO.P,S17,2*%
%TO.N,inner_top*%
X227116727Y-87081727D03*
%TD*%
D19*
%TO.P,J5,1*%
%TO.N,SCL*%
X255391727Y-99331347D03*
%TO.P,J5,2*%
%TO.N,J_pad2*%
X255391727Y-100332107D03*
%TD*%
D16*
%TO.P,D10,1*%
%TO.N,row_2*%
X203201727Y-97381727D03*
D17*
X201041727Y-97381727D03*
%TO.P,D10,2*%
%TO.N,middle_home*%
X197741727Y-97381727D03*
D18*
X195581727Y-97381727D03*
%TD*%
D15*
%TO.P,S10,1*%
%TO.N,col_3*%
X202666727Y-87431727D03*
%TO.P,S10,2*%
%TO.N,middle_home*%
X191116727Y-89631727D03*
%TD*%
%TO.P,S16,1*%
%TO.N,col_5*%
X238666727Y-101881727D03*
%TO.P,S16,2*%
%TO.N,inner_home*%
X227116727Y-104081727D03*
%TD*%
D19*
%TO.P,J1,1*%
%TO.N,CS*%
X259391727Y-99331347D03*
%TO.P,J1,2*%
%TO.N,J_pad4*%
X259391727Y-100332107D03*
%TD*%
D13*
%TO.P,REF\u002A\u002A,1*%
%TO.N,col_5*%
X238591727Y-118881727D03*
%TD*%
%TO.P,REF\u002A\u002A,1*%
%TO.N,col_5*%
X238591727Y-84881727D03*
%TD*%
D16*
%TO.P,D6,1*%
%TO.N,row_1*%
X185201727Y-119141727D03*
D17*
X183041727Y-119141727D03*
%TO.P,D6,2*%
%TO.N,ring_bottom*%
X179741727Y-119141727D03*
D18*
X177581727Y-119141727D03*
%TD*%
D13*
%TO.P,REF\u002A\u002A,1*%
%TO.N,col_5*%
X238591727Y-101881727D03*
%TD*%
D16*
%TO.P,D7,1*%
%TO.N,row_2*%
X185201727Y-102141727D03*
D17*
X183041727Y-102141727D03*
%TO.P,D7,2*%
%TO.N,ring_home*%
X179741727Y-102141727D03*
D18*
X177581727Y-102141727D03*
%TD*%
D13*
%TO.P,REF\u002A\u002A,1*%
%TO.N,pinkie_home*%
X155041727Y-107101727D03*
%TD*%
D16*
%TO.P,D15,1*%
%TO.N,row_1*%
X239201727Y-128831727D03*
D17*
X237041727Y-128831727D03*
%TO.P,D15,2*%
%TO.N,inner_bottom*%
X233741727Y-128831727D03*
D18*
X231581727Y-128831727D03*
%TD*%
D16*
%TO.P,D3,1*%
%TO.N,row_1*%
X167201727Y-131891727D03*
D17*
X165041727Y-131891727D03*
%TO.P,D3,2*%
%TO.N,pinkie_bottom*%
X161741727Y-131891727D03*
D18*
X159581727Y-131891727D03*
%TD*%
D13*
%TO.P,REF\u002A\u002A,1*%
%TO.N,col_3*%
X236095249Y-153696853D03*
%TD*%
D16*
%TO.P,D1,1*%
%TO.N,row_2*%
X149201727Y-119141727D03*
D17*
X147041727Y-119141727D03*
%TO.P,D1,2*%
%TO.N,outer_home*%
X143741727Y-119141727D03*
D18*
X141581727Y-119141727D03*
%TD*%
D13*
%TO.P,REF\u002A\u002A,1*%
%TO.N,home_fan*%
X236216797Y-165446463D03*
%TD*%
D16*
%TO.P,D5,1*%
%TO.N,row_3*%
X167201727Y-97891727D03*
D17*
X165041727Y-97891727D03*
%TO.P,D5,2*%
%TO.N,pinkie_top*%
X161741727Y-97891727D03*
D18*
X159581727Y-97891727D03*
%TD*%
D15*
%TO.P,S15,1*%
%TO.N,col_5*%
X238666727Y-118881727D03*
%TO.P,S15,2*%
%TO.N,inner_bottom*%
X227116727Y-121081727D03*
%TD*%
D20*
%TO.P,REF\u002A,1*%
%TO.N,J_pad1*%
X251391727Y-117741727D03*
D21*
%TO.P,REF\u002A,2*%
%TO.N,J_pad2*%
X253931727Y-117741727D03*
%TO.P,REF\u002A,3*%
%TO.N,VCC*%
X256471727Y-117741727D03*
%TO.P,REF\u002A,4*%
%TO.N,J_pad3*%
X259011727Y-117741727D03*
%TO.P,REF\u002A,5*%
%TO.N,J_pad4*%
X261551727Y-117741727D03*
%TD*%
D16*
%TO.P,D13,1*%
%TO.N,row_2*%
X221201727Y-107581727D03*
D17*
X219041727Y-107581727D03*
%TO.P,D13,2*%
%TO.N,index_home*%
X215741727Y-107581727D03*
D18*
X213581727Y-107581727D03*
%TD*%
D13*
%TO.P,REF\u002A\u002A,1*%
%TO.N,col_4*%
X220591727Y-80631727D03*
%TD*%
%TO.P,REF\u002A\u002A,1*%
%TO.N,outer_home*%
X137041727Y-111351727D03*
%TD*%
%TO.P,REF\u002A\u002A,1*%
%TO.N,col_4*%
X220591727Y-114631727D03*
%TD*%
D15*
%TO.P,S9,1*%
%TO.N,col_3*%
X202666727Y-104431727D03*
%TO.P,S9,2*%
%TO.N,middle_bottom*%
X191116727Y-106631727D03*
%TD*%
D13*
%TO.P,REF\u002A\u002A,1*%
%TO.N,far_fan*%
X251752159Y-161144109D03*
%TD*%
D15*
%TO.P,S8,1*%
%TO.N,col_2*%
X184666727Y-75191727D03*
%TO.P,S8,2*%
%TO.N,ring_top*%
X173116727Y-77391727D03*
%TD*%
D13*
%TO.P,REF\u002A\u002A,1*%
%TO.N,middle_home*%
X191041727Y-89591727D03*
%TD*%
%TO.P,REF\u002A\u002A,1*%
%TO.N,ring_bottom*%
X173041727Y-111351727D03*
%TD*%
%TO.P,REF\u002A\u002A,1*%
%TO.N,col_3*%
X202591727Y-104431727D03*
%TD*%
%TO.P,REF\u002A\u002A,1*%
%TO.N,near_fan*%
X218288399Y-163419633D03*
%TD*%
D19*
%TO.P,J3,1*%
%TO.N,GND*%
X257391727Y-99331347D03*
%TO.P,J3,2*%
%TO.N,J_pad3*%
X257391727Y-100332107D03*
%TD*%
D22*
%TO.P,MCU1,1*%
%TO.N,RAW*%
X264081727Y-86133727D03*
D23*
%TO.P,MCU1,2*%
%TO.N,GND*%
X264081727Y-88673727D03*
%TO.P,MCU1,3*%
%TO.N,RST*%
X264081727Y-91213727D03*
%TO.P,MCU1,4*%
%TO.N,VCC*%
X264081727Y-93753727D03*
%TO.P,MCU1,5*%
%TO.N,ENCB*%
X264081727Y-96293727D03*
%TO.P,MCU1,6*%
%TO.N,ENCA*%
X264081727Y-98833727D03*
%TO.P,MCU1,7*%
%TO.N,col_5*%
X264081727Y-101373727D03*
%TO.P,MCU1,8*%
%TO.N,col_4*%
X264081727Y-103913727D03*
%TO.P,MCU1,9*%
%TO.N,col_3*%
X264081727Y-106453727D03*
%TO.P,MCU1,10*%
%TO.N,col_2*%
X264081727Y-108993727D03*
%TO.P,MCU1,11*%
%TO.N,col_1*%
X264081727Y-111533727D03*
%TO.P,MCU1,12*%
%TO.N,col_0*%
X264081727Y-114073727D03*
%TO.P,MCU1,13*%
%TO.N,CS*%
X248841727Y-86133727D03*
%TO.P,MCU1,14*%
%TO.N,P0*%
X248841727Y-88673727D03*
%TO.P,MCU1,15*%
%TO.N,GND*%
X248841727Y-91213727D03*
%TO.P,MCU1,16*%
X248841727Y-93753727D03*
%TO.P,MCU1,17*%
%TO.N,SDA*%
X248841727Y-96293727D03*
%TO.P,MCU1,18*%
%TO.N,SCL*%
X248841727Y-98833727D03*
%TO.P,MCU1,19*%
%TO.N,N/C*%
X248841727Y-101373727D03*
%TO.P,MCU1,20*%
X248841727Y-103913727D03*
%TO.P,MCU1,21*%
%TO.N,row_3*%
X248841727Y-106453727D03*
%TO.P,MCU1,22*%
%TO.N,row_2*%
X248841727Y-108993727D03*
%TO.P,MCU1,23*%
%TO.N,row_1*%
X248841727Y-111533727D03*
%TO.P,MCU1,24*%
%TO.N,row_0*%
X248841727Y-114073727D03*
%TD*%
D13*
%TO.P,REF\u002A\u002A,1*%
%TO.N,ring_home*%
X173041727Y-94351727D03*
%TD*%
%TO.P,REF\u002A\u002A,1*%
%TO.N,ring_top*%
X173041727Y-77351727D03*
%TD*%
%TO.P,REF\u002A\u002A,1*%
%TO.N,col_2*%
X184591727Y-109191727D03*
%TD*%
D15*
%TO.P,S14,1*%
%TO.N,col_4*%
X220666727Y-80631727D03*
%TO.P,S14,2*%
%TO.N,index_top*%
X209116727Y-82831727D03*
%TD*%
D16*
%TO.P,D4,1*%
%TO.N,row_2*%
X167201727Y-114891727D03*
D17*
X165041727Y-114891727D03*
%TO.P,D4,2*%
%TO.N,pinkie_home*%
X161741727Y-114891727D03*
D18*
X159581727Y-114891727D03*
%TD*%
D24*
%TO.P,D18,1*%
%TO.N,row_0*%
X227108569Y-151984848D03*
D25*
X226920313Y-154136629D03*
%TO.P,D18,2*%
%TO.N,near_fan*%
X226632699Y-157424071D03*
D18*
X226444443Y-159575852D03*
%TD*%
D13*
%TO.P,REF\u002A\u002A,1*%
%TO.N,inner_home*%
X227041727Y-104041727D03*
%TD*%
D19*
%TO.P,J7,1*%
%TO.N,SDA*%
X253391727Y-99331347D03*
%TO.P,J7,2*%
%TO.N,J_pad1*%
X253391727Y-100332107D03*
%TD*%
D26*
%TO.P,S19,1*%
%TO.N,col_3*%
X236108273Y-153622993D03*
%TO.P,S19,2*%
%TO.N,home_fan*%
X236269213Y-165379548D03*
%TD*%
D27*
%TO.P,D19,1*%
%TO.N,row_0*%
X246000012Y-154823920D03*
D28*
X245624931Y-156951105D03*
%TO.P,D19,2*%
%TO.N,home_fan*%
X245051893Y-160200971D03*
D18*
X244676812Y-162328156D03*
%TD*%
D16*
%TO.P,D21,1*%
%TO.N,row_0*%
X249280000Y-129250000D03*
D29*
X249280000Y-131410000D03*
%TO.P,D21,2*%
%TO.N,r_diode*%
X249280000Y-134710000D03*
D18*
X249280000Y-136870000D03*
%TD*%
D13*
%TO.P,REF\u002A\u002A,1*%
%TO.N,col_2*%
X184591727Y-92191727D03*
%TD*%
D16*
%TO.P,D17,1*%
%TO.N,row_3*%
X239201727Y-94831727D03*
D17*
X237041727Y-94831727D03*
%TO.P,D17,2*%
%TO.N,inner_top*%
X233741727Y-94831727D03*
D18*
X231581727Y-94831727D03*
%TD*%
D13*
%TO.P,REF\u002A\u002A,1*%
%TO.N,col_1*%
X166591727Y-104941727D03*
%TD*%
%TO.P,REF\u002A\u002A,1*%
%TO.N,inner_bottom*%
X227041727Y-121041727D03*
%TD*%
D30*
%TO.P,RSW1,1*%
%TO.N,RST*%
X255150000Y-127500000D03*
%TO.P,RSW1,2*%
%TO.N,GND*%
X261650000Y-127500000D03*
%TD*%
D13*
%TO.P,REF\u002A\u002A,1*%
%TO.N,col_0*%
X148591727Y-109191727D03*
%TD*%
D31*
%TO.P,JST REV1,1*%
%TO.N,GND*%
X254441727Y-88831727D03*
D32*
%TO.N,JST*%
X256691727Y-88831727D03*
D31*
%TO.P,JST REV1,2*%
%TO.N,GND*%
X258941727Y-88831727D03*
%TD*%
D33*
%TO.P,ROT1,*%
%TO.N,*%
X258400000Y-142700000D03*
X258400000Y-131500000D03*
D34*
%TO.P,ROT1,1*%
%TO.N,col_5*%
X251400000Y-139600000D03*
%TO.P,ROT1,2*%
%TO.N,r_diode*%
X251400000Y-134600000D03*
D35*
%TO.P,ROT1,A*%
%TO.N,ENCA*%
X265900000Y-139600000D03*
D30*
%TO.P,ROT1,B*%
%TO.N,ENCB*%
X265900000Y-134600000D03*
%TO.P,ROT1,C*%
%TO.N,GND*%
X265900000Y-137100000D03*
%TD*%
D13*
%TO.P,REF\u002A\u002A,1*%
%TO.N,index_home*%
X209041727Y-99791727D03*
%TD*%
D15*
%TO.P,S11,1*%
%TO.N,col_3*%
X202666727Y-70431727D03*
%TO.P,S11,2*%
%TO.N,middle_top*%
X191116727Y-72631727D03*
%TD*%
%TO.P,S1,1*%
%TO.N,col_0*%
X148666727Y-109191727D03*
%TO.P,S1,2*%
%TO.N,outer_home*%
X137116727Y-111391727D03*
%TD*%
%TO.P,S4,1*%
%TO.N,col_1*%
X166666727Y-104941727D03*
%TO.P,S4,2*%
%TO.N,pinkie_home*%
X155116727Y-107141727D03*
%TD*%
D36*
%TO.P,S20,1*%
%TO.N,col_4*%
X263540095Y-162066481D03*
%TO.P,S20,2*%
%TO.N,far_fan*%
X251814250Y-161202158D03*
%TD*%
D15*
%TO.P,S3,1*%
%TO.N,col_1*%
X166666727Y-121941727D03*
%TO.P,S3,2*%
%TO.N,pinkie_bottom*%
X155116727Y-124141727D03*
%TD*%
D13*
%TO.P,REF\u002A\u002A,1*%
%TO.N,outer_top*%
X137041727Y-94351727D03*
%TD*%
%TO.P,REF\u002A\u002A,1*%
%TO.N,index_top*%
X209041727Y-82791727D03*
%TD*%
%TO.P,REF\u002A\u002A,1*%
%TO.N,col_2*%
X184591727Y-75191727D03*
%TD*%
%TO.P,REF\u002A\u002A,1*%
%TO.N,col_2*%
X217143267Y-151725327D03*
%TD*%
D15*
%TO.P,S13,1*%
%TO.N,col_4*%
X220666727Y-97631727D03*
%TO.P,S13,2*%
%TO.N,index_home*%
X209116727Y-99831727D03*
%TD*%
D16*
%TO.P,D11,1*%
%TO.N,row_3*%
X203201727Y-80381727D03*
D17*
X201041727Y-80381727D03*
%TO.P,D11,2*%
%TO.N,middle_top*%
X197741727Y-80381727D03*
D18*
X195581727Y-80381727D03*
%TD*%
D37*
%TO.P,D20,1*%
%TO.N,row_0*%
X261481616Y-171815911D03*
D38*
X259395217Y-171256861D03*
%TO.P,D20,2*%
%TO.N,far_fan*%
X256207661Y-170402759D03*
D18*
X254121262Y-169843709D03*
%TD*%
D13*
%TO.P,REF\u002A\u002A,1*%
%TO.N,middle_top*%
X191041727Y-72591727D03*
%TD*%
D15*
%TO.P,S6,1*%
%TO.N,col_2*%
X184666727Y-109191727D03*
%TO.P,S6,2*%
%TO.N,ring_bottom*%
X173116727Y-111391727D03*
%TD*%
D39*
%TO.N,col_0*%
X202850000Y-137000000D03*
%TO.N,col_1*%
X202850000Y-135500000D03*
%TO.N,col_2*%
X202850000Y-133800000D03*
%TO.N,col_3*%
X219900000Y-135250000D03*
%TO.N,col_4*%
X260100000Y-121900000D03*
X234975000Y-134875000D03*
%TO.N,col_5*%
X259200000Y-121250000D03*
X245025500Y-131150000D03*
%TO.N,GND*%
X256391727Y-97491727D03*
%TO.N,VCC*%
X256341727Y-102091727D03*
%TO.N,CS*%
X253341727Y-96591727D03*
%TO.N,SDA*%
X259341727Y-95891727D03*
%TO.N,SCL*%
X256391727Y-98491727D03*
%TO.N,J_pad4*%
X259391727Y-100341727D03*
%TO.N,J_pad3*%
X257391727Y-100341727D03*
%TO.N,J_pad2*%
X255391727Y-100341727D03*
%TO.N,J_pad1*%
X253391727Y-100341727D03*
%TD*%
D40*
%TO.N,col_0*%
X148291727Y-92491727D02*
X148291727Y-99041727D01*
X160246726Y-121791727D02*
X163896726Y-125441727D01*
X148291727Y-114341727D02*
X155741727Y-121791727D01*
X165691727Y-126425411D02*
X170058043Y-130791727D01*
X148591727Y-92191727D02*
X148291727Y-92491727D01*
X145491727Y-106091727D02*
X148591727Y-109191727D01*
X145491727Y-101841727D02*
X145491727Y-106091727D01*
X163896726Y-125441727D02*
X165691727Y-125441727D01*
X165691727Y-125441727D02*
X165691727Y-126425411D01*
X196641727Y-130791727D02*
X202850000Y-137000000D01*
X170058043Y-130791727D02*
X196641727Y-130791727D01*
X148591727Y-109191727D02*
X148291727Y-109491727D01*
X148291727Y-99041727D02*
X145491727Y-101841727D01*
X155741727Y-121791727D02*
X160246726Y-121791727D01*
X148291727Y-109491727D02*
X148291727Y-114341727D01*
%TO.N,outer_home*%
X141571727Y-119191727D02*
X143731727Y-119191727D01*
%TO.N,outer_top*%
X141571727Y-102141727D02*
X143731727Y-102141727D01*
%TO.N,col_1*%
X166591727Y-87941727D02*
X166291727Y-88241727D01*
X166591727Y-104941727D02*
X166291727Y-105241727D01*
X166291727Y-88241727D02*
X166291727Y-94641727D01*
X163491727Y-101841727D02*
X166591727Y-104941727D01*
X166291727Y-105241727D02*
X166291727Y-111541727D01*
X163491727Y-97441727D02*
X163491727Y-101841727D01*
X166291727Y-94641727D02*
X163491727Y-97441727D01*
X163441727Y-114391727D02*
X163441727Y-118791727D01*
X163441727Y-118791727D02*
X166591727Y-121941727D01*
X166591727Y-121941727D02*
X189291727Y-121941727D01*
X166291727Y-111541727D02*
X163441727Y-114391727D01*
X189291727Y-121941727D02*
X202850000Y-135500000D01*
%TO.N,pinkie_bottom*%
X159571727Y-131941727D02*
X161731727Y-131941727D01*
%TO.N,pinkie_home*%
X159621727Y-114991727D02*
X161781727Y-114991727D01*
%TO.N,pinkie_top*%
X159571727Y-97891727D02*
X161731727Y-97891727D01*
%TO.N,col_2*%
X184291727Y-81491727D02*
X181391727Y-84391727D01*
X184291727Y-115241727D02*
X184291727Y-109491727D01*
X181591727Y-101791727D02*
X181591727Y-106116727D01*
X217149804Y-148099804D02*
X217149804Y-151650613D01*
X184591727Y-75191727D02*
X184291727Y-75491727D01*
X181391727Y-88991727D02*
X184591727Y-92191727D01*
X184291727Y-109491727D02*
X184591727Y-109191727D01*
X184291727Y-99091727D02*
X181591727Y-101791727D01*
X202850000Y-133800000D02*
X184291727Y-115241727D01*
X184591727Y-92191727D02*
X184291727Y-92491727D01*
X181591727Y-106116727D02*
X184666727Y-109191727D01*
X184291727Y-75491727D02*
X184291727Y-81491727D01*
X184291727Y-92491727D02*
X184291727Y-99091727D01*
X181391727Y-84391727D02*
X181391727Y-88991727D01*
X202850000Y-133800000D02*
X217149804Y-148099804D01*
%TO.N,ring_bottom*%
X177571727Y-119141727D02*
X179731727Y-119141727D01*
%TO.N,ring_home*%
X177621727Y-102191727D02*
X179781727Y-102191727D01*
%TO.N,ring_top*%
X177521727Y-85191727D02*
X179681727Y-85191727D01*
%TO.N,col_3*%
X199391727Y-80141727D02*
X199391727Y-84231727D01*
X202191727Y-104906727D02*
X202191727Y-110041727D01*
X199441727Y-101281727D02*
X202591727Y-104431727D01*
X236108273Y-151458273D02*
X236108273Y-153622993D01*
X202591727Y-70431727D02*
X202291727Y-70731727D01*
X202191727Y-110041727D02*
X206391727Y-114241727D01*
X202291727Y-94091727D02*
X199441727Y-96941727D01*
X199391727Y-84231727D02*
X202591727Y-87431727D01*
X206391727Y-121741727D02*
X236108273Y-151458273D01*
X202291727Y-77241727D02*
X199391727Y-80141727D01*
X202666727Y-104431727D02*
X202191727Y-104906727D01*
X202291727Y-70731727D02*
X202291727Y-77241727D01*
X202591727Y-87431727D02*
X202291727Y-87731727D01*
X206391727Y-114241727D02*
X206391727Y-121741727D01*
X202291727Y-87731727D02*
X202291727Y-94091727D01*
X199441727Y-96941727D02*
X199441727Y-101281727D01*
%TO.N,middle_bottom*%
X195571727Y-114391727D02*
X197731727Y-114391727D01*
%TO.N,middle_home*%
X195621727Y-97441727D02*
X197781727Y-97441727D01*
%TO.N,middle_top*%
X195571727Y-80391727D02*
X197731727Y-80391727D01*
%TO.N,col_4*%
X217541727Y-89941727D02*
X217541727Y-94581727D01*
X217541727Y-94581727D02*
X220591727Y-97631727D01*
X220291727Y-87191727D02*
X217541727Y-89941727D01*
X217541727Y-107041727D02*
X217541727Y-111506727D01*
X220591727Y-97631727D02*
X220291727Y-97931727D01*
X262880427Y-105115027D02*
X264081727Y-103913727D01*
X220291727Y-80931727D02*
X220291727Y-87191727D01*
X217541727Y-111506727D02*
X220666727Y-114631727D01*
X220291727Y-120191727D02*
X256141727Y-156041727D01*
X264050000Y-116150000D02*
X262880427Y-114980427D01*
X220591727Y-114631727D02*
X220291727Y-114931727D01*
X260100000Y-121900000D02*
X260800000Y-121900000D01*
X220291727Y-104291727D02*
X217541727Y-107041727D01*
X220591727Y-80631727D02*
X220291727Y-80931727D01*
X262880427Y-114980427D02*
X262880427Y-105115027D01*
X220291727Y-114931727D02*
X220291727Y-120191727D01*
X257851217Y-156041727D02*
X263540095Y-161730605D01*
X260800000Y-121900000D02*
X264050000Y-118650000D01*
X264050000Y-118650000D02*
X264050000Y-116150000D01*
X256141727Y-156041727D02*
X257851217Y-156041727D01*
X220291727Y-97931727D02*
X220291727Y-104291727D01*
X263540095Y-161730605D02*
X263540095Y-162066481D01*
%TO.N,index_bottom*%
X213571727Y-124641727D02*
X215731727Y-124641727D01*
%TO.N,index_home*%
X213571727Y-107641727D02*
X215731727Y-107641727D01*
%TO.N,index_top*%
X213571727Y-90591727D02*
X215731727Y-90591727D01*
%TO.N,col_5*%
X235541727Y-98831727D02*
X238591727Y-101881727D01*
X237816727Y-102656727D02*
X237816727Y-108966727D01*
X238591727Y-84881727D02*
X237816727Y-85656727D01*
X260888604Y-121175000D02*
X263600000Y-118463604D01*
X262430427Y-103025027D02*
X264081727Y-101373727D01*
X262430427Y-115380427D02*
X262430427Y-103025027D01*
X237816727Y-91816727D02*
X235541727Y-94091727D01*
X238291727Y-119181727D02*
X238291727Y-124416227D01*
X245025500Y-131150000D02*
X245025500Y-134422158D01*
X263600000Y-118463604D02*
X263600000Y-116550000D01*
X237816727Y-85656727D02*
X237816727Y-91816727D01*
X245025500Y-134422158D02*
X245050000Y-134446658D01*
X238291727Y-124416227D02*
X245025500Y-131150000D01*
X238591727Y-101881727D02*
X237816727Y-102656727D01*
X245050000Y-134446658D02*
X245050000Y-137750000D01*
X263600000Y-116550000D02*
X262430427Y-115380427D01*
X259275000Y-121175000D02*
X260888604Y-121175000D01*
X235441727Y-115641727D02*
X235441727Y-115731727D01*
X245050000Y-137750000D02*
X246900000Y-139600000D01*
X235541727Y-94091727D02*
X235541727Y-98831727D01*
X237816727Y-108966727D02*
X235441727Y-111341727D01*
X235441727Y-111341727D02*
X235441727Y-115641727D01*
X246900000Y-139600000D02*
X251400000Y-139600000D01*
X238591727Y-118881727D02*
X238291727Y-119181727D01*
X259200000Y-121250000D02*
X259275000Y-121175000D01*
X235441727Y-115731727D02*
X238591727Y-118881727D01*
%TO.N,inner_bottom*%
X231571727Y-128891727D02*
X233731727Y-128891727D01*
%TO.N,inner_home*%
X231521727Y-111891727D02*
X233681727Y-111891727D01*
%TO.N,inner_top*%
X231581727Y-94831727D02*
X233741727Y-94831727D01*
%TO.N,near_fan*%
X226632699Y-159387596D02*
X226444443Y-159575852D01*
X226632699Y-157424071D02*
X226632699Y-159387596D01*
%TO.N,home_fan*%
X245051893Y-160200971D02*
X245051893Y-161953075D01*
X245051893Y-161953075D02*
X244676812Y-162328156D01*
%TO.N,far_fan*%
X255648611Y-169843709D02*
X256207661Y-170402759D01*
X254121262Y-169843709D02*
X255648611Y-169843709D01*
%TO.N,row_2*%
X201081727Y-97441727D02*
X203241727Y-97441727D01*
X165081727Y-114991727D02*
X167241727Y-114991727D01*
X236981727Y-111891727D02*
X239141727Y-111891727D01*
X219031727Y-107641727D02*
X221191727Y-107641727D01*
X147031727Y-119191727D02*
X149191727Y-119191727D01*
X183081727Y-102191727D02*
X185241727Y-102191727D01*
%TO.N,row_3*%
X147031727Y-102141727D02*
X149191727Y-102141727D01*
X237041727Y-94831727D02*
X239201727Y-94831727D01*
X219031727Y-90591727D02*
X221191727Y-90591727D01*
X165031727Y-97891727D02*
X167191727Y-97891727D01*
X182981727Y-85191727D02*
X185141727Y-85191727D01*
X201031727Y-80391727D02*
X203191727Y-80391727D01*
%TO.N,row_1*%
X219031727Y-124641727D02*
X221191727Y-124641727D01*
X183031727Y-119141727D02*
X185191727Y-119141727D01*
X237031727Y-128891727D02*
X239191727Y-128891727D01*
X165031727Y-131941727D02*
X167191727Y-131941727D01*
X201031727Y-114391727D02*
X203191727Y-114391727D01*
%TO.N,row_0*%
X248841727Y-125471727D02*
X249280000Y-125910000D01*
X259395217Y-171256861D02*
X260922566Y-171256861D01*
X260922566Y-171256861D02*
X261481616Y-171815911D01*
X249280000Y-129250000D02*
X249280000Y-131410000D01*
X246000012Y-156576024D02*
X245624931Y-156951105D01*
X227108569Y-153948373D02*
X226920313Y-154136629D01*
X227108569Y-151984848D02*
X227108569Y-153948373D01*
X246000012Y-154823920D02*
X246000012Y-156576024D01*
X249280000Y-125910000D02*
X249280000Y-129250000D01*
X248841727Y-114073727D02*
X248841727Y-125471727D01*
%TO.N,RAW*%
X258641727Y-85906727D02*
X263854727Y-85906727D01*
X263854727Y-85906727D02*
X264081727Y-86133727D01*
%TO.N,GND*%
X261650000Y-132850000D02*
X265900000Y-137100000D01*
X261650000Y-127500000D02*
X261650000Y-132850000D01*
X256417032Y-97491727D02*
X257391727Y-98466422D01*
X248841727Y-91213727D02*
X248841727Y-93753727D01*
X257391727Y-98466422D02*
X257391727Y-99331347D01*
X251223727Y-88831727D02*
X248841727Y-91213727D01*
X258941727Y-88831727D02*
X263923727Y-88831727D01*
X256391727Y-97491727D02*
X256417032Y-97491727D01*
X263923727Y-88831727D02*
X264081727Y-88673727D01*
X254441727Y-88831727D02*
X251223727Y-88831727D01*
%TO.N,RST*%
X266650000Y-93782000D02*
X264081727Y-91213727D01*
X257700000Y-124950000D02*
X266650000Y-124950000D01*
X255150000Y-127500000D02*
X257700000Y-124950000D01*
X266650000Y-124950000D02*
X266650000Y-93782000D01*
%TO.N,VCC*%
X259641727Y-102091727D02*
X256341727Y-102091727D01*
X264081727Y-93753727D02*
X260591727Y-97243727D01*
X260591727Y-101141727D02*
X259641727Y-102091727D01*
X260591727Y-97243727D02*
X260591727Y-101141727D01*
%TO.N,CS*%
X256652107Y-96591727D02*
X259391727Y-99331347D01*
X253341727Y-96591727D02*
X256652107Y-96591727D01*
%TO.N,SDA*%
X248841727Y-96293727D02*
X250354107Y-96293727D01*
X250354107Y-96293727D02*
X253391727Y-99331347D01*
X259341727Y-95891727D02*
X259366727Y-95866727D01*
X250354107Y-96293727D02*
X250781107Y-95866727D01*
X259366727Y-95866727D02*
X259391727Y-95891727D01*
X250781107Y-95866727D02*
X259341727Y-95891727D01*
%TO.N,SCL*%
X256391727Y-101291727D02*
X251299727Y-101291727D01*
X251299727Y-101291727D02*
X248841727Y-98833727D01*
X256231347Y-98491727D02*
X255391727Y-99331347D01*
X256391727Y-98491727D02*
X256391727Y-101291727D01*
X256391727Y-98491727D02*
X256231347Y-98491727D01*
%TO.N,JST*%
X255641727Y-87781727D02*
X256691727Y-88831727D01*
X255641727Y-85906727D02*
X255641727Y-87781727D01*
%TO.N,r_diode*%
X251400000Y-134750000D02*
X251400000Y-134600000D01*
X249280000Y-136870000D02*
X251400000Y-134750000D01*
X249280000Y-134710000D02*
X249280000Y-136870000D01*
%TD*%
M02*
