%TF.GenerationSoftware,KiCad,Pcbnew,7.0.1-3b83917a11~171~ubuntu22.04.1*%
%TF.CreationDate,2023-03-24T21:38:12-04:00*%
%TF.ProjectId,whisper,77686973-7065-4722-9e6b-696361645f70,v1.0.0*%
%TF.SameCoordinates,Original*%
%TF.FileFunction,Paste,Top*%
%TF.FilePolarity,Positive*%
%FSLAX46Y46*%
G04 Gerber Fmt 4.6, Leading zero omitted, Abs format (unit mm)*
G04 Created by KiCad (PCBNEW 7.0.1-3b83917a11~171~ubuntu22.04.1) date 2023-03-24 21:38:12*
%MOMM*%
%LPD*%
G01*
G04 APERTURE LIST*
G04 Aperture macros list*
%AMRotRect*
0 Rectangle, with rotation*
0 The origin of the aperture is its center*
0 $1 length*
0 $2 width*
0 $3 Rotation angle, in degrees counterclockwise*
0 Add horizontal line*
21,1,$1,$2,0,0,$3*%
G04 Aperture macros list end*
%ADD10R,0.900000X0.900000*%
%ADD11R,0.900000X1.250000*%
%ADD12RotRect,2.600000X2.600000X85.000000*%
%ADD13R,2.600000X2.600000*%
%ADD14R,0.900000X1.200000*%
%ADD15R,1.143000X0.635000*%
%ADD16RotRect,0.900000X1.200000X265.000000*%
%ADD17RotRect,2.600000X2.600000X80.000000*%
%ADD18RotRect,0.900000X1.200000X260.000000*%
%ADD19R,1.200000X0.900000*%
%ADD20RotRect,2.600000X2.600000X345.000000*%
%ADD21RotRect,0.900000X1.200000X165.000000*%
G04 APERTURE END LIST*
D10*
%TO.C,T1*%
X252691727Y-82731727D03*
X252691727Y-84931727D03*
X260091727Y-82731727D03*
X260091727Y-84931727D03*
D11*
X258641727Y-85906727D03*
X255641727Y-85906727D03*
X254141727Y-85906727D03*
%TD*%
D12*
%TO.C,S18*%
X217149804Y-151650613D03*
X218334783Y-163348404D03*
%TD*%
D13*
%TO.C,S12*%
X220666727Y-114631727D03*
X209116727Y-116831727D03*
%TD*%
D14*
%TO.C,D14*%
X219041727Y-90581727D03*
X215741727Y-90581727D03*
%TD*%
%TO.C,D12*%
X219041727Y-124581727D03*
X215741727Y-124581727D03*
%TD*%
%TO.C,D9*%
X201041727Y-114381727D03*
X197741727Y-114381727D03*
%TD*%
%TO.C,D16*%
X237041727Y-111831727D03*
X233741727Y-111831727D03*
%TD*%
D13*
%TO.C,S5*%
X166666727Y-87941727D03*
X155116727Y-90141727D03*
%TD*%
%TO.C,S2*%
X148666727Y-92191727D03*
X137116727Y-94391727D03*
%TD*%
D14*
%TO.C,D8*%
X183041727Y-85141727D03*
X179741727Y-85141727D03*
%TD*%
D13*
%TO.C,S7*%
X184666727Y-92191727D03*
X173116727Y-94391727D03*
%TD*%
D14*
%TO.C,D2*%
X147041727Y-102141727D03*
X143741727Y-102141727D03*
%TD*%
D13*
%TO.C,S17*%
X238666727Y-84881727D03*
X227116727Y-87081727D03*
%TD*%
D15*
%TO.C,J5*%
X255391727Y-99331347D03*
X255391727Y-100332107D03*
%TD*%
D14*
%TO.C,D10*%
X201041727Y-97381727D03*
X197741727Y-97381727D03*
%TD*%
D13*
%TO.C,S10*%
X202666727Y-87431727D03*
X191116727Y-89631727D03*
%TD*%
%TO.C,S16*%
X238666727Y-101881727D03*
X227116727Y-104081727D03*
%TD*%
D15*
%TO.C,J1*%
X259391727Y-99331347D03*
X259391727Y-100332107D03*
%TD*%
D14*
%TO.C,D6*%
X183041727Y-119141727D03*
X179741727Y-119141727D03*
%TD*%
%TO.C,D7*%
X183041727Y-102141727D03*
X179741727Y-102141727D03*
%TD*%
%TO.C,D15*%
X237041727Y-128831727D03*
X233741727Y-128831727D03*
%TD*%
%TO.C,D3*%
X165041727Y-131891727D03*
X161741727Y-131891727D03*
%TD*%
%TO.C,D1*%
X147041727Y-119141727D03*
X143741727Y-119141727D03*
%TD*%
%TO.C,D5*%
X165041727Y-97891727D03*
X161741727Y-97891727D03*
%TD*%
D13*
%TO.C,S15*%
X238666727Y-118881727D03*
X227116727Y-121081727D03*
%TD*%
D14*
%TO.C,D13*%
X219041727Y-107581727D03*
X215741727Y-107581727D03*
%TD*%
D13*
%TO.C,S9*%
X202666727Y-104431727D03*
X191116727Y-106631727D03*
%TD*%
%TO.C,S8*%
X184666727Y-75191727D03*
X173116727Y-77391727D03*
%TD*%
D15*
%TO.C,J3*%
X257391727Y-99331347D03*
X257391727Y-100332107D03*
%TD*%
D13*
%TO.C,S14*%
X220666727Y-80631727D03*
X209116727Y-82831727D03*
%TD*%
D14*
%TO.C,D4*%
X165041727Y-114891727D03*
X161741727Y-114891727D03*
%TD*%
D16*
%TO.C,D18*%
X226920313Y-154136629D03*
X226632699Y-157424071D03*
%TD*%
D15*
%TO.C,J7*%
X253391727Y-99331347D03*
X253391727Y-100332107D03*
%TD*%
D17*
%TO.C,S19*%
X236108273Y-153622993D03*
X236269213Y-165379548D03*
%TD*%
D18*
%TO.C,D19*%
X245624931Y-156951105D03*
X245051893Y-160200971D03*
%TD*%
D19*
%TO.C,D21*%
X249280000Y-131410000D03*
X249280000Y-134710000D03*
%TD*%
D14*
%TO.C,D17*%
X237041727Y-94831727D03*
X233741727Y-94831727D03*
%TD*%
D13*
%TO.C,S11*%
X202666727Y-70431727D03*
X191116727Y-72631727D03*
%TD*%
%TO.C,S1*%
X148666727Y-109191727D03*
X137116727Y-111391727D03*
%TD*%
%TO.C,S4*%
X166666727Y-104941727D03*
X155116727Y-107141727D03*
%TD*%
D20*
%TO.C,S20*%
X263540095Y-162066481D03*
X251814250Y-161202158D03*
%TD*%
D13*
%TO.C,S3*%
X166666727Y-121941727D03*
X155116727Y-124141727D03*
%TD*%
%TO.C,S13*%
X220666727Y-97631727D03*
X209116727Y-99831727D03*
%TD*%
D14*
%TO.C,D11*%
X201041727Y-80381727D03*
X197741727Y-80381727D03*
%TD*%
D21*
%TO.C,D20*%
X259395217Y-171256861D03*
X256207661Y-170402759D03*
%TD*%
D13*
%TO.C,S6*%
X184666727Y-109191727D03*
X173116727Y-111391727D03*
%TD*%
M02*
