M48
; DRILL file {KiCad 7.0.1-3b83917a11~171~ubuntu22.04.1} date Fri 24 Mar 2023 09:38:09 PM
; FORMAT={-:-/ absolute / inch / decimal}
; #@! TF.CreationDate,2023-03-24T21:38:09-04:00
; #@! TF.GenerationSoftware,Kicad,Pcbnew,7.0.1-3b83917a11~171~ubuntu22.04.1
; #@! TF.FileFunction,Plated,1,2,PTH
FMAT,2
INCH
; #@! TA.AperFunction,Plated,PTH,ComponentDrill
T1C0.0118
; #@! TA.AperFunction,Plated,PTH,ViaDrill
T2C0.0157
; #@! TA.AperFunction,Plated,PTH,ComponentDrill
T3C0.0295
; #@! TA.AperFunction,Plated,PTH,ComponentDrill
T4C0.0390
; #@! TA.AperFunction,Plated,PTH,ComponentDrill
T5C0.0394
; #@! TA.AperFunction,Plated,PTH,ComponentDrill
T6C0.0430
; #@! TA.AperFunction,Plated,PTH,ComponentDrill
T7C0.0512
; #@! TA.AperFunction,Plated,PTH,ComponentDrill
T8C0.0591
%
G90
G05
T1
X5.3953Y-3.7146
X5.3953Y-4.3839
X5.8501Y-3.6296
X5.8501Y-4.2989
X6.104Y-3.5473
X6.104Y-4.2166
X6.104Y-4.8859
X6.5587Y-3.4623
X6.5587Y-4.1316
X6.5587Y-4.8009
X6.8127Y-3.0453
X6.8127Y-3.7146
X6.8127Y-4.3839
X7.2674Y-2.9603
X7.2674Y-3.6296
X7.2674Y-4.2989
X7.5213Y-2.8579
X7.5213Y-3.5272
X7.5213Y-4.1965
X7.9761Y-2.7729
X7.9761Y-3.4422
X7.9761Y-4.1115
X8.23Y-3.2595
X8.23Y-3.9288
X8.23Y-4.5981
X8.5489Y-5.9734
X8.594Y-6.4338
X8.6847Y-3.1745
X8.6847Y-3.8438
X8.6847Y-4.5131
X8.9387Y-3.4268
X8.9387Y-4.0961
X8.9387Y-4.7654
X9.2951Y-6.0511
X9.2999Y-6.5136
X9.3934Y-3.3418
X9.3934Y-4.0111
X9.3934Y-4.6804
X9.9115Y-6.3443
X10.3727Y-6.3798
T2
X7.9862Y-5.2677
X7.9862Y-5.3346
X7.9862Y-5.3937
X8.6575Y-5.3248
X9.251Y-5.31
X9.6467Y-5.1634
X9.9741Y-3.8028
X9.9761Y-3.9505
X10.0548Y-3.9505
X10.0922Y-4.0194
X10.0942Y-3.8383
X10.0942Y-3.8776
X10.1335Y-3.9505
X10.2047Y-4.7736
X10.2103Y-3.7753
X10.2123Y-3.9505
X10.2402Y-4.7992
T3
X10.0174Y-3.4973
X10.106Y-3.4973
X10.1946Y-3.4973
T4
X5.5741Y-4.0213
X5.5741Y-4.6906
X5.8741Y-4.0213
X5.8741Y-4.6906
X6.2827Y-3.854
X6.2827Y-4.5233
X6.2827Y-5.1926
X6.5827Y-3.854
X6.5827Y-4.5233
X6.5827Y-5.1926
X6.9914Y-3.352
X6.9914Y-4.0213
X6.9914Y-4.6906
X7.2914Y-3.352
X7.2914Y-4.0213
X7.2914Y-4.6906
X7.7001Y-3.1646
X7.7001Y-3.8339
X7.7001Y-4.5032
X8.0001Y-3.1646
X8.0001Y-3.8339
X8.0001Y-4.5032
X8.4087Y-3.5662
X8.4087Y-4.2355
X8.4087Y-4.9048
X8.7087Y-3.5662
X8.7087Y-4.2355
X8.7087Y-4.9048
X8.9151Y-6.2825
X8.9413Y-5.9837
X9.1174Y-3.7335
X9.1174Y-4.4028
X9.1174Y-5.0721
X9.4174Y-3.7335
X9.4174Y-4.4028
X9.4174Y-5.0721
X9.6329Y-6.3909
X9.685Y-6.0954
X9.8142Y-5.0886
X9.8142Y-5.3886
X10.0048Y-6.6868
X10.2946Y-6.7644
T5
X9.8973Y-4.6355
X9.8976Y-5.2992
X9.8976Y-5.4961
X9.9973Y-4.6355
X10.0973Y-4.6355
X10.1973Y-4.6355
X10.2973Y-4.6355
X10.4685Y-5.2992
X10.4685Y-5.3976
X10.4685Y-5.4961
T6
X9.7969Y-3.3911
X9.7969Y-3.4911
X9.7969Y-3.5911
X9.7969Y-3.6911
X9.7969Y-3.7911
X9.7969Y-3.8911
X9.7969Y-3.9911
X9.7969Y-4.0911
X9.7969Y-4.1911
X9.7969Y-4.2911
X9.7969Y-4.3911
X9.7969Y-4.4911
X10.3969Y-3.3911
X10.3969Y-3.4911
X10.3969Y-3.5911
X10.3969Y-3.6911
X10.3969Y-3.7911
X10.3969Y-3.8911
X10.3969Y-3.9911
X10.3969Y-4.0911
X10.3969Y-4.1911
X10.3969Y-4.2911
X10.3969Y-4.3911
X10.3969Y-4.4911
T7
X10.0453Y-5.0197
X10.3012Y-5.0197
T8
G00X10.1988Y-5.1772
M15
G01X10.1476Y-5.1772
M16
G05
G00X10.1988Y-5.6181
M15
G01X10.1476Y-5.6181
M16
G05
T0
M30
