%TF.GenerationSoftware,KiCad,Pcbnew,7.0.1-3b83917a11~171~ubuntu22.04.1*%
%TF.CreationDate,2023-03-24T21:38:12-04:00*%
%TF.ProjectId,whisper,77686973-7065-4722-9e6b-696361645f70,v1.0.0*%
%TF.SameCoordinates,Original*%
%TF.FileFunction,Soldermask,Top*%
%TF.FilePolarity,Negative*%
%FSLAX46Y46*%
G04 Gerber Fmt 4.6, Leading zero omitted, Abs format (unit mm)*
G04 Created by KiCad (PCBNEW 7.0.1-3b83917a11~171~ubuntu22.04.1) date 2023-03-24 21:38:12*
%MOMM*%
%LPD*%
G01*
G04 APERTURE LIST*
G04 Aperture macros list*
%AMRoundRect*
0 Rectangle with rounded corners*
0 $1 Rounding radius*
0 $2 $3 $4 $5 $6 $7 $8 $9 X,Y pos of 4 corners*
0 Add a 4 corners polygon primitive as box body*
4,1,4,$2,$3,$4,$5,$6,$7,$8,$9,$2,$3,0*
0 Add four circle primitives for the rounded corners*
1,1,$1+$1,$2,$3*
1,1,$1+$1,$4,$5*
1,1,$1+$1,$6,$7*
1,1,$1+$1,$8,$9*
0 Add four rect primitives between the rounded corners*
20,1,$1+$1,$2,$3,$4,$5,0*
20,1,$1+$1,$4,$5,$6,$7,0*
20,1,$1+$1,$6,$7,$8,$9,0*
20,1,$1+$1,$8,$9,$2,$3,0*%
G04 Aperture macros list end*
%ADD10RoundRect,0.050000X-0.450000X-0.450000X0.450000X-0.450000X0.450000X0.450000X-0.450000X0.450000X0*%
%ADD11C,1.100000*%
%ADD12RoundRect,0.050000X-0.450000X-0.625000X0.450000X-0.625000X0.450000X0.625000X-0.450000X0.625000X0*%
%ADD13C,1.801800*%
%ADD14C,3.100000*%
%ADD15C,3.529000*%
%ADD16RoundRect,0.050000X1.181751X-1.408356X1.408356X1.181751X-1.181751X1.408356X-1.408356X-1.181751X0*%
%ADD17RoundRect,0.050000X-1.300000X-1.300000X1.300000X-1.300000X1.300000X1.300000X-1.300000X1.300000X0*%
%ADD18RoundRect,0.050000X0.889000X0.889000X-0.889000X0.889000X-0.889000X-0.889000X0.889000X-0.889000X0*%
%ADD19RoundRect,0.050000X0.450000X0.600000X-0.450000X0.600000X-0.450000X-0.600000X0.450000X-0.600000X0*%
%ADD20C,2.005000*%
%ADD21C,2.300000*%
%ADD22RoundRect,0.050000X-0.571500X0.317500X-0.571500X-0.317500X0.571500X-0.317500X0.571500X0.317500X0*%
%ADD23C,1.800000*%
%ADD24O,1.800000X1.800000*%
%ADD25RoundRect,0.050000X-0.876300X0.876300X-0.876300X-0.876300X0.876300X-0.876300X0.876300X0.876300X0*%
%ADD26C,1.852600*%
%ADD27RoundRect,0.050000X-0.808136X0.963099X-0.963099X-0.808136X0.808136X-0.963099X0.963099X0.808136X0*%
%ADD28RoundRect,0.050000X-0.558497X0.500581X-0.636937X-0.395994X0.558497X-0.500581X0.636937X0.395994X0*%
%ADD29RoundRect,0.050000X1.054507X-1.505993X1.505993X1.054507X-1.054507X1.505993X-1.505993X-1.054507X0*%
%ADD30RoundRect,0.050000X-0.721121X1.029867X-1.029867X-0.721121X0.721121X-1.029867X1.029867X0.721121X0*%
%ADD31RoundRect,0.050000X-0.512743X0.547352X-0.669026X-0.338975X0.512743X-0.547352X0.669026X0.338975X0*%
%ADD32RoundRect,0.050000X-0.889000X0.889000X-0.889000X-0.889000X0.889000X-0.889000X0.889000X0.889000X0*%
%ADD33RoundRect,0.050000X-0.600000X0.450000X-0.600000X-0.450000X0.600000X-0.450000X0.600000X0.450000X0*%
%ADD34C,2.100000*%
%ADD35O,1.300000X1.800000*%
%ADD36RoundRect,0.050000X-0.600000X-0.850000X0.600000X-0.850000X0.600000X0.850000X-0.600000X0.850000X0*%
%ADD37RoundRect,0.050000X1.600000X1.000000X-1.600000X1.000000X-1.600000X-1.000000X1.600000X-1.000000X0*%
%ADD38C,1.600000*%
%ADD39RoundRect,0.050000X1.000000X1.000000X-1.000000X1.000000X-1.000000X-1.000000X1.000000X-1.000000X0*%
%ADD40RoundRect,0.050000X-1.592168X-0.919239X0.919239X-1.592168X1.592168X0.919239X-0.919239X1.592168X0*%
%ADD41RoundRect,0.050000X1.088798X0.628618X-0.628618X1.088798X-1.088798X-0.628618X0.628618X-1.088798X0*%
%ADD42RoundRect,0.050000X0.589958X0.463087X-0.279375X0.696024X-0.589958X-0.463087X0.279375X-0.696024X0*%
G04 APERTURE END LIST*
D10*
%TO.C,T1*%
X252691727Y-82731727D03*
X252691727Y-84931727D03*
D11*
X254891727Y-83831727D03*
X257891727Y-83831727D03*
D10*
X260091727Y-82731727D03*
X260091727Y-84931727D03*
D12*
X258641727Y-85906727D03*
X255641727Y-85906727D03*
X254141727Y-85906727D03*
%TD*%
D13*
%TO.C,S18*%
X222312370Y-160910798D03*
D14*
X218620218Y-160085866D03*
X216864369Y-154913150D03*
X216864369Y-154913150D03*
D15*
X222791727Y-155431727D03*
D14*
X219491776Y-150123919D03*
D13*
X223271084Y-149952656D03*
D16*
X217149804Y-151650613D03*
X218334783Y-163348404D03*
%TD*%
D13*
%TO.C,S12*%
X211891727Y-120581727D03*
D14*
X212391727Y-116831727D03*
X217391727Y-114631727D03*
X217391727Y-114631727D03*
D15*
X217391727Y-120581727D03*
D14*
X222391727Y-116831727D03*
D13*
X222891727Y-120581727D03*
D17*
X220666727Y-114631727D03*
X209116727Y-116831727D03*
%TD*%
D18*
%TO.C,D14*%
X221201727Y-90581727D03*
D19*
X219041727Y-90581727D03*
X215741727Y-90581727D03*
D20*
X213581727Y-90581727D03*
%TD*%
D18*
%TO.C,D12*%
X221201727Y-124581727D03*
D19*
X219041727Y-124581727D03*
X215741727Y-124581727D03*
D20*
X213581727Y-124581727D03*
%TD*%
D18*
%TO.C,D9*%
X203201727Y-114381727D03*
D19*
X201041727Y-114381727D03*
X197741727Y-114381727D03*
D20*
X195581727Y-114381727D03*
%TD*%
D18*
%TO.C,D16*%
X239201727Y-111831727D03*
D19*
X237041727Y-111831727D03*
X233741727Y-111831727D03*
D20*
X231581727Y-111831727D03*
%TD*%
D13*
%TO.C,S5*%
X157891727Y-93891727D03*
D14*
X158391727Y-90141727D03*
X163391727Y-87941727D03*
X163391727Y-87941727D03*
D15*
X163391727Y-93891727D03*
D14*
X168391727Y-90141727D03*
D13*
X168891727Y-93891727D03*
D17*
X166666727Y-87941727D03*
X155116727Y-90141727D03*
%TD*%
D13*
%TO.C,S2*%
X139891727Y-98141727D03*
D14*
X140391727Y-94391727D03*
X145391727Y-92191727D03*
X145391727Y-92191727D03*
D15*
X145391727Y-98141727D03*
D14*
X150391727Y-94391727D03*
D13*
X150891727Y-98141727D03*
D17*
X148666727Y-92191727D03*
X137116727Y-94391727D03*
%TD*%
D21*
%TO.C,REF\u002A\u002A*%
X253100000Y-154850000D03*
%TD*%
D18*
%TO.C,D8*%
X185201727Y-85141727D03*
D19*
X183041727Y-85141727D03*
X179741727Y-85141727D03*
D20*
X177581727Y-85141727D03*
%TD*%
D13*
%TO.C,S7*%
X175891727Y-98141727D03*
D14*
X176391727Y-94391727D03*
X181391727Y-92191727D03*
X181391727Y-92191727D03*
D15*
X181391727Y-98141727D03*
D14*
X186391727Y-94391727D03*
D13*
X186891727Y-98141727D03*
D17*
X184666727Y-92191727D03*
X173116727Y-94391727D03*
%TD*%
D18*
%TO.C,D2*%
X149201727Y-102141727D03*
D19*
X147041727Y-102141727D03*
X143741727Y-102141727D03*
D20*
X141581727Y-102141727D03*
%TD*%
D13*
%TO.C,S17*%
X229891727Y-90831727D03*
D14*
X230391727Y-87081727D03*
X235391727Y-84881727D03*
X235391727Y-84881727D03*
D15*
X235391727Y-90831727D03*
D14*
X240391727Y-87081727D03*
D13*
X240891727Y-90831727D03*
D17*
X238666727Y-84881727D03*
X227116727Y-87081727D03*
%TD*%
D22*
%TO.C,J5*%
X255391727Y-99331347D03*
X255391727Y-100332107D03*
%TD*%
D18*
%TO.C,D10*%
X203201727Y-97381727D03*
D19*
X201041727Y-97381727D03*
X197741727Y-97381727D03*
D20*
X195581727Y-97381727D03*
%TD*%
D13*
%TO.C,S10*%
X193891727Y-93381727D03*
D14*
X194391727Y-89631727D03*
X199391727Y-87431727D03*
X199391727Y-87431727D03*
D15*
X199391727Y-93381727D03*
D14*
X204391727Y-89631727D03*
D13*
X204891727Y-93381727D03*
D17*
X202666727Y-87431727D03*
X191116727Y-89631727D03*
%TD*%
D13*
%TO.C,S16*%
X229891727Y-107831727D03*
D14*
X230391727Y-104081727D03*
X235391727Y-101881727D03*
X235391727Y-101881727D03*
D15*
X235391727Y-107831727D03*
D14*
X240391727Y-104081727D03*
D13*
X240891727Y-107831727D03*
D17*
X238666727Y-101881727D03*
X227116727Y-104081727D03*
%TD*%
D21*
%TO.C,REF\u002A\u002A*%
X226450000Y-92100000D03*
%TD*%
D22*
%TO.C,J1*%
X259391727Y-99331347D03*
X259391727Y-100332107D03*
%TD*%
D21*
%TO.C,REF\u002A\u002A*%
X154400000Y-117200000D03*
%TD*%
D18*
%TO.C,D6*%
X185201727Y-119141727D03*
D19*
X183041727Y-119141727D03*
X179741727Y-119141727D03*
D20*
X177581727Y-119141727D03*
%TD*%
D18*
%TO.C,D7*%
X185201727Y-102141727D03*
D19*
X183041727Y-102141727D03*
X179741727Y-102141727D03*
D20*
X177581727Y-102141727D03*
%TD*%
D18*
%TO.C,D15*%
X239201727Y-128831727D03*
D19*
X237041727Y-128831727D03*
X233741727Y-128831727D03*
D20*
X231581727Y-128831727D03*
%TD*%
D18*
%TO.C,D3*%
X167201727Y-131891727D03*
D19*
X165041727Y-131891727D03*
X161741727Y-131891727D03*
D20*
X159581727Y-131891727D03*
%TD*%
D18*
%TO.C,D1*%
X149201727Y-119141727D03*
D19*
X147041727Y-119141727D03*
X143741727Y-119141727D03*
D20*
X141581727Y-119141727D03*
%TD*%
D18*
%TO.C,D5*%
X167201727Y-97891727D03*
D19*
X165041727Y-97891727D03*
X161741727Y-97891727D03*
D20*
X159581727Y-97891727D03*
%TD*%
D13*
%TO.C,S15*%
X229891727Y-124831727D03*
D14*
X230391727Y-121081727D03*
X235391727Y-118881727D03*
X235391727Y-118881727D03*
D15*
X235391727Y-124831727D03*
D14*
X240391727Y-121081727D03*
D13*
X240891727Y-124831727D03*
D17*
X238666727Y-118881727D03*
X227116727Y-121081727D03*
%TD*%
D23*
%TO.C,REF\u002A*%
X251391727Y-117741727D03*
D24*
X253931727Y-117741727D03*
X256471727Y-117741727D03*
X259011727Y-117741727D03*
X261551727Y-117741727D03*
%TD*%
D18*
%TO.C,D13*%
X221201727Y-107581727D03*
D19*
X219041727Y-107581727D03*
X215741727Y-107581727D03*
D20*
X213581727Y-107581727D03*
%TD*%
D21*
%TO.C,REF\u002A\u002A*%
X172550000Y-87250000D03*
%TD*%
D13*
%TO.C,S9*%
X193891727Y-110381727D03*
D14*
X194391727Y-106631727D03*
X199391727Y-104431727D03*
X199391727Y-104431727D03*
D15*
X199391727Y-110381727D03*
D14*
X204391727Y-106631727D03*
D13*
X204891727Y-110381727D03*
D17*
X202666727Y-104431727D03*
X191116727Y-106631727D03*
%TD*%
D13*
%TO.C,S8*%
X175891727Y-81141727D03*
D14*
X176391727Y-77391727D03*
X181391727Y-75191727D03*
X181391727Y-75191727D03*
D15*
X181391727Y-81141727D03*
D14*
X186391727Y-77391727D03*
D13*
X186891727Y-81141727D03*
D17*
X184666727Y-75191727D03*
X173116727Y-77391727D03*
%TD*%
D22*
%TO.C,J3*%
X257391727Y-99331347D03*
X257391727Y-100332107D03*
%TD*%
D25*
%TO.C,MCU1*%
X264081727Y-86133727D03*
D26*
X264081727Y-88673727D03*
X264081727Y-91213727D03*
X264081727Y-93753727D03*
X264081727Y-96293727D03*
X264081727Y-98833727D03*
X264081727Y-101373727D03*
X264081727Y-103913727D03*
X264081727Y-106453727D03*
X264081727Y-108993727D03*
X264081727Y-111533727D03*
X264081727Y-114073727D03*
X248841727Y-86133727D03*
X248841727Y-88673727D03*
X248841727Y-91213727D03*
X248841727Y-93753727D03*
X248841727Y-96293727D03*
X248841727Y-98833727D03*
X248841727Y-101373727D03*
X248841727Y-103913727D03*
X248841727Y-106453727D03*
X248841727Y-108993727D03*
X248841727Y-111533727D03*
X248841727Y-114073727D03*
%TD*%
D13*
%TO.C,S14*%
X211891727Y-86581727D03*
D14*
X212391727Y-82831727D03*
X217391727Y-80631727D03*
X217391727Y-80631727D03*
D15*
X217391727Y-86581727D03*
D14*
X222391727Y-82831727D03*
D13*
X222891727Y-86581727D03*
D17*
X220666727Y-80631727D03*
X209116727Y-82831727D03*
%TD*%
D18*
%TO.C,D4*%
X167201727Y-114891727D03*
D19*
X165041727Y-114891727D03*
X161741727Y-114891727D03*
D20*
X159581727Y-114891727D03*
%TD*%
D27*
%TO.C,D18*%
X227108569Y-151984848D03*
D28*
X226920313Y-154136629D03*
X226632699Y-157424071D03*
D20*
X226444443Y-159575852D03*
%TD*%
D22*
%TO.C,J7*%
X253391727Y-99331347D03*
X253391727Y-100332107D03*
%TD*%
D13*
%TO.C,S19*%
X240444116Y-163297888D03*
D14*
X236837911Y-162154303D03*
X235539575Y-156848238D03*
X235539575Y-156848238D03*
D15*
X241399181Y-157881445D03*
D14*
X238574393Y-152306226D03*
D13*
X242354246Y-152465002D03*
D29*
X236108273Y-153622993D03*
X236269213Y-165379548D03*
%TD*%
D30*
%TO.C,D19*%
X246000012Y-154823920D03*
D31*
X245624931Y-156951105D03*
X245051893Y-160200971D03*
D20*
X244676812Y-162328156D03*
%TD*%
D32*
%TO.C,D21*%
X249280000Y-129250000D03*
D33*
X249280000Y-131410000D03*
X249280000Y-134710000D03*
D20*
X249280000Y-136870000D03*
%TD*%
D21*
%TO.C,REF\u002A\u002A*%
X244500000Y-116150000D03*
%TD*%
D18*
%TO.C,D17*%
X239201727Y-94831727D03*
D19*
X237041727Y-94831727D03*
X233741727Y-94831727D03*
D20*
X231581727Y-94831727D03*
%TD*%
D34*
%TO.C,RSW1*%
X255150000Y-127500000D03*
X261650000Y-127500000D03*
%TD*%
D35*
%TO.C,JST REV1*%
X254441727Y-88831727D03*
D36*
X256691727Y-88831727D03*
D35*
X258941727Y-88831727D03*
%TD*%
D37*
%TO.C,ROT1*%
X258400000Y-142700000D03*
X258400000Y-131500000D03*
D38*
X251400000Y-139600000D03*
X251400000Y-134600000D03*
D39*
X265900000Y-139600000D03*
D34*
X265900000Y-134600000D03*
X265900000Y-137100000D03*
%TD*%
D13*
%TO.C,S11*%
X193891727Y-76381727D03*
D14*
X194391727Y-72631727D03*
X199391727Y-70431727D03*
X199391727Y-70431727D03*
D15*
X199391727Y-76381727D03*
D14*
X204391727Y-72631727D03*
D13*
X204891727Y-76381727D03*
D17*
X202666727Y-70431727D03*
X191116727Y-72631727D03*
%TD*%
D13*
%TO.C,S1*%
X139891727Y-115141727D03*
D14*
X140391727Y-111391727D03*
X145391727Y-109191727D03*
X145391727Y-109191727D03*
D15*
X145391727Y-115141727D03*
D14*
X150391727Y-111391727D03*
D13*
X150891727Y-115141727D03*
D17*
X148666727Y-109191727D03*
X137116727Y-111391727D03*
%TD*%
D13*
%TO.C,S4*%
X157891727Y-110891727D03*
D14*
X158391727Y-107141727D03*
X163391727Y-104941727D03*
X163391727Y-104941727D03*
D15*
X163391727Y-110891727D03*
D14*
X168391727Y-107141727D03*
D13*
X168891727Y-110891727D03*
D17*
X166666727Y-104941727D03*
X155116727Y-107141727D03*
%TD*%
D13*
%TO.C,S20*%
X253524123Y-165542602D03*
D14*
X254977657Y-162049790D03*
X260376688Y-161218848D03*
X260376688Y-161218848D03*
D15*
X258836715Y-166966107D03*
D14*
X264636916Y-164637980D03*
D13*
X264149307Y-168389612D03*
D40*
X263540095Y-162066481D03*
X251814250Y-161202158D03*
%TD*%
D13*
%TO.C,S3*%
X157891727Y-127891727D03*
D14*
X158391727Y-124141727D03*
X163391727Y-121941727D03*
X163391727Y-121941727D03*
D15*
X163391727Y-127891727D03*
D14*
X168391727Y-124141727D03*
D13*
X168891727Y-127891727D03*
D17*
X166666727Y-121941727D03*
X155116727Y-124141727D03*
%TD*%
D13*
%TO.C,S13*%
X211891727Y-103581727D03*
D14*
X212391727Y-99831727D03*
X217391727Y-97631727D03*
X217391727Y-97631727D03*
D15*
X217391727Y-103581727D03*
D14*
X222391727Y-99831727D03*
D13*
X222891727Y-103581727D03*
D17*
X220666727Y-97631727D03*
X209116727Y-99831727D03*
%TD*%
D18*
%TO.C,D11*%
X203201727Y-80381727D03*
D19*
X201041727Y-80381727D03*
X197741727Y-80381727D03*
D20*
X195581727Y-80381727D03*
%TD*%
D41*
%TO.C,D20*%
X261481616Y-171815911D03*
D42*
X259395217Y-171256861D03*
X256207661Y-170402759D03*
D20*
X254121262Y-169843709D03*
%TD*%
D13*
%TO.C,S6*%
X175891727Y-115141727D03*
D14*
X176391727Y-111391727D03*
X181391727Y-109191727D03*
X181391727Y-109191727D03*
D15*
X181391727Y-115141727D03*
D14*
X186391727Y-111391727D03*
D13*
X186891727Y-115141727D03*
D17*
X184666727Y-109191727D03*
X173116727Y-111391727D03*
%TD*%
M02*
