M48
; DRILL file {KiCad 7.0.1-3b83917a11~171~ubuntu22.04.1} date Fri 24 Mar 2023 09:38:09 PM
; FORMAT={-:-/ absolute / inch / decimal}
; #@! TF.CreationDate,2023-03-24T21:38:09-04:00
; #@! TF.GenerationSoftware,Kicad,Pcbnew,7.0.1-3b83917a11~171~ubuntu22.04.1
; #@! TF.FileFunction,NonPlated,1,2,NPTH
FMAT,2
INCH
; #@! TA.AperFunction,NonPlated,NPTH,ComponentDrill
T1C0.0354
; #@! TA.AperFunction,NonPlated,NPTH,ComponentDrill
T2C0.0670
; #@! TA.AperFunction,NonPlated,NPTH,ComponentDrill
T3C0.0866
; #@! TA.AperFunction,NonPlated,NPTH,ComponentDrill
T4C0.1181
; #@! TA.AperFunction,NonPlated,NPTH,ComponentDrill
T5C0.1350
%
G90
G05
T1
X10.0351Y-3.3005
X10.1532Y-3.3005
T2
X5.5075Y-3.8638
X5.5075Y-4.5331
X5.9406Y-3.8638
X5.9406Y-4.5331
X6.2162Y-3.6965
X6.2162Y-4.3658
X6.2162Y-5.0351
X6.6493Y-3.6965
X6.6493Y-4.3658
X6.6493Y-5.0351
X6.9249Y-3.1946
X6.9249Y-3.8638
X6.9249Y-4.5331
X7.3579Y-3.1946
X7.3579Y-3.8638
X7.3579Y-4.5331
X7.6335Y-3.0072
X7.6335Y-3.6764
X7.6335Y-4.3457
X8.0666Y-3.0072
X8.0666Y-3.6764
X8.0666Y-4.3457
X8.3422Y-3.4087
X8.3422Y-4.078
X8.3422Y-4.7473
X8.7525Y-6.3351
X8.7753Y-3.4087
X8.7753Y-4.078
X8.7753Y-4.7473
X8.7902Y-5.9036
X9.0509Y-3.5761
X9.0509Y-4.2453
X9.0509Y-4.9146
X9.4663Y-6.4291
X9.4839Y-3.5761
X9.4839Y-4.2453
X9.4839Y-4.9146
X9.5415Y-6.0026
X9.9813Y-6.5174
X10.3996Y-6.6295
T3
X6.0787Y-4.6142
X6.7933Y-3.435
X8.9154Y-3.626
X9.626Y-4.5728
X9.9646Y-6.0965
T4
X5.5272Y-3.7162
X5.5272Y-4.3855
X5.7241Y-3.6296
X5.7241Y-3.6296
X5.7241Y-4.2989
X5.7241Y-4.2989
X5.9209Y-3.7162
X5.9209Y-4.3855
X6.2359Y-3.5489
X6.2359Y-4.2182
X6.2359Y-4.8875
X6.4327Y-3.4623
X6.4327Y-3.4623
X6.4327Y-4.1316
X6.4327Y-4.1316
X6.4327Y-4.8009
X6.4327Y-4.8009
X6.6296Y-3.5489
X6.6296Y-4.2182
X6.6296Y-4.8875
X6.9446Y-3.0469
X6.9446Y-3.7162
X6.9446Y-4.3855
X7.1414Y-2.9603
X7.1414Y-2.9603
X7.1414Y-3.6296
X7.1414Y-3.6296
X7.1414Y-4.2989
X7.1414Y-4.2989
X7.3383Y-3.0469
X7.3383Y-3.7162
X7.3383Y-4.3855
X7.6532Y-2.8595
X7.6532Y-3.5288
X7.6532Y-4.1981
X7.8501Y-2.7729
X7.8501Y-2.7729
X7.8501Y-3.4422
X7.8501Y-3.4422
X7.8501Y-4.1115
X7.8501Y-4.1115
X8.0469Y-2.8595
X8.0469Y-3.5288
X8.0469Y-4.1981
X8.3619Y-3.2611
X8.3619Y-3.9304
X8.3619Y-4.5997
X8.538Y-6.0989
X8.538Y-6.0989
X8.5587Y-3.1745
X8.5587Y-3.1745
X8.5587Y-3.8438
X8.5587Y-3.8438
X8.5587Y-4.5131
X8.5587Y-4.5131
X8.6071Y-6.3026
X8.6414Y-5.9104
X8.7556Y-3.2611
X8.7556Y-3.9304
X8.7556Y-4.5997
X9.0705Y-3.4284
X9.0705Y-4.0977
X9.0705Y-4.767
X9.2674Y-3.3418
X9.2674Y-3.3418
X9.2674Y-4.0111
X9.2674Y-4.0111
X9.2674Y-4.6804
X9.2674Y-4.6804
X9.2732Y-6.1751
X9.2732Y-6.1751
X9.3243Y-6.384
X9.3927Y-5.9963
X9.4642Y-3.4284
X9.4642Y-4.0977
X9.4642Y-4.767
X10.0385Y-6.3799
X10.2511Y-6.3472
X10.2511Y-6.3472
X10.4188Y-6.4818
T5
X5.7241Y-3.8638
X5.7241Y-4.5331
X6.4327Y-3.6965
X6.4327Y-4.3658
X6.4327Y-5.0351
X7.1414Y-3.1946
X7.1414Y-3.8638
X7.1414Y-4.5331
X7.8501Y-3.0072
X7.8501Y-3.6764
X7.8501Y-4.3457
X8.5587Y-3.4087
X8.5587Y-4.078
X8.5587Y-4.7473
X8.7713Y-6.1194
X9.2674Y-3.5761
X9.2674Y-4.2453
X9.2674Y-4.9146
X9.5039Y-6.2158
X10.1904Y-6.5735
T0
M30
