0
SECTION
2
HEADER
9
$INSUNITS
70
4
0
ENDSEC
0
SECTION
2
TABLES
0
TABLE
2
LTYPE
0
LTYPE
72
65
70
64
2
CONTINUOUS
3
______
73
0
40
0
0
ENDTAB
0
TABLE
2
LAYER
0
ENDTAB
0
ENDSEC
0
SECTION
2
ENTITIES
0
LINE
8
0
10
127.3
20
54.41
11
127.3
21
-17.6156276
0
LINE
8
0
10
127.2417313
20
-17.8498784
11
107.5926089
21
-54.9026086
0
LINE
8
0
10
106.9161418
20
-55.1098316
11
89.9634877
21
-46.0959456
0
LINE
8
0
10
89.8535535
20
-46.0532453
11
71.0606779
21
-41.2091597
0
LINE
8
0
10
70.9767021
20
-41.1950033
11
51.6027014
21
-39.6077849
0
LINE
8
0
10
51.2440173
20
-39.4101068
11
29.6000196
21
-10.6493476
0
LINE
8
0
10
29.2005097
20
-10.45
11
-9.95
21
-10.45
0
LINE
8
0
10
-10.45
20
-9.95
11
-10.45
21
47.95
0
LINE
8
0
10
-9.95
20
48.45
11
27.05
21
48.45
0
LINE
8
0
10
27.55
20
48.95
11
27.55
21
59.85
0
LINE
8
0
10
28.05
20
60.35
11
46.05
21
60.35
0
LINE
8
0
10
46.55
20
60.85
11
46.55
21
64.61
0
LINE
8
0
10
47.05
20
65.11
11
66.95
21
65.11
0
LINE
8
0
10
67.45
20
64.61
11
67.45
21
55.41
0
LINE
8
0
10
67.95
20
54.91
11
126.8
21
54.91
0
ARC
8
0
10
126.8
20
-17.6156276
40
0.5
50
332.0629227
51
0
0
ARC
8
0
10
107.1508776
20
-54.6683578
40
0.5
50
241.9999983
51
332.0629227
0
ARC
8
0
10
89.7287519
20
-46.5374194
40
0.5
50
61.9999983
51
75.5459671
0
ARC
8
0
10
70.9358763
20
-41.6933338
40
0.5
50
75.5459671
51
85.3164938
0
ARC
8
0
10
51.6435272
20
-39.1094544
40
0.5
50
216.9634021
51
265.3164938
0
ARC
8
0
10
29.2005097
20
-10.95
40
0.5
50
36.9634021
51
90
0
ARC
8
0
10
-9.95
20
-9.95
40
0.5
50
180
51
270
0
ARC
8
0
10
-9.95
20
47.95
40
0.5
50
90
51
180
0
ARC
8
0
10
27.05
20
48.95
40
0.5
50
270
51
0
0
ARC
8
0
10
28.05
20
59.85
40
0.5
50
90
51
180
0
ARC
8
0
10
46.05
20
60.85
40
0.5
50
270
51
0
0
ARC
8
0
10
47.05
20
64.61
40
0.5
50
90
51
180
0
ARC
8
0
10
66.95
20
64.61
40
0.5
50
0
51
90
0
ARC
8
0
10
67.95
20
55.41
40
0.5
50
180
51
270
0
ARC
8
0
10
126.8
20
54.41
40
0.5
50
0
51
90
0
ENDSEC
0
EOF