0
SECTION
2
HEADER
9
$INSUNITS
70
4
0
ENDSEC
0
SECTION
2
TABLES
0
TABLE
2
LTYPE
0
LTYPE
72
65
70
64
2
CONTINUOUS
3
______
73
0
40
0
0
ENDTAB
0
TABLE
2
LAYER
0
ENDTAB
0
ENDSEC
0
SECTION
2
ENTITIES
0
LINE
8
0
10
127.3
20
54.41
11
127.3
21
-17.6156276
0
LINE
8
0
10
127.2417313
20
-17.8498784
11
107.5926089
21
-54.9026086
0
LINE
8
0
10
106.9161418
20
-55.1098316
11
89.9634877
21
-46.0959456
0
LINE
8
0
10
89.8535535
20
-46.0532453
11
71.0606779
21
-41.2091597
0
LINE
8
0
10
70.9767021
20
-41.1950033
11
51.6027014
21
-39.6077849
0
LINE
8
0
10
51.2440173
20
-39.4101068
11
29.6000196
21
-10.6493476
0
LINE
8
0
10
29.2005097
20
-10.45
11
-9.95
21
-10.45
0
LINE
8
0
10
-10.45
20
-9.95
11
-10.45
21
47.95
0
LINE
8
0
10
-9.95
20
48.45
11
27.05
21
48.45
0
LINE
8
0
10
27.55
20
48.95
11
27.55
21
59.85
0
LINE
8
0
10
28.05
20
60.35
11
46.05
21
60.35
0
LINE
8
0
10
46.55
20
60.85
11
46.55
21
64.61
0
LINE
8
0
10
47.05
20
65.11
11
66.95
21
65.11
0
LINE
8
0
10
67.45
20
64.61
11
67.45
21
55.41
0
LINE
8
0
10
67.95
20
54.91
11
126.8
21
54.91
0
ARC
8
0
10
126.8
20
-17.6156276
40
0.5
50
332.0629227
51
0
0
ARC
8
0
10
107.1508776
20
-54.6683578
40
0.5
50
241.9999983
51
332.0629227
0
ARC
8
0
10
89.7287519
20
-46.5374194
40
0.5
50
61.9999983
51
75.5459671
0
ARC
8
0
10
70.9358763
20
-41.6933338
40
0.5
50
75.5459671
51
85.3164938
0
ARC
8
0
10
51.6435272
20
-39.1094544
40
0.5
50
216.9634021
51
265.3164938
0
ARC
8
0
10
29.2005097
20
-10.95
40
0.5
50
36.9634021
51
90
0
ARC
8
0
10
-9.95
20
-9.95
40
0.5
50
180
51
270
0
ARC
8
0
10
-9.95
20
47.95
40
0.5
50
90
51
180
0
ARC
8
0
10
27.05
20
48.95
40
0.5
50
270
51
0
0
ARC
8
0
10
28.05
20
59.85
40
0.5
50
90
51
180
0
ARC
8
0
10
46.05
20
60.85
40
0.5
50
270
51
0
0
ARC
8
0
10
47.05
20
64.61
40
0.5
50
90
51
180
0
ARC
8
0
10
66.95
20
64.61
40
0.5
50
0
51
90
0
ARC
8
0
10
67.95
20
55.41
40
0.5
50
180
51
270
0
ARC
8
0
10
126.8
20
54.41
40
0.5
50
0
51
90
0
LINE
8
0
10
-9.5
20
-9.5
11
28.5
21
-9.5
0
LINE
8
0
10
-9.5
20
-9.5
11
-9.5
21
47.5
0
LINE
8
0
10
-9.5
20
47.5
11
28.5
21
47.5
0
LINE
8
0
10
28.5
20
-9.5
11
28.5
21
2.4
0
LINE
8
0
10
28.5
20
2.4
11
47.5
21
2.4
0
LINE
8
0
10
47.5
20
2.4
11
47.5
21
7.16
0
LINE
8
0
10
47.5
20
59.4
11
28.5
21
59.4
0
LINE
8
0
10
28.5
20
59.4
11
28.5
21
47.5
0
LINE
8
0
10
47.5
20
7.16
11
66.5
21
7.16
0
LINE
8
0
10
66.5
20
53.96
11
66.5
21
64.16
0
LINE
8
0
10
66.5
20
64.16
11
47.5
21
64.16
0
LINE
8
0
10
47.5
20
64.16
11
47.5
21
59.4
0
LINE
8
0
10
66.5
20
-3.04
11
85.5
21
-3.04
0
LINE
8
0
10
66.5
20
7.16
11
66.5
21
-3.04
0
LINE
8
0
10
85.5
20
49.71
11
85.5
21
53.96
0
LINE
8
0
10
85.5
20
53.96
11
66.5
21
53.96
0
LINE
8
0
10
85.5
20
-7.29
11
104.5
21
-7.29
0
LINE
8
0
10
104.5
20
-7.29
11
104.5
21
49.71
0
LINE
8
0
10
85.5
20
-3.04
11
85.5
21
-7.29
0
LINE
8
0
10
104.5
20
49.71
11
85.5
21
49.71
0
LINE
8
0
10
52.4081708
20
-38.7258701
11
71.3358701
21
-40.3818292
0
LINE
8
0
10
71.3358701
20
-40.3818292
11
71.3428818
21
-40.3016851
0
LINE
8
0
10
71.3832605
20
-39.8401541
11
72.9918292
21
-21.4541299
0
LINE
8
0
10
72.9918292
20
-21.4541299
11
54.0641299
21
-19.7981708
0
LINE
8
0
10
54.0641299
20
-19.7981708
11
52.4081708
21
-38.7258701
0
LINE
8
0
10
71.3428818
20
-40.3016851
11
89.6177636
21
-45.198425
0
LINE
8
0
10
89.6177636
20
-45.198425
11
94.5353255
21
-26.8458343
0
LINE
8
0
10
94.5353255
20
-26.8458343
11
76.1827348
21
-21.9282724
0
LINE
8
0
10
76.1827348
20
-21.9282724
11
71.3832605
21
-39.8401541
0
LINE
8
0
10
106.7975385
20
-53.9708275
11
120.177478
21
-28.8068211
0
LINE
8
0
10
120.177478
20
-28.8068211
11
103.4014737
21
-19.8868615
0
LINE
8
0
10
103.4014737
20
-19.8868615
11
90.0215342
21
-45.0508679
0
LINE
8
0
10
90.0215342
20
-45.0508679
11
106.7975385
21
-53.9708275
0
ENDSEC
0
EOF