%TF.GenerationSoftware,KiCad,Pcbnew,7.0.10*%
%TF.CreationDate,2024-02-08T11:30:52-05:00*%
%TF.ProjectId,top_plate,746f705f-706c-4617-9465-2e6b69636164,rev?*%
%TF.SameCoordinates,Original*%
%TF.FileFunction,Profile,NP*%
%FSLAX46Y46*%
G04 Gerber Fmt 4.6, Leading zero omitted, Abs format (unit mm)*
G04 Created by KiCad (PCBNEW 7.0.10) date 2024-02-08 11:30:52*
%MOMM*%
%LPD*%
G01*
G04 APERTURE LIST*
%TA.AperFunction,Profile*%
%ADD10C,0.150000*%
%TD*%
%TA.AperFunction,Profile*%
%ADD11C,0.100000*%
%TD*%
G04 APERTURE END LIST*
D10*
X212826025Y-118961055D02*
G75*
G03*
X212484858Y-118328967I-329997J230001D01*
G01*
D11*
X168830000Y-49259575D02*
X168830000Y-63260000D01*
X135832120Y-53070000D02*
X135832120Y-39069575D01*
X187830000Y-53509575D02*
X187830000Y-67510000D01*
X154812120Y-87259575D02*
X154812120Y-87259575D01*
X97852120Y-74720000D02*
X111850000Y-74720000D01*
X116812120Y-95820000D02*
X116812120Y-81819575D01*
X154870004Y-138384615D02*
X140922855Y-137164398D01*
X97842120Y-69720425D02*
X97842120Y-55720000D01*
X154832120Y-49259575D02*
X168830000Y-49259575D01*
X168830000Y-63260000D02*
X154832120Y-63260000D01*
X97852120Y-74720000D02*
X97852120Y-74720000D01*
X187810000Y-105510000D02*
X173812120Y-105510000D01*
X78822120Y-88720000D02*
X78822120Y-74719575D01*
X78792120Y-93719575D02*
X78792120Y-93719575D01*
X149840000Y-58069575D02*
X149840000Y-72070000D01*
X160135510Y-139240455D02*
X163759086Y-125717082D01*
X154842120Y-68259575D02*
X154842120Y-68259575D01*
X116832120Y-43819575D02*
X130830000Y-43819575D01*
X154842120Y-82260000D02*
X154842120Y-68259575D01*
X92790000Y-107720000D02*
X78792120Y-107720000D01*
X97822120Y-93720000D02*
X111820000Y-93720000D01*
X149830000Y-39069575D02*
X149830000Y-53070000D01*
X97842120Y-55720000D02*
X97842120Y-55720000D01*
X135832120Y-39069575D02*
X135832120Y-39069575D01*
X92820000Y-88720000D02*
X78822120Y-88720000D01*
X78822120Y-74719575D02*
X92820000Y-74719575D01*
X130810000Y-95820000D02*
X116812120Y-95820000D01*
X97822120Y-107720425D02*
X97822120Y-93720000D01*
X173832120Y-53509575D02*
X173832120Y-53509575D01*
X78812120Y-55719575D02*
X92810000Y-55719575D01*
X116842120Y-76820000D02*
X116842120Y-62819575D01*
X130840000Y-62819575D02*
X130840000Y-76820000D01*
X135812120Y-77069575D02*
X135812120Y-77069575D01*
X149810000Y-77069575D02*
X149810000Y-91070000D01*
X154812120Y-101260000D02*
X154812120Y-87259575D01*
X168840000Y-82260000D02*
X154842120Y-82260000D01*
X173842120Y-86510000D02*
X173842120Y-72509575D01*
X130830000Y-57820000D02*
X116832120Y-57820000D01*
X168810000Y-87259575D02*
X168810000Y-101260000D01*
X200380000Y-134760000D02*
X193807198Y-147121642D01*
X163759086Y-125717082D02*
X177280000Y-129340000D01*
X149840000Y-72070000D02*
X135842120Y-72070000D01*
X187810000Y-91509575D02*
X187810000Y-105510000D01*
X168810000Y-101260000D02*
X154812120Y-101260000D01*
X173812120Y-105510000D02*
X173812120Y-91509575D01*
X173842120Y-72509575D02*
X187840000Y-72509575D01*
X92790000Y-93719575D02*
X92790000Y-107720000D01*
X116812120Y-81819575D02*
X116812120Y-81819575D01*
X193807198Y-147121642D02*
X181447804Y-140550035D01*
X188020605Y-128188393D02*
X200380000Y-134760000D01*
X135842120Y-58069575D02*
X135842120Y-58069575D01*
X173832120Y-53509575D02*
X187830000Y-53509575D01*
X111840000Y-69720425D02*
X97842120Y-69720425D01*
X154832120Y-49259575D02*
X154832120Y-49259575D01*
X130840000Y-76820000D02*
X116842120Y-76820000D01*
X149810000Y-91070000D02*
X135812120Y-91070000D01*
X97822120Y-93720000D02*
X97822120Y-93720000D01*
X181447804Y-140550035D02*
X188020605Y-128188393D01*
X187830000Y-67510000D02*
X173832120Y-67510000D01*
X116832120Y-43819575D02*
X116832120Y-43819575D01*
X154832120Y-63260000D02*
X154832120Y-49259575D01*
X116832120Y-57820000D02*
X116832120Y-43819575D01*
X78822120Y-74719575D02*
X78822120Y-74719575D01*
X116812120Y-81819575D02*
X130810000Y-81819575D01*
X173842120Y-72509575D02*
X173842120Y-72509575D01*
X130810000Y-81819575D02*
X130810000Y-95820000D01*
X154842120Y-68259575D02*
X168840000Y-68259575D01*
X111840000Y-55720000D02*
X111840000Y-69720425D01*
X97852120Y-88720425D02*
X97852120Y-74720000D01*
X111820000Y-93720000D02*
X111820000Y-107720425D01*
X135832120Y-39069575D02*
X149830000Y-39069575D01*
X116842120Y-62819575D02*
X130840000Y-62819575D01*
X142142851Y-123219784D02*
X156090000Y-124440000D01*
X149830000Y-53070000D02*
X135832120Y-53070000D01*
X140922855Y-137164398D02*
X142142851Y-123219784D01*
X130830000Y-43819575D02*
X130830000Y-57820000D01*
X97842120Y-55720000D02*
X111840000Y-55720000D01*
X78812120Y-55719575D02*
X78812120Y-55719575D01*
X177280000Y-129340000D02*
X173656423Y-142863372D01*
X154812120Y-87259575D02*
X168810000Y-87259575D01*
X135842120Y-58069575D02*
X149840000Y-58069575D01*
X111850000Y-88720425D02*
X97852120Y-88720425D01*
X168840000Y-68259575D02*
X168840000Y-82260000D01*
X173832120Y-67510000D02*
X173832120Y-53509575D01*
X173812120Y-91509575D02*
X173812120Y-91509575D01*
X173656423Y-142863372D02*
X160135510Y-139240455D01*
X135812120Y-77069575D02*
X149810000Y-77069575D01*
X187840000Y-86510000D02*
X173842120Y-86510000D01*
X92810000Y-69720000D02*
X78812120Y-69720000D01*
X187840000Y-72509575D02*
X187840000Y-86510000D01*
X92810000Y-55719575D02*
X92810000Y-69720000D01*
X78792120Y-93719575D02*
X92790000Y-93719575D01*
X135842120Y-72070000D02*
X135842120Y-58069575D01*
X92820000Y-74719575D02*
X92820000Y-88720000D01*
X173812120Y-91509575D02*
X187810000Y-91509575D01*
X111850000Y-74720000D02*
X111850000Y-88720425D01*
X135812120Y-91070000D02*
X135812120Y-77069575D01*
X111820000Y-107720425D02*
X97822120Y-107720425D01*
X156090000Y-124440000D02*
X154870004Y-138384615D01*
X116842120Y-62819575D02*
X116842120Y-62819575D01*
X78812120Y-69720000D02*
X78812120Y-55719575D01*
X78792120Y-107720000D02*
X78792120Y-93719575D01*
X156090000Y-124440000D02*
X156090000Y-124440000D01*
X163759086Y-125717082D02*
X163759086Y-125717082D01*
X188020605Y-128188393D02*
X188020605Y-128188393D01*
D10*
X175661384Y-146777001D02*
X156868508Y-141932916D01*
X192229999Y-46220000D02*
G75*
G03*
X191810000Y-45789881I-419999J10001D01*
G01*
X192289828Y-118060000D02*
G75*
G03*
X192590000Y-118350000I290171J-1D01*
G01*
X137050517Y-140130607D02*
G75*
G03*
X137409202Y-140328285I399481J300601D01*
G01*
X132857830Y-35613756D02*
X152757830Y-35613756D01*
X153757830Y-45813756D02*
X191810000Y-45789881D01*
X156784532Y-141918759D02*
X137410531Y-140331541D01*
X132357830Y-39873756D02*
X132357830Y-36113756D01*
X212484858Y-118328967D02*
X192590000Y-118350000D01*
X113357830Y-51773756D02*
X113357830Y-40873756D01*
X192723972Y-155833588D02*
X175661384Y-146777001D01*
X112857830Y-52273830D02*
G75*
G03*
X113357830Y-51773756I-30J500030D01*
G01*
X115407839Y-111373113D02*
G75*
G03*
X115008340Y-111173756I-399539J-300687D01*
G01*
X113857830Y-40373756D02*
X131857830Y-40373756D01*
X115008340Y-111173756D02*
X75857830Y-111173756D01*
X75357844Y-110673756D02*
G75*
G03*
X75857830Y-111173756I499956J-44D01*
G01*
X192230000Y-46220000D02*
X192289828Y-118060000D01*
X75857830Y-52273756D02*
X112857830Y-52273756D01*
X212826026Y-118961055D02*
X193400439Y-155626365D01*
X137051847Y-140133863D02*
X115407850Y-111373104D01*
X153257844Y-36113756D02*
G75*
G03*
X152757830Y-35613756I-500044J-44D01*
G01*
X132857830Y-35613830D02*
G75*
G03*
X132357830Y-36113756I-30J-499970D01*
G01*
X153257830Y-36113756D02*
X153257830Y-45313756D01*
X156868506Y-141932923D02*
G75*
G03*
X156784532Y-141918761I-124706J-483377D01*
G01*
X75857830Y-52273830D02*
G75*
G03*
X75357830Y-52773756I-30J-499970D01*
G01*
X153257844Y-45313756D02*
G75*
G03*
X153757830Y-45813756I499956J-44D01*
G01*
X75357830Y-110673756D02*
X75357830Y-52773756D01*
X131857830Y-40373830D02*
G75*
G03*
X132357830Y-39873756I-30J500030D01*
G01*
X192723970Y-155833593D02*
G75*
G03*
X193400440Y-155626365I234730J441493D01*
G01*
X113857830Y-40373830D02*
G75*
G03*
X113357830Y-40873756I-30J-499970D01*
G01*
M02*
