%TF.GenerationSoftware,KiCad,Pcbnew,7.0.10*%
%TF.CreationDate,2024-02-08T10:53:14-05:00*%
%TF.ProjectId,kestrel,6b657374-7265-46c2-9e6b-696361645f70,v1.0.0*%
%TF.SameCoordinates,Original*%
%TF.FileFunction,Legend,Top*%
%TF.FilePolarity,Positive*%
%FSLAX46Y46*%
G04 Gerber Fmt 4.6, Leading zero omitted, Abs format (unit mm)*
G04 Created by KiCad (PCBNEW 7.0.10) date 2024-02-08 10:53:14*
%MOMM*%
%LPD*%
G01*
G04 APERTURE LIST*
%ADD10C,0.100000*%
%ADD11C,0.200000*%
%ADD12C,0.150000*%
%ADD13C,0.120000*%
%ADD14R,1.752600X1.752600*%
%ADD15C,1.752600*%
G04 APERTURE END LIST*
D10*
G36*
X189664277Y-166738000D02*
G01*
X189664277Y-166382187D01*
X189664335Y-166373781D01*
X189664438Y-166367814D01*
X189664593Y-166361556D01*
X189664799Y-166355007D01*
X189665056Y-166348168D01*
X189665366Y-166341037D01*
X189665726Y-166333616D01*
X189666138Y-166325904D01*
X189666602Y-166317901D01*
X189667117Y-166309608D01*
X189667684Y-166301023D01*
X189668302Y-166292148D01*
X189668972Y-166282982D01*
X189669693Y-166273525D01*
X189670466Y-166263778D01*
X189670872Y-166258795D01*
X189669369Y-166266073D01*
X189667900Y-166273162D01*
X189666466Y-166280060D01*
X189665067Y-166286769D01*
X189663703Y-166293288D01*
X189662373Y-166299618D01*
X189661077Y-166305757D01*
X189659817Y-166311707D01*
X189658591Y-166317467D01*
X189656243Y-166328418D01*
X189654033Y-166338610D01*
X189651962Y-166348043D01*
X189650029Y-166356716D01*
X189648235Y-166364631D01*
X189646580Y-166371786D01*
X189645063Y-166378183D01*
X189643047Y-166386354D01*
X189641343Y-166392818D01*
X189639951Y-166397574D01*
X189588806Y-166587937D01*
X189498974Y-166587937D01*
X189447096Y-166397574D01*
X189445566Y-166391880D01*
X189443978Y-166385788D01*
X189442333Y-166379300D01*
X189440630Y-166372414D01*
X189438870Y-166365131D01*
X189437054Y-166357450D01*
X189435179Y-166349372D01*
X189433248Y-166340897D01*
X189431259Y-166332025D01*
X189429213Y-166322755D01*
X189427110Y-166313089D01*
X189424950Y-166303024D01*
X189422732Y-166292563D01*
X189420457Y-166281704D01*
X189418125Y-166270448D01*
X189416938Y-166264671D01*
X189415736Y-166258795D01*
X189418667Y-166299828D01*
X189419164Y-166307848D01*
X189419613Y-166315806D01*
X189420013Y-166323702D01*
X189420363Y-166331537D01*
X189420665Y-166339309D01*
X189420918Y-166347020D01*
X189421122Y-166354669D01*
X189421277Y-166362256D01*
X189421383Y-166369782D01*
X189421440Y-166377245D01*
X189421451Y-166382187D01*
X189421451Y-166738000D01*
X189330739Y-166738000D01*
X189330739Y-166184643D01*
X189473768Y-166184643D01*
X189529455Y-166387462D01*
X189531461Y-166394775D01*
X189533184Y-166402583D01*
X189534545Y-166409581D01*
X189535966Y-166417558D01*
X189536946Y-166423420D01*
X189537952Y-166429717D01*
X189538985Y-166436449D01*
X189540044Y-166443616D01*
X189541129Y-166451218D01*
X189542241Y-166459255D01*
X189543379Y-166467727D01*
X189544544Y-166476635D01*
X189545136Y-166481251D01*
X189546162Y-166473502D01*
X189547190Y-166466006D01*
X189548218Y-166458765D01*
X189549248Y-166451777D01*
X189550279Y-166445044D01*
X189551311Y-166438565D01*
X189552344Y-166432341D01*
X189553379Y-166426370D01*
X189554933Y-166417891D01*
X189556489Y-166409983D01*
X189558048Y-166402648D01*
X189559609Y-166395884D01*
X189561173Y-166389692D01*
X189561695Y-166387755D01*
X189617676Y-166184643D01*
X189755722Y-166184643D01*
X189755722Y-166738000D01*
X189664277Y-166738000D01*
G37*
G36*
X190055695Y-166278594D02*
G01*
X190065643Y-166279080D01*
X190075286Y-166279890D01*
X190084625Y-166281024D01*
X190093660Y-166282482D01*
X190102389Y-166284264D01*
X190110815Y-166286370D01*
X190118935Y-166288800D01*
X190126751Y-166291554D01*
X190134263Y-166294632D01*
X190141470Y-166298034D01*
X190148373Y-166301760D01*
X190154971Y-166305810D01*
X190161264Y-166310184D01*
X190167253Y-166314883D01*
X190172937Y-166319905D01*
X190178314Y-166325241D01*
X190183344Y-166330882D01*
X190188028Y-166336827D01*
X190192364Y-166343077D01*
X190196353Y-166349632D01*
X190199996Y-166356491D01*
X190203291Y-166363654D01*
X190206240Y-166371122D01*
X190208842Y-166378895D01*
X190211097Y-166386972D01*
X190213004Y-166395354D01*
X190214566Y-166404040D01*
X190215780Y-166413031D01*
X190216647Y-166422326D01*
X190217167Y-166431926D01*
X190217341Y-166441831D01*
X190217341Y-166606108D01*
X190217415Y-166613071D01*
X190217640Y-166619617D01*
X190218013Y-166625745D01*
X190218744Y-166633267D01*
X190219740Y-166640047D01*
X190221001Y-166646085D01*
X190222952Y-166652590D01*
X190225840Y-166658865D01*
X190229424Y-166663745D01*
X190234609Y-166668163D01*
X190239912Y-166670856D01*
X190246008Y-166672539D01*
X190252898Y-166673212D01*
X190254124Y-166673226D01*
X190260663Y-166673071D01*
X190267093Y-166672603D01*
X190273413Y-166671825D01*
X190279623Y-166670735D01*
X190279623Y-166733457D01*
X190273397Y-166734971D01*
X190267544Y-166736399D01*
X190261535Y-166737871D01*
X190261011Y-166738000D01*
X190254856Y-166739415D01*
X190248702Y-166740582D01*
X190244598Y-166741224D01*
X190238278Y-166742130D01*
X190232196Y-166742817D01*
X190227013Y-166743275D01*
X190220942Y-166743739D01*
X190214964Y-166744009D01*
X190208500Y-166744141D01*
X190205471Y-166744154D01*
X190197483Y-166743966D01*
X190189898Y-166743402D01*
X190182714Y-166742462D01*
X190175932Y-166741146D01*
X190169553Y-166739453D01*
X190163574Y-166737385D01*
X190157998Y-166734940D01*
X190152824Y-166732119D01*
X190146550Y-166727773D01*
X190140990Y-166722759D01*
X190136049Y-166717059D01*
X190131630Y-166710733D01*
X190128658Y-166705576D01*
X190125980Y-166700066D01*
X190123595Y-166694204D01*
X190121504Y-166687988D01*
X190119707Y-166681420D01*
X190118204Y-166674499D01*
X190116994Y-166667225D01*
X190116078Y-166659598D01*
X190113586Y-166659598D01*
X190110315Y-166665321D01*
X190106987Y-166670843D01*
X190103602Y-166676161D01*
X190100159Y-166681277D01*
X190096659Y-166686190D01*
X190093102Y-166690901D01*
X190087659Y-166697587D01*
X190082087Y-166703817D01*
X190076386Y-166709591D01*
X190070557Y-166714909D01*
X190064599Y-166719772D01*
X190058512Y-166724178D01*
X190054382Y-166726862D01*
X190048057Y-166730529D01*
X190041504Y-166733834D01*
X190034721Y-166736780D01*
X190027708Y-166739364D01*
X190020467Y-166741588D01*
X190012996Y-166743451D01*
X190005296Y-166744954D01*
X189997366Y-166746096D01*
X189989208Y-166746878D01*
X189980820Y-166747298D01*
X189975101Y-166747378D01*
X189967115Y-166747239D01*
X189959352Y-166746822D01*
X189951810Y-166746126D01*
X189944491Y-166745153D01*
X189937394Y-166743901D01*
X189930519Y-166742371D01*
X189923866Y-166740562D01*
X189917435Y-166738476D01*
X189911226Y-166736111D01*
X189905240Y-166733468D01*
X189899475Y-166730547D01*
X189893933Y-166727347D01*
X189888612Y-166723870D01*
X189883514Y-166720114D01*
X189878638Y-166716080D01*
X189873984Y-166711768D01*
X189869601Y-166707204D01*
X189865501Y-166702414D01*
X189861683Y-166697399D01*
X189858148Y-166692158D01*
X189854896Y-166686692D01*
X189851927Y-166681000D01*
X189849240Y-166675083D01*
X189846837Y-166668940D01*
X189844716Y-166662571D01*
X189842878Y-166655977D01*
X189841322Y-166649158D01*
X189840050Y-166642113D01*
X189839060Y-166634842D01*
X189838353Y-166627346D01*
X189837929Y-166619624D01*
X189837787Y-166611677D01*
X189837948Y-166603471D01*
X189958541Y-166603471D01*
X189958735Y-166611119D01*
X189959315Y-166618274D01*
X189960282Y-166624935D01*
X189961637Y-166631104D01*
X189963378Y-166636778D01*
X189966716Y-166644365D01*
X189970924Y-166650841D01*
X189976003Y-166656208D01*
X189981953Y-166660464D01*
X189988773Y-166663609D01*
X189996464Y-166665645D01*
X190005026Y-166666570D01*
X190008073Y-166666632D01*
X190015433Y-166666352D01*
X190022563Y-166665514D01*
X190029463Y-166664116D01*
X190036135Y-166662160D01*
X190042577Y-166659644D01*
X190048790Y-166656570D01*
X190054773Y-166652936D01*
X190060528Y-166648744D01*
X190066053Y-166643993D01*
X190071349Y-166638682D01*
X190074752Y-166634831D01*
X190079544Y-166628722D01*
X190083866Y-166622319D01*
X190087715Y-166615622D01*
X190091094Y-166608632D01*
X190094001Y-166601348D01*
X190096437Y-166593770D01*
X190098401Y-166585899D01*
X190099894Y-166577733D01*
X190100915Y-166569275D01*
X190101465Y-166560522D01*
X190101570Y-166554524D01*
X190101570Y-166531663D01*
X190046322Y-166532542D01*
X190039549Y-166532734D01*
X190033135Y-166533034D01*
X190027078Y-166533441D01*
X190019559Y-166534154D01*
X190012677Y-166535058D01*
X190006432Y-166536155D01*
X189999521Y-166537796D01*
X189993604Y-166539738D01*
X189992540Y-166540163D01*
X189986558Y-166543039D01*
X189981143Y-166546503D01*
X189976295Y-166550554D01*
X189972014Y-166555193D01*
X189968299Y-166560419D01*
X189967187Y-166562291D01*
X189964249Y-166568338D01*
X189962265Y-166573967D01*
X189960703Y-166580133D01*
X189959563Y-166586836D01*
X189958845Y-166594075D01*
X189958575Y-166600253D01*
X189958541Y-166603471D01*
X189837948Y-166603471D01*
X189837956Y-166603070D01*
X189838461Y-166594726D01*
X189839302Y-166586644D01*
X189840480Y-166578823D01*
X189841995Y-166571265D01*
X189843846Y-166563970D01*
X189846034Y-166556936D01*
X189848558Y-166550165D01*
X189851420Y-166543655D01*
X189854617Y-166537408D01*
X189858151Y-166531423D01*
X189862022Y-166525701D01*
X189866230Y-166520240D01*
X189870774Y-166515042D01*
X189875655Y-166510105D01*
X189880872Y-166505431D01*
X189886424Y-166501008D01*
X189892309Y-166496859D01*
X189898528Y-166492984D01*
X189905079Y-166489385D01*
X189911964Y-166486060D01*
X189919182Y-166483010D01*
X189926733Y-166480235D01*
X189934617Y-166477734D01*
X189942835Y-166475509D01*
X189951385Y-166473558D01*
X189960269Y-166471882D01*
X189969486Y-166470480D01*
X189979036Y-166469354D01*
X189988919Y-166468502D01*
X189999136Y-166467925D01*
X190009685Y-166467623D01*
X190101570Y-166466011D01*
X190101570Y-166442563D01*
X190101442Y-166434508D01*
X190101060Y-166426829D01*
X190100422Y-166419526D01*
X190099529Y-166412599D01*
X190098382Y-166406049D01*
X190096979Y-166399874D01*
X190095322Y-166394075D01*
X190092715Y-166386929D01*
X190089654Y-166380451D01*
X190087062Y-166376032D01*
X190083194Y-166370742D01*
X190078773Y-166366158D01*
X190073797Y-166362279D01*
X190068267Y-166359106D01*
X190062183Y-166356637D01*
X190055545Y-166354874D01*
X190048353Y-166353816D01*
X190040607Y-166353464D01*
X190033341Y-166353709D01*
X190026566Y-166354444D01*
X190020280Y-166355669D01*
X190014485Y-166357384D01*
X190007930Y-166360217D01*
X190002140Y-166363815D01*
X189997116Y-166368179D01*
X189996203Y-166369144D01*
X189992029Y-166374498D01*
X189988392Y-166380762D01*
X189985869Y-166386427D01*
X189983689Y-166392673D01*
X189981853Y-166399501D01*
X189980360Y-166406911D01*
X189979465Y-166412850D01*
X189978764Y-166419116D01*
X189858011Y-166413254D01*
X189859542Y-166404959D01*
X189861353Y-166396928D01*
X189863443Y-166389160D01*
X189865812Y-166381655D01*
X189868460Y-166374414D01*
X189871387Y-166367436D01*
X189874593Y-166360721D01*
X189878078Y-166354270D01*
X189881843Y-166348081D01*
X189885886Y-166342157D01*
X189890208Y-166336495D01*
X189894810Y-166331097D01*
X189899690Y-166325962D01*
X189904850Y-166321091D01*
X189910288Y-166316483D01*
X189916006Y-166312138D01*
X189922003Y-166308056D01*
X189928279Y-166304238D01*
X189934834Y-166300683D01*
X189941668Y-166297392D01*
X189948781Y-166294363D01*
X189956173Y-166291598D01*
X189963844Y-166289097D01*
X189971794Y-166286859D01*
X189980024Y-166284884D01*
X189988532Y-166283172D01*
X189997319Y-166281724D01*
X190006386Y-166280539D01*
X190015731Y-166279617D01*
X190025356Y-166278959D01*
X190035260Y-166278564D01*
X190045443Y-166278432D01*
X190055695Y-166278594D01*
G37*
G36*
X190433496Y-166366066D02*
G01*
X190364619Y-166366066D01*
X190364619Y-166287811D01*
X190439211Y-166287811D01*
X190475408Y-166175264D01*
X190547948Y-166175264D01*
X190547948Y-166287811D01*
X190706657Y-166287811D01*
X190706657Y-166366066D01*
X190547948Y-166366066D01*
X190547948Y-166590721D01*
X190548007Y-166597488D01*
X190548185Y-166603829D01*
X190548481Y-166609746D01*
X190549060Y-166616974D01*
X190549850Y-166623446D01*
X190551134Y-166630473D01*
X190552747Y-166636320D01*
X190554689Y-166640986D01*
X190558102Y-166646369D01*
X190562314Y-166651232D01*
X190567326Y-166655577D01*
X190572259Y-166658888D01*
X190576817Y-166661356D01*
X190582971Y-166663846D01*
X190588767Y-166665528D01*
X190595172Y-166666852D01*
X190602185Y-166667818D01*
X190608234Y-166668333D01*
X190614672Y-166668619D01*
X190619755Y-166668683D01*
X190626142Y-166668640D01*
X190632553Y-166668509D01*
X190638988Y-166668292D01*
X190645447Y-166667987D01*
X190651929Y-166667596D01*
X190658436Y-166667117D01*
X190664967Y-166666552D01*
X190671523Y-166665899D01*
X190678102Y-166665159D01*
X190684705Y-166664333D01*
X190691332Y-166663419D01*
X190697983Y-166662419D01*
X190704658Y-166661331D01*
X190711358Y-166660156D01*
X190718081Y-166658895D01*
X190724829Y-166657546D01*
X190724829Y-166734189D01*
X190717653Y-166735350D01*
X190710744Y-166736449D01*
X190704102Y-166737488D01*
X190697727Y-166738467D01*
X190691618Y-166739384D01*
X190685776Y-166740241D01*
X190677514Y-166741413D01*
X190669852Y-166742448D01*
X190662789Y-166743347D01*
X190656328Y-166744109D01*
X190650466Y-166744734D01*
X190643584Y-166745356D01*
X190642030Y-166745473D01*
X190635917Y-166745920D01*
X190629739Y-166746307D01*
X190623497Y-166746634D01*
X190617191Y-166746902D01*
X190610821Y-166747111D01*
X190604386Y-166747259D01*
X190597888Y-166747349D01*
X190591325Y-166747378D01*
X190584852Y-166747322D01*
X190578512Y-166747152D01*
X190572304Y-166746868D01*
X190566229Y-166746472D01*
X190560287Y-166745962D01*
X190551624Y-166744984D01*
X190543258Y-166743751D01*
X190535192Y-166742264D01*
X190527425Y-166740521D01*
X190519956Y-166738523D01*
X190512786Y-166736271D01*
X190505915Y-166733763D01*
X190503691Y-166732870D01*
X190497247Y-166730006D01*
X190491105Y-166726853D01*
X190485264Y-166723411D01*
X190479724Y-166719681D01*
X190474486Y-166715663D01*
X190469549Y-166711356D01*
X190464913Y-166706760D01*
X190460579Y-166701876D01*
X190456546Y-166696703D01*
X190452815Y-166691242D01*
X190450495Y-166687441D01*
X190447300Y-166681397D01*
X190444419Y-166674915D01*
X190441852Y-166667995D01*
X190439600Y-166660637D01*
X190437662Y-166652841D01*
X190436038Y-166644608D01*
X190434729Y-166635936D01*
X190434031Y-166629911D01*
X190433472Y-166623692D01*
X190433053Y-166617279D01*
X190432774Y-166610670D01*
X190432634Y-166603868D01*
X190432616Y-166600393D01*
X190433496Y-166366066D01*
G37*
G36*
X190937613Y-166366066D02*
G01*
X190868736Y-166366066D01*
X190868736Y-166287811D01*
X190943328Y-166287811D01*
X190979525Y-166175264D01*
X191052065Y-166175264D01*
X191052065Y-166287811D01*
X191210774Y-166287811D01*
X191210774Y-166366066D01*
X191052065Y-166366066D01*
X191052065Y-166590721D01*
X191052124Y-166597488D01*
X191052302Y-166603829D01*
X191052598Y-166609746D01*
X191053178Y-166616974D01*
X191053968Y-166623446D01*
X191055251Y-166630473D01*
X191056864Y-166636320D01*
X191058806Y-166640986D01*
X191062219Y-166646369D01*
X191066432Y-166651232D01*
X191071444Y-166655577D01*
X191076376Y-166658888D01*
X191080935Y-166661356D01*
X191087088Y-166663846D01*
X191092885Y-166665528D01*
X191099289Y-166666852D01*
X191106303Y-166667818D01*
X191112351Y-166668333D01*
X191118789Y-166668619D01*
X191123872Y-166668683D01*
X191130259Y-166668640D01*
X191136670Y-166668509D01*
X191143105Y-166668292D01*
X191149564Y-166667987D01*
X191156047Y-166667596D01*
X191162554Y-166667117D01*
X191169085Y-166666552D01*
X191175640Y-166665899D01*
X191182219Y-166665159D01*
X191188822Y-166664333D01*
X191195449Y-166663419D01*
X191202100Y-166662419D01*
X191208776Y-166661331D01*
X191215475Y-166660156D01*
X191222198Y-166658895D01*
X191228946Y-166657546D01*
X191228946Y-166734189D01*
X191221770Y-166735350D01*
X191214861Y-166736449D01*
X191208219Y-166737488D01*
X191201844Y-166738467D01*
X191195735Y-166739384D01*
X191189894Y-166740241D01*
X191181631Y-166741413D01*
X191173969Y-166742448D01*
X191166907Y-166743347D01*
X191160445Y-166744109D01*
X191154583Y-166744734D01*
X191147701Y-166745356D01*
X191146147Y-166745473D01*
X191140034Y-166745920D01*
X191133856Y-166746307D01*
X191127614Y-166746634D01*
X191121308Y-166746902D01*
X191114938Y-166747111D01*
X191108504Y-166747259D01*
X191102005Y-166747349D01*
X191095443Y-166747378D01*
X191088969Y-166747322D01*
X191082629Y-166747152D01*
X191076421Y-166746868D01*
X191070347Y-166746472D01*
X191064405Y-166745962D01*
X191055741Y-166744984D01*
X191047376Y-166743751D01*
X191039309Y-166742264D01*
X191031542Y-166740521D01*
X191024073Y-166738523D01*
X191016903Y-166736271D01*
X191010032Y-166733763D01*
X191007808Y-166732870D01*
X191001364Y-166730006D01*
X190995222Y-166726853D01*
X190989381Y-166723411D01*
X190983841Y-166719681D01*
X190978603Y-166715663D01*
X190973666Y-166711356D01*
X190969030Y-166706760D01*
X190964696Y-166701876D01*
X190960664Y-166696703D01*
X190956932Y-166691242D01*
X190954612Y-166687441D01*
X190951417Y-166681397D01*
X190948536Y-166674915D01*
X190945970Y-166667995D01*
X190943717Y-166660637D01*
X190941779Y-166652841D01*
X190940156Y-166644608D01*
X190938846Y-166635936D01*
X190938148Y-166629911D01*
X190937589Y-166623692D01*
X190937170Y-166617279D01*
X190936891Y-166610670D01*
X190936751Y-166603868D01*
X190936734Y-166600393D01*
X190937613Y-166366066D01*
G37*
G36*
X191479539Y-166375592D02*
G01*
X191482535Y-166369327D01*
X191485623Y-166363280D01*
X191488804Y-166357452D01*
X191492078Y-166351842D01*
X191495444Y-166346452D01*
X191498904Y-166341280D01*
X191502456Y-166336326D01*
X191506100Y-166331592D01*
X191509838Y-166327076D01*
X191515618Y-166320712D01*
X191521607Y-166314840D01*
X191527804Y-166309460D01*
X191534210Y-166304572D01*
X191538597Y-166301586D01*
X191545365Y-166297448D01*
X191552370Y-166293718D01*
X191559612Y-166290394D01*
X191567091Y-166287477D01*
X191574807Y-166284967D01*
X191582760Y-166282864D01*
X191590950Y-166281168D01*
X191599377Y-166279879D01*
X191608041Y-166278997D01*
X191613948Y-166278636D01*
X191619961Y-166278455D01*
X191623007Y-166278432D01*
X191631536Y-166278599D01*
X191639794Y-166279098D01*
X191647780Y-166279931D01*
X191655495Y-166281097D01*
X191662938Y-166282597D01*
X191670110Y-166284429D01*
X191677011Y-166286595D01*
X191683640Y-166289093D01*
X191689999Y-166291925D01*
X191696085Y-166295090D01*
X191701901Y-166298588D01*
X191707445Y-166302420D01*
X191712718Y-166306584D01*
X191717719Y-166311082D01*
X191722449Y-166315913D01*
X191726908Y-166321077D01*
X191731096Y-166326568D01*
X191735014Y-166332418D01*
X191738662Y-166338626D01*
X191742039Y-166345193D01*
X191745146Y-166352118D01*
X191747983Y-166359401D01*
X191750550Y-166367043D01*
X191752847Y-166375042D01*
X191754873Y-166383401D01*
X191756629Y-166392117D01*
X191758115Y-166401192D01*
X191759331Y-166410626D01*
X191760277Y-166420417D01*
X191760952Y-166430567D01*
X191761358Y-166441076D01*
X191761493Y-166451942D01*
X191761493Y-166738000D01*
X191646161Y-166738000D01*
X191646161Y-166478321D01*
X191646096Y-166470575D01*
X191645900Y-166463128D01*
X191645574Y-166455980D01*
X191645117Y-166449130D01*
X191644530Y-166442580D01*
X191643812Y-166436328D01*
X191642964Y-166430375D01*
X191641446Y-166422006D01*
X191639636Y-166414310D01*
X191637531Y-166407285D01*
X191635133Y-166400933D01*
X191632441Y-166395254D01*
X191629455Y-166390247D01*
X191624947Y-166384408D01*
X191619774Y-166379347D01*
X191613937Y-166375065D01*
X191607437Y-166371562D01*
X191600272Y-166368837D01*
X191594463Y-166367304D01*
X191588280Y-166366210D01*
X191581724Y-166365553D01*
X191574794Y-166365334D01*
X191567077Y-166365656D01*
X191559643Y-166366622D01*
X191552493Y-166368232D01*
X191545626Y-166370486D01*
X191539043Y-166373384D01*
X191532743Y-166376926D01*
X191526726Y-166381112D01*
X191520993Y-166385942D01*
X191515543Y-166391416D01*
X191510376Y-166397534D01*
X191507090Y-166401970D01*
X191502480Y-166408995D01*
X191498324Y-166416385D01*
X191494622Y-166424142D01*
X191491372Y-166432264D01*
X191489458Y-166437882D01*
X191487745Y-166443662D01*
X191486234Y-166449606D01*
X191484924Y-166455711D01*
X191483816Y-166461980D01*
X191482909Y-166468410D01*
X191482204Y-166475004D01*
X191481700Y-166481760D01*
X191481398Y-166488678D01*
X191481297Y-166495759D01*
X191481297Y-166738000D01*
X191365380Y-166738000D01*
X191365380Y-166128369D01*
X191481297Y-166128369D01*
X191481297Y-166290449D01*
X191481268Y-166298593D01*
X191481179Y-166306703D01*
X191481031Y-166314781D01*
X191480823Y-166322824D01*
X191480557Y-166330834D01*
X191480231Y-166338811D01*
X191479846Y-166346754D01*
X191479402Y-166354663D01*
X191478898Y-166362540D01*
X191478335Y-166370382D01*
X191477927Y-166375592D01*
X191479539Y-166375592D01*
G37*
G36*
X192076322Y-166278497D02*
G01*
X192082294Y-166278693D01*
X192088181Y-166279019D01*
X192099698Y-166280064D01*
X192110875Y-166281630D01*
X192121710Y-166283718D01*
X192132204Y-166286328D01*
X192142357Y-166289461D01*
X192152169Y-166293115D01*
X192161639Y-166297292D01*
X192170768Y-166301991D01*
X192179557Y-166307211D01*
X192188004Y-166312954D01*
X192196109Y-166319219D01*
X192203874Y-166326006D01*
X192211297Y-166333315D01*
X192218380Y-166341146D01*
X192221793Y-166345257D01*
X192228341Y-166353830D01*
X192234467Y-166362842D01*
X192240170Y-166372295D01*
X192245451Y-166382187D01*
X192250309Y-166392518D01*
X192254745Y-166403289D01*
X192256805Y-166408840D01*
X192258759Y-166414500D01*
X192260607Y-166420270D01*
X192262349Y-166426150D01*
X192263987Y-166432140D01*
X192265518Y-166438240D01*
X192266944Y-166444450D01*
X192268264Y-166450770D01*
X192269479Y-166457200D01*
X192270588Y-166463739D01*
X192271591Y-166470389D01*
X192272489Y-166477148D01*
X192273281Y-166484017D01*
X192273967Y-166490997D01*
X192274548Y-166498086D01*
X192275023Y-166505285D01*
X192275393Y-166512594D01*
X192275657Y-166520013D01*
X192275815Y-166527542D01*
X192275868Y-166535180D01*
X192275868Y-166538551D01*
X191973398Y-166538551D01*
X191973503Y-166546018D01*
X191973819Y-166553290D01*
X191974346Y-166560366D01*
X191975083Y-166567246D01*
X191976031Y-166573931D01*
X191977190Y-166580419D01*
X191978559Y-166586712D01*
X191980139Y-166592809D01*
X191981930Y-166598711D01*
X191983931Y-166604416D01*
X191986143Y-166609926D01*
X191989856Y-166617824D01*
X191994043Y-166625281D01*
X191998703Y-166632297D01*
X192000362Y-166634538D01*
X192005595Y-166640850D01*
X192011180Y-166646541D01*
X192017118Y-166651611D01*
X192023409Y-166656060D01*
X192030053Y-166659888D01*
X192037050Y-166663096D01*
X192044400Y-166665682D01*
X192052102Y-166667648D01*
X192060158Y-166668994D01*
X192068566Y-166669718D01*
X192074368Y-166669856D01*
X192081878Y-166669652D01*
X192089169Y-166669041D01*
X192096240Y-166668022D01*
X192103091Y-166666595D01*
X192109722Y-166664761D01*
X192116133Y-166662519D01*
X192122325Y-166659870D01*
X192128297Y-166656813D01*
X192133955Y-166653292D01*
X192139132Y-166649321D01*
X192143828Y-166644902D01*
X192148044Y-166640034D01*
X192151778Y-166634717D01*
X192155032Y-166628951D01*
X192157805Y-166622737D01*
X192160097Y-166616073D01*
X192269274Y-166625599D01*
X192266317Y-166632803D01*
X192263126Y-166639798D01*
X192259700Y-166646583D01*
X192256039Y-166653159D01*
X192252143Y-166659525D01*
X192248013Y-166665681D01*
X192243648Y-166671629D01*
X192239049Y-166677366D01*
X192234214Y-166682894D01*
X192229145Y-166688213D01*
X192223842Y-166693322D01*
X192218303Y-166698221D01*
X192212530Y-166702912D01*
X192206522Y-166707392D01*
X192200280Y-166711663D01*
X192193803Y-166715725D01*
X192187131Y-166719558D01*
X192180304Y-166723143D01*
X192173324Y-166726482D01*
X192166188Y-166729573D01*
X192158898Y-166732417D01*
X192151453Y-166735014D01*
X192143854Y-166737363D01*
X192136100Y-166739465D01*
X192128192Y-166741320D01*
X192120129Y-166742927D01*
X192111912Y-166744287D01*
X192103540Y-166745400D01*
X192095013Y-166746266D01*
X192086332Y-166746884D01*
X192077496Y-166747255D01*
X192068506Y-166747378D01*
X192062068Y-166747318D01*
X192055721Y-166747136D01*
X192049467Y-166746834D01*
X192043305Y-166746410D01*
X192037235Y-166745865D01*
X192031257Y-166745199D01*
X192025372Y-166744412D01*
X192019578Y-166743504D01*
X192008268Y-166741325D01*
X191997326Y-166738661D01*
X191986753Y-166735513D01*
X191976549Y-166731881D01*
X191966713Y-166727765D01*
X191957246Y-166723164D01*
X191948147Y-166718079D01*
X191939418Y-166712510D01*
X191931057Y-166706456D01*
X191923064Y-166699918D01*
X191915440Y-166692896D01*
X191908185Y-166685390D01*
X191901353Y-166677426D01*
X191894962Y-166669070D01*
X191889011Y-166660322D01*
X191883501Y-166651180D01*
X191878432Y-166641646D01*
X191873804Y-166631720D01*
X191869617Y-166621400D01*
X191865870Y-166610688D01*
X191862564Y-166599583D01*
X191861077Y-166593883D01*
X191859699Y-166588086D01*
X191858432Y-166582189D01*
X191857275Y-166576195D01*
X191856228Y-166570103D01*
X191855291Y-166563912D01*
X191854465Y-166557624D01*
X191853749Y-166551237D01*
X191853142Y-166544752D01*
X191852647Y-166538168D01*
X191852261Y-166531487D01*
X191851985Y-166524707D01*
X191851820Y-166517830D01*
X191851765Y-166510854D01*
X191851869Y-166501530D01*
X191852179Y-166492391D01*
X191852698Y-166483436D01*
X191853423Y-166474666D01*
X191854355Y-166466080D01*
X191854364Y-166466011D01*
X191974277Y-166466011D01*
X192163761Y-166466011D01*
X192163307Y-166459536D01*
X192162678Y-166453229D01*
X192161873Y-166447089D01*
X192160894Y-166441116D01*
X192159739Y-166435310D01*
X192157679Y-166426915D01*
X192155225Y-166418896D01*
X192152376Y-166411253D01*
X192149133Y-166403986D01*
X192145496Y-166397096D01*
X192141465Y-166390581D01*
X192137040Y-166384442D01*
X192135478Y-166382480D01*
X192130607Y-166376927D01*
X192125448Y-166371921D01*
X192120001Y-166367462D01*
X192114265Y-166363548D01*
X192108241Y-166360180D01*
X192101928Y-166357358D01*
X192095326Y-166355083D01*
X192088436Y-166353354D01*
X192081258Y-166352170D01*
X192073791Y-166351533D01*
X192068653Y-166351412D01*
X192060836Y-166351680D01*
X192053324Y-166352484D01*
X192046115Y-166353823D01*
X192039211Y-166355698D01*
X192032610Y-166358110D01*
X192026314Y-166361056D01*
X192020321Y-166364539D01*
X192014632Y-166368558D01*
X192009248Y-166373112D01*
X192004167Y-166378202D01*
X192000949Y-166381893D01*
X191996456Y-166387787D01*
X191992376Y-166394093D01*
X191988707Y-166400812D01*
X191985451Y-166407942D01*
X191982607Y-166415484D01*
X191980176Y-166423439D01*
X191978156Y-166431806D01*
X191977039Y-166437613D01*
X191976104Y-166443603D01*
X191975353Y-166449776D01*
X191974786Y-166456133D01*
X191974401Y-166462672D01*
X191974277Y-166466011D01*
X191854364Y-166466011D01*
X191855495Y-166457678D01*
X191856842Y-166449461D01*
X191858396Y-166441428D01*
X191860158Y-166433579D01*
X191862126Y-166425914D01*
X191864302Y-166418434D01*
X191866685Y-166411138D01*
X191869276Y-166404027D01*
X191872073Y-166397100D01*
X191875078Y-166390357D01*
X191878290Y-166383799D01*
X191881711Y-166377412D01*
X191885306Y-166371223D01*
X191889075Y-166365231D01*
X191893018Y-166359435D01*
X191897135Y-166353837D01*
X191901426Y-166348435D01*
X191905891Y-166343231D01*
X191910530Y-166338223D01*
X191915343Y-166333412D01*
X191920330Y-166328798D01*
X191925491Y-166324381D01*
X191930826Y-166320161D01*
X191936336Y-166316138D01*
X191942019Y-166312312D01*
X191947876Y-166308682D01*
X191953907Y-166305250D01*
X191960115Y-166302003D01*
X191966465Y-166298965D01*
X191972956Y-166296136D01*
X191979590Y-166293517D01*
X191986365Y-166291108D01*
X191993282Y-166288908D01*
X192000342Y-166286917D01*
X192007543Y-166285137D01*
X192014886Y-166283565D01*
X192022372Y-166282203D01*
X192029999Y-166281051D01*
X192037768Y-166280108D01*
X192045679Y-166279375D01*
X192053732Y-166278851D01*
X192061928Y-166278537D01*
X192070265Y-166278432D01*
X192076322Y-166278497D01*
G37*
G36*
X192738367Y-166738000D02*
G01*
X192637836Y-166738000D01*
X192578925Y-166543826D01*
X192577084Y-166537854D01*
X192574886Y-166530544D01*
X192572981Y-166523980D01*
X192571369Y-166518163D01*
X192569766Y-166511941D01*
X192568447Y-166506015D01*
X192567787Y-166501768D01*
X192566570Y-166507916D01*
X192565067Y-166514078D01*
X192563497Y-166520152D01*
X192563244Y-166521112D01*
X192561278Y-166527867D01*
X192558567Y-166536750D01*
X192556172Y-166544489D01*
X192553306Y-166553682D01*
X192549970Y-166564330D01*
X192548126Y-166570199D01*
X192546163Y-166576431D01*
X192544084Y-166583027D01*
X192541886Y-166589987D01*
X192539571Y-166597310D01*
X192537138Y-166604996D01*
X192534588Y-166613046D01*
X192531920Y-166621460D01*
X192529134Y-166630237D01*
X192526231Y-166639377D01*
X192523210Y-166648881D01*
X192520071Y-166658749D01*
X192516815Y-166668980D01*
X192513441Y-166679574D01*
X192509950Y-166690532D01*
X192506341Y-166701854D01*
X192502614Y-166713539D01*
X192498770Y-166725587D01*
X192494808Y-166738000D01*
X192394717Y-166738000D01*
X192319246Y-166287811D01*
X192413182Y-166287811D01*
X192447473Y-166540896D01*
X192448414Y-166548682D01*
X192449294Y-166556216D01*
X192450113Y-166563497D01*
X192450871Y-166570525D01*
X192451569Y-166577300D01*
X192452206Y-166583822D01*
X192452783Y-166590091D01*
X192453299Y-166596107D01*
X192453958Y-166604656D01*
X192454482Y-166612636D01*
X192454869Y-166620047D01*
X192455119Y-166626888D01*
X192455233Y-166633160D01*
X192455240Y-166635124D01*
X192463447Y-166604496D01*
X192528220Y-166400358D01*
X192607794Y-166400358D01*
X192665387Y-166588376D01*
X192667342Y-166594966D01*
X192669268Y-166601820D01*
X192670788Y-166607494D01*
X192672290Y-166613338D01*
X192673774Y-166619351D01*
X192675240Y-166625533D01*
X192676687Y-166631885D01*
X192677404Y-166635124D01*
X192677468Y-166628553D01*
X192677660Y-166621734D01*
X192677981Y-166614668D01*
X192678429Y-166607354D01*
X192679006Y-166599793D01*
X192679712Y-166591985D01*
X192680325Y-166585967D01*
X192681010Y-166579809D01*
X192681507Y-166575627D01*
X192682574Y-166567345D01*
X192683616Y-166559674D01*
X192684922Y-166550284D01*
X192686493Y-166539174D01*
X192687377Y-166532974D01*
X192688328Y-166526344D01*
X192689345Y-166519285D01*
X192690428Y-166511795D01*
X192691577Y-166503876D01*
X192692792Y-166495526D01*
X192694073Y-166486747D01*
X192695421Y-166477538D01*
X192696834Y-166467899D01*
X192698314Y-166457830D01*
X192699859Y-166447331D01*
X192701471Y-166436402D01*
X192703149Y-166425043D01*
X192704893Y-166413254D01*
X192706704Y-166401036D01*
X192708580Y-166388388D01*
X192710522Y-166375309D01*
X192712531Y-166361801D01*
X192714606Y-166347863D01*
X192716746Y-166333495D01*
X192718953Y-166318697D01*
X192721226Y-166303469D01*
X192723565Y-166287811D01*
X192816769Y-166287811D01*
X192738367Y-166738000D01*
G37*
G36*
X193513300Y-166278579D02*
G01*
X193513300Y-166437874D01*
X193769316Y-166437874D01*
X193769316Y-166531810D01*
X193513300Y-166531810D01*
X193513300Y-166738000D01*
X193391814Y-166738000D01*
X193391814Y-166184643D01*
X193778841Y-166184643D01*
X193778841Y-166278579D01*
X193513300Y-166278579D01*
G37*
G36*
X194094227Y-166278661D02*
G01*
X194107016Y-166279346D01*
X194119386Y-166280489D01*
X194131336Y-166282089D01*
X194142867Y-166284146D01*
X194153979Y-166286660D01*
X194164672Y-166289631D01*
X194174945Y-166293059D01*
X194184799Y-166296945D01*
X194194233Y-166301287D01*
X194203249Y-166306087D01*
X194211845Y-166311343D01*
X194220021Y-166317057D01*
X194227779Y-166323228D01*
X194235117Y-166329856D01*
X194242035Y-166336941D01*
X194248535Y-166344483D01*
X194254615Y-166352482D01*
X194260276Y-166360938D01*
X194265517Y-166369851D01*
X194270339Y-166379222D01*
X194274742Y-166389050D01*
X194278726Y-166399334D01*
X194282290Y-166410076D01*
X194285435Y-166421275D01*
X194288160Y-166432931D01*
X194290466Y-166445044D01*
X194292353Y-166457614D01*
X194293821Y-166470641D01*
X194294869Y-166484126D01*
X194295498Y-166498067D01*
X194295708Y-166512466D01*
X194295653Y-166519441D01*
X194295489Y-166526316D01*
X194295215Y-166533091D01*
X194294831Y-166539767D01*
X194294338Y-166546342D01*
X194293735Y-166552818D01*
X194293022Y-166559194D01*
X194292200Y-166565469D01*
X194291268Y-166571645D01*
X194290227Y-166577721D01*
X194289076Y-166583698D01*
X194287815Y-166589574D01*
X194286445Y-166595350D01*
X194284965Y-166601027D01*
X194281676Y-166612080D01*
X194277949Y-166622734D01*
X194273783Y-166632988D01*
X194269179Y-166642843D01*
X194264136Y-166652298D01*
X194258655Y-166661353D01*
X194252736Y-166670009D01*
X194246377Y-166678266D01*
X194239581Y-166686122D01*
X194232391Y-166693540D01*
X194224819Y-166700479D01*
X194216862Y-166706940D01*
X194208522Y-166712922D01*
X194199799Y-166718425D01*
X194190692Y-166723450D01*
X194181201Y-166727997D01*
X194171327Y-166732064D01*
X194161070Y-166735654D01*
X194150428Y-166738764D01*
X194139404Y-166741396D01*
X194127995Y-166743550D01*
X194122147Y-166744447D01*
X194116204Y-166745225D01*
X194110164Y-166745883D01*
X194104028Y-166746421D01*
X194097797Y-166746840D01*
X194091469Y-166747139D01*
X194085046Y-166747319D01*
X194078527Y-166747378D01*
X194072233Y-166747319D01*
X194066028Y-166747139D01*
X194059911Y-166746840D01*
X194053882Y-166746421D01*
X194047942Y-166745883D01*
X194042090Y-166745225D01*
X194030652Y-166743550D01*
X194019568Y-166741396D01*
X194008838Y-166738764D01*
X193998461Y-166735654D01*
X193988438Y-166732064D01*
X193978769Y-166727997D01*
X193969454Y-166723450D01*
X193960492Y-166718425D01*
X193951884Y-166712922D01*
X193943630Y-166706940D01*
X193935730Y-166700479D01*
X193928183Y-166693540D01*
X193920990Y-166686122D01*
X193914212Y-166678266D01*
X193907870Y-166670009D01*
X193901966Y-166661353D01*
X193896499Y-166652298D01*
X193891469Y-166642843D01*
X193886877Y-166632988D01*
X193882723Y-166622734D01*
X193879005Y-166612080D01*
X193875725Y-166601027D01*
X193874249Y-166595350D01*
X193872882Y-166589574D01*
X193871625Y-166583698D01*
X193870477Y-166577721D01*
X193869438Y-166571645D01*
X193868509Y-166565469D01*
X193867689Y-166559194D01*
X193866978Y-166552818D01*
X193866377Y-166546342D01*
X193865885Y-166539767D01*
X193865502Y-166533091D01*
X193865229Y-166526316D01*
X193865065Y-166519441D01*
X193865010Y-166512466D01*
X193986496Y-166512466D01*
X193986586Y-166522460D01*
X193986854Y-166532110D01*
X193987300Y-166541415D01*
X193987925Y-166550375D01*
X193988729Y-166558991D01*
X193989711Y-166567262D01*
X193990872Y-166575189D01*
X193992212Y-166582771D01*
X193993730Y-166590008D01*
X193995426Y-166596901D01*
X193997302Y-166603449D01*
X193999356Y-166609653D01*
X194001588Y-166615512D01*
X194003999Y-166621026D01*
X194007951Y-166628652D01*
X194009357Y-166631021D01*
X194013838Y-166637673D01*
X194018708Y-166643671D01*
X194023967Y-166649014D01*
X194029615Y-166653704D01*
X194035652Y-166657739D01*
X194042078Y-166661119D01*
X194048893Y-166663845D01*
X194056096Y-166665917D01*
X194063689Y-166667335D01*
X194071671Y-166668098D01*
X194077208Y-166668244D01*
X194083491Y-166668100D01*
X194089555Y-166667669D01*
X194095398Y-166666951D01*
X194103751Y-166665334D01*
X194111610Y-166663071D01*
X194118974Y-166660162D01*
X194125843Y-166656605D01*
X194132218Y-166652403D01*
X194138098Y-166647553D01*
X194143483Y-166642057D01*
X194148374Y-166635915D01*
X194151360Y-166631461D01*
X194155498Y-166624140D01*
X194158031Y-166618818D01*
X194160382Y-166613144D01*
X194162553Y-166607118D01*
X194164543Y-166600738D01*
X194166352Y-166594006D01*
X194167980Y-166586922D01*
X194169427Y-166579485D01*
X194170693Y-166571695D01*
X194171779Y-166563552D01*
X194172683Y-166555057D01*
X194173407Y-166546210D01*
X194173949Y-166537009D01*
X194174311Y-166527456D01*
X194174492Y-166517551D01*
X194174515Y-166512466D01*
X194174432Y-166502544D01*
X194174185Y-166492966D01*
X194173773Y-166483731D01*
X194173196Y-166474840D01*
X194172454Y-166466292D01*
X194171547Y-166458088D01*
X194170475Y-166450227D01*
X194169239Y-166442710D01*
X194167838Y-166435536D01*
X194166271Y-166428706D01*
X194164540Y-166422219D01*
X194162644Y-166416075D01*
X194160584Y-166410275D01*
X194158358Y-166404819D01*
X194154710Y-166397278D01*
X194153412Y-166394936D01*
X194149229Y-166388336D01*
X194144538Y-166382386D01*
X194139341Y-166377084D01*
X194133635Y-166372432D01*
X194127422Y-166368429D01*
X194120702Y-166365075D01*
X194113474Y-166362370D01*
X194105739Y-166360315D01*
X194097496Y-166358908D01*
X194088746Y-166358151D01*
X194082630Y-166358006D01*
X194076349Y-166358151D01*
X194070291Y-166358586D01*
X194064456Y-166359310D01*
X194056122Y-166360939D01*
X194048291Y-166363220D01*
X194040961Y-166366153D01*
X194034135Y-166369738D01*
X194027810Y-166373974D01*
X194021988Y-166378862D01*
X194016668Y-166384401D01*
X194011850Y-166390593D01*
X194008918Y-166395083D01*
X194004911Y-166402414D01*
X194001298Y-166410506D01*
X193999108Y-166416323D01*
X193997094Y-166422477D01*
X193995255Y-166428969D01*
X193993591Y-166435799D01*
X193992102Y-166442966D01*
X193990788Y-166450472D01*
X193989649Y-166458315D01*
X193988686Y-166466496D01*
X193987898Y-166475014D01*
X193987285Y-166483870D01*
X193986847Y-166493064D01*
X193986584Y-166502596D01*
X193986496Y-166512466D01*
X193865010Y-166512466D01*
X193865064Y-166505518D01*
X193865227Y-166498670D01*
X193865498Y-166491921D01*
X193865878Y-166485272D01*
X193866366Y-166478723D01*
X193866963Y-166472273D01*
X193867668Y-166465923D01*
X193868481Y-166459673D01*
X193869403Y-166453522D01*
X193870434Y-166447470D01*
X193871573Y-166441519D01*
X193872820Y-166435667D01*
X193874176Y-166429914D01*
X193877214Y-166418708D01*
X193880685Y-166407900D01*
X193884590Y-166397491D01*
X193888929Y-166387480D01*
X193893702Y-166377867D01*
X193898909Y-166368653D01*
X193904550Y-166359838D01*
X193910625Y-166351421D01*
X193917134Y-166343402D01*
X193920551Y-166339542D01*
X193927703Y-166332142D01*
X193935240Y-166325219D01*
X193943159Y-166318774D01*
X193951463Y-166312806D01*
X193960150Y-166307316D01*
X193969220Y-166302303D01*
X193978674Y-166297768D01*
X193988511Y-166293710D01*
X193998732Y-166290129D01*
X194009337Y-166287026D01*
X194020325Y-166284400D01*
X194031697Y-166282252D01*
X194037526Y-166281356D01*
X194043452Y-166280581D01*
X194049473Y-166279924D01*
X194055590Y-166279387D01*
X194061804Y-166278969D01*
X194068113Y-166278671D01*
X194074518Y-166278492D01*
X194081018Y-166278432D01*
X194094227Y-166278661D01*
G37*
G36*
X194776671Y-166383066D02*
G01*
X194768059Y-166381678D01*
X194759535Y-166380426D01*
X194751099Y-166379311D01*
X194742750Y-166378333D01*
X194734489Y-166377491D01*
X194726315Y-166376786D01*
X194718229Y-166376217D01*
X194710231Y-166375784D01*
X194702320Y-166375488D01*
X194694496Y-166375329D01*
X194689330Y-166375299D01*
X194681392Y-166375492D01*
X194673663Y-166376071D01*
X194666142Y-166377035D01*
X194658830Y-166378385D01*
X194651726Y-166380122D01*
X194644830Y-166382244D01*
X194638143Y-166384752D01*
X194631664Y-166387645D01*
X194625393Y-166390925D01*
X194619331Y-166394590D01*
X194613477Y-166398641D01*
X194607832Y-166403078D01*
X194602395Y-166407901D01*
X194597166Y-166413110D01*
X194592146Y-166418704D01*
X194587334Y-166424685D01*
X194582773Y-166430981D01*
X194578507Y-166437521D01*
X194574534Y-166444307D01*
X194570857Y-166451338D01*
X194567473Y-166458614D01*
X194564383Y-166466134D01*
X194561588Y-166473900D01*
X194559087Y-166481911D01*
X194556880Y-166490167D01*
X194554968Y-166498667D01*
X194553349Y-166507413D01*
X194552025Y-166516404D01*
X194550996Y-166525640D01*
X194550260Y-166535121D01*
X194549819Y-166544847D01*
X194549672Y-166554817D01*
X194549672Y-166738000D01*
X194434193Y-166738000D01*
X194434193Y-166446374D01*
X194434145Y-166440341D01*
X194433998Y-166434112D01*
X194433753Y-166427687D01*
X194433410Y-166421067D01*
X194432970Y-166414251D01*
X194432432Y-166407239D01*
X194431795Y-166400031D01*
X194431061Y-166392628D01*
X194430229Y-166385029D01*
X194429299Y-166377234D01*
X194428625Y-166371928D01*
X194427539Y-166363893D01*
X194426372Y-166355888D01*
X194425121Y-166347915D01*
X194423789Y-166339972D01*
X194422374Y-166332060D01*
X194420876Y-166324180D01*
X194419296Y-166316330D01*
X194417634Y-166308511D01*
X194415889Y-166300723D01*
X194414062Y-166292965D01*
X194412798Y-166287811D01*
X194524466Y-166287811D01*
X194526274Y-166294373D01*
X194527999Y-166300833D01*
X194529640Y-166307191D01*
X194531198Y-166313447D01*
X194532672Y-166319602D01*
X194534062Y-166325654D01*
X194535369Y-166331605D01*
X194536592Y-166337453D01*
X194538271Y-166346035D01*
X194539761Y-166354388D01*
X194541063Y-166362511D01*
X194542177Y-166370406D01*
X194543103Y-166378071D01*
X194543370Y-166380575D01*
X194544982Y-166380575D01*
X194547621Y-166373706D01*
X194550372Y-166367095D01*
X194553236Y-166360741D01*
X194556211Y-166354645D01*
X194559299Y-166348807D01*
X194562499Y-166343226D01*
X194565811Y-166337903D01*
X194569235Y-166332837D01*
X194572772Y-166328029D01*
X194578287Y-166321300D01*
X194584055Y-166315151D01*
X194590075Y-166309581D01*
X194596347Y-166304591D01*
X194600669Y-166301586D01*
X194607422Y-166297448D01*
X194614545Y-166293718D01*
X194622040Y-166290394D01*
X194629905Y-166287477D01*
X194638142Y-166284967D01*
X194643839Y-166283520D01*
X194649700Y-166282254D01*
X194655727Y-166281168D01*
X194661919Y-166280264D01*
X194668275Y-166279540D01*
X194674796Y-166278997D01*
X194681483Y-166278636D01*
X194688334Y-166278455D01*
X194691821Y-166278432D01*
X194699838Y-166278494D01*
X194707842Y-166278679D01*
X194715833Y-166278989D01*
X194723811Y-166279421D01*
X194731777Y-166279978D01*
X194739729Y-166280658D01*
X194747669Y-166281462D01*
X194755596Y-166282389D01*
X194763510Y-166283440D01*
X194771411Y-166284615D01*
X194776671Y-166285466D01*
X194776671Y-166383066D01*
G37*
G36*
X194970551Y-166366066D02*
G01*
X194901674Y-166366066D01*
X194901674Y-166287811D01*
X194976266Y-166287811D01*
X195012463Y-166175264D01*
X195085003Y-166175264D01*
X195085003Y-166287811D01*
X195243712Y-166287811D01*
X195243712Y-166366066D01*
X195085003Y-166366066D01*
X195085003Y-166590721D01*
X195085062Y-166597488D01*
X195085240Y-166603829D01*
X195085536Y-166609746D01*
X195086116Y-166616974D01*
X195086906Y-166623446D01*
X195088189Y-166630473D01*
X195089802Y-166636320D01*
X195091744Y-166640986D01*
X195095157Y-166646369D01*
X195099370Y-166651232D01*
X195104382Y-166655577D01*
X195109314Y-166658888D01*
X195113872Y-166661356D01*
X195120026Y-166663846D01*
X195125822Y-166665528D01*
X195132227Y-166666852D01*
X195139241Y-166667818D01*
X195145289Y-166668333D01*
X195151727Y-166668619D01*
X195156810Y-166668683D01*
X195163197Y-166668640D01*
X195169608Y-166668509D01*
X195176043Y-166668292D01*
X195182502Y-166667987D01*
X195188985Y-166667596D01*
X195195492Y-166667117D01*
X195202023Y-166666552D01*
X195208578Y-166665899D01*
X195215157Y-166665159D01*
X195221760Y-166664333D01*
X195228387Y-166663419D01*
X195235038Y-166662419D01*
X195241714Y-166661331D01*
X195248413Y-166660156D01*
X195255136Y-166658895D01*
X195261884Y-166657546D01*
X195261884Y-166734189D01*
X195254708Y-166735350D01*
X195247799Y-166736449D01*
X195241157Y-166737488D01*
X195234782Y-166738467D01*
X195228673Y-166739384D01*
X195222832Y-166740241D01*
X195214569Y-166741413D01*
X195206907Y-166742448D01*
X195199845Y-166743347D01*
X195193383Y-166744109D01*
X195187521Y-166744734D01*
X195180639Y-166745356D01*
X195179085Y-166745473D01*
X195172972Y-166745920D01*
X195166794Y-166746307D01*
X195160552Y-166746634D01*
X195154246Y-166746902D01*
X195147876Y-166747111D01*
X195141441Y-166747259D01*
X195134943Y-166747349D01*
X195128381Y-166747378D01*
X195121907Y-166747322D01*
X195115567Y-166747152D01*
X195109359Y-166746868D01*
X195103285Y-166746472D01*
X195097343Y-166745962D01*
X195088679Y-166744984D01*
X195080314Y-166743751D01*
X195072247Y-166742264D01*
X195064480Y-166740521D01*
X195057011Y-166738523D01*
X195049841Y-166736271D01*
X195042970Y-166733763D01*
X195040746Y-166732870D01*
X195034302Y-166730006D01*
X195028160Y-166726853D01*
X195022319Y-166723411D01*
X195016779Y-166719681D01*
X195011541Y-166715663D01*
X195006604Y-166711356D01*
X195001968Y-166706760D01*
X194997634Y-166701876D01*
X194993602Y-166696703D01*
X194989870Y-166691242D01*
X194987550Y-166687441D01*
X194984355Y-166681397D01*
X194981474Y-166674915D01*
X194978908Y-166667995D01*
X194976655Y-166660637D01*
X194974717Y-166652841D01*
X194973094Y-166644608D01*
X194971784Y-166635936D01*
X194971086Y-166629911D01*
X194970527Y-166623692D01*
X194970108Y-166617279D01*
X194969829Y-166610670D01*
X194969689Y-166603868D01*
X194969672Y-166600393D01*
X194970551Y-166366066D01*
G37*
G36*
X195666643Y-166659744D02*
G01*
X195812163Y-166659744D01*
X195812163Y-166738000D01*
X195388060Y-166738000D01*
X195388060Y-166659744D01*
X195550872Y-166659744D01*
X195550872Y-166366066D01*
X195431290Y-166366066D01*
X195431290Y-166287811D01*
X195666643Y-166287811D01*
X195666643Y-166659744D01*
G37*
G36*
X195550872Y-166212780D02*
G01*
X195550872Y-166128369D01*
X195666643Y-166128369D01*
X195666643Y-166212780D01*
X195550872Y-166212780D01*
G37*
G36*
X196109260Y-166278497D02*
G01*
X196115232Y-166278693D01*
X196121119Y-166279019D01*
X196132636Y-166280064D01*
X196143813Y-166281630D01*
X196154648Y-166283718D01*
X196165142Y-166286328D01*
X196175295Y-166289461D01*
X196185106Y-166293115D01*
X196194577Y-166297292D01*
X196203706Y-166301991D01*
X196212494Y-166307211D01*
X196220941Y-166312954D01*
X196229047Y-166319219D01*
X196236812Y-166326006D01*
X196244235Y-166333315D01*
X196251318Y-166341146D01*
X196254731Y-166345257D01*
X196261279Y-166353830D01*
X196267405Y-166362842D01*
X196273108Y-166372295D01*
X196278389Y-166382187D01*
X196283247Y-166392518D01*
X196287683Y-166403289D01*
X196289743Y-166408840D01*
X196291696Y-166414500D01*
X196293545Y-166420270D01*
X196295287Y-166426150D01*
X196296924Y-166432140D01*
X196298456Y-166438240D01*
X196299882Y-166444450D01*
X196301202Y-166450770D01*
X196302416Y-166457200D01*
X196303525Y-166463739D01*
X196304529Y-166470389D01*
X196305426Y-166477148D01*
X196306219Y-166484017D01*
X196306905Y-166490997D01*
X196307486Y-166498086D01*
X196307961Y-166505285D01*
X196308331Y-166512594D01*
X196308595Y-166520013D01*
X196308753Y-166527542D01*
X196308806Y-166535180D01*
X196308806Y-166538551D01*
X196006336Y-166538551D01*
X196006441Y-166546018D01*
X196006757Y-166553290D01*
X196007284Y-166560366D01*
X196008021Y-166567246D01*
X196008969Y-166573931D01*
X196010128Y-166580419D01*
X196011497Y-166586712D01*
X196013077Y-166592809D01*
X196014868Y-166598711D01*
X196016869Y-166604416D01*
X196019081Y-166609926D01*
X196022794Y-166617824D01*
X196026980Y-166625281D01*
X196031641Y-166632297D01*
X196033300Y-166634538D01*
X196038533Y-166640850D01*
X196044118Y-166646541D01*
X196050056Y-166651611D01*
X196056347Y-166656060D01*
X196062991Y-166659888D01*
X196069988Y-166663096D01*
X196077337Y-166665682D01*
X196085040Y-166667648D01*
X196093096Y-166668994D01*
X196101504Y-166669718D01*
X196107306Y-166669856D01*
X196114816Y-166669652D01*
X196122107Y-166669041D01*
X196129178Y-166668022D01*
X196136029Y-166666595D01*
X196142660Y-166664761D01*
X196149071Y-166662519D01*
X196155263Y-166659870D01*
X196161235Y-166656813D01*
X196166893Y-166653292D01*
X196172070Y-166649321D01*
X196176766Y-166644902D01*
X196180982Y-166640034D01*
X196184716Y-166634717D01*
X196187970Y-166628951D01*
X196190743Y-166622737D01*
X196193035Y-166616073D01*
X196302212Y-166625599D01*
X196299255Y-166632803D01*
X196296064Y-166639798D01*
X196292638Y-166646583D01*
X196288977Y-166653159D01*
X196285081Y-166659525D01*
X196280951Y-166665681D01*
X196276586Y-166671629D01*
X196271987Y-166677366D01*
X196267152Y-166682894D01*
X196262083Y-166688213D01*
X196256780Y-166693322D01*
X196251241Y-166698221D01*
X196245468Y-166702912D01*
X196239460Y-166707392D01*
X196233218Y-166711663D01*
X196226741Y-166715725D01*
X196220069Y-166719558D01*
X196213242Y-166723143D01*
X196206261Y-166726482D01*
X196199126Y-166729573D01*
X196191836Y-166732417D01*
X196184391Y-166735014D01*
X196176792Y-166737363D01*
X196169038Y-166739465D01*
X196161130Y-166741320D01*
X196153067Y-166742927D01*
X196144850Y-166744287D01*
X196136478Y-166745400D01*
X196127951Y-166746266D01*
X196119270Y-166746884D01*
X196110434Y-166747255D01*
X196101444Y-166747378D01*
X196095005Y-166747318D01*
X196088659Y-166747136D01*
X196082405Y-166746834D01*
X196076243Y-166746410D01*
X196070173Y-166745865D01*
X196064195Y-166745199D01*
X196058309Y-166744412D01*
X196052516Y-166743504D01*
X196041206Y-166741325D01*
X196030264Y-166738661D01*
X196019691Y-166735513D01*
X196009487Y-166731881D01*
X195999651Y-166727765D01*
X195990184Y-166723164D01*
X195981085Y-166718079D01*
X195972356Y-166712510D01*
X195963994Y-166706456D01*
X195956002Y-166699918D01*
X195948378Y-166692896D01*
X195941123Y-166685390D01*
X195934291Y-166677426D01*
X195927900Y-166669070D01*
X195921949Y-166660322D01*
X195916439Y-166651180D01*
X195911370Y-166641646D01*
X195906742Y-166631720D01*
X195902555Y-166621400D01*
X195898808Y-166610688D01*
X195895502Y-166599583D01*
X195894014Y-166593883D01*
X195892637Y-166588086D01*
X195891370Y-166582189D01*
X195890213Y-166576195D01*
X195889166Y-166570103D01*
X195888229Y-166563912D01*
X195887403Y-166557624D01*
X195886686Y-166551237D01*
X195886080Y-166544752D01*
X195885584Y-166538168D01*
X195885199Y-166531487D01*
X195884923Y-166524707D01*
X195884758Y-166517830D01*
X195884703Y-166510854D01*
X195884807Y-166501530D01*
X195885117Y-166492391D01*
X195885635Y-166483436D01*
X195886361Y-166474666D01*
X195887293Y-166466080D01*
X195887302Y-166466011D01*
X196007215Y-166466011D01*
X196196699Y-166466011D01*
X196196245Y-166459536D01*
X196195616Y-166453229D01*
X196194811Y-166447089D01*
X196193832Y-166441116D01*
X196192677Y-166435310D01*
X196190617Y-166426915D01*
X196188162Y-166418896D01*
X196185314Y-166411253D01*
X196182071Y-166403986D01*
X196178434Y-166397096D01*
X196174403Y-166390581D01*
X196169978Y-166384442D01*
X196168415Y-166382480D01*
X196163545Y-166376927D01*
X196158386Y-166371921D01*
X196152939Y-166367462D01*
X196147203Y-166363548D01*
X196141179Y-166360180D01*
X196134866Y-166357358D01*
X196128264Y-166355083D01*
X196121374Y-166353354D01*
X196114196Y-166352170D01*
X196106729Y-166351533D01*
X196101591Y-166351412D01*
X196093774Y-166351680D01*
X196086262Y-166352484D01*
X196079053Y-166353823D01*
X196072149Y-166355698D01*
X196065548Y-166358110D01*
X196059251Y-166361056D01*
X196053259Y-166364539D01*
X196047570Y-166368558D01*
X196042185Y-166373112D01*
X196037105Y-166378202D01*
X196033886Y-166381893D01*
X196029394Y-166387787D01*
X196025314Y-166394093D01*
X196021645Y-166400812D01*
X196018389Y-166407942D01*
X196015545Y-166415484D01*
X196013114Y-166423439D01*
X196011094Y-166431806D01*
X196009977Y-166437613D01*
X196009042Y-166443603D01*
X196008291Y-166449776D01*
X196007723Y-166456133D01*
X196007339Y-166462672D01*
X196007215Y-166466011D01*
X195887302Y-166466011D01*
X195888433Y-166457678D01*
X195889780Y-166449461D01*
X195891334Y-166441428D01*
X195893096Y-166433579D01*
X195895064Y-166425914D01*
X195897240Y-166418434D01*
X195899623Y-166411138D01*
X195902213Y-166404027D01*
X195905011Y-166397100D01*
X195908016Y-166390357D01*
X195911228Y-166383799D01*
X195914649Y-166377412D01*
X195918244Y-166371223D01*
X195922013Y-166365231D01*
X195925956Y-166359435D01*
X195930073Y-166353837D01*
X195934364Y-166348435D01*
X195938829Y-166343231D01*
X195943468Y-166338223D01*
X195948281Y-166333412D01*
X195953268Y-166328798D01*
X195958429Y-166324381D01*
X195963764Y-166320161D01*
X195969274Y-166316138D01*
X195974957Y-166312312D01*
X195980814Y-166308682D01*
X195986845Y-166305250D01*
X195993053Y-166302003D01*
X195999402Y-166298965D01*
X196005894Y-166296136D01*
X196012527Y-166293517D01*
X196019303Y-166291108D01*
X196026220Y-166288908D01*
X196033280Y-166286917D01*
X196040481Y-166285137D01*
X196047824Y-166283565D01*
X196055310Y-166282203D01*
X196062937Y-166281051D01*
X196070706Y-166280108D01*
X196078617Y-166279375D01*
X196086670Y-166278851D01*
X196094865Y-166278537D01*
X196103203Y-166278432D01*
X196109260Y-166278497D01*
G37*
G36*
X196793140Y-166383066D02*
G01*
X196784528Y-166381678D01*
X196776004Y-166380426D01*
X196767568Y-166379311D01*
X196759219Y-166378333D01*
X196750958Y-166377491D01*
X196742784Y-166376786D01*
X196734698Y-166376217D01*
X196726700Y-166375784D01*
X196718789Y-166375488D01*
X196710965Y-166375329D01*
X196705799Y-166375299D01*
X196697861Y-166375492D01*
X196690132Y-166376071D01*
X196682611Y-166377035D01*
X196675299Y-166378385D01*
X196668195Y-166380122D01*
X196661299Y-166382244D01*
X196654612Y-166384752D01*
X196648133Y-166387645D01*
X196641862Y-166390925D01*
X196635800Y-166394590D01*
X196629946Y-166398641D01*
X196624301Y-166403078D01*
X196618864Y-166407901D01*
X196613635Y-166413110D01*
X196608615Y-166418704D01*
X196603803Y-166424685D01*
X196599242Y-166430981D01*
X196594976Y-166437521D01*
X196591003Y-166444307D01*
X196587325Y-166451338D01*
X196583942Y-166458614D01*
X196580852Y-166466134D01*
X196578057Y-166473900D01*
X196575556Y-166481911D01*
X196573349Y-166490167D01*
X196571437Y-166498667D01*
X196569818Y-166507413D01*
X196568494Y-166516404D01*
X196567465Y-166525640D01*
X196566729Y-166535121D01*
X196566288Y-166544847D01*
X196566140Y-166554817D01*
X196566140Y-166738000D01*
X196450662Y-166738000D01*
X196450662Y-166446374D01*
X196450614Y-166440341D01*
X196450467Y-166434112D01*
X196450222Y-166427687D01*
X196449879Y-166421067D01*
X196449439Y-166414251D01*
X196448900Y-166407239D01*
X196448264Y-166400031D01*
X196447530Y-166392628D01*
X196446698Y-166385029D01*
X196445768Y-166377234D01*
X196445094Y-166371928D01*
X196444008Y-166363893D01*
X196442841Y-166355888D01*
X196441590Y-166347915D01*
X196440258Y-166339972D01*
X196438843Y-166332060D01*
X196437345Y-166324180D01*
X196435765Y-166316330D01*
X196434103Y-166308511D01*
X196432358Y-166300723D01*
X196430531Y-166292965D01*
X196429267Y-166287811D01*
X196540935Y-166287811D01*
X196542743Y-166294373D01*
X196544468Y-166300833D01*
X196546109Y-166307191D01*
X196547667Y-166313447D01*
X196549141Y-166319602D01*
X196550531Y-166325654D01*
X196551838Y-166331605D01*
X196553061Y-166337453D01*
X196554740Y-166346035D01*
X196556230Y-166354388D01*
X196557532Y-166362511D01*
X196558646Y-166370406D01*
X196559572Y-166378071D01*
X196559839Y-166380575D01*
X196561451Y-166380575D01*
X196564090Y-166373706D01*
X196566841Y-166367095D01*
X196569705Y-166360741D01*
X196572680Y-166354645D01*
X196575768Y-166348807D01*
X196578968Y-166343226D01*
X196582280Y-166337903D01*
X196585704Y-166332837D01*
X196589241Y-166328029D01*
X196594756Y-166321300D01*
X196600524Y-166315151D01*
X196606544Y-166309581D01*
X196612816Y-166304591D01*
X196617138Y-166301586D01*
X196623891Y-166297448D01*
X196631014Y-166293718D01*
X196638509Y-166290394D01*
X196646374Y-166287477D01*
X196654611Y-166284967D01*
X196660308Y-166283520D01*
X196666169Y-166282254D01*
X196672196Y-166281168D01*
X196678388Y-166280264D01*
X196684744Y-166279540D01*
X196691265Y-166278997D01*
X196697951Y-166278636D01*
X196704802Y-166278455D01*
X196708290Y-166278432D01*
X196716307Y-166278494D01*
X196724311Y-166278679D01*
X196732302Y-166278989D01*
X196740280Y-166279421D01*
X196748246Y-166279978D01*
X196756198Y-166280658D01*
X196764138Y-166281462D01*
X196772065Y-166282389D01*
X196779979Y-166283440D01*
X196787880Y-166284615D01*
X196793140Y-166285466D01*
X196793140Y-166383066D01*
G37*
D11*
G36*
X189926280Y-165506000D02*
G01*
X189659860Y-165049070D01*
X189555226Y-165165427D01*
X189555226Y-165506000D01*
X189312254Y-165506000D01*
X189312254Y-164399286D01*
X189555226Y-164399286D01*
X189555226Y-164890801D01*
X189914556Y-164399286D01*
X190197390Y-164399286D01*
X189818129Y-164874387D01*
X190213217Y-165506000D01*
X189926280Y-165506000D01*
G37*
G36*
X190739707Y-164586995D02*
G01*
X190751651Y-164587387D01*
X190763424Y-164588039D01*
X190786459Y-164590128D01*
X190808812Y-164593260D01*
X190830483Y-164597437D01*
X190851471Y-164602657D01*
X190871776Y-164608922D01*
X190891400Y-164616231D01*
X190910341Y-164624584D01*
X190928599Y-164633982D01*
X190946176Y-164644423D01*
X190963070Y-164655908D01*
X190979281Y-164668438D01*
X190994811Y-164682012D01*
X191009658Y-164696630D01*
X191023822Y-164712292D01*
X191030648Y-164720515D01*
X191043745Y-164737660D01*
X191055996Y-164755685D01*
X191067403Y-164774590D01*
X191077964Y-164794374D01*
X191087681Y-164815036D01*
X191096553Y-164836579D01*
X191100672Y-164847680D01*
X191104580Y-164859000D01*
X191108276Y-164870541D01*
X191111762Y-164882301D01*
X191115036Y-164894281D01*
X191118098Y-164906481D01*
X191120950Y-164918901D01*
X191123591Y-164931540D01*
X191126020Y-164944400D01*
X191128238Y-164957479D01*
X191130244Y-164970778D01*
X191132040Y-164984297D01*
X191133624Y-164998035D01*
X191134997Y-165011994D01*
X191136159Y-165026172D01*
X191137109Y-165040570D01*
X191137849Y-165055188D01*
X191138377Y-165070026D01*
X191138694Y-165085084D01*
X191138799Y-165100361D01*
X191138799Y-165107102D01*
X190533859Y-165107102D01*
X190534069Y-165122037D01*
X190534701Y-165136581D01*
X190535754Y-165150733D01*
X190537229Y-165164493D01*
X190539125Y-165177862D01*
X190541442Y-165190839D01*
X190544181Y-165203425D01*
X190547341Y-165215619D01*
X190550922Y-165227422D01*
X190554924Y-165238833D01*
X190559348Y-165249852D01*
X190566774Y-165265648D01*
X190575148Y-165280562D01*
X190584469Y-165294595D01*
X190587787Y-165299077D01*
X190598252Y-165311700D01*
X190609422Y-165323082D01*
X190621299Y-165333222D01*
X190633881Y-165342120D01*
X190647168Y-165349777D01*
X190661162Y-165356192D01*
X190675862Y-165361365D01*
X190691267Y-165365297D01*
X190707378Y-165367988D01*
X190724195Y-165369436D01*
X190735799Y-165369712D01*
X190750819Y-165369304D01*
X190765401Y-165368082D01*
X190779542Y-165366044D01*
X190793244Y-165363191D01*
X190806507Y-165359522D01*
X190819330Y-165355039D01*
X190831713Y-165349741D01*
X190843656Y-165343627D01*
X190854972Y-165336584D01*
X190865327Y-165328643D01*
X190874719Y-165319804D01*
X190883150Y-165310068D01*
X190890619Y-165299434D01*
X190897127Y-165287903D01*
X190902673Y-165275474D01*
X190907257Y-165262147D01*
X191125610Y-165281198D01*
X191119697Y-165295607D01*
X191113314Y-165309596D01*
X191106462Y-165323167D01*
X191099140Y-165336318D01*
X191091349Y-165349050D01*
X191083089Y-165361363D01*
X191074359Y-165373258D01*
X191065160Y-165384733D01*
X191055491Y-165395789D01*
X191045353Y-165406426D01*
X191034746Y-165416644D01*
X191023669Y-165426443D01*
X191012123Y-165435824D01*
X191000107Y-165444785D01*
X190987622Y-165453327D01*
X190974668Y-165461450D01*
X190961324Y-165469116D01*
X190947672Y-165476287D01*
X190933710Y-165482964D01*
X190919439Y-165489147D01*
X190904858Y-165494835D01*
X190889969Y-165500028D01*
X190874771Y-165504726D01*
X190859263Y-165508930D01*
X190843447Y-165512640D01*
X190827321Y-165515855D01*
X190810886Y-165518575D01*
X190794142Y-165520801D01*
X190777089Y-165522532D01*
X190759727Y-165523768D01*
X190742055Y-165524510D01*
X190724075Y-165524757D01*
X190711198Y-165524636D01*
X190698505Y-165524273D01*
X190685996Y-165523668D01*
X190673672Y-165522820D01*
X190661532Y-165521731D01*
X190649577Y-165520399D01*
X190637806Y-165518825D01*
X190626219Y-165517009D01*
X190603598Y-165512650D01*
X190581715Y-165507323D01*
X190560569Y-165501027D01*
X190540160Y-165493763D01*
X190520489Y-165485530D01*
X190501554Y-165476329D01*
X190483358Y-165466159D01*
X190465898Y-165455020D01*
X190449176Y-165442913D01*
X190433191Y-165429837D01*
X190417943Y-165415793D01*
X190403433Y-165400780D01*
X190389769Y-165384853D01*
X190376986Y-165368141D01*
X190365085Y-165350644D01*
X190354065Y-165332361D01*
X190343927Y-165313293D01*
X190334671Y-165293440D01*
X190326296Y-165272801D01*
X190318803Y-165251376D01*
X190312191Y-165229167D01*
X190309216Y-165217767D01*
X190306461Y-165206172D01*
X190303926Y-165194379D01*
X190301612Y-165182391D01*
X190299518Y-165170206D01*
X190297645Y-165157825D01*
X190295992Y-165145248D01*
X190294560Y-165132474D01*
X190293348Y-165119504D01*
X190292356Y-165106337D01*
X190291584Y-165092974D01*
X190291033Y-165079415D01*
X190290703Y-165065660D01*
X190290593Y-165051708D01*
X190290800Y-165033061D01*
X190291422Y-165014783D01*
X190292458Y-164996873D01*
X190293908Y-164979333D01*
X190295773Y-164962160D01*
X190295792Y-164962022D01*
X190535617Y-164962022D01*
X190914584Y-164962022D01*
X190913676Y-164949073D01*
X190912418Y-164936459D01*
X190910810Y-164924179D01*
X190908851Y-164912233D01*
X190906541Y-164900621D01*
X190902421Y-164883831D01*
X190897512Y-164867793D01*
X190891814Y-164852507D01*
X190885329Y-164837973D01*
X190878055Y-164824192D01*
X190869993Y-164811162D01*
X190861143Y-164798885D01*
X190858018Y-164794960D01*
X190848277Y-164783855D01*
X190837959Y-164773843D01*
X190827064Y-164764924D01*
X190815593Y-164757096D01*
X190803544Y-164750361D01*
X190790918Y-164744717D01*
X190777715Y-164740167D01*
X190763935Y-164736708D01*
X190749578Y-164734341D01*
X190734644Y-164733067D01*
X190724368Y-164732824D01*
X190708735Y-164733360D01*
X190693710Y-164734968D01*
X190679293Y-164737647D01*
X190665484Y-164741397D01*
X190652283Y-164746220D01*
X190639690Y-164752113D01*
X190627704Y-164759079D01*
X190616327Y-164767116D01*
X190605558Y-164776225D01*
X190595396Y-164786405D01*
X190588960Y-164793787D01*
X190579975Y-164805575D01*
X190571814Y-164818187D01*
X190564477Y-164831624D01*
X190557965Y-164845884D01*
X190552278Y-164860969D01*
X190547414Y-164876879D01*
X190543375Y-164893612D01*
X190541140Y-164905226D01*
X190539272Y-164917206D01*
X190537769Y-164929553D01*
X190536634Y-164942266D01*
X190535864Y-164955345D01*
X190535617Y-164962022D01*
X190295792Y-164962022D01*
X190298053Y-164945357D01*
X190300747Y-164928922D01*
X190303855Y-164912856D01*
X190307378Y-164897158D01*
X190311315Y-164881829D01*
X190315667Y-164866869D01*
X190320433Y-164852277D01*
X190325614Y-164838054D01*
X190331209Y-164824200D01*
X190337218Y-164810715D01*
X190343642Y-164797598D01*
X190350484Y-164784825D01*
X190357674Y-164772447D01*
X190365212Y-164760462D01*
X190373098Y-164748871D01*
X190381332Y-164737674D01*
X190389914Y-164726871D01*
X190398844Y-164716462D01*
X190408122Y-164706446D01*
X190417749Y-164696824D01*
X190427723Y-164687597D01*
X190438045Y-164678763D01*
X190448715Y-164670323D01*
X190459734Y-164662276D01*
X190471100Y-164654624D01*
X190482815Y-164647365D01*
X190494877Y-164640501D01*
X190507293Y-164634006D01*
X190519992Y-164627930D01*
X190532975Y-164622273D01*
X190546242Y-164617035D01*
X190559793Y-164612216D01*
X190573627Y-164607816D01*
X190587746Y-164603835D01*
X190602149Y-164600274D01*
X190616835Y-164597131D01*
X190631806Y-164594407D01*
X190647061Y-164592103D01*
X190662599Y-164590217D01*
X190678421Y-164588750D01*
X190694528Y-164587703D01*
X190710918Y-164587074D01*
X190727592Y-164586865D01*
X190739707Y-164586995D01*
G37*
G36*
X192126517Y-165244269D02*
G01*
X192126103Y-165260426D01*
X192124859Y-165276143D01*
X192122787Y-165291420D01*
X192119886Y-165306258D01*
X192116156Y-165320656D01*
X192111597Y-165334614D01*
X192106209Y-165348133D01*
X192099993Y-165361212D01*
X192092947Y-165373852D01*
X192085072Y-165386052D01*
X192076369Y-165397812D01*
X192066837Y-165409133D01*
X192056475Y-165420014D01*
X192045285Y-165430455D01*
X192033266Y-165440457D01*
X192020418Y-165450019D01*
X192006875Y-165459069D01*
X191992698Y-165467536D01*
X191977887Y-165475418D01*
X191962441Y-165482717D01*
X191946361Y-165489432D01*
X191929647Y-165495563D01*
X191912298Y-165501110D01*
X191894316Y-165506073D01*
X191875699Y-165510452D01*
X191856447Y-165514247D01*
X191836562Y-165517459D01*
X191816042Y-165520086D01*
X191794888Y-165522130D01*
X191773099Y-165523590D01*
X191750677Y-165524465D01*
X191727620Y-165524757D01*
X191704950Y-165524536D01*
X191682955Y-165523873D01*
X191661637Y-165522769D01*
X191640993Y-165521222D01*
X191621025Y-165519233D01*
X191601733Y-165516803D01*
X191583116Y-165513930D01*
X191565174Y-165510616D01*
X191547908Y-165506859D01*
X191531317Y-165502661D01*
X191515402Y-165498021D01*
X191500163Y-165492939D01*
X191485598Y-165487415D01*
X191471710Y-165481449D01*
X191458497Y-165475041D01*
X191445959Y-165468191D01*
X191434014Y-165460873D01*
X191422580Y-165453060D01*
X191411657Y-165444753D01*
X191401244Y-165435951D01*
X191391342Y-165426654D01*
X191381951Y-165416863D01*
X191373070Y-165406577D01*
X191364699Y-165395797D01*
X191356840Y-165384522D01*
X191349491Y-165372753D01*
X191342652Y-165360489D01*
X191336325Y-165347730D01*
X191330507Y-165334477D01*
X191325201Y-165320729D01*
X191320405Y-165306487D01*
X191316120Y-165291750D01*
X191519818Y-165262147D01*
X191524535Y-165276550D01*
X191530040Y-165289863D01*
X191536332Y-165302086D01*
X191543412Y-165313219D01*
X191551280Y-165323262D01*
X191559935Y-165332215D01*
X191569378Y-165340078D01*
X191579609Y-165346851D01*
X191591218Y-165352621D01*
X191604796Y-165357622D01*
X191616272Y-165360868D01*
X191628856Y-165363681D01*
X191642548Y-165366061D01*
X191657347Y-165368008D01*
X191673253Y-165369523D01*
X191690268Y-165370605D01*
X191702226Y-165371086D01*
X191714677Y-165371374D01*
X191727620Y-165371471D01*
X191739542Y-165371371D01*
X191756656Y-165370848D01*
X191772848Y-165369877D01*
X191788117Y-165368457D01*
X191802465Y-165366590D01*
X191815890Y-165364274D01*
X191828393Y-165361510D01*
X191839974Y-165358298D01*
X191853980Y-165353317D01*
X191866347Y-165347540D01*
X191869183Y-165345972D01*
X191879624Y-165339143D01*
X191888674Y-165331409D01*
X191898027Y-165320465D01*
X191905206Y-165308104D01*
X191910209Y-165294327D01*
X191912645Y-165282285D01*
X191913689Y-165269336D01*
X191913733Y-165265958D01*
X191912853Y-165252839D01*
X191910212Y-165240593D01*
X191905812Y-165229220D01*
X191899651Y-165218720D01*
X191891730Y-165209092D01*
X191882048Y-165200338D01*
X191877683Y-165197081D01*
X191865292Y-165189306D01*
X191853628Y-165183364D01*
X191840407Y-165177669D01*
X191825629Y-165172222D01*
X191813523Y-165168299D01*
X191800542Y-165164515D01*
X191786685Y-165160869D01*
X191771952Y-165157364D01*
X191756343Y-165153997D01*
X191744212Y-165151548D01*
X191732331Y-165149109D01*
X191720699Y-165146682D01*
X191698181Y-165141859D01*
X191676659Y-165137081D01*
X191656134Y-165132345D01*
X191636604Y-165127654D01*
X191618071Y-165123005D01*
X191600534Y-165118401D01*
X191583992Y-165113839D01*
X191568447Y-165109322D01*
X191553898Y-165104848D01*
X191540344Y-165100417D01*
X191527787Y-165096030D01*
X191516226Y-165091686D01*
X191500752Y-165085252D01*
X191491681Y-165081017D01*
X191479160Y-165074470D01*
X191467206Y-165067577D01*
X191455818Y-165060339D01*
X191444997Y-165052757D01*
X191434743Y-165044828D01*
X191425056Y-165036555D01*
X191415935Y-165027937D01*
X191407381Y-165018973D01*
X191399394Y-165009664D01*
X191391973Y-165000010D01*
X191387341Y-164993383D01*
X191380951Y-164983055D01*
X191375189Y-164972294D01*
X191370056Y-164961100D01*
X191365551Y-164949474D01*
X191361675Y-164937415D01*
X191358428Y-164924923D01*
X191355809Y-164911998D01*
X191353818Y-164898641D01*
X191352457Y-164884851D01*
X191351723Y-164870628D01*
X191351584Y-164860905D01*
X191351968Y-164844936D01*
X191353122Y-164829416D01*
X191355046Y-164814345D01*
X191357739Y-164799722D01*
X191361201Y-164785549D01*
X191365432Y-164771824D01*
X191370433Y-164758548D01*
X191376203Y-164745720D01*
X191382743Y-164733342D01*
X191390052Y-164721412D01*
X191398130Y-164709931D01*
X191406978Y-164698899D01*
X191416595Y-164688316D01*
X191426981Y-164678181D01*
X191438137Y-164668495D01*
X191450062Y-164659258D01*
X191462693Y-164650492D01*
X191475964Y-164642291D01*
X191489877Y-164634656D01*
X191504431Y-164627586D01*
X191519626Y-164621082D01*
X191535462Y-164615144D01*
X191551939Y-164609771D01*
X191569057Y-164604963D01*
X191586817Y-164600721D01*
X191605218Y-164597045D01*
X191624259Y-164593935D01*
X191643942Y-164591389D01*
X191664266Y-164589410D01*
X191685232Y-164587996D01*
X191706838Y-164587148D01*
X191729085Y-164586865D01*
X191748735Y-164587108D01*
X191767897Y-164587836D01*
X191786571Y-164589049D01*
X191804758Y-164590748D01*
X191822457Y-164592933D01*
X191839668Y-164595603D01*
X191856391Y-164598758D01*
X191872627Y-164602399D01*
X191888375Y-164606525D01*
X191903635Y-164611136D01*
X191918408Y-164616233D01*
X191932692Y-164621816D01*
X191946489Y-164627884D01*
X191959799Y-164634437D01*
X191972620Y-164641476D01*
X191984954Y-164649000D01*
X191996796Y-164656947D01*
X192008067Y-164665326D01*
X192018768Y-164674139D01*
X192028900Y-164683383D01*
X192038460Y-164693061D01*
X192047451Y-164703172D01*
X192055872Y-164713715D01*
X192063722Y-164724691D01*
X192071003Y-164736100D01*
X192077713Y-164747941D01*
X192083853Y-164760216D01*
X192089423Y-164772923D01*
X192094423Y-164786063D01*
X192098852Y-164799635D01*
X192102712Y-164813641D01*
X192106001Y-164828079D01*
X191900544Y-164849475D01*
X191897604Y-164836276D01*
X191893766Y-164823939D01*
X191889031Y-164812463D01*
X191883398Y-164801847D01*
X191876868Y-164792093D01*
X191867442Y-164781111D01*
X191856614Y-164771473D01*
X191851891Y-164767995D01*
X191841509Y-164761676D01*
X191829707Y-164756198D01*
X191816486Y-164751564D01*
X191801845Y-164747772D01*
X191789933Y-164745481D01*
X191777222Y-164743664D01*
X191763713Y-164742321D01*
X191749405Y-164741452D01*
X191734298Y-164741057D01*
X191729085Y-164741031D01*
X191714004Y-164741222D01*
X191699643Y-164741793D01*
X191686004Y-164742747D01*
X191673087Y-164744081D01*
X191660890Y-164745797D01*
X191645750Y-164748677D01*
X191631892Y-164752235D01*
X191619317Y-164756471D01*
X191608024Y-164761385D01*
X191605401Y-164762720D01*
X191593580Y-164770220D01*
X191583762Y-164779166D01*
X191575949Y-164789557D01*
X191570138Y-164801394D01*
X191566331Y-164814676D01*
X191564729Y-164826343D01*
X191564368Y-164835699D01*
X191565141Y-164847579D01*
X191568108Y-164860796D01*
X191573302Y-164872879D01*
X191580720Y-164883829D01*
X191590365Y-164893645D01*
X191596022Y-164898128D01*
X191607050Y-164905079D01*
X191620168Y-164911643D01*
X191632166Y-164916617D01*
X191645502Y-164921343D01*
X191660175Y-164925822D01*
X191672057Y-164929018D01*
X191684691Y-164932076D01*
X191698078Y-164934995D01*
X191702707Y-164935937D01*
X191715730Y-164938654D01*
X191728568Y-164941382D01*
X191741220Y-164944122D01*
X191753687Y-164946873D01*
X191765968Y-164949635D01*
X191778064Y-164952409D01*
X191789974Y-164955195D01*
X191801699Y-164957992D01*
X191813238Y-164960800D01*
X191830199Y-164965034D01*
X191846743Y-164969294D01*
X191862870Y-164973580D01*
X191878579Y-164977891D01*
X191888820Y-164980780D01*
X191903759Y-164985143D01*
X191918132Y-164989662D01*
X191931937Y-164994335D01*
X191945176Y-164999162D01*
X191957848Y-165004144D01*
X191969954Y-165009281D01*
X191981493Y-165014572D01*
X191992465Y-165020017D01*
X192002870Y-165025618D01*
X192015862Y-165033325D01*
X192018953Y-165035295D01*
X192030882Y-165043492D01*
X192042199Y-165052257D01*
X192052901Y-165061590D01*
X192062990Y-165071491D01*
X192072465Y-165081960D01*
X192081326Y-165092997D01*
X192089574Y-165104602D01*
X192097208Y-165116774D01*
X192104077Y-165129601D01*
X192110031Y-165143317D01*
X192115068Y-165157921D01*
X192118245Y-165169458D01*
X192120907Y-165181493D01*
X192123054Y-165194029D01*
X192124685Y-165207065D01*
X192125802Y-165220600D01*
X192126403Y-165234635D01*
X192126517Y-165244269D01*
G37*
G36*
X192495226Y-164762133D02*
G01*
X192357473Y-164762133D01*
X192357473Y-164605623D01*
X192506657Y-164605623D01*
X192579050Y-164380528D01*
X192724131Y-164380528D01*
X192724131Y-164605623D01*
X193041549Y-164605623D01*
X193041549Y-164762133D01*
X192724131Y-164762133D01*
X192724131Y-165211443D01*
X192724249Y-165224976D01*
X192724605Y-165237659D01*
X192725197Y-165249493D01*
X192726356Y-165263948D01*
X192727936Y-165276892D01*
X192730503Y-165290947D01*
X192733729Y-165302641D01*
X192737613Y-165311973D01*
X192744439Y-165322738D01*
X192752864Y-165332465D01*
X192762888Y-165341155D01*
X192772752Y-165347777D01*
X192781870Y-165352713D01*
X192794176Y-165357693D01*
X192805770Y-165361056D01*
X192818579Y-165363704D01*
X192832606Y-165365636D01*
X192844703Y-165366666D01*
X192857578Y-165367238D01*
X192867745Y-165367367D01*
X192880519Y-165367280D01*
X192893341Y-165367019D01*
X192906210Y-165366584D01*
X192919128Y-165365975D01*
X192932094Y-165365192D01*
X192945108Y-165364235D01*
X192958170Y-165363104D01*
X192971280Y-165361799D01*
X192984438Y-165360319D01*
X192997645Y-165358666D01*
X193010899Y-165356839D01*
X193024201Y-165354838D01*
X193037552Y-165352662D01*
X193050951Y-165350313D01*
X193064397Y-165347790D01*
X193077892Y-165345092D01*
X193077892Y-165498379D01*
X193063541Y-165500700D01*
X193049723Y-165502899D01*
X193036439Y-165504977D01*
X193023688Y-165506934D01*
X193011471Y-165508769D01*
X192999788Y-165510483D01*
X192983263Y-165512826D01*
X192967938Y-165514896D01*
X192953814Y-165516694D01*
X192940890Y-165518218D01*
X192929167Y-165519469D01*
X192915403Y-165520712D01*
X192912295Y-165520947D01*
X192900068Y-165521840D01*
X192887712Y-165522614D01*
X192875228Y-165523269D01*
X192862616Y-165523805D01*
X192849876Y-165524222D01*
X192837008Y-165524519D01*
X192824011Y-165524698D01*
X192810886Y-165524757D01*
X192797939Y-165524644D01*
X192785259Y-165524304D01*
X192772843Y-165523737D01*
X192760694Y-165522944D01*
X192748810Y-165521924D01*
X192731482Y-165519969D01*
X192714752Y-165517503D01*
X192698619Y-165514528D01*
X192683084Y-165511043D01*
X192668147Y-165507047D01*
X192653807Y-165502542D01*
X192640065Y-165497526D01*
X192635617Y-165495741D01*
X192622729Y-165490012D01*
X192610444Y-165483706D01*
X192598762Y-165476823D01*
X192587683Y-165469363D01*
X192577206Y-165461326D01*
X192567333Y-165452712D01*
X192558061Y-165443521D01*
X192549393Y-165433752D01*
X192541328Y-165423407D01*
X192533865Y-165412485D01*
X192529225Y-165404883D01*
X192522835Y-165392795D01*
X192517073Y-165379831D01*
X192511940Y-165365991D01*
X192507435Y-165351275D01*
X192503559Y-165335683D01*
X192500312Y-165319216D01*
X192497693Y-165301872D01*
X192496296Y-165289823D01*
X192495179Y-165277385D01*
X192494341Y-165264558D01*
X192493782Y-165251341D01*
X192493503Y-165237736D01*
X192493468Y-165230787D01*
X192495226Y-164762133D01*
G37*
G36*
X194123935Y-164796132D02*
G01*
X194106712Y-164793356D01*
X194089664Y-164790853D01*
X194072791Y-164788623D01*
X194056094Y-164786666D01*
X194039571Y-164784982D01*
X194023224Y-164783572D01*
X194007052Y-164782434D01*
X193991055Y-164781569D01*
X193975233Y-164780977D01*
X193959587Y-164780659D01*
X193949253Y-164780598D01*
X193933378Y-164780984D01*
X193917920Y-164782142D01*
X193902878Y-164784071D01*
X193888253Y-164786771D01*
X193874045Y-164790244D01*
X193860254Y-164794488D01*
X193846879Y-164799504D01*
X193833921Y-164805291D01*
X193821380Y-164811850D01*
X193809256Y-164819181D01*
X193797548Y-164827283D01*
X193786257Y-164836157D01*
X193775383Y-164845803D01*
X193764926Y-164856220D01*
X193754885Y-164867409D01*
X193745261Y-164879370D01*
X193736140Y-164891962D01*
X193727607Y-164905043D01*
X193719663Y-164918615D01*
X193712307Y-164932676D01*
X193705539Y-164947228D01*
X193699360Y-164962269D01*
X193693770Y-164977801D01*
X193688768Y-164993822D01*
X193684354Y-165010334D01*
X193680529Y-165027335D01*
X193677293Y-165044827D01*
X193674644Y-165062809D01*
X193672585Y-165081280D01*
X193671114Y-165100242D01*
X193670231Y-165119694D01*
X193669937Y-165139635D01*
X193669937Y-165506000D01*
X193438981Y-165506000D01*
X193438981Y-164922748D01*
X193438883Y-164910682D01*
X193438589Y-164898224D01*
X193438100Y-164885375D01*
X193437414Y-164872134D01*
X193436533Y-164858502D01*
X193435457Y-164844478D01*
X193434184Y-164830063D01*
X193432716Y-164815256D01*
X193431052Y-164800058D01*
X193429192Y-164784468D01*
X193427843Y-164773857D01*
X193425672Y-164757786D01*
X193423337Y-164741777D01*
X193420836Y-164725830D01*
X193418171Y-164709945D01*
X193415341Y-164694121D01*
X193412346Y-164678360D01*
X193409186Y-164662660D01*
X193405861Y-164647022D01*
X193402372Y-164631446D01*
X193398717Y-164615931D01*
X193396189Y-164605623D01*
X193619525Y-164605623D01*
X193623142Y-164618747D01*
X193626591Y-164631667D01*
X193629874Y-164644383D01*
X193632989Y-164656895D01*
X193635937Y-164669204D01*
X193638718Y-164681309D01*
X193641332Y-164693210D01*
X193643778Y-164704907D01*
X193647135Y-164722071D01*
X193650115Y-164738777D01*
X193652720Y-164755023D01*
X193654948Y-164770812D01*
X193656800Y-164786142D01*
X193657334Y-164791150D01*
X193660558Y-164791150D01*
X193665836Y-164777412D01*
X193671338Y-164764190D01*
X193677065Y-164751483D01*
X193683016Y-164739291D01*
X193689191Y-164727614D01*
X193695591Y-164716452D01*
X193702216Y-164705806D01*
X193709064Y-164695675D01*
X193716138Y-164686059D01*
X193727168Y-164672601D01*
X193738703Y-164660303D01*
X193750743Y-164649163D01*
X193763289Y-164639183D01*
X193771933Y-164633173D01*
X193785438Y-164624897D01*
X193799685Y-164617436D01*
X193814673Y-164610788D01*
X193830404Y-164604954D01*
X193846877Y-164599934D01*
X193858271Y-164597040D01*
X193869994Y-164594508D01*
X193882048Y-164592337D01*
X193894431Y-164590528D01*
X193907144Y-164589081D01*
X193920186Y-164587995D01*
X193933559Y-164587272D01*
X193947261Y-164586910D01*
X193954235Y-164586865D01*
X193970269Y-164586988D01*
X193986277Y-164587359D01*
X194002260Y-164587978D01*
X194018216Y-164588843D01*
X194034147Y-164589956D01*
X194050052Y-164591316D01*
X194065932Y-164592924D01*
X194081785Y-164594778D01*
X194097613Y-164596880D01*
X194113415Y-164599230D01*
X194123935Y-164600933D01*
X194123935Y-164796132D01*
G37*
G36*
X194772644Y-164586995D02*
G01*
X194784589Y-164587387D01*
X194796362Y-164588039D01*
X194819397Y-164590128D01*
X194841750Y-164593260D01*
X194863420Y-164597437D01*
X194884408Y-164602657D01*
X194904714Y-164608922D01*
X194924338Y-164616231D01*
X194943279Y-164624584D01*
X194961537Y-164633982D01*
X194979114Y-164644423D01*
X194996008Y-164655908D01*
X195012219Y-164668438D01*
X195027749Y-164682012D01*
X195042595Y-164696630D01*
X195056760Y-164712292D01*
X195063586Y-164720515D01*
X195076683Y-164737660D01*
X195088934Y-164755685D01*
X195100341Y-164774590D01*
X195110902Y-164794374D01*
X195120619Y-164815036D01*
X195129491Y-164836579D01*
X195133610Y-164847680D01*
X195137518Y-164859000D01*
X195141214Y-164870541D01*
X195144699Y-164882301D01*
X195147974Y-164894281D01*
X195151036Y-164906481D01*
X195153888Y-164918901D01*
X195156528Y-164931540D01*
X195158958Y-164944400D01*
X195161176Y-164957479D01*
X195163182Y-164970778D01*
X195164978Y-164984297D01*
X195166562Y-164998035D01*
X195167935Y-165011994D01*
X195169097Y-165026172D01*
X195170047Y-165040570D01*
X195170787Y-165055188D01*
X195171315Y-165070026D01*
X195171631Y-165085084D01*
X195171737Y-165100361D01*
X195171737Y-165107102D01*
X194566796Y-165107102D01*
X194567007Y-165122037D01*
X194567639Y-165136581D01*
X194568692Y-165150733D01*
X194570167Y-165164493D01*
X194572063Y-165177862D01*
X194574380Y-165190839D01*
X194577119Y-165203425D01*
X194580279Y-165215619D01*
X194583860Y-165227422D01*
X194587862Y-165238833D01*
X194592286Y-165249852D01*
X194599712Y-165265648D01*
X194608086Y-165280562D01*
X194617407Y-165294595D01*
X194620725Y-165299077D01*
X194631190Y-165311700D01*
X194642360Y-165323082D01*
X194654236Y-165333222D01*
X194666818Y-165342120D01*
X194680106Y-165349777D01*
X194694100Y-165356192D01*
X194708800Y-165361365D01*
X194724205Y-165365297D01*
X194740316Y-165367988D01*
X194757133Y-165369436D01*
X194768736Y-165369712D01*
X194783757Y-165369304D01*
X194798339Y-165368082D01*
X194812480Y-165366044D01*
X194826182Y-165363191D01*
X194839445Y-165359522D01*
X194852267Y-165355039D01*
X194864651Y-165349741D01*
X194876594Y-165343627D01*
X194887910Y-165336584D01*
X194898265Y-165328643D01*
X194907657Y-165319804D01*
X194916088Y-165310068D01*
X194923557Y-165299434D01*
X194930065Y-165287903D01*
X194935611Y-165275474D01*
X194940195Y-165262147D01*
X195158548Y-165281198D01*
X195152635Y-165295607D01*
X195146252Y-165309596D01*
X195139400Y-165323167D01*
X195132078Y-165336318D01*
X195124287Y-165349050D01*
X195116027Y-165361363D01*
X195107297Y-165373258D01*
X195098098Y-165384733D01*
X195088429Y-165395789D01*
X195078291Y-165406426D01*
X195067684Y-165416644D01*
X195056607Y-165426443D01*
X195045061Y-165435824D01*
X195033045Y-165444785D01*
X195020560Y-165453327D01*
X195007606Y-165461450D01*
X194994262Y-165469116D01*
X194980609Y-165476287D01*
X194966648Y-165482964D01*
X194952377Y-165489147D01*
X194937796Y-165494835D01*
X194922907Y-165500028D01*
X194907709Y-165504726D01*
X194892201Y-165508930D01*
X194876385Y-165512640D01*
X194860259Y-165515855D01*
X194843824Y-165518575D01*
X194827080Y-165520801D01*
X194810027Y-165522532D01*
X194792665Y-165523768D01*
X194774993Y-165524510D01*
X194757013Y-165524757D01*
X194744136Y-165524636D01*
X194731443Y-165524273D01*
X194718934Y-165523668D01*
X194706610Y-165522820D01*
X194694470Y-165521731D01*
X194682515Y-165520399D01*
X194670744Y-165518825D01*
X194659157Y-165517009D01*
X194636536Y-165512650D01*
X194614653Y-165507323D01*
X194593507Y-165501027D01*
X194573098Y-165493763D01*
X194553426Y-165485530D01*
X194534492Y-165476329D01*
X194516295Y-165466159D01*
X194498836Y-165455020D01*
X194482114Y-165442913D01*
X194466129Y-165429837D01*
X194450881Y-165415793D01*
X194436371Y-165400780D01*
X194422707Y-165384853D01*
X194409924Y-165368141D01*
X194398023Y-165350644D01*
X194387003Y-165332361D01*
X194376865Y-165313293D01*
X194367609Y-165293440D01*
X194359234Y-165272801D01*
X194351741Y-165251376D01*
X194345129Y-165229167D01*
X194342154Y-165217767D01*
X194339399Y-165206172D01*
X194336864Y-165194379D01*
X194334550Y-165182391D01*
X194332456Y-165170206D01*
X194330583Y-165157825D01*
X194328930Y-165145248D01*
X194327498Y-165132474D01*
X194326285Y-165119504D01*
X194325294Y-165106337D01*
X194324522Y-165092974D01*
X194323971Y-165079415D01*
X194323641Y-165065660D01*
X194323531Y-165051708D01*
X194323738Y-165033061D01*
X194324359Y-165014783D01*
X194325396Y-164996873D01*
X194326846Y-164979333D01*
X194328711Y-164962160D01*
X194328730Y-164962022D01*
X194568555Y-164962022D01*
X194947522Y-164962022D01*
X194946614Y-164949073D01*
X194945356Y-164936459D01*
X194943747Y-164924179D01*
X194941789Y-164912233D01*
X194939479Y-164900621D01*
X194935359Y-164883831D01*
X194930450Y-164867793D01*
X194924752Y-164852507D01*
X194918267Y-164837973D01*
X194910993Y-164824192D01*
X194902931Y-164811162D01*
X194894081Y-164798885D01*
X194890956Y-164794960D01*
X194881215Y-164783855D01*
X194870897Y-164773843D01*
X194860002Y-164764924D01*
X194848531Y-164757096D01*
X194836482Y-164750361D01*
X194823856Y-164744717D01*
X194810653Y-164740167D01*
X194796873Y-164736708D01*
X194782516Y-164734341D01*
X194767582Y-164733067D01*
X194757306Y-164732824D01*
X194741673Y-164733360D01*
X194726648Y-164734968D01*
X194712231Y-164737647D01*
X194698422Y-164741397D01*
X194685221Y-164746220D01*
X194672628Y-164752113D01*
X194660642Y-164759079D01*
X194649265Y-164767116D01*
X194638496Y-164776225D01*
X194628334Y-164786405D01*
X194621898Y-164793787D01*
X194612913Y-164805575D01*
X194604752Y-164818187D01*
X194597415Y-164831624D01*
X194590903Y-164845884D01*
X194585215Y-164860969D01*
X194580352Y-164876879D01*
X194576313Y-164893612D01*
X194574078Y-164905226D01*
X194572209Y-164917206D01*
X194570707Y-164929553D01*
X194569572Y-164942266D01*
X194568802Y-164955345D01*
X194568555Y-164962022D01*
X194328730Y-164962022D01*
X194330991Y-164945357D01*
X194333685Y-164928922D01*
X194336793Y-164912856D01*
X194340316Y-164897158D01*
X194344253Y-164881829D01*
X194348605Y-164866869D01*
X194353371Y-164852277D01*
X194358552Y-164838054D01*
X194364147Y-164824200D01*
X194370156Y-164810715D01*
X194376580Y-164797598D01*
X194383422Y-164784825D01*
X194390612Y-164772447D01*
X194398150Y-164760462D01*
X194406036Y-164748871D01*
X194414270Y-164737674D01*
X194422852Y-164726871D01*
X194431782Y-164716462D01*
X194441060Y-164706446D01*
X194450686Y-164696824D01*
X194460661Y-164687597D01*
X194470983Y-164678763D01*
X194481653Y-164670323D01*
X194492672Y-164662276D01*
X194504038Y-164654624D01*
X194515753Y-164647365D01*
X194527815Y-164640501D01*
X194540230Y-164634006D01*
X194552930Y-164627930D01*
X194565913Y-164622273D01*
X194579180Y-164617035D01*
X194592730Y-164612216D01*
X194606565Y-164607816D01*
X194620684Y-164603835D01*
X194635087Y-164600274D01*
X194649773Y-164597131D01*
X194664744Y-164594407D01*
X194679998Y-164592103D01*
X194695537Y-164590217D01*
X194711359Y-164588750D01*
X194727465Y-164587703D01*
X194743856Y-164587074D01*
X194760530Y-164586865D01*
X194772644Y-164586995D01*
G37*
G36*
X195903879Y-165222287D02*
G01*
X195904346Y-165235138D01*
X195905085Y-165247092D01*
X195906496Y-165261637D01*
X195908391Y-165274588D01*
X195911444Y-165288535D01*
X195915255Y-165299993D01*
X195920830Y-165310455D01*
X195922930Y-165313145D01*
X195932994Y-165322130D01*
X195943993Y-165328736D01*
X195957369Y-165334541D01*
X195969779Y-165338608D01*
X195983710Y-165342161D01*
X195999162Y-165345202D01*
X196011748Y-165347146D01*
X196016133Y-165347730D01*
X196194919Y-165349489D01*
X196194919Y-165506000D01*
X195907103Y-165501896D01*
X195891875Y-165498867D01*
X195876744Y-165495054D01*
X195861712Y-165490459D01*
X195846777Y-165485080D01*
X195831940Y-165478918D01*
X195817201Y-165471973D01*
X195802560Y-165464245D01*
X195788017Y-165455734D01*
X195773571Y-165446440D01*
X195759224Y-165436363D01*
X195749713Y-165429210D01*
X195738974Y-165419831D01*
X195730878Y-165410959D01*
X195723221Y-165400868D01*
X195716003Y-165389558D01*
X195709226Y-165377031D01*
X195702887Y-165363285D01*
X195698422Y-165352177D01*
X195694205Y-165340383D01*
X195692854Y-165336300D01*
X195688366Y-165321796D01*
X195685360Y-165310348D01*
X195682664Y-165298409D01*
X195680277Y-165285982D01*
X195678199Y-165273065D01*
X195676430Y-165259659D01*
X195674970Y-165245763D01*
X195673820Y-165231378D01*
X195672978Y-165216503D01*
X195672446Y-165201139D01*
X195672337Y-165195909D01*
X195672337Y-164439440D01*
X195433175Y-164439440D01*
X195433175Y-164282636D01*
X195903879Y-164282636D01*
X195903879Y-165222287D01*
G37*
G36*
X197903935Y-165506000D02*
G01*
X197626964Y-165506000D01*
X197291374Y-164605623D01*
X197536399Y-164605623D01*
X197708443Y-165123222D01*
X197712116Y-165135578D01*
X197715556Y-165147405D01*
X197719583Y-165161427D01*
X197724198Y-165177644D01*
X197727600Y-165189674D01*
X197731264Y-165202680D01*
X197735188Y-165216662D01*
X197739374Y-165231618D01*
X197743821Y-165247551D01*
X197748529Y-165264458D01*
X197753498Y-165282342D01*
X197758727Y-165301200D01*
X197764218Y-165321034D01*
X197767062Y-165331317D01*
X197770195Y-165319428D01*
X197773601Y-165307055D01*
X197777027Y-165294827D01*
X197781075Y-165280530D01*
X197784520Y-165268448D01*
X197788315Y-165255203D01*
X197792461Y-165240792D01*
X197796957Y-165225218D01*
X197800730Y-165212700D01*
X197805750Y-165196687D01*
X197812015Y-165177181D01*
X197819525Y-165154180D01*
X197823747Y-165141369D01*
X197828281Y-165127685D01*
X197833126Y-165113127D01*
X197838283Y-165097696D01*
X197843751Y-165081391D01*
X197849530Y-165064212D01*
X197855621Y-165046160D01*
X197862023Y-165027235D01*
X197868737Y-165007436D01*
X197875762Y-164986763D01*
X197883098Y-164965217D01*
X197890746Y-164942797D01*
X197898705Y-164919504D01*
X197906976Y-164895337D01*
X197915558Y-164870296D01*
X197924452Y-164844382D01*
X197933657Y-164817595D01*
X197943173Y-164789934D01*
X197953001Y-164761399D01*
X197963140Y-164731991D01*
X197973590Y-164701709D01*
X197984352Y-164670554D01*
X197995426Y-164638525D01*
X198006810Y-164605623D01*
X198249197Y-164605623D01*
X197903935Y-165506000D01*
G37*
G36*
X198396915Y-165506000D02*
G01*
X198396915Y-165333662D01*
X198717557Y-165333662D01*
X198717557Y-164603864D01*
X198710950Y-164616316D01*
X198703221Y-164628391D01*
X198694368Y-164640090D01*
X198684392Y-164651414D01*
X198673293Y-164662361D01*
X198661071Y-164672932D01*
X198647725Y-164683127D01*
X198633257Y-164692946D01*
X198622987Y-164699283D01*
X198612218Y-164705452D01*
X198600950Y-164711455D01*
X198589183Y-164717290D01*
X198577165Y-164722863D01*
X198565072Y-164728075D01*
X198552903Y-164732929D01*
X198540658Y-164737422D01*
X198528338Y-164741556D01*
X198515942Y-164745331D01*
X198503471Y-164748746D01*
X198490924Y-164751802D01*
X198478302Y-164754498D01*
X198465604Y-164756835D01*
X198452830Y-164758812D01*
X198439981Y-164760430D01*
X198427057Y-164761688D01*
X198414056Y-164762587D01*
X198400981Y-164763126D01*
X198387829Y-164763306D01*
X198387829Y-164586865D01*
X198402060Y-164586670D01*
X198416103Y-164586086D01*
X198429959Y-164585113D01*
X198443627Y-164583751D01*
X198457106Y-164581999D01*
X198470399Y-164579858D01*
X198483503Y-164577328D01*
X198496420Y-164574408D01*
X198509148Y-164571100D01*
X198521690Y-164567402D01*
X198534043Y-164563314D01*
X198546209Y-164558838D01*
X198558186Y-164553972D01*
X198569976Y-164548717D01*
X198581579Y-164543073D01*
X198592993Y-164537039D01*
X198604175Y-164530628D01*
X198615007Y-164523923D01*
X198625489Y-164516926D01*
X198635620Y-164509635D01*
X198645400Y-164502051D01*
X198654831Y-164494175D01*
X198663911Y-164486005D01*
X198672641Y-164477542D01*
X198681020Y-164468786D01*
X198689049Y-164459736D01*
X198696728Y-164450394D01*
X198704057Y-164440759D01*
X198711035Y-164430830D01*
X198717662Y-164420609D01*
X198723940Y-164410094D01*
X198729867Y-164399286D01*
X198949099Y-164399286D01*
X198949099Y-165333662D01*
X199215519Y-165333662D01*
X199215519Y-165506000D01*
X198396915Y-165506000D01*
G37*
D12*
X252140171Y-103130695D02*
X252140171Y-102330695D01*
X252140171Y-102330695D02*
X252444933Y-102330695D01*
X252444933Y-102330695D02*
X252521123Y-102368790D01*
X252521123Y-102368790D02*
X252559218Y-102406885D01*
X252559218Y-102406885D02*
X252597314Y-102483076D01*
X252597314Y-102483076D02*
X252597314Y-102597361D01*
X252597314Y-102597361D02*
X252559218Y-102673552D01*
X252559218Y-102673552D02*
X252521123Y-102711647D01*
X252521123Y-102711647D02*
X252444933Y-102749742D01*
X252444933Y-102749742D02*
X252140171Y-102749742D01*
X253092552Y-102330695D02*
X253168742Y-102330695D01*
X253168742Y-102330695D02*
X253244933Y-102368790D01*
X253244933Y-102368790D02*
X253283028Y-102406885D01*
X253283028Y-102406885D02*
X253321123Y-102483076D01*
X253321123Y-102483076D02*
X253359218Y-102635457D01*
X253359218Y-102635457D02*
X253359218Y-102825933D01*
X253359218Y-102825933D02*
X253321123Y-102978314D01*
X253321123Y-102978314D02*
X253283028Y-103054504D01*
X253283028Y-103054504D02*
X253244933Y-103092600D01*
X253244933Y-103092600D02*
X253168742Y-103130695D01*
X253168742Y-103130695D02*
X253092552Y-103130695D01*
X253092552Y-103130695D02*
X253016361Y-103092600D01*
X253016361Y-103092600D02*
X252978266Y-103054504D01*
X252978266Y-103054504D02*
X252940171Y-102978314D01*
X252940171Y-102978314D02*
X252902075Y-102825933D01*
X252902075Y-102825933D02*
X252902075Y-102635457D01*
X252902075Y-102635457D02*
X252940171Y-102483076D01*
X252940171Y-102483076D02*
X252978266Y-102406885D01*
X252978266Y-102406885D02*
X253016361Y-102368790D01*
X253016361Y-102368790D02*
X253092552Y-102330695D01*
X253854457Y-102330695D02*
X253930647Y-102330695D01*
X253930647Y-102330695D02*
X254006838Y-102368790D01*
X254006838Y-102368790D02*
X254044933Y-102406885D01*
X254044933Y-102406885D02*
X254083028Y-102483076D01*
X254083028Y-102483076D02*
X254121123Y-102635457D01*
X254121123Y-102635457D02*
X254121123Y-102825933D01*
X254121123Y-102825933D02*
X254083028Y-102978314D01*
X254083028Y-102978314D02*
X254044933Y-103054504D01*
X254044933Y-103054504D02*
X254006838Y-103092600D01*
X254006838Y-103092600D02*
X253930647Y-103130695D01*
X253930647Y-103130695D02*
X253854457Y-103130695D01*
X253854457Y-103130695D02*
X253778266Y-103092600D01*
X253778266Y-103092600D02*
X253740171Y-103054504D01*
X253740171Y-103054504D02*
X253702076Y-102978314D01*
X253702076Y-102978314D02*
X253663980Y-102825933D01*
X253663980Y-102825933D02*
X253663980Y-102635457D01*
X253663980Y-102635457D02*
X253702076Y-102483076D01*
X253702076Y-102483076D02*
X253740171Y-102406885D01*
X253740171Y-102406885D02*
X253778266Y-102368790D01*
X253778266Y-102368790D02*
X253854457Y-102330695D01*
X252140171Y-123450695D02*
X252140171Y-122650695D01*
X252140171Y-122650695D02*
X252444933Y-122650695D01*
X252444933Y-122650695D02*
X252521123Y-122688790D01*
X252521123Y-122688790D02*
X252559218Y-122726885D01*
X252559218Y-122726885D02*
X252597314Y-122803076D01*
X252597314Y-122803076D02*
X252597314Y-122917361D01*
X252597314Y-122917361D02*
X252559218Y-122993552D01*
X252559218Y-122993552D02*
X252521123Y-123031647D01*
X252521123Y-123031647D02*
X252444933Y-123069742D01*
X252444933Y-123069742D02*
X252140171Y-123069742D01*
X253092552Y-122650695D02*
X253168742Y-122650695D01*
X253168742Y-122650695D02*
X253244933Y-122688790D01*
X253244933Y-122688790D02*
X253283028Y-122726885D01*
X253283028Y-122726885D02*
X253321123Y-122803076D01*
X253321123Y-122803076D02*
X253359218Y-122955457D01*
X253359218Y-122955457D02*
X253359218Y-123145933D01*
X253359218Y-123145933D02*
X253321123Y-123298314D01*
X253321123Y-123298314D02*
X253283028Y-123374504D01*
X253283028Y-123374504D02*
X253244933Y-123412600D01*
X253244933Y-123412600D02*
X253168742Y-123450695D01*
X253168742Y-123450695D02*
X253092552Y-123450695D01*
X253092552Y-123450695D02*
X253016361Y-123412600D01*
X253016361Y-123412600D02*
X252978266Y-123374504D01*
X252978266Y-123374504D02*
X252940171Y-123298314D01*
X252940171Y-123298314D02*
X252902075Y-123145933D01*
X252902075Y-123145933D02*
X252902075Y-122955457D01*
X252902075Y-122955457D02*
X252940171Y-122803076D01*
X252940171Y-122803076D02*
X252978266Y-122726885D01*
X252978266Y-122726885D02*
X253016361Y-122688790D01*
X253016361Y-122688790D02*
X253092552Y-122650695D01*
X253625885Y-122650695D02*
X254159219Y-122650695D01*
X254159219Y-122650695D02*
X253816361Y-123450695D01*
X262102076Y-102368790D02*
X262025886Y-102330695D01*
X262025886Y-102330695D02*
X261911600Y-102330695D01*
X261911600Y-102330695D02*
X261797314Y-102368790D01*
X261797314Y-102368790D02*
X261721124Y-102444980D01*
X261721124Y-102444980D02*
X261683029Y-102521171D01*
X261683029Y-102521171D02*
X261644933Y-102673552D01*
X261644933Y-102673552D02*
X261644933Y-102787838D01*
X261644933Y-102787838D02*
X261683029Y-102940219D01*
X261683029Y-102940219D02*
X261721124Y-103016409D01*
X261721124Y-103016409D02*
X261797314Y-103092600D01*
X261797314Y-103092600D02*
X261911600Y-103130695D01*
X261911600Y-103130695D02*
X261987791Y-103130695D01*
X261987791Y-103130695D02*
X262102076Y-103092600D01*
X262102076Y-103092600D02*
X262140172Y-103054504D01*
X262140172Y-103054504D02*
X262140172Y-102787838D01*
X262140172Y-102787838D02*
X261987791Y-102787838D01*
X262483029Y-103130695D02*
X262483029Y-102330695D01*
X262483029Y-102330695D02*
X262940172Y-103130695D01*
X262940172Y-103130695D02*
X262940172Y-102330695D01*
X263321124Y-103130695D02*
X263321124Y-102330695D01*
X263321124Y-102330695D02*
X263511600Y-102330695D01*
X263511600Y-102330695D02*
X263625886Y-102368790D01*
X263625886Y-102368790D02*
X263702076Y-102444980D01*
X263702076Y-102444980D02*
X263740171Y-102521171D01*
X263740171Y-102521171D02*
X263778267Y-102673552D01*
X263778267Y-102673552D02*
X263778267Y-102787838D01*
X263778267Y-102787838D02*
X263740171Y-102940219D01*
X263740171Y-102940219D02*
X263702076Y-103016409D01*
X263702076Y-103016409D02*
X263625886Y-103092600D01*
X263625886Y-103092600D02*
X263511600Y-103130695D01*
X263511600Y-103130695D02*
X263321124Y-103130695D01*
X261740171Y-110750695D02*
X261740171Y-109950695D01*
X261740171Y-109950695D02*
X262044933Y-109950695D01*
X262044933Y-109950695D02*
X262121123Y-109988790D01*
X262121123Y-109988790D02*
X262159218Y-110026885D01*
X262159218Y-110026885D02*
X262197314Y-110103076D01*
X262197314Y-110103076D02*
X262197314Y-110217361D01*
X262197314Y-110217361D02*
X262159218Y-110293552D01*
X262159218Y-110293552D02*
X262121123Y-110331647D01*
X262121123Y-110331647D02*
X262044933Y-110369742D01*
X262044933Y-110369742D02*
X261740171Y-110369742D01*
X262502075Y-110026885D02*
X262540171Y-109988790D01*
X262540171Y-109988790D02*
X262616361Y-109950695D01*
X262616361Y-109950695D02*
X262806837Y-109950695D01*
X262806837Y-109950695D02*
X262883028Y-109988790D01*
X262883028Y-109988790D02*
X262921123Y-110026885D01*
X262921123Y-110026885D02*
X262959218Y-110103076D01*
X262959218Y-110103076D02*
X262959218Y-110179266D01*
X262959218Y-110179266D02*
X262921123Y-110293552D01*
X262921123Y-110293552D02*
X262463980Y-110750695D01*
X262463980Y-110750695D02*
X262959218Y-110750695D01*
X263721123Y-110750695D02*
X263263980Y-110750695D01*
X263492552Y-110750695D02*
X263492552Y-109950695D01*
X263492552Y-109950695D02*
X263416361Y-110064980D01*
X263416361Y-110064980D02*
X263340171Y-110141171D01*
X263340171Y-110141171D02*
X263263980Y-110179266D01*
X252140171Y-110750695D02*
X252140171Y-109950695D01*
X252140171Y-109950695D02*
X252444933Y-109950695D01*
X252444933Y-109950695D02*
X252521123Y-109988790D01*
X252521123Y-109988790D02*
X252559218Y-110026885D01*
X252559218Y-110026885D02*
X252597314Y-110103076D01*
X252597314Y-110103076D02*
X252597314Y-110217361D01*
X252597314Y-110217361D02*
X252559218Y-110293552D01*
X252559218Y-110293552D02*
X252521123Y-110331647D01*
X252521123Y-110331647D02*
X252444933Y-110369742D01*
X252444933Y-110369742D02*
X252140171Y-110369742D01*
X253092552Y-109950695D02*
X253168742Y-109950695D01*
X253168742Y-109950695D02*
X253244933Y-109988790D01*
X253244933Y-109988790D02*
X253283028Y-110026885D01*
X253283028Y-110026885D02*
X253321123Y-110103076D01*
X253321123Y-110103076D02*
X253359218Y-110255457D01*
X253359218Y-110255457D02*
X253359218Y-110445933D01*
X253359218Y-110445933D02*
X253321123Y-110598314D01*
X253321123Y-110598314D02*
X253283028Y-110674504D01*
X253283028Y-110674504D02*
X253244933Y-110712600D01*
X253244933Y-110712600D02*
X253168742Y-110750695D01*
X253168742Y-110750695D02*
X253092552Y-110750695D01*
X253092552Y-110750695D02*
X253016361Y-110712600D01*
X253016361Y-110712600D02*
X252978266Y-110674504D01*
X252978266Y-110674504D02*
X252940171Y-110598314D01*
X252940171Y-110598314D02*
X252902075Y-110445933D01*
X252902075Y-110445933D02*
X252902075Y-110255457D01*
X252902075Y-110255457D02*
X252940171Y-110103076D01*
X252940171Y-110103076D02*
X252978266Y-110026885D01*
X252978266Y-110026885D02*
X253016361Y-109988790D01*
X253016361Y-109988790D02*
X253092552Y-109950695D01*
X253663980Y-110026885D02*
X253702076Y-109988790D01*
X253702076Y-109988790D02*
X253778266Y-109950695D01*
X253778266Y-109950695D02*
X253968742Y-109950695D01*
X253968742Y-109950695D02*
X254044933Y-109988790D01*
X254044933Y-109988790D02*
X254083028Y-110026885D01*
X254083028Y-110026885D02*
X254121123Y-110103076D01*
X254121123Y-110103076D02*
X254121123Y-110179266D01*
X254121123Y-110179266D02*
X254083028Y-110293552D01*
X254083028Y-110293552D02*
X253625885Y-110750695D01*
X253625885Y-110750695D02*
X254121123Y-110750695D01*
X252140171Y-128530695D02*
X252140171Y-127730695D01*
X252140171Y-127730695D02*
X252444933Y-127730695D01*
X252444933Y-127730695D02*
X252521123Y-127768790D01*
X252521123Y-127768790D02*
X252559218Y-127806885D01*
X252559218Y-127806885D02*
X252597314Y-127883076D01*
X252597314Y-127883076D02*
X252597314Y-127997361D01*
X252597314Y-127997361D02*
X252559218Y-128073552D01*
X252559218Y-128073552D02*
X252521123Y-128111647D01*
X252521123Y-128111647D02*
X252444933Y-128149742D01*
X252444933Y-128149742D02*
X252140171Y-128149742D01*
X253092552Y-127730695D02*
X253168742Y-127730695D01*
X253168742Y-127730695D02*
X253244933Y-127768790D01*
X253244933Y-127768790D02*
X253283028Y-127806885D01*
X253283028Y-127806885D02*
X253321123Y-127883076D01*
X253321123Y-127883076D02*
X253359218Y-128035457D01*
X253359218Y-128035457D02*
X253359218Y-128225933D01*
X253359218Y-128225933D02*
X253321123Y-128378314D01*
X253321123Y-128378314D02*
X253283028Y-128454504D01*
X253283028Y-128454504D02*
X253244933Y-128492600D01*
X253244933Y-128492600D02*
X253168742Y-128530695D01*
X253168742Y-128530695D02*
X253092552Y-128530695D01*
X253092552Y-128530695D02*
X253016361Y-128492600D01*
X253016361Y-128492600D02*
X252978266Y-128454504D01*
X252978266Y-128454504D02*
X252940171Y-128378314D01*
X252940171Y-128378314D02*
X252902075Y-128225933D01*
X252902075Y-128225933D02*
X252902075Y-128035457D01*
X252902075Y-128035457D02*
X252940171Y-127883076D01*
X252940171Y-127883076D02*
X252978266Y-127806885D01*
X252978266Y-127806885D02*
X253016361Y-127768790D01*
X253016361Y-127768790D02*
X253092552Y-127730695D01*
X253740171Y-128530695D02*
X253892552Y-128530695D01*
X253892552Y-128530695D02*
X253968742Y-128492600D01*
X253968742Y-128492600D02*
X254006838Y-128454504D01*
X254006838Y-128454504D02*
X254083028Y-128340219D01*
X254083028Y-128340219D02*
X254121123Y-128187838D01*
X254121123Y-128187838D02*
X254121123Y-127883076D01*
X254121123Y-127883076D02*
X254083028Y-127806885D01*
X254083028Y-127806885D02*
X254044933Y-127768790D01*
X254044933Y-127768790D02*
X253968742Y-127730695D01*
X253968742Y-127730695D02*
X253816361Y-127730695D01*
X253816361Y-127730695D02*
X253740171Y-127768790D01*
X253740171Y-127768790D02*
X253702076Y-127806885D01*
X253702076Y-127806885D02*
X253663980Y-127883076D01*
X253663980Y-127883076D02*
X253663980Y-128073552D01*
X253663980Y-128073552D02*
X253702076Y-128149742D01*
X253702076Y-128149742D02*
X253740171Y-128187838D01*
X253740171Y-128187838D02*
X253816361Y-128225933D01*
X253816361Y-128225933D02*
X253968742Y-128225933D01*
X253968742Y-128225933D02*
X254044933Y-128187838D01*
X254044933Y-128187838D02*
X254083028Y-128149742D01*
X254083028Y-128149742D02*
X254121123Y-128073552D01*
X261740171Y-120910695D02*
X261740171Y-120110695D01*
X261740171Y-120110695D02*
X262044933Y-120110695D01*
X262044933Y-120110695D02*
X262121123Y-120148790D01*
X262121123Y-120148790D02*
X262159218Y-120186885D01*
X262159218Y-120186885D02*
X262197314Y-120263076D01*
X262197314Y-120263076D02*
X262197314Y-120377361D01*
X262197314Y-120377361D02*
X262159218Y-120453552D01*
X262159218Y-120453552D02*
X262121123Y-120491647D01*
X262121123Y-120491647D02*
X262044933Y-120529742D01*
X262044933Y-120529742D02*
X261740171Y-120529742D01*
X262959218Y-120910695D02*
X262502075Y-120910695D01*
X262730647Y-120910695D02*
X262730647Y-120110695D01*
X262730647Y-120110695D02*
X262654456Y-120224980D01*
X262654456Y-120224980D02*
X262578266Y-120301171D01*
X262578266Y-120301171D02*
X262502075Y-120339266D01*
X263683028Y-120110695D02*
X263302076Y-120110695D01*
X263302076Y-120110695D02*
X263263980Y-120491647D01*
X263263980Y-120491647D02*
X263302076Y-120453552D01*
X263302076Y-120453552D02*
X263378266Y-120415457D01*
X263378266Y-120415457D02*
X263568742Y-120415457D01*
X263568742Y-120415457D02*
X263644933Y-120453552D01*
X263644933Y-120453552D02*
X263683028Y-120491647D01*
X263683028Y-120491647D02*
X263721123Y-120567838D01*
X263721123Y-120567838D02*
X263721123Y-120758314D01*
X263721123Y-120758314D02*
X263683028Y-120834504D01*
X263683028Y-120834504D02*
X263644933Y-120872600D01*
X263644933Y-120872600D02*
X263568742Y-120910695D01*
X263568742Y-120910695D02*
X263378266Y-120910695D01*
X263378266Y-120910695D02*
X263302076Y-120872600D01*
X263302076Y-120872600D02*
X263263980Y-120834504D01*
X252140171Y-125990695D02*
X252140171Y-125190695D01*
X252140171Y-125190695D02*
X252444933Y-125190695D01*
X252444933Y-125190695D02*
X252521123Y-125228790D01*
X252521123Y-125228790D02*
X252559218Y-125266885D01*
X252559218Y-125266885D02*
X252597314Y-125343076D01*
X252597314Y-125343076D02*
X252597314Y-125457361D01*
X252597314Y-125457361D02*
X252559218Y-125533552D01*
X252559218Y-125533552D02*
X252521123Y-125571647D01*
X252521123Y-125571647D02*
X252444933Y-125609742D01*
X252444933Y-125609742D02*
X252140171Y-125609742D01*
X253092552Y-125190695D02*
X253168742Y-125190695D01*
X253168742Y-125190695D02*
X253244933Y-125228790D01*
X253244933Y-125228790D02*
X253283028Y-125266885D01*
X253283028Y-125266885D02*
X253321123Y-125343076D01*
X253321123Y-125343076D02*
X253359218Y-125495457D01*
X253359218Y-125495457D02*
X253359218Y-125685933D01*
X253359218Y-125685933D02*
X253321123Y-125838314D01*
X253321123Y-125838314D02*
X253283028Y-125914504D01*
X253283028Y-125914504D02*
X253244933Y-125952600D01*
X253244933Y-125952600D02*
X253168742Y-125990695D01*
X253168742Y-125990695D02*
X253092552Y-125990695D01*
X253092552Y-125990695D02*
X253016361Y-125952600D01*
X253016361Y-125952600D02*
X252978266Y-125914504D01*
X252978266Y-125914504D02*
X252940171Y-125838314D01*
X252940171Y-125838314D02*
X252902075Y-125685933D01*
X252902075Y-125685933D02*
X252902075Y-125495457D01*
X252902075Y-125495457D02*
X252940171Y-125343076D01*
X252940171Y-125343076D02*
X252978266Y-125266885D01*
X252978266Y-125266885D02*
X253016361Y-125228790D01*
X253016361Y-125228790D02*
X253092552Y-125190695D01*
X253816361Y-125533552D02*
X253740171Y-125495457D01*
X253740171Y-125495457D02*
X253702076Y-125457361D01*
X253702076Y-125457361D02*
X253663980Y-125381171D01*
X253663980Y-125381171D02*
X253663980Y-125343076D01*
X253663980Y-125343076D02*
X253702076Y-125266885D01*
X253702076Y-125266885D02*
X253740171Y-125228790D01*
X253740171Y-125228790D02*
X253816361Y-125190695D01*
X253816361Y-125190695D02*
X253968742Y-125190695D01*
X253968742Y-125190695D02*
X254044933Y-125228790D01*
X254044933Y-125228790D02*
X254083028Y-125266885D01*
X254083028Y-125266885D02*
X254121123Y-125343076D01*
X254121123Y-125343076D02*
X254121123Y-125381171D01*
X254121123Y-125381171D02*
X254083028Y-125457361D01*
X254083028Y-125457361D02*
X254044933Y-125495457D01*
X254044933Y-125495457D02*
X253968742Y-125533552D01*
X253968742Y-125533552D02*
X253816361Y-125533552D01*
X253816361Y-125533552D02*
X253740171Y-125571647D01*
X253740171Y-125571647D02*
X253702076Y-125609742D01*
X253702076Y-125609742D02*
X253663980Y-125685933D01*
X253663980Y-125685933D02*
X253663980Y-125838314D01*
X253663980Y-125838314D02*
X253702076Y-125914504D01*
X253702076Y-125914504D02*
X253740171Y-125952600D01*
X253740171Y-125952600D02*
X253816361Y-125990695D01*
X253816361Y-125990695D02*
X253968742Y-125990695D01*
X253968742Y-125990695D02*
X254044933Y-125952600D01*
X254044933Y-125952600D02*
X254083028Y-125914504D01*
X254083028Y-125914504D02*
X254121123Y-125838314D01*
X254121123Y-125838314D02*
X254121123Y-125685933D01*
X254121123Y-125685933D02*
X254083028Y-125609742D01*
X254083028Y-125609742D02*
X254044933Y-125571647D01*
X254044933Y-125571647D02*
X253968742Y-125533552D01*
X252502076Y-107448790D02*
X252425886Y-107410695D01*
X252425886Y-107410695D02*
X252311600Y-107410695D01*
X252311600Y-107410695D02*
X252197314Y-107448790D01*
X252197314Y-107448790D02*
X252121124Y-107524980D01*
X252121124Y-107524980D02*
X252083029Y-107601171D01*
X252083029Y-107601171D02*
X252044933Y-107753552D01*
X252044933Y-107753552D02*
X252044933Y-107867838D01*
X252044933Y-107867838D02*
X252083029Y-108020219D01*
X252083029Y-108020219D02*
X252121124Y-108096409D01*
X252121124Y-108096409D02*
X252197314Y-108172600D01*
X252197314Y-108172600D02*
X252311600Y-108210695D01*
X252311600Y-108210695D02*
X252387791Y-108210695D01*
X252387791Y-108210695D02*
X252502076Y-108172600D01*
X252502076Y-108172600D02*
X252540172Y-108134504D01*
X252540172Y-108134504D02*
X252540172Y-107867838D01*
X252540172Y-107867838D02*
X252387791Y-107867838D01*
X252883029Y-108210695D02*
X252883029Y-107410695D01*
X252883029Y-107410695D02*
X253340172Y-108210695D01*
X253340172Y-108210695D02*
X253340172Y-107410695D01*
X253721124Y-108210695D02*
X253721124Y-107410695D01*
X253721124Y-107410695D02*
X253911600Y-107410695D01*
X253911600Y-107410695D02*
X254025886Y-107448790D01*
X254025886Y-107448790D02*
X254102076Y-107524980D01*
X254102076Y-107524980D02*
X254140171Y-107601171D01*
X254140171Y-107601171D02*
X254178267Y-107753552D01*
X254178267Y-107753552D02*
X254178267Y-107867838D01*
X254178267Y-107867838D02*
X254140171Y-108020219D01*
X254140171Y-108020219D02*
X254102076Y-108096409D01*
X254102076Y-108096409D02*
X254025886Y-108172600D01*
X254025886Y-108172600D02*
X253911600Y-108210695D01*
X253911600Y-108210695D02*
X253721124Y-108210695D01*
X252140171Y-118370695D02*
X252140171Y-117570695D01*
X252140171Y-117570695D02*
X252444933Y-117570695D01*
X252444933Y-117570695D02*
X252521123Y-117608790D01*
X252521123Y-117608790D02*
X252559218Y-117646885D01*
X252559218Y-117646885D02*
X252597314Y-117723076D01*
X252597314Y-117723076D02*
X252597314Y-117837361D01*
X252597314Y-117837361D02*
X252559218Y-117913552D01*
X252559218Y-117913552D02*
X252521123Y-117951647D01*
X252521123Y-117951647D02*
X252444933Y-117989742D01*
X252444933Y-117989742D02*
X252140171Y-117989742D01*
X253092552Y-117570695D02*
X253168742Y-117570695D01*
X253168742Y-117570695D02*
X253244933Y-117608790D01*
X253244933Y-117608790D02*
X253283028Y-117646885D01*
X253283028Y-117646885D02*
X253321123Y-117723076D01*
X253321123Y-117723076D02*
X253359218Y-117875457D01*
X253359218Y-117875457D02*
X253359218Y-118065933D01*
X253359218Y-118065933D02*
X253321123Y-118218314D01*
X253321123Y-118218314D02*
X253283028Y-118294504D01*
X253283028Y-118294504D02*
X253244933Y-118332600D01*
X253244933Y-118332600D02*
X253168742Y-118370695D01*
X253168742Y-118370695D02*
X253092552Y-118370695D01*
X253092552Y-118370695D02*
X253016361Y-118332600D01*
X253016361Y-118332600D02*
X252978266Y-118294504D01*
X252978266Y-118294504D02*
X252940171Y-118218314D01*
X252940171Y-118218314D02*
X252902075Y-118065933D01*
X252902075Y-118065933D02*
X252902075Y-117875457D01*
X252902075Y-117875457D02*
X252940171Y-117723076D01*
X252940171Y-117723076D02*
X252978266Y-117646885D01*
X252978266Y-117646885D02*
X253016361Y-117608790D01*
X253016361Y-117608790D02*
X253092552Y-117570695D01*
X254083028Y-117570695D02*
X253702076Y-117570695D01*
X253702076Y-117570695D02*
X253663980Y-117951647D01*
X253663980Y-117951647D02*
X253702076Y-117913552D01*
X253702076Y-117913552D02*
X253778266Y-117875457D01*
X253778266Y-117875457D02*
X253968742Y-117875457D01*
X253968742Y-117875457D02*
X254044933Y-117913552D01*
X254044933Y-117913552D02*
X254083028Y-117951647D01*
X254083028Y-117951647D02*
X254121123Y-118027838D01*
X254121123Y-118027838D02*
X254121123Y-118218314D01*
X254121123Y-118218314D02*
X254083028Y-118294504D01*
X254083028Y-118294504D02*
X254044933Y-118332600D01*
X254044933Y-118332600D02*
X253968742Y-118370695D01*
X253968742Y-118370695D02*
X253778266Y-118370695D01*
X253778266Y-118370695D02*
X253702076Y-118332600D01*
X253702076Y-118332600D02*
X253663980Y-118294504D01*
X261740171Y-115830695D02*
X261740171Y-115030695D01*
X261740171Y-115030695D02*
X262044933Y-115030695D01*
X262044933Y-115030695D02*
X262121123Y-115068790D01*
X262121123Y-115068790D02*
X262159218Y-115106885D01*
X262159218Y-115106885D02*
X262197314Y-115183076D01*
X262197314Y-115183076D02*
X262197314Y-115297361D01*
X262197314Y-115297361D02*
X262159218Y-115373552D01*
X262159218Y-115373552D02*
X262121123Y-115411647D01*
X262121123Y-115411647D02*
X262044933Y-115449742D01*
X262044933Y-115449742D02*
X261740171Y-115449742D01*
X262959218Y-115830695D02*
X262502075Y-115830695D01*
X262730647Y-115830695D02*
X262730647Y-115030695D01*
X262730647Y-115030695D02*
X262654456Y-115144980D01*
X262654456Y-115144980D02*
X262578266Y-115221171D01*
X262578266Y-115221171D02*
X262502075Y-115259266D01*
X263340171Y-115830695D02*
X263492552Y-115830695D01*
X263492552Y-115830695D02*
X263568742Y-115792600D01*
X263568742Y-115792600D02*
X263606838Y-115754504D01*
X263606838Y-115754504D02*
X263683028Y-115640219D01*
X263683028Y-115640219D02*
X263721123Y-115487838D01*
X263721123Y-115487838D02*
X263721123Y-115183076D01*
X263721123Y-115183076D02*
X263683028Y-115106885D01*
X263683028Y-115106885D02*
X263644933Y-115068790D01*
X263644933Y-115068790D02*
X263568742Y-115030695D01*
X263568742Y-115030695D02*
X263416361Y-115030695D01*
X263416361Y-115030695D02*
X263340171Y-115068790D01*
X263340171Y-115068790D02*
X263302076Y-115106885D01*
X263302076Y-115106885D02*
X263263980Y-115183076D01*
X263263980Y-115183076D02*
X263263980Y-115373552D01*
X263263980Y-115373552D02*
X263302076Y-115449742D01*
X263302076Y-115449742D02*
X263340171Y-115487838D01*
X263340171Y-115487838D02*
X263416361Y-115525933D01*
X263416361Y-115525933D02*
X263568742Y-115525933D01*
X263568742Y-115525933D02*
X263644933Y-115487838D01*
X263644933Y-115487838D02*
X263683028Y-115449742D01*
X263683028Y-115449742D02*
X263721123Y-115373552D01*
X252502076Y-104908790D02*
X252425886Y-104870695D01*
X252425886Y-104870695D02*
X252311600Y-104870695D01*
X252311600Y-104870695D02*
X252197314Y-104908790D01*
X252197314Y-104908790D02*
X252121124Y-104984980D01*
X252121124Y-104984980D02*
X252083029Y-105061171D01*
X252083029Y-105061171D02*
X252044933Y-105213552D01*
X252044933Y-105213552D02*
X252044933Y-105327838D01*
X252044933Y-105327838D02*
X252083029Y-105480219D01*
X252083029Y-105480219D02*
X252121124Y-105556409D01*
X252121124Y-105556409D02*
X252197314Y-105632600D01*
X252197314Y-105632600D02*
X252311600Y-105670695D01*
X252311600Y-105670695D02*
X252387791Y-105670695D01*
X252387791Y-105670695D02*
X252502076Y-105632600D01*
X252502076Y-105632600D02*
X252540172Y-105594504D01*
X252540172Y-105594504D02*
X252540172Y-105327838D01*
X252540172Y-105327838D02*
X252387791Y-105327838D01*
X252883029Y-105670695D02*
X252883029Y-104870695D01*
X252883029Y-104870695D02*
X253340172Y-105670695D01*
X253340172Y-105670695D02*
X253340172Y-104870695D01*
X253721124Y-105670695D02*
X253721124Y-104870695D01*
X253721124Y-104870695D02*
X253911600Y-104870695D01*
X253911600Y-104870695D02*
X254025886Y-104908790D01*
X254025886Y-104908790D02*
X254102076Y-104984980D01*
X254102076Y-104984980D02*
X254140171Y-105061171D01*
X254140171Y-105061171D02*
X254178267Y-105213552D01*
X254178267Y-105213552D02*
X254178267Y-105327838D01*
X254178267Y-105327838D02*
X254140171Y-105480219D01*
X254140171Y-105480219D02*
X254102076Y-105556409D01*
X254102076Y-105556409D02*
X254025886Y-105632600D01*
X254025886Y-105632600D02*
X253911600Y-105670695D01*
X253911600Y-105670695D02*
X253721124Y-105670695D01*
X252140171Y-113290695D02*
X252140171Y-112490695D01*
X252140171Y-112490695D02*
X252444933Y-112490695D01*
X252444933Y-112490695D02*
X252521123Y-112528790D01*
X252521123Y-112528790D02*
X252559218Y-112566885D01*
X252559218Y-112566885D02*
X252597314Y-112643076D01*
X252597314Y-112643076D02*
X252597314Y-112757361D01*
X252597314Y-112757361D02*
X252559218Y-112833552D01*
X252559218Y-112833552D02*
X252521123Y-112871647D01*
X252521123Y-112871647D02*
X252444933Y-112909742D01*
X252444933Y-112909742D02*
X252140171Y-112909742D01*
X253092552Y-112490695D02*
X253168742Y-112490695D01*
X253168742Y-112490695D02*
X253244933Y-112528790D01*
X253244933Y-112528790D02*
X253283028Y-112566885D01*
X253283028Y-112566885D02*
X253321123Y-112643076D01*
X253321123Y-112643076D02*
X253359218Y-112795457D01*
X253359218Y-112795457D02*
X253359218Y-112985933D01*
X253359218Y-112985933D02*
X253321123Y-113138314D01*
X253321123Y-113138314D02*
X253283028Y-113214504D01*
X253283028Y-113214504D02*
X253244933Y-113252600D01*
X253244933Y-113252600D02*
X253168742Y-113290695D01*
X253168742Y-113290695D02*
X253092552Y-113290695D01*
X253092552Y-113290695D02*
X253016361Y-113252600D01*
X253016361Y-113252600D02*
X252978266Y-113214504D01*
X252978266Y-113214504D02*
X252940171Y-113138314D01*
X252940171Y-113138314D02*
X252902075Y-112985933D01*
X252902075Y-112985933D02*
X252902075Y-112795457D01*
X252902075Y-112795457D02*
X252940171Y-112643076D01*
X252940171Y-112643076D02*
X252978266Y-112566885D01*
X252978266Y-112566885D02*
X253016361Y-112528790D01*
X253016361Y-112528790D02*
X253092552Y-112490695D01*
X253625885Y-112490695D02*
X254121123Y-112490695D01*
X254121123Y-112490695D02*
X253854457Y-112795457D01*
X253854457Y-112795457D02*
X253968742Y-112795457D01*
X253968742Y-112795457D02*
X254044933Y-112833552D01*
X254044933Y-112833552D02*
X254083028Y-112871647D01*
X254083028Y-112871647D02*
X254121123Y-112947838D01*
X254121123Y-112947838D02*
X254121123Y-113138314D01*
X254121123Y-113138314D02*
X254083028Y-113214504D01*
X254083028Y-113214504D02*
X254044933Y-113252600D01*
X254044933Y-113252600D02*
X253968742Y-113290695D01*
X253968742Y-113290695D02*
X253740171Y-113290695D01*
X253740171Y-113290695D02*
X253663980Y-113252600D01*
X253663980Y-113252600D02*
X253625885Y-113214504D01*
X261740171Y-113290695D02*
X261740171Y-112490695D01*
X261740171Y-112490695D02*
X262044933Y-112490695D01*
X262044933Y-112490695D02*
X262121123Y-112528790D01*
X262121123Y-112528790D02*
X262159218Y-112566885D01*
X262159218Y-112566885D02*
X262197314Y-112643076D01*
X262197314Y-112643076D02*
X262197314Y-112757361D01*
X262197314Y-112757361D02*
X262159218Y-112833552D01*
X262159218Y-112833552D02*
X262121123Y-112871647D01*
X262121123Y-112871647D02*
X262044933Y-112909742D01*
X262044933Y-112909742D02*
X261740171Y-112909742D01*
X262502075Y-112566885D02*
X262540171Y-112528790D01*
X262540171Y-112528790D02*
X262616361Y-112490695D01*
X262616361Y-112490695D02*
X262806837Y-112490695D01*
X262806837Y-112490695D02*
X262883028Y-112528790D01*
X262883028Y-112528790D02*
X262921123Y-112566885D01*
X262921123Y-112566885D02*
X262959218Y-112643076D01*
X262959218Y-112643076D02*
X262959218Y-112719266D01*
X262959218Y-112719266D02*
X262921123Y-112833552D01*
X262921123Y-112833552D02*
X262463980Y-113290695D01*
X262463980Y-113290695D02*
X262959218Y-113290695D01*
X263454457Y-112490695D02*
X263530647Y-112490695D01*
X263530647Y-112490695D02*
X263606838Y-112528790D01*
X263606838Y-112528790D02*
X263644933Y-112566885D01*
X263644933Y-112566885D02*
X263683028Y-112643076D01*
X263683028Y-112643076D02*
X263721123Y-112795457D01*
X263721123Y-112795457D02*
X263721123Y-112985933D01*
X263721123Y-112985933D02*
X263683028Y-113138314D01*
X263683028Y-113138314D02*
X263644933Y-113214504D01*
X263644933Y-113214504D02*
X263606838Y-113252600D01*
X263606838Y-113252600D02*
X263530647Y-113290695D01*
X263530647Y-113290695D02*
X263454457Y-113290695D01*
X263454457Y-113290695D02*
X263378266Y-113252600D01*
X263378266Y-113252600D02*
X263340171Y-113214504D01*
X263340171Y-113214504D02*
X263302076Y-113138314D01*
X263302076Y-113138314D02*
X263263980Y-112985933D01*
X263263980Y-112985933D02*
X263263980Y-112795457D01*
X263263980Y-112795457D02*
X263302076Y-112643076D01*
X263302076Y-112643076D02*
X263340171Y-112566885D01*
X263340171Y-112566885D02*
X263378266Y-112528790D01*
X263378266Y-112528790D02*
X263454457Y-112490695D01*
X252140171Y-120910695D02*
X252140171Y-120110695D01*
X252140171Y-120110695D02*
X252444933Y-120110695D01*
X252444933Y-120110695D02*
X252521123Y-120148790D01*
X252521123Y-120148790D02*
X252559218Y-120186885D01*
X252559218Y-120186885D02*
X252597314Y-120263076D01*
X252597314Y-120263076D02*
X252597314Y-120377361D01*
X252597314Y-120377361D02*
X252559218Y-120453552D01*
X252559218Y-120453552D02*
X252521123Y-120491647D01*
X252521123Y-120491647D02*
X252444933Y-120529742D01*
X252444933Y-120529742D02*
X252140171Y-120529742D01*
X253092552Y-120110695D02*
X253168742Y-120110695D01*
X253168742Y-120110695D02*
X253244933Y-120148790D01*
X253244933Y-120148790D02*
X253283028Y-120186885D01*
X253283028Y-120186885D02*
X253321123Y-120263076D01*
X253321123Y-120263076D02*
X253359218Y-120415457D01*
X253359218Y-120415457D02*
X253359218Y-120605933D01*
X253359218Y-120605933D02*
X253321123Y-120758314D01*
X253321123Y-120758314D02*
X253283028Y-120834504D01*
X253283028Y-120834504D02*
X253244933Y-120872600D01*
X253244933Y-120872600D02*
X253168742Y-120910695D01*
X253168742Y-120910695D02*
X253092552Y-120910695D01*
X253092552Y-120910695D02*
X253016361Y-120872600D01*
X253016361Y-120872600D02*
X252978266Y-120834504D01*
X252978266Y-120834504D02*
X252940171Y-120758314D01*
X252940171Y-120758314D02*
X252902075Y-120605933D01*
X252902075Y-120605933D02*
X252902075Y-120415457D01*
X252902075Y-120415457D02*
X252940171Y-120263076D01*
X252940171Y-120263076D02*
X252978266Y-120186885D01*
X252978266Y-120186885D02*
X253016361Y-120148790D01*
X253016361Y-120148790D02*
X253092552Y-120110695D01*
X254044933Y-120110695D02*
X253892552Y-120110695D01*
X253892552Y-120110695D02*
X253816361Y-120148790D01*
X253816361Y-120148790D02*
X253778266Y-120186885D01*
X253778266Y-120186885D02*
X253702076Y-120301171D01*
X253702076Y-120301171D02*
X253663980Y-120453552D01*
X253663980Y-120453552D02*
X253663980Y-120758314D01*
X253663980Y-120758314D02*
X253702076Y-120834504D01*
X253702076Y-120834504D02*
X253740171Y-120872600D01*
X253740171Y-120872600D02*
X253816361Y-120910695D01*
X253816361Y-120910695D02*
X253968742Y-120910695D01*
X253968742Y-120910695D02*
X254044933Y-120872600D01*
X254044933Y-120872600D02*
X254083028Y-120834504D01*
X254083028Y-120834504D02*
X254121123Y-120758314D01*
X254121123Y-120758314D02*
X254121123Y-120567838D01*
X254121123Y-120567838D02*
X254083028Y-120491647D01*
X254083028Y-120491647D02*
X254044933Y-120453552D01*
X254044933Y-120453552D02*
X253968742Y-120415457D01*
X253968742Y-120415457D02*
X253816361Y-120415457D01*
X253816361Y-120415457D02*
X253740171Y-120453552D01*
X253740171Y-120453552D02*
X253702076Y-120491647D01*
X253702076Y-120491647D02*
X253663980Y-120567838D01*
X261740171Y-123450695D02*
X261740171Y-122650695D01*
X261740171Y-122650695D02*
X262044933Y-122650695D01*
X262044933Y-122650695D02*
X262121123Y-122688790D01*
X262121123Y-122688790D02*
X262159218Y-122726885D01*
X262159218Y-122726885D02*
X262197314Y-122803076D01*
X262197314Y-122803076D02*
X262197314Y-122917361D01*
X262197314Y-122917361D02*
X262159218Y-122993552D01*
X262159218Y-122993552D02*
X262121123Y-123031647D01*
X262121123Y-123031647D02*
X262044933Y-123069742D01*
X262044933Y-123069742D02*
X261740171Y-123069742D01*
X262959218Y-123450695D02*
X262502075Y-123450695D01*
X262730647Y-123450695D02*
X262730647Y-122650695D01*
X262730647Y-122650695D02*
X262654456Y-122764980D01*
X262654456Y-122764980D02*
X262578266Y-122841171D01*
X262578266Y-122841171D02*
X262502075Y-122879266D01*
X263644933Y-122917361D02*
X263644933Y-123450695D01*
X263454457Y-122612600D02*
X263263980Y-123184028D01*
X263263980Y-123184028D02*
X263759219Y-123184028D01*
X262159219Y-100590695D02*
X261892552Y-100209742D01*
X261702076Y-100590695D02*
X261702076Y-99790695D01*
X261702076Y-99790695D02*
X262006838Y-99790695D01*
X262006838Y-99790695D02*
X262083028Y-99828790D01*
X262083028Y-99828790D02*
X262121123Y-99866885D01*
X262121123Y-99866885D02*
X262159219Y-99943076D01*
X262159219Y-99943076D02*
X262159219Y-100057361D01*
X262159219Y-100057361D02*
X262121123Y-100133552D01*
X262121123Y-100133552D02*
X262083028Y-100171647D01*
X262083028Y-100171647D02*
X262006838Y-100209742D01*
X262006838Y-100209742D02*
X261702076Y-100209742D01*
X262463980Y-100362123D02*
X262844933Y-100362123D01*
X262387790Y-100590695D02*
X262654457Y-99790695D01*
X262654457Y-99790695D02*
X262921123Y-100590695D01*
X263111599Y-99790695D02*
X263302075Y-100590695D01*
X263302075Y-100590695D02*
X263454456Y-100019266D01*
X263454456Y-100019266D02*
X263606837Y-100590695D01*
X263606837Y-100590695D02*
X263797314Y-99790695D01*
X261740171Y-128530695D02*
X261740171Y-127730695D01*
X261740171Y-127730695D02*
X262044933Y-127730695D01*
X262044933Y-127730695D02*
X262121123Y-127768790D01*
X262121123Y-127768790D02*
X262159218Y-127806885D01*
X262159218Y-127806885D02*
X262197314Y-127883076D01*
X262197314Y-127883076D02*
X262197314Y-127997361D01*
X262197314Y-127997361D02*
X262159218Y-128073552D01*
X262159218Y-128073552D02*
X262121123Y-128111647D01*
X262121123Y-128111647D02*
X262044933Y-128149742D01*
X262044933Y-128149742D02*
X261740171Y-128149742D01*
X262959218Y-128530695D02*
X262502075Y-128530695D01*
X262730647Y-128530695D02*
X262730647Y-127730695D01*
X262730647Y-127730695D02*
X262654456Y-127844980D01*
X262654456Y-127844980D02*
X262578266Y-127921171D01*
X262578266Y-127921171D02*
X262502075Y-127959266D01*
X263454457Y-127730695D02*
X263530647Y-127730695D01*
X263530647Y-127730695D02*
X263606838Y-127768790D01*
X263606838Y-127768790D02*
X263644933Y-127806885D01*
X263644933Y-127806885D02*
X263683028Y-127883076D01*
X263683028Y-127883076D02*
X263721123Y-128035457D01*
X263721123Y-128035457D02*
X263721123Y-128225933D01*
X263721123Y-128225933D02*
X263683028Y-128378314D01*
X263683028Y-128378314D02*
X263644933Y-128454504D01*
X263644933Y-128454504D02*
X263606838Y-128492600D01*
X263606838Y-128492600D02*
X263530647Y-128530695D01*
X263530647Y-128530695D02*
X263454457Y-128530695D01*
X263454457Y-128530695D02*
X263378266Y-128492600D01*
X263378266Y-128492600D02*
X263340171Y-128454504D01*
X263340171Y-128454504D02*
X263302076Y-128378314D01*
X263302076Y-128378314D02*
X263263980Y-128225933D01*
X263263980Y-128225933D02*
X263263980Y-128035457D01*
X263263980Y-128035457D02*
X263302076Y-127883076D01*
X263302076Y-127883076D02*
X263340171Y-127806885D01*
X263340171Y-127806885D02*
X263378266Y-127768790D01*
X263378266Y-127768790D02*
X263454457Y-127730695D01*
X261644933Y-107410695D02*
X261911600Y-108210695D01*
X261911600Y-108210695D02*
X262178266Y-107410695D01*
X262902076Y-108134504D02*
X262863980Y-108172600D01*
X262863980Y-108172600D02*
X262749695Y-108210695D01*
X262749695Y-108210695D02*
X262673504Y-108210695D01*
X262673504Y-108210695D02*
X262559218Y-108172600D01*
X262559218Y-108172600D02*
X262483028Y-108096409D01*
X262483028Y-108096409D02*
X262444933Y-108020219D01*
X262444933Y-108020219D02*
X262406837Y-107867838D01*
X262406837Y-107867838D02*
X262406837Y-107753552D01*
X262406837Y-107753552D02*
X262444933Y-107601171D01*
X262444933Y-107601171D02*
X262483028Y-107524980D01*
X262483028Y-107524980D02*
X262559218Y-107448790D01*
X262559218Y-107448790D02*
X262673504Y-107410695D01*
X262673504Y-107410695D02*
X262749695Y-107410695D01*
X262749695Y-107410695D02*
X262863980Y-107448790D01*
X262863980Y-107448790D02*
X262902076Y-107486885D01*
X263702076Y-108134504D02*
X263663980Y-108172600D01*
X263663980Y-108172600D02*
X263549695Y-108210695D01*
X263549695Y-108210695D02*
X263473504Y-108210695D01*
X263473504Y-108210695D02*
X263359218Y-108172600D01*
X263359218Y-108172600D02*
X263283028Y-108096409D01*
X263283028Y-108096409D02*
X263244933Y-108020219D01*
X263244933Y-108020219D02*
X263206837Y-107867838D01*
X263206837Y-107867838D02*
X263206837Y-107753552D01*
X263206837Y-107753552D02*
X263244933Y-107601171D01*
X263244933Y-107601171D02*
X263283028Y-107524980D01*
X263283028Y-107524980D02*
X263359218Y-107448790D01*
X263359218Y-107448790D02*
X263473504Y-107410695D01*
X263473504Y-107410695D02*
X263549695Y-107410695D01*
X263549695Y-107410695D02*
X263663980Y-107448790D01*
X263663980Y-107448790D02*
X263702076Y-107486885D01*
X261740171Y-125990695D02*
X261740171Y-125190695D01*
X261740171Y-125190695D02*
X262044933Y-125190695D01*
X262044933Y-125190695D02*
X262121123Y-125228790D01*
X262121123Y-125228790D02*
X262159218Y-125266885D01*
X262159218Y-125266885D02*
X262197314Y-125343076D01*
X262197314Y-125343076D02*
X262197314Y-125457361D01*
X262197314Y-125457361D02*
X262159218Y-125533552D01*
X262159218Y-125533552D02*
X262121123Y-125571647D01*
X262121123Y-125571647D02*
X262044933Y-125609742D01*
X262044933Y-125609742D02*
X261740171Y-125609742D01*
X262959218Y-125990695D02*
X262502075Y-125990695D01*
X262730647Y-125990695D02*
X262730647Y-125190695D01*
X262730647Y-125190695D02*
X262654456Y-125304980D01*
X262654456Y-125304980D02*
X262578266Y-125381171D01*
X262578266Y-125381171D02*
X262502075Y-125419266D01*
X263644933Y-125190695D02*
X263492552Y-125190695D01*
X263492552Y-125190695D02*
X263416361Y-125228790D01*
X263416361Y-125228790D02*
X263378266Y-125266885D01*
X263378266Y-125266885D02*
X263302076Y-125381171D01*
X263302076Y-125381171D02*
X263263980Y-125533552D01*
X263263980Y-125533552D02*
X263263980Y-125838314D01*
X263263980Y-125838314D02*
X263302076Y-125914504D01*
X263302076Y-125914504D02*
X263340171Y-125952600D01*
X263340171Y-125952600D02*
X263416361Y-125990695D01*
X263416361Y-125990695D02*
X263568742Y-125990695D01*
X263568742Y-125990695D02*
X263644933Y-125952600D01*
X263644933Y-125952600D02*
X263683028Y-125914504D01*
X263683028Y-125914504D02*
X263721123Y-125838314D01*
X263721123Y-125838314D02*
X263721123Y-125647838D01*
X263721123Y-125647838D02*
X263683028Y-125571647D01*
X263683028Y-125571647D02*
X263644933Y-125533552D01*
X263644933Y-125533552D02*
X263568742Y-125495457D01*
X263568742Y-125495457D02*
X263416361Y-125495457D01*
X263416361Y-125495457D02*
X263340171Y-125533552D01*
X263340171Y-125533552D02*
X263302076Y-125571647D01*
X263302076Y-125571647D02*
X263263980Y-125647838D01*
X252140171Y-100590695D02*
X252140171Y-99790695D01*
X252140171Y-99790695D02*
X252444933Y-99790695D01*
X252444933Y-99790695D02*
X252521123Y-99828790D01*
X252521123Y-99828790D02*
X252559218Y-99866885D01*
X252559218Y-99866885D02*
X252597314Y-99943076D01*
X252597314Y-99943076D02*
X252597314Y-100057361D01*
X252597314Y-100057361D02*
X252559218Y-100133552D01*
X252559218Y-100133552D02*
X252521123Y-100171647D01*
X252521123Y-100171647D02*
X252444933Y-100209742D01*
X252444933Y-100209742D02*
X252140171Y-100209742D01*
X253092552Y-99790695D02*
X253168742Y-99790695D01*
X253168742Y-99790695D02*
X253244933Y-99828790D01*
X253244933Y-99828790D02*
X253283028Y-99866885D01*
X253283028Y-99866885D02*
X253321123Y-99943076D01*
X253321123Y-99943076D02*
X253359218Y-100095457D01*
X253359218Y-100095457D02*
X253359218Y-100285933D01*
X253359218Y-100285933D02*
X253321123Y-100438314D01*
X253321123Y-100438314D02*
X253283028Y-100514504D01*
X253283028Y-100514504D02*
X253244933Y-100552600D01*
X253244933Y-100552600D02*
X253168742Y-100590695D01*
X253168742Y-100590695D02*
X253092552Y-100590695D01*
X253092552Y-100590695D02*
X253016361Y-100552600D01*
X253016361Y-100552600D02*
X252978266Y-100514504D01*
X252978266Y-100514504D02*
X252940171Y-100438314D01*
X252940171Y-100438314D02*
X252902075Y-100285933D01*
X252902075Y-100285933D02*
X252902075Y-100095457D01*
X252902075Y-100095457D02*
X252940171Y-99943076D01*
X252940171Y-99943076D02*
X252978266Y-99866885D01*
X252978266Y-99866885D02*
X253016361Y-99828790D01*
X253016361Y-99828790D02*
X253092552Y-99790695D01*
X254121123Y-100590695D02*
X253663980Y-100590695D01*
X253892552Y-100590695D02*
X253892552Y-99790695D01*
X253892552Y-99790695D02*
X253816361Y-99904980D01*
X253816361Y-99904980D02*
X253740171Y-99981171D01*
X253740171Y-99981171D02*
X253663980Y-100019266D01*
X262273505Y-105670695D02*
X262006838Y-105289742D01*
X261816362Y-105670695D02*
X261816362Y-104870695D01*
X261816362Y-104870695D02*
X262121124Y-104870695D01*
X262121124Y-104870695D02*
X262197314Y-104908790D01*
X262197314Y-104908790D02*
X262235409Y-104946885D01*
X262235409Y-104946885D02*
X262273505Y-105023076D01*
X262273505Y-105023076D02*
X262273505Y-105137361D01*
X262273505Y-105137361D02*
X262235409Y-105213552D01*
X262235409Y-105213552D02*
X262197314Y-105251647D01*
X262197314Y-105251647D02*
X262121124Y-105289742D01*
X262121124Y-105289742D02*
X261816362Y-105289742D01*
X262578266Y-105632600D02*
X262692552Y-105670695D01*
X262692552Y-105670695D02*
X262883028Y-105670695D01*
X262883028Y-105670695D02*
X262959219Y-105632600D01*
X262959219Y-105632600D02*
X262997314Y-105594504D01*
X262997314Y-105594504D02*
X263035409Y-105518314D01*
X263035409Y-105518314D02*
X263035409Y-105442123D01*
X263035409Y-105442123D02*
X262997314Y-105365933D01*
X262997314Y-105365933D02*
X262959219Y-105327838D01*
X262959219Y-105327838D02*
X262883028Y-105289742D01*
X262883028Y-105289742D02*
X262730647Y-105251647D01*
X262730647Y-105251647D02*
X262654457Y-105213552D01*
X262654457Y-105213552D02*
X262616362Y-105175457D01*
X262616362Y-105175457D02*
X262578266Y-105099266D01*
X262578266Y-105099266D02*
X262578266Y-105023076D01*
X262578266Y-105023076D02*
X262616362Y-104946885D01*
X262616362Y-104946885D02*
X262654457Y-104908790D01*
X262654457Y-104908790D02*
X262730647Y-104870695D01*
X262730647Y-104870695D02*
X262921124Y-104870695D01*
X262921124Y-104870695D02*
X263035409Y-104908790D01*
X263263981Y-104870695D02*
X263721124Y-104870695D01*
X263492552Y-105670695D02*
X263492552Y-104870695D01*
X261740171Y-118370695D02*
X261740171Y-117570695D01*
X261740171Y-117570695D02*
X262044933Y-117570695D01*
X262044933Y-117570695D02*
X262121123Y-117608790D01*
X262121123Y-117608790D02*
X262159218Y-117646885D01*
X262159218Y-117646885D02*
X262197314Y-117723076D01*
X262197314Y-117723076D02*
X262197314Y-117837361D01*
X262197314Y-117837361D02*
X262159218Y-117913552D01*
X262159218Y-117913552D02*
X262121123Y-117951647D01*
X262121123Y-117951647D02*
X262044933Y-117989742D01*
X262044933Y-117989742D02*
X261740171Y-117989742D01*
X262959218Y-118370695D02*
X262502075Y-118370695D01*
X262730647Y-118370695D02*
X262730647Y-117570695D01*
X262730647Y-117570695D02*
X262654456Y-117684980D01*
X262654456Y-117684980D02*
X262578266Y-117761171D01*
X262578266Y-117761171D02*
X262502075Y-117799266D01*
X263416361Y-117913552D02*
X263340171Y-117875457D01*
X263340171Y-117875457D02*
X263302076Y-117837361D01*
X263302076Y-117837361D02*
X263263980Y-117761171D01*
X263263980Y-117761171D02*
X263263980Y-117723076D01*
X263263980Y-117723076D02*
X263302076Y-117646885D01*
X263302076Y-117646885D02*
X263340171Y-117608790D01*
X263340171Y-117608790D02*
X263416361Y-117570695D01*
X263416361Y-117570695D02*
X263568742Y-117570695D01*
X263568742Y-117570695D02*
X263644933Y-117608790D01*
X263644933Y-117608790D02*
X263683028Y-117646885D01*
X263683028Y-117646885D02*
X263721123Y-117723076D01*
X263721123Y-117723076D02*
X263721123Y-117761171D01*
X263721123Y-117761171D02*
X263683028Y-117837361D01*
X263683028Y-117837361D02*
X263644933Y-117875457D01*
X263644933Y-117875457D02*
X263568742Y-117913552D01*
X263568742Y-117913552D02*
X263416361Y-117913552D01*
X263416361Y-117913552D02*
X263340171Y-117951647D01*
X263340171Y-117951647D02*
X263302076Y-117989742D01*
X263302076Y-117989742D02*
X263263980Y-118065933D01*
X263263980Y-118065933D02*
X263263980Y-118218314D01*
X263263980Y-118218314D02*
X263302076Y-118294504D01*
X263302076Y-118294504D02*
X263340171Y-118332600D01*
X263340171Y-118332600D02*
X263416361Y-118370695D01*
X263416361Y-118370695D02*
X263568742Y-118370695D01*
X263568742Y-118370695D02*
X263644933Y-118332600D01*
X263644933Y-118332600D02*
X263683028Y-118294504D01*
X263683028Y-118294504D02*
X263721123Y-118218314D01*
X263721123Y-118218314D02*
X263721123Y-118065933D01*
X263721123Y-118065933D02*
X263683028Y-117989742D01*
X263683028Y-117989742D02*
X263644933Y-117951647D01*
X263644933Y-117951647D02*
X263568742Y-117913552D01*
X252140171Y-115830695D02*
X252140171Y-115030695D01*
X252140171Y-115030695D02*
X252444933Y-115030695D01*
X252444933Y-115030695D02*
X252521123Y-115068790D01*
X252521123Y-115068790D02*
X252559218Y-115106885D01*
X252559218Y-115106885D02*
X252597314Y-115183076D01*
X252597314Y-115183076D02*
X252597314Y-115297361D01*
X252597314Y-115297361D02*
X252559218Y-115373552D01*
X252559218Y-115373552D02*
X252521123Y-115411647D01*
X252521123Y-115411647D02*
X252444933Y-115449742D01*
X252444933Y-115449742D02*
X252140171Y-115449742D01*
X253092552Y-115030695D02*
X253168742Y-115030695D01*
X253168742Y-115030695D02*
X253244933Y-115068790D01*
X253244933Y-115068790D02*
X253283028Y-115106885D01*
X253283028Y-115106885D02*
X253321123Y-115183076D01*
X253321123Y-115183076D02*
X253359218Y-115335457D01*
X253359218Y-115335457D02*
X253359218Y-115525933D01*
X253359218Y-115525933D02*
X253321123Y-115678314D01*
X253321123Y-115678314D02*
X253283028Y-115754504D01*
X253283028Y-115754504D02*
X253244933Y-115792600D01*
X253244933Y-115792600D02*
X253168742Y-115830695D01*
X253168742Y-115830695D02*
X253092552Y-115830695D01*
X253092552Y-115830695D02*
X253016361Y-115792600D01*
X253016361Y-115792600D02*
X252978266Y-115754504D01*
X252978266Y-115754504D02*
X252940171Y-115678314D01*
X252940171Y-115678314D02*
X252902075Y-115525933D01*
X252902075Y-115525933D02*
X252902075Y-115335457D01*
X252902075Y-115335457D02*
X252940171Y-115183076D01*
X252940171Y-115183076D02*
X252978266Y-115106885D01*
X252978266Y-115106885D02*
X253016361Y-115068790D01*
X253016361Y-115068790D02*
X253092552Y-115030695D01*
X254044933Y-115297361D02*
X254044933Y-115830695D01*
X253854457Y-114992600D02*
X253663980Y-115564028D01*
X253663980Y-115564028D02*
X254159219Y-115564028D01*
%TO.C,T1*%
X254772400Y-96676400D02*
X254772400Y-99526400D01*
X254772400Y-99526400D02*
X261372400Y-99526400D01*
X258072400Y-96676400D02*
X254772400Y-96676400D01*
X258072400Y-96676400D02*
X261372400Y-96676400D01*
X260022400Y-96676400D02*
X256122400Y-96676400D01*
X261372400Y-99526400D02*
X261372400Y-96676400D01*
%TO.C,B1*%
X266506400Y-138322800D02*
X264006400Y-138322800D01*
X266506400Y-138322800D02*
X268006400Y-139822800D01*
X264006400Y-138322800D02*
X262506400Y-139822800D01*
X268006400Y-139822800D02*
X268006400Y-142322800D01*
X262506400Y-139822800D02*
X262506400Y-142322800D01*
X266506400Y-143822800D02*
X268006400Y-142322800D01*
X266506400Y-143822800D02*
X264006400Y-143822800D01*
X264006400Y-143822800D02*
X262506400Y-142322800D01*
D10*
%TO.C,D13*%
X218338000Y-147976000D02*
X217938000Y-147976000D01*
X217938000Y-147976000D02*
X217938000Y-148526000D01*
X217938000Y-147976000D02*
X217938000Y-147426000D01*
X217938000Y-147976000D02*
X217338000Y-148376000D01*
X217338000Y-148376000D02*
X217338000Y-147576000D01*
X217338000Y-147976000D02*
X216838000Y-147976000D01*
X217338000Y-147576000D02*
X217938000Y-147976000D01*
%TO.C,D14*%
X218338000Y-128976000D02*
X217938000Y-128976000D01*
X217938000Y-128976000D02*
X217938000Y-129526000D01*
X217938000Y-128976000D02*
X217938000Y-128426000D01*
X217938000Y-128976000D02*
X217338000Y-129376000D01*
X217338000Y-129376000D02*
X217338000Y-128576000D01*
X217338000Y-128976000D02*
X216838000Y-128976000D01*
X217338000Y-128576000D02*
X217938000Y-128976000D01*
%TO.C,D19*%
X204686523Y-184576146D02*
X204288045Y-184541284D01*
X204288045Y-184541284D02*
X204240109Y-185089191D01*
X204288045Y-184541284D02*
X204335981Y-183993376D01*
X204288045Y-184541284D02*
X203655466Y-184887468D01*
X203655466Y-184887468D02*
X203725191Y-184090512D01*
X203690328Y-184488990D02*
X203192231Y-184445412D01*
X203725191Y-184090512D02*
X204288045Y-184541284D01*
%TO.C,D7*%
X180338000Y-142536000D02*
X179938000Y-142536000D01*
X179938000Y-142536000D02*
X179938000Y-143086000D01*
X179938000Y-142536000D02*
X179938000Y-141986000D01*
X179938000Y-142536000D02*
X179338000Y-142936000D01*
X179338000Y-142936000D02*
X179338000Y-142136000D01*
X179338000Y-142536000D02*
X178838000Y-142536000D01*
X179338000Y-142136000D02*
X179938000Y-142536000D01*
%TO.C,D18*%
X237338000Y-114226000D02*
X236938000Y-114226000D01*
X236938000Y-114226000D02*
X236938000Y-114776000D01*
X236938000Y-114226000D02*
X236938000Y-113676000D01*
X236938000Y-114226000D02*
X236338000Y-114626000D01*
X236338000Y-114626000D02*
X236338000Y-113826000D01*
X236338000Y-114226000D02*
X235838000Y-114226000D01*
X236338000Y-113826000D02*
X236938000Y-114226000D01*
%TO.C,D8*%
X180338000Y-123536000D02*
X179938000Y-123536000D01*
X179938000Y-123536000D02*
X179938000Y-124086000D01*
X179938000Y-123536000D02*
X179938000Y-122986000D01*
X179938000Y-123536000D02*
X179338000Y-123936000D01*
X179338000Y-123936000D02*
X179338000Y-123136000D01*
X179338000Y-123536000D02*
X178838000Y-123536000D01*
X179338000Y-123136000D02*
X179938000Y-123536000D01*
%TO.C,D17*%
X237338000Y-133226000D02*
X236938000Y-133226000D01*
X236938000Y-133226000D02*
X236938000Y-133776000D01*
X236938000Y-133226000D02*
X236938000Y-132676000D01*
X236938000Y-133226000D02*
X236338000Y-133626000D01*
X236338000Y-133626000D02*
X236338000Y-132826000D01*
X236338000Y-133226000D02*
X235838000Y-133226000D01*
X236338000Y-132826000D02*
X236938000Y-133226000D01*
%TO.C,D2*%
X142338000Y-135436000D02*
X141938000Y-135436000D01*
X141938000Y-135436000D02*
X141938000Y-135986000D01*
X141938000Y-135436000D02*
X141938000Y-134886000D01*
X141938000Y-135436000D02*
X141338000Y-135836000D01*
X141338000Y-135836000D02*
X141338000Y-135036000D01*
X141338000Y-135436000D02*
X140838000Y-135436000D01*
X141338000Y-135036000D02*
X141938000Y-135436000D01*
%TO.C,D4*%
X161338000Y-154436000D02*
X160938000Y-154436000D01*
X160938000Y-154436000D02*
X160938000Y-154986000D01*
X160938000Y-154436000D02*
X160938000Y-153886000D01*
X160938000Y-154436000D02*
X160338000Y-154836000D01*
X160338000Y-154836000D02*
X160338000Y-154036000D01*
X160338000Y-154436000D02*
X159838000Y-154436000D01*
X160338000Y-154036000D02*
X160938000Y-154436000D01*
%TO.C,D5*%
X161338000Y-135436000D02*
X160938000Y-135436000D01*
X160938000Y-135436000D02*
X160938000Y-135986000D01*
X160938000Y-135436000D02*
X160938000Y-134886000D01*
X160938000Y-135436000D02*
X160338000Y-135836000D01*
X160338000Y-135836000D02*
X160338000Y-135036000D01*
X160338000Y-135436000D02*
X159838000Y-135436000D01*
X160338000Y-135036000D02*
X160938000Y-135436000D01*
%TO.C,D3*%
X142338000Y-116436000D02*
X141938000Y-116436000D01*
X141938000Y-116436000D02*
X141938000Y-116986000D01*
X141938000Y-116436000D02*
X141938000Y-115886000D01*
X141938000Y-116436000D02*
X141338000Y-116836000D01*
X141338000Y-116836000D02*
X141338000Y-116036000D01*
X141338000Y-116436000D02*
X140838000Y-116436000D01*
X141338000Y-116036000D02*
X141938000Y-116436000D01*
%TO.C,D11*%
X199338000Y-118776000D02*
X198938000Y-118776000D01*
X198938000Y-118776000D02*
X198938000Y-119326000D01*
X198938000Y-118776000D02*
X198938000Y-118226000D01*
X198938000Y-118776000D02*
X198338000Y-119176000D01*
X198338000Y-119176000D02*
X198338000Y-118376000D01*
X198338000Y-118776000D02*
X197838000Y-118776000D01*
X198338000Y-118376000D02*
X198938000Y-118776000D01*
%TO.C,D10*%
X199338000Y-137776000D02*
X198938000Y-137776000D01*
X198938000Y-137776000D02*
X198938000Y-138326000D01*
X198938000Y-137776000D02*
X198938000Y-137226000D01*
X198938000Y-137776000D02*
X198338000Y-138176000D01*
X198338000Y-138176000D02*
X198338000Y-137376000D01*
X198338000Y-137776000D02*
X197838000Y-137776000D01*
X198338000Y-137376000D02*
X198938000Y-137776000D01*
%TO.C,D20*%
X224177417Y-188057166D02*
X223791047Y-187953639D01*
X223791047Y-187953639D02*
X223648697Y-188484898D01*
X223791047Y-187953639D02*
X223933398Y-187422379D01*
X223791047Y-187953639D02*
X223107964Y-188184718D01*
X223107964Y-188184718D02*
X223315019Y-187411977D01*
X223211492Y-187798347D02*
X222728529Y-187668938D01*
X223315019Y-187411977D02*
X223791047Y-187953639D01*
D13*
%TO.C,ROT1*%
X267508000Y-161366000D02*
X266908000Y-161366000D01*
X267208000Y-161066000D02*
X267508000Y-161366000D01*
X266908000Y-161366000D02*
X267208000Y-161066000D01*
X265808000Y-163066000D02*
X265808000Y-151366000D01*
X261708000Y-163066000D02*
X265808000Y-163066000D01*
X261708000Y-151366000D02*
X265808000Y-151366000D01*
X260208000Y-157266000D02*
X259208000Y-157266000D01*
X259708000Y-157766000D02*
X259708000Y-156766000D01*
X257708000Y-163166000D02*
X253608000Y-163166000D01*
X253608000Y-163166000D02*
X253608000Y-160566000D01*
X253608000Y-158566000D02*
X253608000Y-155966000D01*
X253608000Y-153966000D02*
X253608000Y-151366000D01*
X253608000Y-151366000D02*
X257708000Y-151366000D01*
X262708000Y-157266000D02*
G75*
G03*
X256708000Y-157266000I-3000000J0D01*
G01*
X256708000Y-157266000D02*
G75*
G03*
X262708000Y-157266000I3000000J0D01*
G01*
D10*
%TO.C,D1*%
X142338000Y-154436000D02*
X141938000Y-154436000D01*
X141938000Y-154436000D02*
X141938000Y-154986000D01*
X141938000Y-154436000D02*
X141938000Y-153886000D01*
X141938000Y-154436000D02*
X141338000Y-154836000D01*
X141338000Y-154836000D02*
X141338000Y-154036000D01*
X141338000Y-154436000D02*
X140838000Y-154436000D01*
X141338000Y-154036000D02*
X141938000Y-154436000D01*
%TO.C,D6*%
X161338000Y-116436000D02*
X160938000Y-116436000D01*
X160938000Y-116436000D02*
X160938000Y-116986000D01*
X160938000Y-116436000D02*
X160938000Y-115886000D01*
X160938000Y-116436000D02*
X160338000Y-116836000D01*
X160338000Y-116836000D02*
X160338000Y-116036000D01*
X160338000Y-116436000D02*
X159838000Y-116436000D01*
X160338000Y-116036000D02*
X160938000Y-116436000D01*
%TO.C,D15*%
X218338000Y-109976000D02*
X217938000Y-109976000D01*
X217938000Y-109976000D02*
X217938000Y-110526000D01*
X217938000Y-109976000D02*
X217938000Y-109426000D01*
X217938000Y-109976000D02*
X217338000Y-110376000D01*
X217338000Y-110376000D02*
X217338000Y-109576000D01*
X217338000Y-109976000D02*
X216838000Y-109976000D01*
X217338000Y-109576000D02*
X217938000Y-109976000D01*
%TO.C,D16*%
X237338000Y-152226000D02*
X236938000Y-152226000D01*
X236938000Y-152226000D02*
X236938000Y-152776000D01*
X236938000Y-152226000D02*
X236938000Y-151676000D01*
X236938000Y-152226000D02*
X236338000Y-152626000D01*
X236338000Y-152626000D02*
X236338000Y-151826000D01*
X236338000Y-152226000D02*
X235838000Y-152226000D01*
X236338000Y-151826000D02*
X236938000Y-152226000D01*
%TO.C,D12*%
X199338000Y-99776000D02*
X198938000Y-99776000D01*
X198938000Y-99776000D02*
X198938000Y-100326000D01*
X198938000Y-99776000D02*
X198938000Y-99226000D01*
X198938000Y-99776000D02*
X198338000Y-100176000D01*
X198338000Y-100176000D02*
X198338000Y-99376000D01*
X198338000Y-99776000D02*
X197838000Y-99776000D01*
X198338000Y-99376000D02*
X198938000Y-99776000D01*
%TO.C,D21*%
X250571401Y-188580520D02*
X250383612Y-188933699D01*
X250383612Y-188933699D02*
X250869233Y-189191909D01*
X250383612Y-188933699D02*
X249897991Y-188675490D01*
X250383612Y-188933699D02*
X250455108Y-189651257D01*
X250455108Y-189651257D02*
X249748750Y-189275679D01*
X250101929Y-189463468D02*
X249867193Y-189904942D01*
X249748750Y-189275679D02*
X250383612Y-188933699D01*
D12*
%TO.C,JST REV1*%
X257661600Y-104617100D02*
X258161600Y-104617100D01*
X257911600Y-104367100D02*
X257911600Y-104867100D01*
D10*
%TO.C,D9*%
X180338000Y-104536000D02*
X179938000Y-104536000D01*
X179938000Y-104536000D02*
X179938000Y-105086000D01*
X179938000Y-104536000D02*
X179938000Y-103986000D01*
X179938000Y-104536000D02*
X179338000Y-104936000D01*
X179338000Y-104936000D02*
X179338000Y-104136000D01*
X179338000Y-104536000D02*
X178838000Y-104536000D01*
X179338000Y-104136000D02*
X179938000Y-104536000D01*
D12*
%TO.C,MCU1*%
X266801600Y-96418400D02*
X249021600Y-96418400D01*
X249021600Y-96418400D02*
X249021600Y-129438400D01*
X264261600Y-98958400D02*
X266801600Y-98958400D01*
X264261600Y-98958400D02*
X264261600Y-101498400D01*
X264261600Y-101498400D02*
X266801600Y-101498400D01*
X266801600Y-129438400D02*
X266801600Y-96418400D01*
X249021600Y-129438400D02*
X266801600Y-129438400D01*
D10*
%TO.C,D22*%
X250588000Y-152476000D02*
X250588000Y-152876000D01*
X250588000Y-152876000D02*
X251138000Y-152876000D01*
X250588000Y-152876000D02*
X250038000Y-152876000D01*
X250588000Y-152876000D02*
X250988000Y-153476000D01*
X250988000Y-153476000D02*
X250188000Y-153476000D01*
X250588000Y-153476000D02*
X250588000Y-153976000D01*
X250188000Y-153476000D02*
X250588000Y-152876000D01*
%TD*%
D14*
%TO.C,MCU1*%
X265531600Y-100228400D03*
D15*
X265531600Y-102768400D03*
X265531600Y-105308400D03*
X265531600Y-107848400D03*
X265531600Y-110388400D03*
X265531600Y-112928400D03*
X265531600Y-115468400D03*
X265531600Y-118008400D03*
X265531600Y-120548400D03*
X265531600Y-123088400D03*
X265531600Y-125628400D03*
X265531600Y-128168400D03*
X250291600Y-100228400D03*
X250291600Y-102768400D03*
X250291600Y-105308400D03*
X250291600Y-107848400D03*
X250291600Y-110388400D03*
X250291600Y-112928400D03*
X250291600Y-115468400D03*
X250291600Y-118008400D03*
X250291600Y-120548400D03*
X250291600Y-123088400D03*
X250291600Y-125628400D03*
X250291600Y-128168400D03*
%TD*%
M02*
