%TF.GenerationSoftware,KiCad,Pcbnew,7.0.10*%
%TF.CreationDate,2024-02-08T10:53:14-05:00*%
%TF.ProjectId,kestrel,6b657374-7265-46c2-9e6b-696361645f70,v1.0.0*%
%TF.SameCoordinates,Original*%
%TF.FileFunction,Soldermask,Bot*%
%TF.FilePolarity,Negative*%
%FSLAX46Y46*%
G04 Gerber Fmt 4.6, Leading zero omitted, Abs format (unit mm)*
G04 Created by KiCad (PCBNEW 7.0.10) date 2024-02-08 10:53:14*
%MOMM*%
%LPD*%
G01*
G04 APERTURE LIST*
G04 Aperture macros list*
%AMRoundRect*
0 Rectangle with rounded corners*
0 $1 Rounding radius*
0 $2 $3 $4 $5 $6 $7 $8 $9 X,Y pos of 4 corners*
0 Add a 4 corners polygon primitive as box body*
4,1,4,$2,$3,$4,$5,$6,$7,$8,$9,$2,$3,0*
0 Add four circle primitives for the rounded corners*
1,1,$1+$1,$2,$3*
1,1,$1+$1,$4,$5*
1,1,$1+$1,$6,$7*
1,1,$1+$1,$8,$9*
0 Add four rect primitives between the rounded corners*
20,1,$1+$1,$2,$3,$4,$5,0*
20,1,$1+$1,$4,$5,$6,$7,0*
20,1,$1+$1,$6,$7,$8,$9,0*
20,1,$1+$1,$8,$9,$2,$3,0*%
G04 Aperture macros list end*
%ADD10C,1.100000*%
%ADD11RoundRect,0.050000X0.450000X0.600000X-0.450000X0.600000X-0.450000X-0.600000X0.450000X-0.600000X0*%
%ADD12C,1.801800*%
%ADD13C,3.100000*%
%ADD14C,4.087800*%
%ADD15RoundRect,0.050000X-1.275000X-1.250000X1.275000X-1.250000X1.275000X1.250000X-1.275000X1.250000X0*%
%ADD16C,4.800000*%
%ADD17RoundRect,0.050000X0.500581X0.558497X-0.395994X0.636937X-0.500581X-0.558497X0.395994X-0.636937X0*%
%ADD18RoundRect,0.050000X-0.571500X0.317500X-0.571500X-0.317500X0.571500X-0.317500X0.571500X0.317500X0*%
%ADD19RoundRect,0.050000X0.589958X0.463087X-0.279375X0.696024X-0.589958X-0.463087X0.279375X-0.696024X0*%
%ADD20RoundRect,0.050000X-1.379093X-1.134120X1.161204X-1.356367X1.379093X1.134120X-1.161204X1.356367X0*%
%ADD21RoundRect,0.050000X1.600000X1.000000X-1.600000X1.000000X-1.600000X-1.000000X1.600000X-1.000000X0*%
%ADD22C,1.600000*%
%ADD23RoundRect,0.050000X1.000000X1.000000X-1.000000X1.000000X-1.000000X-1.000000X1.000000X-1.000000X0*%
%ADD24C,2.100000*%
%ADD25C,1.800000*%
%ADD26O,1.800000X1.800000*%
%ADD27RoundRect,0.050000X-1.555079X-0.877413X0.908032X-1.537402X1.555079X0.877413X-0.908032X1.537402X0*%
%ADD28RoundRect,0.050000X0.505108X-1.712598X1.702261X0.538919X-0.505108X1.712598X-1.702261X-0.538919X0*%
%ADD29RoundRect,0.050000X-0.318506X0.679009X-0.741031X-0.115643X0.318506X-0.679009X0.741031X0.115643X0*%
%ADD30O,1.300000X1.800000*%
%ADD31RoundRect,0.050000X-0.600000X-0.850000X0.600000X-0.850000X0.600000X0.850000X-0.600000X0.850000X0*%
%ADD32RoundRect,0.050000X-0.876300X0.876300X-0.876300X-0.876300X0.876300X-0.876300X0.876300X0.876300X0*%
%ADD33C,1.852600*%
%ADD34RoundRect,0.050000X-0.600000X0.450000X-0.600000X-0.450000X0.600000X-0.450000X0.600000X0.450000X0*%
G04 APERTURE END LIST*
D10*
%TO.C,T1*%
X256572400Y-98026400D03*
X259572400Y-98026400D03*
%TD*%
D11*
%TO.C,D13*%
X219238000Y-147976000D03*
X215938000Y-147976000D03*
%TD*%
D12*
%TO.C,S8*%
X174508000Y-119536000D03*
D13*
X175778000Y-116996000D03*
X177048000Y-114456000D03*
D14*
X179588000Y-119536000D03*
D13*
X182128000Y-114456000D03*
X183398000Y-116996000D03*
D12*
X184668000Y-119536000D03*
D15*
X172503000Y-116996000D03*
X185430000Y-114456000D03*
%TD*%
D12*
%TO.C,S11*%
X193508000Y-114776000D03*
D13*
X194778000Y-112236000D03*
X196048000Y-109696000D03*
D14*
X198588000Y-114776000D03*
D13*
X201128000Y-109696000D03*
X202398000Y-112236000D03*
D12*
X203668000Y-114776000D03*
D15*
X191503000Y-112236000D03*
X204430000Y-109696000D03*
%TD*%
D16*
%TO.C,TH3*%
X209025000Y-134450000D03*
%TD*%
D11*
%TO.C,D14*%
X219238000Y-128976000D03*
X215938000Y-128976000D03*
%TD*%
D12*
%TO.C,S15*%
X212508000Y-105976000D03*
D13*
X213778000Y-103436000D03*
X215048000Y-100896000D03*
D14*
X217588000Y-105976000D03*
D13*
X220128000Y-100896000D03*
X221398000Y-103436000D03*
D12*
X222668000Y-105976000D03*
D15*
X210503000Y-103436000D03*
X223430000Y-100896000D03*
%TD*%
D12*
%TO.C,S14*%
X212508000Y-124976000D03*
D13*
X213778000Y-122436000D03*
X215048000Y-119896000D03*
D14*
X217588000Y-124976000D03*
D13*
X220128000Y-119896000D03*
X221398000Y-122436000D03*
D12*
X222668000Y-124976000D03*
D15*
X210503000Y-122436000D03*
X223430000Y-119896000D03*
%TD*%
D17*
%TO.C,D19*%
X205583098Y-184654586D03*
X202295656Y-184366972D03*
%TD*%
D11*
%TO.C,D7*%
X181238000Y-142536000D03*
X177938000Y-142536000D03*
%TD*%
D12*
%TO.C,S7*%
X174508000Y-138536000D03*
D13*
X175778000Y-135996000D03*
X177048000Y-133456000D03*
D14*
X179588000Y-138536000D03*
D13*
X182128000Y-133456000D03*
X183398000Y-135996000D03*
D12*
X184668000Y-138536000D03*
D15*
X172503000Y-135996000D03*
X185430000Y-133456000D03*
%TD*%
D11*
%TO.C,D18*%
X238238000Y-114226000D03*
X234938000Y-114226000D03*
%TD*%
D12*
%TO.C,S16*%
X231508000Y-148226000D03*
D13*
X232778000Y-145686000D03*
X234048000Y-143146000D03*
D14*
X236588000Y-148226000D03*
D13*
X239128000Y-143146000D03*
X240398000Y-145686000D03*
D12*
X241668000Y-148226000D03*
D15*
X229503000Y-145686000D03*
X242430000Y-143146000D03*
%TD*%
D16*
%TO.C,TH3*%
X245125000Y-99050000D03*
%TD*%
D11*
%TO.C,D8*%
X181238000Y-123536000D03*
X177938000Y-123536000D03*
%TD*%
%TO.C,D17*%
X238238000Y-133226000D03*
X234938000Y-133226000D03*
%TD*%
D12*
%TO.C,S13*%
X212508000Y-143976000D03*
D13*
X213778000Y-141436000D03*
X215048000Y-138896000D03*
D14*
X217588000Y-143976000D03*
D13*
X220128000Y-138896000D03*
X221398000Y-141436000D03*
D12*
X222668000Y-143976000D03*
D15*
X210503000Y-141436000D03*
X223430000Y-138896000D03*
%TD*%
D12*
%TO.C,S1*%
X136508000Y-150436000D03*
D13*
X137778000Y-147896000D03*
X139048000Y-145356000D03*
D14*
X141588000Y-150436000D03*
D13*
X144128000Y-145356000D03*
X145398000Y-147896000D03*
D12*
X146668000Y-150436000D03*
D15*
X134503000Y-147896000D03*
X147430000Y-145356000D03*
%TD*%
D11*
%TO.C,D2*%
X143238000Y-135436000D03*
X139938000Y-135436000D03*
%TD*%
%TO.C,D4*%
X162238000Y-154436000D03*
X158938000Y-154436000D03*
%TD*%
D16*
%TO.C,TH3*%
X237650000Y-177675000D03*
%TD*%
D11*
%TO.C,D5*%
X162238000Y-135436000D03*
X158938000Y-135436000D03*
%TD*%
%TO.C,D3*%
X143238000Y-116436000D03*
X139938000Y-116436000D03*
%TD*%
%TO.C,D11*%
X200238000Y-118776000D03*
X196938000Y-118776000D03*
%TD*%
D18*
%TO.C,J4*%
X258858000Y-110947200D03*
X258858000Y-111947960D03*
%TD*%
D11*
%TO.C,D10*%
X200238000Y-137776000D03*
X196938000Y-137776000D03*
%TD*%
D19*
%TO.C,D20*%
X225046751Y-188290103D03*
X221859195Y-187436001D03*
%TD*%
D12*
%TO.C,S5*%
X155508000Y-131436000D03*
D13*
X156778000Y-128896000D03*
X158048000Y-126356000D03*
D14*
X160588000Y-131436000D03*
D13*
X163128000Y-126356000D03*
X164398000Y-128896000D03*
D12*
X165668000Y-131436000D03*
D15*
X153503000Y-128896000D03*
X166430000Y-126356000D03*
%TD*%
D12*
%TO.C,S19*%
X199227331Y-180083249D03*
D13*
X200713874Y-177663602D03*
X202200417Y-175243955D03*
D14*
X204288000Y-180526000D03*
D13*
X207261086Y-175686707D03*
X208304877Y-178327729D03*
D12*
X209348669Y-180968751D03*
D20*
X197451336Y-177378167D03*
X210550521Y-175974495D03*
%TD*%
D21*
%TO.C,ROT1*%
X259708000Y-162866000D03*
X259708000Y-151666000D03*
D22*
X252708000Y-159766000D03*
X252708000Y-154766000D03*
D23*
X267208000Y-159766000D03*
D24*
X267208000Y-154766000D03*
X267208000Y-157266000D03*
%TD*%
D12*
%TO.C,S4*%
X155508000Y-150436000D03*
D13*
X156778000Y-147896000D03*
X158048000Y-145356000D03*
D14*
X160588000Y-150436000D03*
D13*
X163128000Y-145356000D03*
X164398000Y-147896000D03*
D12*
X165668000Y-150436000D03*
D15*
X153503000Y-147896000D03*
X166430000Y-145356000D03*
%TD*%
D16*
%TO.C,TH3*%
X150875000Y-121825000D03*
%TD*%
D12*
%TO.C,S12*%
X193508000Y-95776000D03*
D13*
X194778000Y-93236000D03*
X196048000Y-90696000D03*
D14*
X198588000Y-95776000D03*
D13*
X201128000Y-90696000D03*
X202398000Y-93236000D03*
D12*
X203668000Y-95776000D03*
D15*
X191503000Y-93236000D03*
X204430000Y-90696000D03*
%TD*%
D11*
%TO.C,D1*%
X143238000Y-154436000D03*
X139938000Y-154436000D03*
%TD*%
D25*
%TO.C,REF\u002A*%
X252842600Y-131724400D03*
D26*
X255382600Y-131724400D03*
X257922600Y-131724400D03*
X260462600Y-131724400D03*
X263002600Y-131724400D03*
%TD*%
D11*
%TO.C,D6*%
X162238000Y-116436000D03*
X158938000Y-116436000D03*
%TD*%
D12*
%TO.C,S17*%
X231508000Y-129226000D03*
D13*
X232778000Y-126686000D03*
X234048000Y-124146000D03*
D14*
X236588000Y-129226000D03*
D13*
X239128000Y-124146000D03*
X240398000Y-126686000D03*
D12*
X241668000Y-129226000D03*
D15*
X229503000Y-126686000D03*
X242430000Y-124146000D03*
%TD*%
D12*
%TO.C,S9*%
X174508000Y-100536000D03*
D13*
X175778000Y-97996000D03*
X177048000Y-95456000D03*
D14*
X179588000Y-100536000D03*
D13*
X182128000Y-95456000D03*
X183398000Y-97996000D03*
D12*
X184668000Y-100536000D03*
D15*
X172503000Y-97996000D03*
X185430000Y-95456000D03*
%TD*%
D18*
%TO.C,J6*%
X256858000Y-110947200D03*
X256858000Y-111947960D03*
%TD*%
D12*
%TO.C,S2*%
X136508000Y-131436000D03*
D13*
X137778000Y-128896000D03*
X139048000Y-126356000D03*
D14*
X141588000Y-131436000D03*
D13*
X144128000Y-126356000D03*
X145398000Y-128896000D03*
D12*
X146668000Y-131436000D03*
D15*
X134503000Y-128896000D03*
X147430000Y-126356000D03*
%TD*%
D11*
%TO.C,D15*%
X219238000Y-109976000D03*
X215938000Y-109976000D03*
%TD*%
D12*
%TO.C,S20*%
X219581346Y-182684548D03*
D13*
X221465472Y-180559797D03*
X223349598Y-178435045D03*
D14*
X224488249Y-183999349D03*
D13*
X228256501Y-179749846D03*
X228825827Y-182531998D03*
D12*
X229395152Y-185314150D03*
D27*
X218302065Y-179712164D03*
X231445988Y-180604467D03*
%TD*%
D12*
%TO.C,S21*%
X244302590Y-191850219D03*
D13*
X242656132Y-189536418D03*
X241009674Y-187222616D03*
D14*
X246687506Y-187364845D03*
D13*
X243394590Y-182737243D03*
X246233506Y-182808357D03*
D12*
X249072422Y-182879471D03*
D28*
X241118613Y-192428071D03*
X244944785Y-179821750D03*
%TD*%
D11*
%TO.C,D16*%
X238238000Y-152226000D03*
X234938000Y-152226000D03*
%TD*%
D16*
%TO.C,TH3*%
X151175000Y-140825000D03*
%TD*%
D12*
%TO.C,S3*%
X136508000Y-112436000D03*
D13*
X137778000Y-109896000D03*
X139048000Y-107356000D03*
D14*
X141588000Y-112436000D03*
D13*
X144128000Y-107356000D03*
X145398000Y-109896000D03*
D12*
X146668000Y-112436000D03*
D15*
X134503000Y-109896000D03*
X147430000Y-107356000D03*
%TD*%
D11*
%TO.C,D12*%
X200238000Y-99776000D03*
X196938000Y-99776000D03*
%TD*%
D12*
%TO.C,S6*%
X155508000Y-112436000D03*
D13*
X156778000Y-109896000D03*
X158048000Y-107356000D03*
D14*
X160588000Y-112436000D03*
D13*
X163128000Y-107356000D03*
X164398000Y-109896000D03*
D12*
X165668000Y-112436000D03*
D15*
X153503000Y-109896000D03*
X166430000Y-107356000D03*
%TD*%
D29*
%TO.C,D21*%
X250993925Y-187785867D03*
X249444669Y-190699595D03*
%TD*%
D18*
%TO.C,J2*%
X260858000Y-110947200D03*
X260858000Y-111947960D03*
%TD*%
%TO.C,J8*%
X254858000Y-110947200D03*
X254858000Y-111947960D03*
%TD*%
D12*
%TO.C,S10*%
X193508000Y-133776000D03*
D13*
X194778000Y-131236000D03*
X196048000Y-128696000D03*
D14*
X198588000Y-133776000D03*
D13*
X201128000Y-128696000D03*
X202398000Y-131236000D03*
D12*
X203668000Y-133776000D03*
D15*
X191503000Y-131236000D03*
X204430000Y-128696000D03*
%TD*%
D30*
%TO.C,JST REV1*%
X255661600Y-102867100D03*
D31*
X257911600Y-102867100D03*
D30*
X260161600Y-102867100D03*
%TD*%
D11*
%TO.C,D9*%
X181238000Y-104536000D03*
X177938000Y-104536000D03*
%TD*%
D32*
%TO.C,MCU1*%
X265531600Y-100228400D03*
D33*
X265531600Y-102768400D03*
X265531600Y-105308400D03*
X265531600Y-107848400D03*
X265531600Y-110388400D03*
X265531600Y-112928400D03*
X265531600Y-115468400D03*
X265531600Y-118008400D03*
X265531600Y-120548400D03*
X265531600Y-123088400D03*
X265531600Y-125628400D03*
X265531600Y-128168400D03*
X250291600Y-100228400D03*
X250291600Y-102768400D03*
X250291600Y-105308400D03*
X250291600Y-107848400D03*
X250291600Y-110388400D03*
X250291600Y-112928400D03*
X250291600Y-115468400D03*
X250291600Y-118008400D03*
X250291600Y-120548400D03*
X250291600Y-123088400D03*
X250291600Y-125628400D03*
X250291600Y-128168400D03*
%TD*%
D12*
%TO.C,S18*%
X231508000Y-110226000D03*
D13*
X232778000Y-107686000D03*
X234048000Y-105146000D03*
D14*
X236588000Y-110226000D03*
D13*
X239128000Y-105146000D03*
X240398000Y-107686000D03*
D12*
X241668000Y-110226000D03*
D15*
X229503000Y-107686000D03*
X242430000Y-105146000D03*
%TD*%
D34*
%TO.C,D22*%
X250588000Y-151576000D03*
X250588000Y-154876000D03*
%TD*%
M02*
