M48
; DRILL file {KiCad 7.0.10} date Thu 08 Feb 2024 10:53:12 AM
; FORMAT={-:-/ absolute / inch / decimal}
; #@! TF.CreationDate,2024-02-08T10:53:12-05:00
; #@! TF.GenerationSoftware,Kicad,Pcbnew,7.0.10
; #@! TF.FileFunction,Plated,1,2,PTH
FMAT,2
INCH
; #@! TA.AperFunction,Plated,PTH,ComponentDrill
T1C0.0118
; #@! TA.AperFunction,Plated,PTH,ViaDrill
T2C0.0157
; #@! TA.AperFunction,Plated,PTH,ComponentDrill
T3C0.0295
; #@! TA.AperFunction,Plated,PTH,ComponentDrill
T4C0.0394
; #@! TA.AperFunction,Plated,PTH,ComponentDrill
T5C0.0430
; #@! TA.AperFunction,Plated,PTH,ComponentDrill
T6C0.0591
; #@! TA.AperFunction,Plated,PTH,ComponentDrill
T7C0.1614
%
G90
G05
T1
X5.348Y-4.2298
X5.348Y-4.9778
X5.348Y-5.7258
X5.509Y-4.5841
X5.509Y-5.3321
X5.509Y-6.0802
X5.6397Y-4.5841
X5.6397Y-5.3321
X5.6397Y-6.0802
X5.8499Y-4.3282
X5.8499Y-5.0762
X5.8499Y-5.8243
X6.096Y-4.2298
X6.096Y-4.9778
X6.096Y-5.7258
X6.257Y-4.5841
X6.257Y-5.3321
X6.257Y-6.0802
X6.3877Y-4.5841
X6.3877Y-5.3321
X6.3877Y-6.0802
X6.598Y-4.3282
X6.598Y-5.0762
X6.598Y-5.8243
X6.844Y-3.7613
X6.844Y-4.5093
X6.844Y-5.2573
X7.005Y-4.1156
X7.005Y-4.8636
X7.005Y-5.6117
X7.1357Y-4.1156
X7.1357Y-4.8636
X7.1357Y-5.6117
X7.346Y-3.8597
X7.346Y-4.6077
X7.346Y-5.3557
X7.592Y-3.5739
X7.592Y-4.3219
X7.592Y-5.0699
X7.7531Y-3.9282
X7.7531Y-4.6762
X7.7531Y-5.4243
X7.8345Y-6.8915
X7.8838Y-3.9282
X7.8838Y-4.6762
X7.8838Y-5.4243
X7.964Y-7.2585
X8.094Y-3.6723
X8.094Y-4.4203
X8.094Y-5.1683
X8.0942Y-7.2699
X8.326Y-7.0333
X8.3401Y-3.9754
X8.3401Y-4.7235
X8.3401Y-5.4715
X8.5011Y-4.3298
X8.5011Y-5.0778
X8.5011Y-5.8258
X8.6318Y-4.3298
X8.6318Y-5.0778
X8.6318Y-5.8258
X8.6704Y-6.9953
X8.7342Y-7.3793
X8.842Y-4.0739
X8.842Y-4.8219
X8.842Y-5.5699
X8.8605Y-7.4131
X9.0881Y-4.1428
X9.0881Y-4.8908
X9.0881Y-5.6388
X9.1298Y-7.2203
X9.2491Y-4.4971
X9.2491Y-5.2451
X9.2491Y-5.9931
X9.3798Y-4.4971
X9.3798Y-5.2451
X9.3798Y-5.9931
X9.432Y-7.484
X9.5901Y-4.2412
X9.5901Y-4.9892
X9.5901Y-5.7372
X9.7546Y-7.087
X9.8205Y-7.5082
X9.8818Y-7.3928
T2
X6.898Y-6.1195
X7.45Y-6.148
X7.722Y-6.218
X8.394Y-6.236
X8.982Y-6.254
X9.638Y-5.462
X9.638Y-5.938
X9.646Y-4.644
X9.79Y-6.128
X9.866Y-5.966
X9.866Y-6.1
X10.032Y-4.244
X10.032Y-4.408
X10.112Y-4.408
X10.152Y-4.28
X10.152Y-4.328
X10.152Y-4.478
X10.192Y-4.408
X10.264Y-4.214
X10.27Y-4.408
T3
X10.0654Y-4.0499
X10.154Y-4.0499
X10.2426Y-4.0499
T4
X9.9491Y-6.0931
X9.9491Y-6.29
X9.9544Y-5.186
X10.0544Y-5.186
X10.1544Y-5.186
X10.2544Y-5.186
X10.3544Y-5.186
X10.52Y-6.0931
X10.52Y-6.1916
X10.52Y-6.29
T5
X9.854Y-3.946
X9.854Y-4.046
X9.854Y-4.146
X9.854Y-4.246
X9.854Y-4.346
X9.854Y-4.446
X9.854Y-4.546
X9.854Y-4.646
X9.854Y-4.746
X9.854Y-4.846
X9.854Y-4.946
X9.854Y-5.046
X10.454Y-3.946
X10.454Y-4.046
X10.454Y-4.146
X10.454Y-4.246
X10.454Y-4.346
X10.454Y-4.446
X10.454Y-4.546
X10.454Y-4.646
X10.454Y-4.746
X10.454Y-4.846
X10.454Y-4.946
X10.454Y-5.046
T7
X5.94Y-4.7963
X5.9518Y-5.5443
X8.2293Y-5.2933
X9.3563Y-6.9951
X9.6506Y-3.8996
T6
G00X10.2503Y-5.9711
M15
G01X10.1991Y-5.9711
M16
G05
G00X10.2503Y-6.412
M15
G01X10.1991Y-6.412
M16
G05
M30
