%TF.GenerationSoftware,KiCad,Pcbnew,7.0.10*%
%TF.CreationDate,2024-02-08T10:53:14-05:00*%
%TF.ProjectId,kestrel,6b657374-7265-46c2-9e6b-696361645f70,v1.0.0*%
%TF.SameCoordinates,Original*%
%TF.FileFunction,Copper,L2,Bot*%
%TF.FilePolarity,Positive*%
%FSLAX46Y46*%
G04 Gerber Fmt 4.6, Leading zero omitted, Abs format (unit mm)*
G04 Created by KiCad (PCBNEW 7.0.10) date 2024-02-08 10:53:14*
%MOMM*%
%LPD*%
G01*
G04 APERTURE LIST*
G04 Aperture macros list*
%AMRotRect*
0 Rectangle, with rotation*
0 The origin of the aperture is its center*
0 $1 length*
0 $2 width*
0 $3 Rotation angle, in degrees counterclockwise*
0 Add horizontal line*
21,1,$1,$2,0,0,$3*%
G04 Aperture macros list end*
%TA.AperFunction,WasherPad*%
%ADD10C,1.000000*%
%TD*%
%TA.AperFunction,ComponentPad*%
%ADD11C,0.600000*%
%TD*%
%TA.AperFunction,SMDPad,CuDef*%
%ADD12R,0.900000X1.200000*%
%TD*%
%TA.AperFunction,SMDPad,CuDef*%
%ADD13R,2.550000X2.500000*%
%TD*%
%TA.AperFunction,ComponentPad*%
%ADD14C,4.700000*%
%TD*%
%TA.AperFunction,SMDPad,CuDef*%
%ADD15RotRect,0.900000X1.200000X175.000000*%
%TD*%
%TA.AperFunction,SMDPad,CuDef*%
%ADD16R,1.143000X0.635000*%
%TD*%
%TA.AperFunction,SMDPad,CuDef*%
%ADD17RotRect,0.900000X1.200000X165.000000*%
%TD*%
%TA.AperFunction,SMDPad,CuDef*%
%ADD18RotRect,2.550000X2.500000X355.000000*%
%TD*%
%TA.AperFunction,ComponentPad*%
%ADD19R,3.200000X2.000000*%
%TD*%
%TA.AperFunction,ComponentPad*%
%ADD20C,1.500000*%
%TD*%
%TA.AperFunction,ComponentPad*%
%ADD21R,2.000000X2.000000*%
%TD*%
%TA.AperFunction,ComponentPad*%
%ADD22C,2.000000*%
%TD*%
%TA.AperFunction,ComponentPad*%
%ADD23C,1.700000*%
%TD*%
%TA.AperFunction,ComponentPad*%
%ADD24O,1.700000X1.700000*%
%TD*%
%TA.AperFunction,SMDPad,CuDef*%
%ADD25RotRect,2.550000X2.500000X345.000000*%
%TD*%
%TA.AperFunction,SMDPad,CuDef*%
%ADD26RotRect,2.550000X2.500000X62.000000*%
%TD*%
%TA.AperFunction,SMDPad,CuDef*%
%ADD27RotRect,0.900000X1.200000X242.000000*%
%TD*%
%TA.AperFunction,ComponentPad*%
%ADD28O,1.200000X1.700000*%
%TD*%
%TA.AperFunction,ComponentPad*%
%ADD29R,1.200000X1.700000*%
%TD*%
%TA.AperFunction,ComponentPad*%
%ADD30R,1.752600X1.752600*%
%TD*%
%TA.AperFunction,ComponentPad*%
%ADD31C,1.752600*%
%TD*%
%TA.AperFunction,SMDPad,CuDef*%
%ADD32R,1.200000X0.900000*%
%TD*%
%TA.AperFunction,ViaPad*%
%ADD33C,0.800000*%
%TD*%
%TA.AperFunction,Conductor*%
%ADD34C,0.250000*%
%TD*%
G04 APERTURE END LIST*
D10*
%TO.P,T1,*%
%TO.N,*%
X256572400Y-98026400D03*
X259572400Y-98026400D03*
%TD*%
D11*
%TO.P,REF\u002A\u002A,1*%
%TO.N,row_0*%
X205593060Y-184655457D03*
%TD*%
%TO.P,REF\u002A\u002A,1*%
%TO.N,ring_top*%
X173838000Y-95536000D03*
%TD*%
%TO.P,REF\u002A\u002A,1*%
%TO.N,row_3*%
X162248000Y-116436000D03*
%TD*%
D12*
%TO.P,D13,1*%
%TO.N,row_1*%
X219238000Y-147976000D03*
%TO.P,D13,2*%
%TO.N,index_bottom*%
X215938000Y-147976000D03*
%TD*%
D11*
%TO.P,REF\u002A\u002A,1*%
%TO.N,row_1*%
X162248000Y-154436000D03*
%TD*%
D13*
%TO.P,S8,1*%
%TO.N,col_2*%
X172503000Y-116996000D03*
%TO.P,S8,2*%
%TO.N,ring_home*%
X185430000Y-114456000D03*
%TD*%
D11*
%TO.P,REF\u002A\u002A,1*%
%TO.N,ring_home*%
X173838000Y-114536000D03*
%TD*%
%TO.P,REF\u002A\u002A,1*%
%TO.N,home_fan*%
X221849536Y-187433412D03*
%TD*%
%TO.P,REF\u002A\u002A,1*%
%TO.N,col_3*%
X205588000Y-93276000D03*
%TD*%
D13*
%TO.P,S11,1*%
%TO.N,col_3*%
X191503000Y-112236000D03*
%TO.P,S11,2*%
%TO.N,middle_home*%
X204430000Y-109696000D03*
%TD*%
D11*
%TO.P,REF\u002A\u002A,1*%
%TO.N,pinkie_top*%
X154838000Y-107436000D03*
%TD*%
%TO.P,REF\u002A\u002A,1*%
%TO.N,middle_bottom*%
X192838000Y-128776000D03*
%TD*%
%TO.P,REF\u002A\u002A,1*%
%TO.N,col_5*%
X243588000Y-126726000D03*
%TD*%
D14*
%TO.P,TH3,*%
%TO.N,*%
X209025000Y-134450000D03*
%TD*%
D12*
%TO.P,D14,1*%
%TO.N,row_2*%
X219238000Y-128976000D03*
%TO.P,D14,2*%
%TO.N,index_home*%
X215938000Y-128976000D03*
%TD*%
D11*
%TO.P,REF\u002A\u002A,1*%
%TO.N,col_4*%
X224588000Y-122476000D03*
%TD*%
%TO.P,REF\u002A\u002A,1*%
%TO.N,far_fan*%
X239573307Y-190094435D03*
%TD*%
%TO.P,REF\u002A\u002A,1*%
%TO.N,col_1*%
X167588000Y-147936000D03*
%TD*%
%TO.P,REF\u002A\u002A,1*%
%TO.N,row_3*%
X143248000Y-116436000D03*
%TD*%
%TO.P,REF\u002A\u002A,1*%
%TO.N,inner_top*%
X234928000Y-114226000D03*
%TD*%
D13*
%TO.P,S15,1*%
%TO.N,col_4*%
X210503000Y-103436000D03*
%TO.P,S15,2*%
%TO.N,index_top*%
X223430000Y-100896000D03*
%TD*%
%TO.P,S14,1*%
%TO.N,col_4*%
X210503000Y-122436000D03*
%TO.P,S14,2*%
%TO.N,index_home*%
X223430000Y-119896000D03*
%TD*%
D15*
%TO.P,D19,1*%
%TO.N,row_0*%
X205583098Y-184654586D03*
%TO.P,D19,2*%
%TO.N,near_fan*%
X202295656Y-184366972D03*
%TD*%
D11*
%TO.P,REF\u002A\u002A,1*%
%TO.N,middle_home*%
X196928000Y-118776000D03*
%TD*%
%TO.P,REF\u002A\u002A,1*%
%TO.N,row_1*%
X181248000Y-142536000D03*
%TD*%
%TO.P,REF\u002A\u002A,1*%
%TO.N,col_5*%
X243588000Y-107726000D03*
%TD*%
%TO.P,REF\u002A\u002A,1*%
%TO.N,index_top*%
X215928000Y-109976000D03*
%TD*%
%TO.P,REF\u002A\u002A,1*%
%TO.N,ring_bottom*%
X177928000Y-142536000D03*
%TD*%
D12*
%TO.P,D7,1*%
%TO.N,row_1*%
X181238000Y-142536000D03*
%TO.P,D7,2*%
%TO.N,ring_bottom*%
X177938000Y-142536000D03*
%TD*%
D13*
%TO.P,S7,1*%
%TO.N,col_2*%
X172503000Y-135996000D03*
%TO.P,S7,2*%
%TO.N,ring_bottom*%
X185430000Y-133456000D03*
%TD*%
D11*
%TO.P,REF\u002A\u002A,1*%
%TO.N,index_home*%
X211838000Y-119976000D03*
%TD*%
%TO.P,REF\u002A\u002A,1*%
%TO.N,col_4*%
X224588000Y-141476000D03*
%TD*%
%TO.P,REF\u002A\u002A,1*%
%TO.N,outer_top*%
X135838000Y-107436000D03*
%TD*%
D12*
%TO.P,D18,1*%
%TO.N,row_3*%
X238238000Y-114226000D03*
%TO.P,D18,2*%
%TO.N,inner_top*%
X234938000Y-114226000D03*
%TD*%
D11*
%TO.P,REF\u002A\u002A,1*%
%TO.N,inner_top*%
X230838000Y-105226000D03*
%TD*%
D13*
%TO.P,S16,1*%
%TO.N,col_5*%
X229503000Y-145686000D03*
%TO.P,S16,2*%
%TO.N,inner_bottom*%
X242430000Y-143146000D03*
%TD*%
D11*
%TO.P,REF\u002A\u002A,1*%
%TO.N,index_bottom*%
X211838000Y-138976000D03*
%TD*%
D14*
%TO.P,TH3,*%
%TO.N,*%
X245125000Y-99050000D03*
%TD*%
D12*
%TO.P,D8,1*%
%TO.N,row_2*%
X181238000Y-123536000D03*
%TO.P,D8,2*%
%TO.N,ring_home*%
X177938000Y-123536000D03*
%TD*%
D11*
%TO.P,REF\u002A\u002A,1*%
%TO.N,col_2*%
X186588000Y-117036000D03*
%TD*%
D12*
%TO.P,D17,1*%
%TO.N,row_2*%
X238238000Y-133226000D03*
%TO.P,D17,2*%
%TO.N,inner_home*%
X234938000Y-133226000D03*
%TD*%
D11*
%TO.P,REF\u002A\u002A,1*%
%TO.N,ring_top*%
X177928000Y-104536000D03*
%TD*%
%TO.P,REF\u002A\u002A,1*%
%TO.N,middle_top*%
X192838000Y-90776000D03*
%TD*%
D13*
%TO.P,S13,1*%
%TO.N,col_4*%
X210503000Y-141436000D03*
%TO.P,S13,2*%
%TO.N,index_bottom*%
X223430000Y-138896000D03*
%TD*%
%TO.P,S1,1*%
%TO.N,col_0*%
X134503000Y-147896000D03*
%TO.P,S1,2*%
%TO.N,outer_bottom*%
X147430000Y-145356000D03*
%TD*%
D11*
%TO.P,REF\u002A\u002A,1*%
%TO.N,outer_bottom*%
X135838000Y-145436000D03*
%TD*%
%TO.P,REF\u002A\u002A,1*%
%TO.N,index_home*%
X215928000Y-128976000D03*
%TD*%
D12*
%TO.P,D2,1*%
%TO.N,row_2*%
X143238000Y-135436000D03*
%TO.P,D2,2*%
%TO.N,outer_home*%
X139938000Y-135436000D03*
%TD*%
D11*
%TO.P,REF\u002A\u002A,1*%
%TO.N,col_3*%
X231896778Y-183396267D03*
%TD*%
%TO.P,REF\u002A\u002A,1*%
%TO.N,col_4*%
X247766438Y-180010532D03*
%TD*%
%TO.P,REF\u002A\u002A,1*%
%TO.N,col_0*%
X148588000Y-109936000D03*
%TD*%
D12*
%TO.P,D4,1*%
%TO.N,row_1*%
X162238000Y-154436000D03*
%TO.P,D4,2*%
%TO.N,pinkie_bottom*%
X158938000Y-154436000D03*
%TD*%
D11*
%TO.P,REF\u002A\u002A,1*%
%TO.N,col_3*%
X205588000Y-112276000D03*
%TD*%
D14*
%TO.P,TH3,*%
%TO.N,*%
X237650000Y-177675000D03*
%TD*%
D11*
%TO.P,REF\u002A\u002A,1*%
%TO.N,middle_top*%
X196928000Y-99776000D03*
%TD*%
%TO.P,REF\u002A\u002A,1*%
%TO.N,row_3*%
X181248000Y-104536000D03*
%TD*%
%TO.P,REF\u002A\u002A,1*%
%TO.N,row_2*%
X219248000Y-128976000D03*
%TD*%
%TO.P,REF\u002A\u002A,1*%
%TO.N,row_1*%
X200248000Y-137776000D03*
%TD*%
D12*
%TO.P,D5,1*%
%TO.N,row_2*%
X162238000Y-135436000D03*
%TO.P,D5,2*%
%TO.N,pinkie_home*%
X158938000Y-135436000D03*
%TD*%
D11*
%TO.P,REF\u002A\u002A,1*%
%TO.N,ring_bottom*%
X173838000Y-133536000D03*
%TD*%
%TO.P,REF\u002A\u002A,1*%
%TO.N,row_0*%
X250998619Y-187777038D03*
%TD*%
%TO.P,REF\u002A\u002A,1*%
%TO.N,col_3*%
X205588000Y-131276000D03*
%TD*%
D12*
%TO.P,D3,1*%
%TO.N,row_3*%
X143238000Y-116436000D03*
%TO.P,D3,2*%
%TO.N,outer_top*%
X139938000Y-116436000D03*
%TD*%
%TO.P,D11,1*%
%TO.N,row_2*%
X200238000Y-118776000D03*
%TO.P,D11,2*%
%TO.N,middle_home*%
X196938000Y-118776000D03*
%TD*%
D11*
%TO.P,REF\u002A\u002A,1*%
%TO.N,far_fan*%
X249439974Y-190708424D03*
%TD*%
%TO.P,REF\u002A\u002A,1*%
%TO.N,row_3*%
X200248000Y-99776000D03*
%TD*%
%TO.P,REF\u002A\u002A,1*%
%TO.N,col_2*%
X186588000Y-98036000D03*
%TD*%
D16*
%TO.P,J4,1*%
%TO.N,SCL*%
X258858000Y-110947200D03*
%TO.P,J4,2*%
%TO.N,J_pad3*%
X258858000Y-111947960D03*
%TD*%
D11*
%TO.P,REF\u002A\u002A,1*%
%TO.N,middle_home*%
X192838000Y-109776000D03*
%TD*%
D12*
%TO.P,D10,1*%
%TO.N,row_1*%
X200238000Y-137776000D03*
%TO.P,D10,2*%
%TO.N,middle_bottom*%
X196938000Y-137776000D03*
%TD*%
D11*
%TO.P,REF\u002A\u002A,1*%
%TO.N,col_5*%
X243588000Y-145726000D03*
%TD*%
%TO.P,REF\u002A\u002A,1*%
%TO.N,row_3*%
X238248000Y-114226000D03*
%TD*%
D17*
%TO.P,D20,1*%
%TO.N,row_0*%
X225046751Y-188290103D03*
%TO.P,D20,2*%
%TO.N,home_fan*%
X221859195Y-187436001D03*
%TD*%
D13*
%TO.P,S5,1*%
%TO.N,col_1*%
X153503000Y-128896000D03*
%TO.P,S5,2*%
%TO.N,pinkie_home*%
X166430000Y-126356000D03*
%TD*%
D18*
%TO.P,S19,1*%
%TO.N,col_2*%
X197451336Y-177378167D03*
%TO.P,S19,2*%
%TO.N,near_fan*%
X210550521Y-175974495D03*
%TD*%
D19*
%TO.P,ROT1,*%
%TO.N,*%
X259708000Y-162866000D03*
X259708000Y-151666000D03*
D20*
%TO.P,ROT1,1*%
%TO.N,col_5*%
X252708000Y-159766000D03*
%TO.P,ROT1,2*%
%TO.N,r_diode*%
X252708000Y-154766000D03*
D21*
%TO.P,ROT1,A*%
%TO.N,ENCA*%
X267208000Y-159766000D03*
D22*
%TO.P,ROT1,B*%
%TO.N,ENCB*%
X267208000Y-154766000D03*
%TO.P,ROT1,C*%
%TO.N,GND*%
X267208000Y-157266000D03*
%TD*%
D13*
%TO.P,S4,1*%
%TO.N,col_1*%
X153503000Y-147896000D03*
%TO.P,S4,2*%
%TO.N,pinkie_bottom*%
X166430000Y-145356000D03*
%TD*%
D11*
%TO.P,REF\u002A\u002A,1*%
%TO.N,index_bottom*%
X215928000Y-147976000D03*
%TD*%
D14*
%TO.P,TH3,*%
%TO.N,*%
X150875000Y-121825000D03*
%TD*%
D13*
%TO.P,S12,1*%
%TO.N,col_3*%
X191503000Y-93236000D03*
%TO.P,S12,2*%
%TO.N,middle_top*%
X204430000Y-90696000D03*
%TD*%
D11*
%TO.P,REF\u002A\u002A,1*%
%TO.N,row_1*%
X143248000Y-154436000D03*
%TD*%
D12*
%TO.P,D1,1*%
%TO.N,row_1*%
X143238000Y-154436000D03*
%TO.P,D1,2*%
%TO.N,outer_bottom*%
X139938000Y-154436000D03*
%TD*%
D11*
%TO.P,REF\u002A\u002A,1*%
%TO.N,row_3*%
X219248000Y-109976000D03*
%TD*%
D23*
%TO.P,REF\u002A,1*%
%TO.N,J_pad1*%
X252842600Y-131724400D03*
D24*
%TO.P,REF\u002A,2*%
%TO.N,J_pad2*%
X255382600Y-131724400D03*
%TO.P,REF\u002A,3*%
%TO.N,VCC*%
X257922600Y-131724400D03*
%TO.P,REF\u002A,4*%
%TO.N,J_pad3*%
X260462600Y-131724400D03*
%TO.P,REF\u002A,5*%
%TO.N,J_pad4*%
X263002600Y-131724400D03*
%TD*%
D12*
%TO.P,D6,1*%
%TO.N,row_3*%
X162238000Y-116436000D03*
%TO.P,D6,2*%
%TO.N,pinkie_top*%
X158938000Y-116436000D03*
%TD*%
D13*
%TO.P,S17,1*%
%TO.N,col_5*%
X229503000Y-126686000D03*
%TO.P,S17,2*%
%TO.N,inner_home*%
X242430000Y-124146000D03*
%TD*%
D11*
%TO.P,REF\u002A\u002A,1*%
%TO.N,index_top*%
X211838000Y-100976000D03*
%TD*%
D13*
%TO.P,S9,1*%
%TO.N,col_2*%
X172503000Y-97996000D03*
%TO.P,S9,2*%
%TO.N,ring_top*%
X185430000Y-95456000D03*
%TD*%
D11*
%TO.P,REF\u002A\u002A,1*%
%TO.N,row_2*%
X200248000Y-118776000D03*
%TD*%
%TO.P,REF\u002A\u002A,1*%
%TO.N,pinkie_top*%
X158928000Y-116436000D03*
%TD*%
%TO.P,REF\u002A\u002A,1*%
%TO.N,home_fan*%
X220228271Y-177681510D03*
%TD*%
%TO.P,REF\u002A\u002A,1*%
%TO.N,col_2*%
X186588000Y-136036000D03*
%TD*%
%TO.P,REF\u002A\u002A,1*%
%TO.N,row_2*%
X181248000Y-123536000D03*
%TD*%
%TO.P,REF\u002A\u002A,1*%
%TO.N,middle_bottom*%
X196928000Y-137776000D03*
%TD*%
%TO.P,REF\u002A\u002A,1*%
%TO.N,ring_home*%
X177928000Y-123536000D03*
%TD*%
D16*
%TO.P,J6,1*%
%TO.N,GND*%
X256858000Y-110947200D03*
%TO.P,J6,2*%
%TO.N,J_pad2*%
X256858000Y-111947960D03*
%TD*%
D13*
%TO.P,S2,1*%
%TO.N,col_0*%
X134503000Y-128896000D03*
%TO.P,S2,2*%
%TO.N,outer_home*%
X147430000Y-126356000D03*
%TD*%
D12*
%TO.P,D15,1*%
%TO.N,row_3*%
X219238000Y-109976000D03*
%TO.P,D15,2*%
%TO.N,index_top*%
X215938000Y-109976000D03*
%TD*%
D11*
%TO.P,REF\u002A\u002A,1*%
%TO.N,near_fan*%
X198995659Y-175043881D03*
%TD*%
%TO.P,REF\u002A\u002A,1*%
%TO.N,pinkie_bottom*%
X154838000Y-145436000D03*
%TD*%
D25*
%TO.P,S20,1*%
%TO.N,col_3*%
X218302065Y-179712164D03*
%TO.P,S20,2*%
%TO.N,home_fan*%
X231445988Y-180604467D03*
%TD*%
D26*
%TO.P,S21,1*%
%TO.N,col_4*%
X241118613Y-192428071D03*
%TO.P,S21,2*%
%TO.N,far_fan*%
X244944785Y-179821750D03*
%TD*%
D12*
%TO.P,D16,1*%
%TO.N,row_1*%
X238238000Y-152226000D03*
%TO.P,D16,2*%
%TO.N,inner_bottom*%
X234938000Y-152226000D03*
%TD*%
D11*
%TO.P,REF\u002A\u002A,1*%
%TO.N,inner_bottom*%
X234928000Y-152226000D03*
%TD*%
%TO.P,REF\u002A\u002A,1*%
%TO.N,row_1*%
X219248000Y-147976000D03*
%TD*%
D14*
%TO.P,TH3,*%
%TO.N,*%
X151175000Y-140825000D03*
%TD*%
D11*
%TO.P,REF\u002A\u002A,1*%
%TO.N,col_1*%
X167588000Y-109936000D03*
%TD*%
%TO.P,REF\u002A\u002A,1*%
%TO.N,row_1*%
X238248000Y-152226000D03*
%TD*%
%TO.P,REF\u002A\u002A,1*%
%TO.N,row_2*%
X143248000Y-135436000D03*
%TD*%
%TO.P,REF\u002A\u002A,1*%
%TO.N,inner_home*%
X230838000Y-124226000D03*
%TD*%
%TO.P,REF\u002A\u002A,1*%
%TO.N,pinkie_home*%
X154838000Y-126436000D03*
%TD*%
%TO.P,REF\u002A\u002A,1*%
%TO.N,inner_bottom*%
X230838000Y-143226000D03*
%TD*%
D13*
%TO.P,S3,1*%
%TO.N,col_0*%
X134503000Y-109896000D03*
%TO.P,S3,2*%
%TO.N,outer_top*%
X147430000Y-107356000D03*
%TD*%
D11*
%TO.P,REF\u002A\u002A,1*%
%TO.N,outer_top*%
X139928000Y-116436000D03*
%TD*%
%TO.P,REF\u002A\u002A,1*%
%TO.N,outer_home*%
X139928000Y-135436000D03*
%TD*%
%TO.P,REF\u002A\u002A,1*%
%TO.N,col_1*%
X167588000Y-128936000D03*
%TD*%
D12*
%TO.P,D12,1*%
%TO.N,row_3*%
X200238000Y-99776000D03*
%TO.P,D12,2*%
%TO.N,middle_top*%
X196938000Y-99776000D03*
%TD*%
D11*
%TO.P,REF\u002A\u002A,1*%
%TO.N,col_0*%
X148588000Y-128936000D03*
%TD*%
%TO.P,REF\u002A\u002A,1*%
%TO.N,near_fan*%
X202285694Y-184366100D03*
%TD*%
D13*
%TO.P,S6,1*%
%TO.N,col_1*%
X153503000Y-109896000D03*
%TO.P,S6,2*%
%TO.N,pinkie_top*%
X166430000Y-107356000D03*
%TD*%
D11*
%TO.P,REF\u002A\u002A,1*%
%TO.N,col_0*%
X148588000Y-147936000D03*
%TD*%
D27*
%TO.P,D21,1*%
%TO.N,row_0*%
X250993925Y-187785867D03*
%TO.P,D21,2*%
%TO.N,far_fan*%
X249444669Y-190699595D03*
%TD*%
D11*
%TO.P,REF\u002A\u002A,1*%
%TO.N,outer_bottom*%
X139928000Y-154436000D03*
%TD*%
D16*
%TO.P,J2,1*%
%TO.N,SDA*%
X260858000Y-110947200D03*
%TO.P,J2,2*%
%TO.N,J_pad4*%
X260858000Y-111947960D03*
%TD*%
D11*
%TO.P,REF\u002A\u002A,1*%
%TO.N,pinkie_home*%
X158928000Y-135436000D03*
%TD*%
%TO.P,REF\u002A\u002A,1*%
%TO.N,row_2*%
X162248000Y-135436000D03*
%TD*%
D16*
%TO.P,J8,1*%
%TO.N,CS*%
X254858000Y-110947200D03*
%TO.P,J8,2*%
%TO.N,J_pad1*%
X254858000Y-111947960D03*
%TD*%
D11*
%TO.P,REF\u002A\u002A,1*%
%TO.N,row_2*%
X238248000Y-133226000D03*
%TD*%
D13*
%TO.P,S10,1*%
%TO.N,col_3*%
X191503000Y-131236000D03*
%TO.P,S10,2*%
%TO.N,middle_bottom*%
X204430000Y-128696000D03*
%TD*%
D11*
%TO.P,REF\u002A\u002A,1*%
%TO.N,pinkie_bottom*%
X158928000Y-154436000D03*
%TD*%
%TO.P,REF\u002A\u002A,1*%
%TO.N,col_4*%
X224588000Y-103476000D03*
%TD*%
%TO.P,REF\u002A\u002A,1*%
%TO.N,outer_home*%
X135838000Y-126436000D03*
%TD*%
%TO.P,REF\u002A\u002A,1*%
%TO.N,row_0*%
X225056410Y-188292692D03*
%TD*%
D28*
%TO.P,JST REV1,1*%
%TO.N,GND*%
X255661600Y-102867100D03*
D29*
%TO.N,JST*%
X257911600Y-102867100D03*
D28*
%TO.P,JST REV1,2*%
%TO.N,GND*%
X260161600Y-102867100D03*
%TD*%
D11*
%TO.P,REF\u002A\u002A,1*%
%TO.N,inner_home*%
X234928000Y-133226000D03*
%TD*%
D12*
%TO.P,D9,1*%
%TO.N,row_3*%
X181238000Y-104536000D03*
%TO.P,D9,2*%
%TO.N,ring_top*%
X177938000Y-104536000D03*
%TD*%
D30*
%TO.P,MCU1,1*%
%TO.N,RAW*%
X265531600Y-100228400D03*
D31*
%TO.P,MCU1,2*%
%TO.N,GND*%
X265531600Y-102768400D03*
%TO.P,MCU1,3*%
%TO.N,RST*%
X265531600Y-105308400D03*
%TO.P,MCU1,4*%
%TO.N,VCC*%
X265531600Y-107848400D03*
%TO.P,MCU1,5*%
%TO.N,ENCB*%
X265531600Y-110388400D03*
%TO.P,MCU1,6*%
%TO.N,ENCA*%
X265531600Y-112928400D03*
%TO.P,MCU1,7*%
%TO.N,P19*%
X265531600Y-115468400D03*
%TO.P,MCU1,8*%
%TO.N,P18*%
X265531600Y-118008400D03*
%TO.P,MCU1,9*%
%TO.N,row_3*%
X265531600Y-120548400D03*
%TO.P,MCU1,10*%
%TO.N,row_2*%
X265531600Y-123088400D03*
%TO.P,MCU1,11*%
%TO.N,row_1*%
X265531600Y-125628400D03*
%TO.P,MCU1,12*%
%TO.N,row_0*%
X265531600Y-128168400D03*
%TO.P,MCU1,13*%
%TO.N,CS*%
X250291600Y-100228400D03*
%TO.P,MCU1,14*%
%TO.N,P0*%
X250291600Y-102768400D03*
%TO.P,MCU1,15*%
%TO.N,GND*%
X250291600Y-105308400D03*
%TO.P,MCU1,16*%
X250291600Y-107848400D03*
%TO.P,MCU1,17*%
%TO.N,SDA*%
X250291600Y-110388400D03*
%TO.P,MCU1,18*%
%TO.N,SCL*%
X250291600Y-112928400D03*
%TO.P,MCU1,19*%
%TO.N,col_0*%
X250291600Y-115468400D03*
%TO.P,MCU1,20*%
%TO.N,col_1*%
X250291600Y-118008400D03*
%TO.P,MCU1,21*%
%TO.N,col_2*%
X250291600Y-120548400D03*
%TO.P,MCU1,22*%
%TO.N,col_3*%
X250291600Y-123088400D03*
%TO.P,MCU1,23*%
%TO.N,col_4*%
X250291600Y-125628400D03*
%TO.P,MCU1,24*%
%TO.N,col_5*%
X250291600Y-128168400D03*
%TD*%
D13*
%TO.P,S18,1*%
%TO.N,col_5*%
X229503000Y-107686000D03*
%TO.P,S18,2*%
%TO.N,inner_top*%
X242430000Y-105146000D03*
%TD*%
D32*
%TO.P,D22,1*%
%TO.N,row_0*%
X250588000Y-151576000D03*
%TO.P,D22,2*%
%TO.N,r_diode*%
X250588000Y-154876000D03*
%TD*%
D11*
%TO.P,REF\u002A\u002A,1*%
%TO.N,col_2*%
X211479252Y-178645603D03*
%TD*%
D33*
%TO.N,col_0*%
X189230000Y-156159200D03*
%TO.N,col_1*%
X175209200Y-155434700D03*
%TO.N,col_2*%
X196138800Y-157937200D03*
%TO.N,col_3*%
X213207600Y-158394400D03*
%TO.N,col_4*%
X228142800Y-158851600D03*
%TO.N,col_5*%
X248666000Y-155651200D03*
%TO.N,row_1*%
X244805200Y-150825200D03*
%TO.N,row_2*%
X244805200Y-138734800D03*
%TO.N,row_3*%
X245008400Y-117957600D03*
%TO.N,row_0*%
X250596400Y-151536400D03*
%TO.N,GND*%
X257860800Y-108712000D03*
%TO.N,VCC*%
X257860800Y-113741200D03*
%TO.N,CS*%
X254812800Y-107797600D03*
%TO.N,SDA*%
X260705600Y-107035600D03*
%TO.N,SCL*%
X257860800Y-109931200D03*
%TO.N,r_diode*%
X250596400Y-154940000D03*
%TO.N,J_pad4*%
X260858000Y-111963200D03*
%TO.N,J_pad3*%
X258876800Y-111963200D03*
%TO.N,J_pad2*%
X256844800Y-111963200D03*
%TO.N,J_pad1*%
X254812800Y-111963200D03*
%TD*%
D34*
%TO.N,col_0*%
X134630000Y-128819000D02*
X133079000Y-127268000D01*
X189230000Y-156159200D02*
X189331600Y-156159200D01*
X132952000Y-146318000D02*
X132952000Y-143197000D01*
X147706000Y-142181000D02*
X148288000Y-142763000D01*
X189230000Y-156159200D02*
X156811200Y-156159200D01*
X132952000Y-143197000D02*
X133968000Y-142181000D01*
X134503000Y-147869000D02*
X132952000Y-146318000D01*
X133968000Y-104208000D02*
X148700000Y-104208000D01*
X148700000Y-104208000D02*
X149716000Y-105224000D01*
X148588000Y-128936000D02*
X148288000Y-129236000D01*
X149500000Y-124775000D02*
X149500000Y-128024000D01*
X149700000Y-144175000D02*
X149700000Y-146824000D01*
X147856000Y-123131000D02*
X147994000Y-123269000D01*
X148288000Y-142763000D02*
X149700000Y-144175000D01*
X148288000Y-129236000D02*
X148288000Y-142763000D01*
X147994000Y-110530000D02*
X147994000Y-123269000D01*
X149500000Y-128024000D02*
X148588000Y-128936000D01*
X134503000Y-109896000D02*
X132952000Y-108345000D01*
X133968000Y-142181000D02*
X147706000Y-142181000D01*
X149716000Y-108808000D02*
X148588000Y-109936000D01*
X147994000Y-123269000D02*
X149500000Y-124775000D01*
X134095000Y-123131000D02*
X147856000Y-123131000D01*
X133079000Y-127268000D02*
X133079000Y-124147000D01*
X148588000Y-109936000D02*
X147994000Y-110530000D01*
X132952000Y-108345000D02*
X132952000Y-105224000D01*
X156811200Y-156159200D02*
X148588000Y-147936000D01*
X149700000Y-146824000D02*
X148588000Y-147936000D01*
X132952000Y-105224000D02*
X133968000Y-104208000D01*
X133079000Y-124147000D02*
X134095000Y-123131000D01*
X149716000Y-105224000D02*
X149716000Y-108808000D01*
%TO.N,outer_bottom*%
X137955000Y-143324000D02*
X137955000Y-143342000D01*
X145221000Y-143324000D02*
X137955000Y-143324000D01*
X147353000Y-145456000D02*
X145221000Y-143324000D01*
X137955000Y-143342000D02*
X135761000Y-145536000D01*
%TO.N,outer_home*%
X137955000Y-124292000D02*
X135761000Y-126486000D01*
X145221000Y-124274000D02*
X137955000Y-124274000D01*
X137955000Y-124274000D02*
X137955000Y-124292000D01*
X147353000Y-126406000D02*
X145221000Y-124274000D01*
%TO.N,outer_top*%
X138032000Y-105242000D02*
X135838000Y-107436000D01*
X145298000Y-105224000D02*
X138032000Y-105224000D01*
X138032000Y-105224000D02*
X138032000Y-105242000D01*
X147430000Y-107356000D02*
X145298000Y-105224000D01*
%TO.N,col_1*%
X153018000Y-123131000D02*
X167623000Y-123131000D01*
X167750000Y-123131000D02*
X168766000Y-124147000D01*
X168766000Y-143197000D02*
X168766000Y-146781000D01*
X153553000Y-147869000D02*
X152002000Y-146318000D01*
X152002000Y-124147000D02*
X153018000Y-123131000D01*
X168766000Y-108808000D02*
X167638000Y-109936000D01*
X167750000Y-104208000D02*
X168766000Y-105224000D01*
X153018000Y-104208000D02*
X167750000Y-104208000D01*
X152002000Y-146318000D02*
X152002000Y-143197000D01*
X153553000Y-128819000D02*
X152002000Y-127268000D01*
X167588000Y-147936000D02*
X175086700Y-155434700D01*
X167588000Y-128936000D02*
X167588000Y-142019000D01*
X152002000Y-105224000D02*
X153018000Y-104208000D01*
X175086700Y-155434700D02*
X175209200Y-155434700D01*
X167588000Y-142019000D02*
X167750000Y-142181000D01*
X167623000Y-123131000D02*
X167750000Y-123131000D01*
X152002000Y-108345000D02*
X152002000Y-105224000D01*
X167588000Y-109936000D02*
X167588000Y-123096000D01*
X152002000Y-127268000D02*
X152002000Y-124147000D01*
X168766000Y-146781000D02*
X167638000Y-147909000D01*
X168766000Y-105224000D02*
X168766000Y-108808000D01*
X152002000Y-143197000D02*
X153018000Y-142181000D01*
X175201600Y-155549600D02*
X175209200Y-155549600D01*
X168766000Y-127731000D02*
X167638000Y-128859000D01*
X168766000Y-124147000D02*
X168766000Y-127731000D01*
X167750000Y-142181000D02*
X168766000Y-143197000D01*
X153018000Y-142181000D02*
X167750000Y-142181000D01*
X167588000Y-123096000D02*
X167623000Y-123131000D01*
X153553000Y-109896000D02*
X152002000Y-108345000D01*
%TO.N,pinkie_bottom*%
X164271000Y-143197000D02*
X157005000Y-143197000D01*
X166403000Y-145329000D02*
X164271000Y-143197000D01*
X157005000Y-143215000D02*
X154811000Y-145409000D01*
X157005000Y-143197000D02*
X157005000Y-143215000D01*
%TO.N,pinkie_home*%
X164398000Y-124274000D02*
X157132000Y-124274000D01*
X166530000Y-126406000D02*
X164398000Y-124274000D01*
X157132000Y-124292000D02*
X154938000Y-126486000D01*
X157132000Y-124274000D02*
X157132000Y-124292000D01*
%TO.N,pinkie_top*%
X157132000Y-105224000D02*
X157132000Y-105242000D01*
X164398000Y-105224000D02*
X157132000Y-105224000D01*
X157132000Y-105242000D02*
X154938000Y-107436000D01*
X166530000Y-107356000D02*
X164398000Y-105224000D01*
%TO.N,col_2*%
X171052000Y-131259000D02*
X172068000Y-130243000D01*
X199119000Y-171772000D02*
X209914000Y-171772000D01*
X187816000Y-134843000D02*
X186688000Y-135971000D01*
X171052000Y-112336000D02*
X172068000Y-111320000D01*
X196138800Y-157937200D02*
X196138800Y-157996800D01*
X187689000Y-96870000D02*
X186561000Y-97998000D01*
X172603000Y-117008000D02*
X171052000Y-115457000D01*
X187689000Y-93286000D02*
X187689000Y-96870000D01*
X186588000Y-130031000D02*
X186800000Y-130243000D01*
X187816000Y-115920000D02*
X186688000Y-117048000D01*
X213343000Y-176781855D02*
X211479252Y-178645603D01*
X170925000Y-96407000D02*
X170925000Y-93286000D01*
X171052000Y-115457000D02*
X171052000Y-112336000D01*
X171941000Y-92270000D02*
X186673000Y-92270000D01*
X172603000Y-135931000D02*
X171052000Y-134380000D01*
X196079200Y-157937200D02*
X196138800Y-157937200D01*
X186588000Y-117036000D02*
X186588000Y-130031000D01*
X197451336Y-173439664D02*
X199119000Y-171772000D01*
X170925000Y-93286000D02*
X171941000Y-92270000D01*
X172068000Y-111320000D02*
X186800000Y-111320000D01*
X171052000Y-134380000D02*
X171052000Y-131259000D01*
X172476000Y-97958000D02*
X170925000Y-96407000D01*
X186588000Y-148446000D02*
X196079200Y-157937200D01*
X213343000Y-175201000D02*
X213343000Y-176781855D01*
X187816000Y-112336000D02*
X187816000Y-115920000D01*
X209914000Y-171772000D02*
X213343000Y-175201000D01*
X186588000Y-111108000D02*
X186800000Y-111320000D01*
X187816000Y-131259000D02*
X187816000Y-134843000D01*
X172068000Y-130243000D02*
X186800000Y-130243000D01*
X186800000Y-130243000D02*
X187816000Y-131259000D01*
X197451336Y-177378167D02*
X197451336Y-173439664D01*
X196138800Y-157996800D02*
X209914000Y-171772000D01*
X186588000Y-136036000D02*
X186588000Y-148446000D01*
X186588000Y-98036000D02*
X186588000Y-111108000D01*
X186673000Y-92270000D02*
X187689000Y-93286000D01*
X186800000Y-111320000D02*
X187816000Y-112336000D01*
%TO.N,ring_bottom*%
X176055000Y-131259000D02*
X176055000Y-131277000D01*
X176055000Y-131277000D02*
X173861000Y-133471000D01*
X183321000Y-131259000D02*
X176055000Y-131259000D01*
X185453000Y-133391000D02*
X183321000Y-131259000D01*
%TO.N,ring_home*%
X176055000Y-112336000D02*
X176055000Y-112354000D01*
X185453000Y-114468000D02*
X183321000Y-112336000D01*
X183321000Y-112336000D02*
X176055000Y-112336000D01*
X176055000Y-112354000D02*
X173861000Y-114548000D01*
%TO.N,ring_top*%
X176182000Y-93286000D02*
X176182000Y-93304000D01*
X176182000Y-93304000D02*
X173988000Y-95498000D01*
X185580000Y-95418000D02*
X183448000Y-93286000D01*
X183448000Y-93286000D02*
X176182000Y-93286000D01*
%TO.N,col_3*%
X206739000Y-126560000D02*
X206739000Y-130144000D01*
X213207600Y-158301600D02*
X213207600Y-158394400D01*
X190991000Y-125544000D02*
X205723000Y-125544000D01*
X218302065Y-176210935D02*
X219185000Y-175328000D01*
X191526000Y-112182000D02*
X189975000Y-110631000D01*
X205588000Y-125409000D02*
X205723000Y-125544000D01*
X205723000Y-125544000D02*
X206739000Y-126560000D01*
X218302065Y-179712164D02*
X218302065Y-176210935D01*
X206739000Y-88587000D02*
X206739000Y-92171000D01*
X206739000Y-92171000D02*
X205611000Y-93299000D01*
X219185000Y-175328000D02*
X230234000Y-175328000D01*
X190991000Y-106494000D02*
X205723000Y-106494000D01*
X205588000Y-93276000D02*
X205588000Y-106359000D01*
X213207600Y-158394400D02*
X213300400Y-158394400D01*
X189975000Y-91708000D02*
X189975000Y-88587000D01*
X191526000Y-93259000D02*
X189975000Y-91708000D01*
X205723000Y-87571000D02*
X206739000Y-88587000D01*
X189975000Y-107510000D02*
X190991000Y-106494000D01*
X191526000Y-131232000D02*
X189975000Y-129681000D01*
X234044000Y-181249045D02*
X231896778Y-183396267D01*
X206739000Y-130144000D02*
X205611000Y-131272000D01*
X189975000Y-129681000D02*
X189975000Y-126560000D01*
X189975000Y-88587000D02*
X190991000Y-87571000D01*
X205588000Y-106359000D02*
X205723000Y-106494000D01*
X206739000Y-111094000D02*
X205611000Y-112222000D01*
X205588000Y-112276000D02*
X205588000Y-125409000D01*
X189975000Y-110631000D02*
X189975000Y-107510000D01*
X205588000Y-131276000D02*
X205588000Y-150682000D01*
X234044000Y-179138000D02*
X234044000Y-181249045D01*
X205588000Y-150682000D02*
X213207600Y-158301600D01*
X213300400Y-158394400D02*
X230234000Y-175328000D01*
X189975000Y-126560000D02*
X190991000Y-125544000D01*
X190991000Y-87571000D02*
X205723000Y-87571000D01*
X205723000Y-106494000D02*
X206739000Y-107510000D01*
X230234000Y-175328000D02*
X234044000Y-179138000D01*
X206739000Y-107510000D02*
X206739000Y-111094000D01*
%TO.N,middle_bottom*%
X202371000Y-126560000D02*
X195105000Y-126560000D01*
X204503000Y-128692000D02*
X202371000Y-126560000D01*
X195105000Y-126560000D02*
X195105000Y-126578000D01*
X195105000Y-126578000D02*
X192911000Y-128772000D01*
%TO.N,middle_home*%
X195105000Y-107528000D02*
X192911000Y-109722000D01*
X202371000Y-107510000D02*
X195105000Y-107510000D01*
X195105000Y-107510000D02*
X195105000Y-107528000D01*
X204503000Y-109642000D02*
X202371000Y-107510000D01*
%TO.N,middle_top*%
X195105000Y-88605000D02*
X192911000Y-90799000D01*
X204503000Y-90719000D02*
X202371000Y-88587000D01*
X202371000Y-88587000D02*
X195105000Y-88587000D01*
X195105000Y-88587000D02*
X195105000Y-88605000D01*
%TO.N,col_4*%
X210503000Y-138347000D02*
X213331000Y-135519000D01*
X224588000Y-122476000D02*
X224588000Y-135519000D01*
X225789000Y-102331000D02*
X224661000Y-103459000D01*
X210576000Y-103419000D02*
X209025000Y-101868000D01*
X210503000Y-141436000D02*
X210503000Y-138347000D01*
X224588000Y-135519000D02*
X224773000Y-135704000D01*
X213331000Y-132581000D02*
X213331000Y-135519000D01*
X237219000Y-190060000D02*
X237219000Y-183583000D01*
X225789000Y-117797000D02*
X225789000Y-121381000D01*
X210503000Y-129753000D02*
X213331000Y-132581000D01*
X225789000Y-140304000D02*
X224661000Y-141432000D01*
X224588000Y-103476000D02*
X224588000Y-116596000D01*
X224773000Y-97731000D02*
X225789000Y-98747000D01*
X228142800Y-158885800D02*
X246363000Y-177106000D01*
X228142800Y-158851600D02*
X228142800Y-158885800D01*
X246363000Y-177106000D02*
X247766438Y-178509438D01*
X210041000Y-97731000D02*
X224773000Y-97731000D01*
X225789000Y-98747000D02*
X225789000Y-102331000D01*
X213331000Y-135519000D02*
X224588000Y-135519000D01*
X237219000Y-183583000D02*
X243696000Y-177106000D01*
X247766438Y-178509438D02*
X247766438Y-180010532D01*
X224773000Y-116781000D02*
X225789000Y-117797000D01*
X224588000Y-155331000D02*
X228108600Y-158851600D01*
X224588000Y-141476000D02*
X224588000Y-155331000D01*
X239587071Y-192428071D02*
X237219000Y-190060000D01*
X209025000Y-117797000D02*
X210041000Y-116781000D01*
X225789000Y-136720000D02*
X225789000Y-140304000D01*
X228108600Y-158851600D02*
X228142800Y-158851600D01*
X241118613Y-192428071D02*
X239587071Y-192428071D01*
X210503000Y-122436000D02*
X210503000Y-129753000D01*
X224588000Y-116596000D02*
X224773000Y-116781000D01*
X225789000Y-121381000D02*
X224661000Y-122509000D01*
X210576000Y-122469000D02*
X209025000Y-120918000D01*
X209025000Y-120918000D02*
X209025000Y-117797000D01*
X224773000Y-135704000D02*
X225789000Y-136720000D01*
X209025000Y-98747000D02*
X210041000Y-97731000D01*
X243696000Y-177106000D02*
X246363000Y-177106000D01*
X210041000Y-116781000D02*
X224773000Y-116781000D01*
X209025000Y-101868000D02*
X209025000Y-98747000D01*
%TO.N,index_bottom*%
X223426000Y-138852000D02*
X221294000Y-136720000D01*
X214028000Y-136738000D02*
X211834000Y-138932000D01*
X214028000Y-136720000D02*
X214028000Y-136738000D01*
X221294000Y-136720000D02*
X214028000Y-136720000D01*
%TO.N,index_home*%
X214028000Y-117797000D02*
X214028000Y-117815000D01*
X221294000Y-117797000D02*
X214028000Y-117797000D01*
X214028000Y-117815000D02*
X211834000Y-120009000D01*
X223426000Y-119929000D02*
X221294000Y-117797000D01*
%TO.N,index_top*%
X223553000Y-100879000D02*
X221421000Y-98747000D01*
X214155000Y-98765000D02*
X211961000Y-100959000D01*
X214155000Y-98747000D02*
X214155000Y-98765000D01*
X221421000Y-98747000D02*
X214155000Y-98747000D01*
%TO.N,col_5*%
X227948000Y-121988000D02*
X228964000Y-120972000D01*
X227948000Y-144032000D02*
X227948000Y-140911000D01*
X229091000Y-101922000D02*
X243823000Y-101922000D01*
X229626000Y-107610000D02*
X228075000Y-106059000D01*
X228964000Y-120972000D02*
X243696000Y-120972000D01*
X228075000Y-106059000D02*
X228075000Y-102938000D01*
X248666000Y-155651200D02*
X248666000Y-155724000D01*
X228075000Y-102938000D02*
X229091000Y-101922000D01*
X248593200Y-155651200D02*
X248666000Y-155651200D01*
X248666000Y-155724000D02*
X252708000Y-159766000D01*
X228964000Y-139895000D02*
X243696000Y-139895000D01*
X227948000Y-140911000D02*
X228964000Y-139895000D01*
X243696000Y-120972000D02*
X244712000Y-121988000D01*
X244839000Y-102938000D02*
X244839000Y-106522000D01*
X243823000Y-101922000D02*
X244839000Y-102938000D01*
X244712000Y-125572000D02*
X243584000Y-126700000D01*
X243588000Y-150646000D02*
X248593200Y-155651200D01*
X243588000Y-139787000D02*
X243696000Y-139895000D01*
X243588000Y-107726000D02*
X243588000Y-120864000D01*
X244712000Y-144495000D02*
X243584000Y-145623000D01*
X227948000Y-125109000D02*
X227948000Y-121988000D01*
X243588000Y-145726000D02*
X243588000Y-150646000D01*
X243588000Y-126726000D02*
X243588000Y-139787000D01*
X243588000Y-120864000D02*
X243696000Y-120972000D01*
X229499000Y-145583000D02*
X227948000Y-144032000D01*
X244839000Y-106522000D02*
X243711000Y-107650000D01*
X244712000Y-140911000D02*
X244712000Y-144495000D01*
X244712000Y-121988000D02*
X244712000Y-125572000D01*
X243696000Y-139895000D02*
X244712000Y-140911000D01*
X229499000Y-126660000D02*
X227948000Y-125109000D01*
%TO.N,inner_bottom*%
X233078000Y-140929000D02*
X230884000Y-143123000D01*
X233078000Y-140911000D02*
X233078000Y-140929000D01*
X242476000Y-143043000D02*
X240344000Y-140911000D01*
X240344000Y-140911000D02*
X233078000Y-140911000D01*
%TO.N,inner_home*%
X242476000Y-124120000D02*
X240344000Y-121988000D01*
X240344000Y-121988000D02*
X233078000Y-121988000D01*
X233078000Y-121988000D02*
X233078000Y-122006000D01*
X233078000Y-122006000D02*
X230884000Y-124200000D01*
%TO.N,inner_top*%
X233078000Y-102938000D02*
X233078000Y-102956000D01*
X233078000Y-102956000D02*
X230884000Y-105150000D01*
X242476000Y-105070000D02*
X240344000Y-102938000D01*
X240344000Y-102938000D02*
X233078000Y-102938000D01*
%TO.N,near_fan*%
X200262000Y-172788000D02*
X198995659Y-174054341D01*
X208517000Y-172788000D02*
X200262000Y-172788000D01*
X210550521Y-175974495D02*
X210550521Y-174821521D01*
X198995659Y-174054341D02*
X198995659Y-175043881D01*
X210550521Y-174821521D02*
X208517000Y-172788000D01*
%TO.N,home_fan*%
X228583000Y-176217000D02*
X221692781Y-176217000D01*
X221692781Y-176217000D02*
X220228271Y-177681510D01*
X231445988Y-179079988D02*
X228583000Y-176217000D01*
X231445988Y-180604467D02*
X231445988Y-179079988D01*
%TO.N,far_fan*%
X238616000Y-189137128D02*
X239573307Y-190094435D01*
X238616000Y-183837000D02*
X238616000Y-189137128D01*
X244944785Y-179821750D02*
X242631250Y-179821750D01*
X242631250Y-179821750D02*
X238616000Y-183837000D01*
%TO.N,row_1*%
X245835600Y-147414400D02*
X251389604Y-147414400D01*
X251389604Y-147414400D02*
X265081600Y-133722404D01*
X244805200Y-150825200D02*
X245726800Y-149903600D01*
X265081600Y-129852000D02*
X264330300Y-129100700D01*
X245726800Y-147523200D02*
X245835600Y-147414400D01*
X264330300Y-126829700D02*
X265531600Y-125628400D01*
X264330300Y-129100700D02*
X264330300Y-126829700D01*
X245726800Y-149903600D02*
X245726800Y-147523200D01*
X265081600Y-133722404D02*
X265081600Y-129852000D01*
%TO.N,row_2*%
X263880300Y-124739700D02*
X265531600Y-123088400D01*
X244805200Y-138734800D02*
X245516400Y-139446000D01*
X245516400Y-139446000D02*
X245516400Y-146964400D01*
X264631600Y-130038396D02*
X263880300Y-129287096D01*
X263880300Y-129287096D02*
X263880300Y-124739700D01*
X245516400Y-146964400D02*
X251203208Y-146964400D01*
X264631600Y-133536008D02*
X264631600Y-130038396D01*
X251203208Y-146964400D02*
X264631600Y-133536008D01*
%TO.N,row_3*%
X245008400Y-117957600D02*
X245973600Y-118922800D01*
X264177600Y-133353612D02*
X264177600Y-130220792D01*
X264177600Y-130220792D02*
X263430300Y-129473492D01*
X263430300Y-129473492D02*
X263430300Y-122649700D01*
X245973600Y-118922800D02*
X245973600Y-146514400D01*
X251016812Y-146514400D02*
X264177600Y-133353612D01*
X245973600Y-146514400D02*
X251016812Y-146514400D01*
X263430300Y-122649700D02*
X265531600Y-120548400D01*
%TO.N,row_0*%
X265531600Y-133908800D02*
X265531600Y-128168400D01*
X250596400Y-151536400D02*
X250596400Y-148844000D01*
X250596400Y-148844000D02*
X265531600Y-133908800D01*
%TO.N,GND*%
X257860800Y-105066300D02*
X255661600Y-102867100D01*
X257860800Y-105167900D02*
X260161600Y-102867100D01*
X257860800Y-108712000D02*
X256858000Y-109714800D01*
X257860800Y-108712000D02*
X257860800Y-105167900D01*
X256858000Y-109714800D02*
X256858000Y-110947200D01*
X257860800Y-105167900D02*
X257860800Y-105066300D01*
%TO.N,VCC*%
X257922600Y-113803000D02*
X257922600Y-131724400D01*
X257860800Y-113741200D02*
X257922600Y-113803000D01*
%TO.N,ENCB*%
X267208000Y-154766000D02*
X267454800Y-154519200D01*
X267454800Y-112311600D02*
X265531600Y-110388400D01*
X267454800Y-154519200D02*
X267454800Y-112311600D01*
%TO.N,ENCA*%
X265531600Y-112928400D02*
X267004800Y-114401600D01*
X265785600Y-158343600D02*
X267208000Y-159766000D01*
X265785600Y-154314567D02*
X265785600Y-158343600D01*
X267004800Y-114401600D02*
X267004800Y-153095367D01*
X267004800Y-153095367D02*
X265785600Y-154314567D01*
%TO.N,CS*%
X254858000Y-107842800D02*
X254858000Y-110947200D01*
X254858000Y-107752400D02*
X254812800Y-107797600D01*
X250291600Y-100228400D02*
X254858000Y-104794800D01*
X254858000Y-104794800D02*
X254858000Y-107752400D01*
X254812800Y-107797600D02*
X254858000Y-107842800D01*
%TO.N,SDA*%
X260858000Y-107188000D02*
X260858000Y-110947200D01*
X260705600Y-107035600D02*
X260858000Y-107188000D01*
%TO.N,SCL*%
X257860800Y-109950000D02*
X258858000Y-110947200D01*
X257860800Y-109931200D02*
X257860800Y-109950000D01*
%TO.N,r_diode*%
X250596400Y-154940000D02*
X250524000Y-154940000D01*
X252708000Y-154766000D02*
X250698000Y-154766000D01*
X250524000Y-154940000D02*
X250588000Y-154876000D01*
X250698000Y-154766000D02*
X250596400Y-154867600D01*
X250596400Y-154867600D02*
X250596400Y-154940000D01*
%TO.N,J_pad4*%
X260858000Y-111963200D02*
X260858000Y-112623600D01*
X258822600Y-127544400D02*
X263002600Y-131724400D01*
X258822600Y-114659000D02*
X258822600Y-127544400D01*
X260858000Y-112623600D02*
X258822600Y-114659000D01*
%TO.N,J_pad3*%
X258372600Y-114452400D02*
X258372600Y-129634400D01*
X258876800Y-111963200D02*
X258876800Y-113948200D01*
X258876800Y-113948200D02*
X258372600Y-114452400D01*
X258372600Y-129634400D02*
X260462600Y-131724400D01*
%TO.N,J_pad2*%
X256858000Y-113888600D02*
X257472600Y-114503200D01*
X256858000Y-111947960D02*
X256858000Y-113888600D01*
X257472600Y-114503200D02*
X257472600Y-129634400D01*
X257472600Y-129634400D02*
X255382600Y-131724400D01*
%TO.N,J_pad1*%
X257022600Y-114858800D02*
X257022600Y-127544400D01*
X254812800Y-112649000D02*
X257022600Y-114858800D01*
X254812800Y-111963200D02*
X254812800Y-112649000D01*
X257022600Y-127544400D02*
X252842600Y-131724400D01*
%TD*%
M02*
