%TF.GenerationSoftware,KiCad,Pcbnew,7.0.10*%
%TF.CreationDate,2024-02-08T10:53:13-05:00*%
%TF.ProjectId,kestrel,6b657374-7265-46c2-9e6b-696361645f70,v1.0.0*%
%TF.SameCoordinates,Original*%
%TF.FileFunction,Copper,L1,Top*%
%TF.FilePolarity,Positive*%
%FSLAX46Y46*%
G04 Gerber Fmt 4.6, Leading zero omitted, Abs format (unit mm)*
G04 Created by KiCad (PCBNEW 7.0.10) date 2024-02-08 10:53:13*
%MOMM*%
%LPD*%
G01*
G04 APERTURE LIST*
G04 Aperture macros list*
%AMRotRect*
0 Rectangle, with rotation*
0 The origin of the aperture is its center*
0 $1 length*
0 $2 width*
0 $3 Rotation angle, in degrees counterclockwise*
0 Add horizontal line*
21,1,$1,$2,0,0,$3*%
G04 Aperture macros list end*
%TA.AperFunction,EtchedComponent*%
%ADD10C,0.193999*%
%TD*%
%TA.AperFunction,EtchedComponent*%
%ADD11C,0.211999*%
%TD*%
%TA.AperFunction,SMDPad,CuDef*%
%ADD12R,0.900000X0.900000*%
%TD*%
%TA.AperFunction,WasherPad*%
%ADD13C,1.000000*%
%TD*%
%TA.AperFunction,SMDPad,CuDef*%
%ADD14R,0.900000X1.250000*%
%TD*%
%TA.AperFunction,SMDPad,CuDef*%
%ADD15R,1.100000X1.800000*%
%TD*%
%TA.AperFunction,ComponentPad*%
%ADD16C,0.600000*%
%TD*%
%TA.AperFunction,SMDPad,CuDef*%
%ADD17R,0.900000X1.200000*%
%TD*%
%TA.AperFunction,SMDPad,CuDef*%
%ADD18R,2.550000X2.500000*%
%TD*%
%TA.AperFunction,ComponentPad*%
%ADD19C,4.700000*%
%TD*%
%TA.AperFunction,SMDPad,CuDef*%
%ADD20R,1.143000X0.635000*%
%TD*%
%TA.AperFunction,SMDPad,CuDef*%
%ADD21RotRect,0.900000X1.200000X175.000000*%
%TD*%
%TA.AperFunction,SMDPad,CuDef*%
%ADD22RotRect,0.900000X1.200000X165.000000*%
%TD*%
%TA.AperFunction,SMDPad,CuDef*%
%ADD23RotRect,2.550000X2.500000X355.000000*%
%TD*%
%TA.AperFunction,ComponentPad*%
%ADD24R,3.200000X2.000000*%
%TD*%
%TA.AperFunction,ComponentPad*%
%ADD25C,1.500000*%
%TD*%
%TA.AperFunction,ComponentPad*%
%ADD26R,2.000000X2.000000*%
%TD*%
%TA.AperFunction,ComponentPad*%
%ADD27C,2.000000*%
%TD*%
%TA.AperFunction,ComponentPad*%
%ADD28C,1.700000*%
%TD*%
%TA.AperFunction,ComponentPad*%
%ADD29O,1.700000X1.700000*%
%TD*%
%TA.AperFunction,SMDPad,CuDef*%
%ADD30RotRect,2.550000X2.500000X345.000000*%
%TD*%
%TA.AperFunction,SMDPad,CuDef*%
%ADD31RotRect,2.550000X2.500000X62.000000*%
%TD*%
%TA.AperFunction,SMDPad,CuDef*%
%ADD32RotRect,0.900000X1.200000X242.000000*%
%TD*%
%TA.AperFunction,ComponentPad*%
%ADD33O,1.200000X1.700000*%
%TD*%
%TA.AperFunction,ComponentPad*%
%ADD34R,1.200000X1.700000*%
%TD*%
%TA.AperFunction,ComponentPad*%
%ADD35R,1.752600X1.752600*%
%TD*%
%TA.AperFunction,ComponentPad*%
%ADD36C,1.752600*%
%TD*%
%TA.AperFunction,SMDPad,CuDef*%
%ADD37R,1.200000X0.900000*%
%TD*%
%TA.AperFunction,ViaPad*%
%ADD38C,0.800000*%
%TD*%
%TA.AperFunction,Conductor*%
%ADD39C,0.250000*%
%TD*%
G04 APERTURE END LIST*
D10*
%TO.C,REF\u002A\u002A*%
X181420000Y-165148000D02*
X179720000Y-164948000D01*
X181770000Y-165948000D02*
X180720000Y-166148000D01*
X182220000Y-166638000D02*
X181890000Y-166848000D01*
D11*
X182870000Y-164698000D02*
X179370000Y-163448000D01*
X183620000Y-167698000D02*
X182870000Y-164698000D01*
X184620000Y-167698000D02*
X185370000Y-164698000D01*
X185370000Y-164698000D02*
X188870000Y-163448000D01*
D10*
X186020000Y-166638000D02*
X186350000Y-166848000D01*
X186470000Y-165948000D02*
X187520000Y-166148000D01*
X186820000Y-165148000D02*
X188520000Y-164948000D01*
%TD*%
D12*
%TO.P,T1,*%
%TO.N,*%
X254372400Y-96926400D03*
X254372400Y-99126400D03*
D13*
X256572400Y-98026400D03*
X259572400Y-98026400D03*
D12*
X261772400Y-96926400D03*
X261772400Y-99126400D03*
D14*
%TO.P,T1,1*%
%TO.N,RAW*%
X260322400Y-100101400D03*
%TO.P,T1,2*%
%TO.N,JST*%
X257322400Y-100101400D03*
%TO.P,T1,3*%
%TO.N,N/C*%
X255822400Y-100101400D03*
%TD*%
D15*
%TO.P,B1,1*%
%TO.N,RST*%
X267106400Y-137972800D03*
X267106400Y-144172800D03*
%TO.P,B1,2*%
%TO.N,GND*%
X263406400Y-137972800D03*
X263406400Y-144172800D03*
%TD*%
D16*
%TO.P,REF\u002A\u002A,1*%
%TO.N,row_0*%
X205593060Y-184655457D03*
%TD*%
%TO.P,REF\u002A\u002A,1*%
%TO.N,ring_top*%
X173838000Y-95536000D03*
%TD*%
%TO.P,REF\u002A\u002A,1*%
%TO.N,row_3*%
X162248000Y-116436000D03*
%TD*%
D17*
%TO.P,D13,1*%
%TO.N,row_1*%
X219238000Y-147976000D03*
%TO.P,D13,2*%
%TO.N,index_bottom*%
X215938000Y-147976000D03*
%TD*%
D16*
%TO.P,REF\u002A\u002A,1*%
%TO.N,row_1*%
X162248000Y-154436000D03*
%TD*%
D18*
%TO.P,S8,1*%
%TO.N,col_2*%
X186673000Y-116996000D03*
%TO.P,S8,2*%
%TO.N,ring_home*%
X173746000Y-114456000D03*
%TD*%
D16*
%TO.P,REF\u002A\u002A,1*%
%TO.N,ring_home*%
X173838000Y-114536000D03*
%TD*%
%TO.P,REF\u002A\u002A,1*%
%TO.N,home_fan*%
X221849536Y-187433412D03*
%TD*%
%TO.P,REF\u002A\u002A,1*%
%TO.N,col_3*%
X205588000Y-93276000D03*
%TD*%
D18*
%TO.P,S11,1*%
%TO.N,col_3*%
X205673000Y-112236000D03*
%TO.P,S11,2*%
%TO.N,middle_home*%
X192746000Y-109696000D03*
%TD*%
D16*
%TO.P,REF\u002A\u002A,1*%
%TO.N,pinkie_top*%
X154838000Y-107436000D03*
%TD*%
%TO.P,REF\u002A\u002A,1*%
%TO.N,middle_bottom*%
X192838000Y-128776000D03*
%TD*%
%TO.P,REF\u002A\u002A,1*%
%TO.N,col_5*%
X243588000Y-126726000D03*
%TD*%
D19*
%TO.P,TH3,*%
%TO.N,*%
X209025000Y-134450000D03*
%TD*%
D17*
%TO.P,D14,1*%
%TO.N,row_2*%
X219238000Y-128976000D03*
%TO.P,D14,2*%
%TO.N,index_home*%
X215938000Y-128976000D03*
%TD*%
D16*
%TO.P,REF\u002A\u002A,1*%
%TO.N,col_4*%
X224588000Y-122476000D03*
%TD*%
D20*
%TO.P,J3,1*%
%TO.N,GND*%
X258858000Y-110947200D03*
%TO.P,J3,2*%
%TO.N,J_pad3*%
X258858000Y-111947960D03*
%TD*%
D16*
%TO.P,REF\u002A\u002A,1*%
%TO.N,far_fan*%
X239573307Y-190094435D03*
%TD*%
%TO.P,REF\u002A\u002A,1*%
%TO.N,col_1*%
X167588000Y-147936000D03*
%TD*%
%TO.P,REF\u002A\u002A,1*%
%TO.N,row_3*%
X143248000Y-116436000D03*
%TD*%
%TO.P,REF\u002A\u002A,1*%
%TO.N,inner_top*%
X234928000Y-114226000D03*
%TD*%
D18*
%TO.P,S15,1*%
%TO.N,col_4*%
X224673000Y-103436000D03*
%TO.P,S15,2*%
%TO.N,index_top*%
X211746000Y-100896000D03*
%TD*%
%TO.P,S14,1*%
%TO.N,col_4*%
X224673000Y-122436000D03*
%TO.P,S14,2*%
%TO.N,index_home*%
X211746000Y-119896000D03*
%TD*%
D21*
%TO.P,D19,1*%
%TO.N,row_0*%
X205583098Y-184654586D03*
%TO.P,D19,2*%
%TO.N,near_fan*%
X202295656Y-184366972D03*
%TD*%
D16*
%TO.P,REF\u002A\u002A,1*%
%TO.N,middle_home*%
X196928000Y-118776000D03*
%TD*%
%TO.P,REF\u002A\u002A,1*%
%TO.N,row_1*%
X181248000Y-142536000D03*
%TD*%
%TO.P,REF\u002A\u002A,1*%
%TO.N,col_5*%
X243588000Y-107726000D03*
%TD*%
%TO.P,REF\u002A\u002A,1*%
%TO.N,index_top*%
X215928000Y-109976000D03*
%TD*%
%TO.P,REF\u002A\u002A,1*%
%TO.N,ring_bottom*%
X177928000Y-142536000D03*
%TD*%
D17*
%TO.P,D7,1*%
%TO.N,row_1*%
X181238000Y-142536000D03*
%TO.P,D7,2*%
%TO.N,ring_bottom*%
X177938000Y-142536000D03*
%TD*%
D20*
%TO.P,J7,1*%
%TO.N,SDA*%
X254858000Y-110947200D03*
%TO.P,J7,2*%
%TO.N,J_pad1*%
X254858000Y-111947960D03*
%TD*%
D18*
%TO.P,S7,1*%
%TO.N,col_2*%
X186673000Y-135996000D03*
%TO.P,S7,2*%
%TO.N,ring_bottom*%
X173746000Y-133456000D03*
%TD*%
D16*
%TO.P,REF\u002A\u002A,1*%
%TO.N,index_home*%
X211838000Y-119976000D03*
%TD*%
%TO.P,REF\u002A\u002A,1*%
%TO.N,col_4*%
X224588000Y-141476000D03*
%TD*%
%TO.P,REF\u002A\u002A,1*%
%TO.N,outer_top*%
X135838000Y-107436000D03*
%TD*%
D17*
%TO.P,D18,1*%
%TO.N,row_3*%
X238238000Y-114226000D03*
%TO.P,D18,2*%
%TO.N,inner_top*%
X234938000Y-114226000D03*
%TD*%
D16*
%TO.P,REF\u002A\u002A,1*%
%TO.N,inner_top*%
X230838000Y-105226000D03*
%TD*%
D18*
%TO.P,S16,1*%
%TO.N,col_5*%
X243673000Y-145686000D03*
%TO.P,S16,2*%
%TO.N,inner_bottom*%
X230746000Y-143146000D03*
%TD*%
D16*
%TO.P,REF\u002A\u002A,1*%
%TO.N,index_bottom*%
X211838000Y-138976000D03*
%TD*%
D19*
%TO.P,TH3,*%
%TO.N,*%
X245125000Y-99050000D03*
%TD*%
D17*
%TO.P,D8,1*%
%TO.N,row_2*%
X181238000Y-123536000D03*
%TO.P,D8,2*%
%TO.N,ring_home*%
X177938000Y-123536000D03*
%TD*%
D16*
%TO.P,REF\u002A\u002A,1*%
%TO.N,col_2*%
X186588000Y-117036000D03*
%TD*%
D17*
%TO.P,D17,1*%
%TO.N,row_2*%
X238238000Y-133226000D03*
%TO.P,D17,2*%
%TO.N,inner_home*%
X234938000Y-133226000D03*
%TD*%
D16*
%TO.P,REF\u002A\u002A,1*%
%TO.N,ring_top*%
X177928000Y-104536000D03*
%TD*%
%TO.P,REF\u002A\u002A,1*%
%TO.N,middle_top*%
X192838000Y-90776000D03*
%TD*%
D18*
%TO.P,S13,1*%
%TO.N,col_4*%
X224673000Y-141436000D03*
%TO.P,S13,2*%
%TO.N,index_bottom*%
X211746000Y-138896000D03*
%TD*%
%TO.P,S1,1*%
%TO.N,col_0*%
X148673000Y-147896000D03*
%TO.P,S1,2*%
%TO.N,outer_bottom*%
X135746000Y-145356000D03*
%TD*%
D16*
%TO.P,REF\u002A\u002A,1*%
%TO.N,outer_bottom*%
X135838000Y-145436000D03*
%TD*%
%TO.P,REF\u002A\u002A,1*%
%TO.N,index_home*%
X215928000Y-128976000D03*
%TD*%
D17*
%TO.P,D2,1*%
%TO.N,row_2*%
X143238000Y-135436000D03*
%TO.P,D2,2*%
%TO.N,outer_home*%
X139938000Y-135436000D03*
%TD*%
D20*
%TO.P,J5,1*%
%TO.N,SCL*%
X256858000Y-110947200D03*
%TO.P,J5,2*%
%TO.N,J_pad2*%
X256858000Y-111947960D03*
%TD*%
D16*
%TO.P,REF\u002A\u002A,1*%
%TO.N,col_3*%
X231896778Y-183396267D03*
%TD*%
%TO.P,REF\u002A\u002A,1*%
%TO.N,col_4*%
X247766438Y-180010532D03*
%TD*%
%TO.P,REF\u002A\u002A,1*%
%TO.N,col_0*%
X148588000Y-109936000D03*
%TD*%
D17*
%TO.P,D4,1*%
%TO.N,row_1*%
X162238000Y-154436000D03*
%TO.P,D4,2*%
%TO.N,pinkie_bottom*%
X158938000Y-154436000D03*
%TD*%
D16*
%TO.P,REF\u002A\u002A,1*%
%TO.N,col_3*%
X205588000Y-112276000D03*
%TD*%
D19*
%TO.P,TH3,*%
%TO.N,*%
X237650000Y-177675000D03*
%TD*%
D16*
%TO.P,REF\u002A\u002A,1*%
%TO.N,middle_top*%
X196928000Y-99776000D03*
%TD*%
%TO.P,REF\u002A\u002A,1*%
%TO.N,row_3*%
X181248000Y-104536000D03*
%TD*%
%TO.P,REF\u002A\u002A,1*%
%TO.N,row_2*%
X219248000Y-128976000D03*
%TD*%
%TO.P,REF\u002A\u002A,1*%
%TO.N,row_1*%
X200248000Y-137776000D03*
%TD*%
D17*
%TO.P,D5,1*%
%TO.N,row_2*%
X162238000Y-135436000D03*
%TO.P,D5,2*%
%TO.N,pinkie_home*%
X158938000Y-135436000D03*
%TD*%
D16*
%TO.P,REF\u002A\u002A,1*%
%TO.N,ring_bottom*%
X173838000Y-133536000D03*
%TD*%
%TO.P,REF\u002A\u002A,1*%
%TO.N,row_0*%
X250998619Y-187777038D03*
%TD*%
%TO.P,REF\u002A\u002A,1*%
%TO.N,col_3*%
X205588000Y-131276000D03*
%TD*%
D17*
%TO.P,D3,1*%
%TO.N,row_3*%
X143238000Y-116436000D03*
%TO.P,D3,2*%
%TO.N,outer_top*%
X139938000Y-116436000D03*
%TD*%
%TO.P,D11,1*%
%TO.N,row_2*%
X200238000Y-118776000D03*
%TO.P,D11,2*%
%TO.N,middle_home*%
X196938000Y-118776000D03*
%TD*%
D16*
%TO.P,REF\u002A\u002A,1*%
%TO.N,far_fan*%
X249439974Y-190708424D03*
%TD*%
%TO.P,REF\u002A\u002A,1*%
%TO.N,row_3*%
X200248000Y-99776000D03*
%TD*%
%TO.P,REF\u002A\u002A,1*%
%TO.N,col_2*%
X186588000Y-98036000D03*
%TD*%
%TO.P,REF\u002A\u002A,1*%
%TO.N,middle_home*%
X192838000Y-109776000D03*
%TD*%
D17*
%TO.P,D10,1*%
%TO.N,row_1*%
X200238000Y-137776000D03*
%TO.P,D10,2*%
%TO.N,middle_bottom*%
X196938000Y-137776000D03*
%TD*%
D16*
%TO.P,REF\u002A\u002A,1*%
%TO.N,col_5*%
X243588000Y-145726000D03*
%TD*%
%TO.P,REF\u002A\u002A,1*%
%TO.N,row_3*%
X238248000Y-114226000D03*
%TD*%
D22*
%TO.P,D20,1*%
%TO.N,row_0*%
X225046751Y-188290103D03*
%TO.P,D20,2*%
%TO.N,home_fan*%
X221859195Y-187436001D03*
%TD*%
D18*
%TO.P,S5,1*%
%TO.N,col_1*%
X167673000Y-128896000D03*
%TO.P,S5,2*%
%TO.N,pinkie_home*%
X154746000Y-126356000D03*
%TD*%
D23*
%TO.P,S19,1*%
%TO.N,col_2*%
X211567415Y-178613164D03*
%TO.P,S19,2*%
%TO.N,near_fan*%
X198910982Y-174956167D03*
%TD*%
D24*
%TO.P,ROT1,*%
%TO.N,*%
X259708000Y-162866000D03*
X259708000Y-151666000D03*
D25*
%TO.P,ROT1,1*%
%TO.N,col_5*%
X252708000Y-159766000D03*
%TO.P,ROT1,2*%
%TO.N,r_diode*%
X252708000Y-154766000D03*
D26*
%TO.P,ROT1,A*%
%TO.N,ENCA*%
X267208000Y-159766000D03*
D27*
%TO.P,ROT1,B*%
%TO.N,ENCB*%
X267208000Y-154766000D03*
%TO.P,ROT1,C*%
%TO.N,GND*%
X267208000Y-157266000D03*
%TD*%
D18*
%TO.P,S4,1*%
%TO.N,col_1*%
X167673000Y-147896000D03*
%TO.P,S4,2*%
%TO.N,pinkie_bottom*%
X154746000Y-145356000D03*
%TD*%
D16*
%TO.P,REF\u002A\u002A,1*%
%TO.N,index_bottom*%
X215928000Y-147976000D03*
%TD*%
D19*
%TO.P,TH3,*%
%TO.N,*%
X150875000Y-121825000D03*
%TD*%
D18*
%TO.P,S12,1*%
%TO.N,col_3*%
X205673000Y-93236000D03*
%TO.P,S12,2*%
%TO.N,middle_top*%
X192746000Y-90696000D03*
%TD*%
D16*
%TO.P,REF\u002A\u002A,1*%
%TO.N,row_1*%
X143248000Y-154436000D03*
%TD*%
D17*
%TO.P,D1,1*%
%TO.N,row_1*%
X143238000Y-154436000D03*
%TO.P,D1,2*%
%TO.N,outer_bottom*%
X139938000Y-154436000D03*
%TD*%
D16*
%TO.P,REF\u002A\u002A,1*%
%TO.N,row_3*%
X219248000Y-109976000D03*
%TD*%
D28*
%TO.P,REF\u002A,1*%
%TO.N,J_pad1*%
X252842600Y-131724400D03*
D29*
%TO.P,REF\u002A,2*%
%TO.N,J_pad2*%
X255382600Y-131724400D03*
%TO.P,REF\u002A,3*%
%TO.N,VCC*%
X257922600Y-131724400D03*
%TO.P,REF\u002A,4*%
%TO.N,J_pad3*%
X260462600Y-131724400D03*
%TO.P,REF\u002A,5*%
%TO.N,J_pad4*%
X263002600Y-131724400D03*
%TD*%
D17*
%TO.P,D6,1*%
%TO.N,row_3*%
X162238000Y-116436000D03*
%TO.P,D6,2*%
%TO.N,pinkie_top*%
X158938000Y-116436000D03*
%TD*%
D18*
%TO.P,S17,1*%
%TO.N,col_5*%
X243673000Y-126686000D03*
%TO.P,S17,2*%
%TO.N,inner_home*%
X230746000Y-124146000D03*
%TD*%
D16*
%TO.P,REF\u002A\u002A,1*%
%TO.N,index_top*%
X211838000Y-100976000D03*
%TD*%
D18*
%TO.P,S9,1*%
%TO.N,col_2*%
X186673000Y-97996000D03*
%TO.P,S9,2*%
%TO.N,ring_top*%
X173746000Y-95456000D03*
%TD*%
D16*
%TO.P,REF\u002A\u002A,1*%
%TO.N,row_2*%
X200248000Y-118776000D03*
%TD*%
%TO.P,REF\u002A\u002A,1*%
%TO.N,pinkie_top*%
X158928000Y-116436000D03*
%TD*%
%TO.P,REF\u002A\u002A,1*%
%TO.N,home_fan*%
X220228271Y-177681510D03*
%TD*%
%TO.P,REF\u002A\u002A,1*%
%TO.N,col_2*%
X186588000Y-136036000D03*
%TD*%
%TO.P,REF\u002A\u002A,1*%
%TO.N,row_2*%
X181248000Y-123536000D03*
%TD*%
%TO.P,REF\u002A\u002A,1*%
%TO.N,middle_bottom*%
X196928000Y-137776000D03*
%TD*%
%TO.P,REF\u002A\u002A,1*%
%TO.N,ring_home*%
X177928000Y-123536000D03*
%TD*%
D18*
%TO.P,S2,1*%
%TO.N,col_0*%
X148673000Y-128896000D03*
%TO.P,S2,2*%
%TO.N,outer_home*%
X135746000Y-126356000D03*
%TD*%
D17*
%TO.P,D15,1*%
%TO.N,row_3*%
X219238000Y-109976000D03*
%TO.P,D15,2*%
%TO.N,index_top*%
X215938000Y-109976000D03*
%TD*%
D16*
%TO.P,REF\u002A\u002A,1*%
%TO.N,near_fan*%
X198995659Y-175043881D03*
%TD*%
%TO.P,REF\u002A\u002A,1*%
%TO.N,pinkie_bottom*%
X154838000Y-145436000D03*
%TD*%
D30*
%TO.P,S20,1*%
%TO.N,col_3*%
X231989234Y-183379630D03*
%TO.P,S20,2*%
%TO.N,home_fan*%
X220160111Y-177580425D03*
%TD*%
D20*
%TO.P,J1,1*%
%TO.N,CS*%
X260858000Y-110947200D03*
%TO.P,J1,2*%
%TO.N,J_pad4*%
X260858000Y-111947960D03*
%TD*%
D31*
%TO.P,S21,1*%
%TO.N,col_4*%
X247771025Y-179916704D03*
%TO.P,S21,2*%
%TO.N,far_fan*%
X239459479Y-190138109D03*
%TD*%
D17*
%TO.P,D16,1*%
%TO.N,row_1*%
X238238000Y-152226000D03*
%TO.P,D16,2*%
%TO.N,inner_bottom*%
X234938000Y-152226000D03*
%TD*%
D16*
%TO.P,REF\u002A\u002A,1*%
%TO.N,inner_bottom*%
X234928000Y-152226000D03*
%TD*%
%TO.P,REF\u002A\u002A,1*%
%TO.N,row_1*%
X219248000Y-147976000D03*
%TD*%
D19*
%TO.P,TH3,*%
%TO.N,*%
X151175000Y-140825000D03*
%TD*%
D16*
%TO.P,REF\u002A\u002A,1*%
%TO.N,col_1*%
X167588000Y-109936000D03*
%TD*%
%TO.P,REF\u002A\u002A,1*%
%TO.N,row_1*%
X238248000Y-152226000D03*
%TD*%
%TO.P,REF\u002A\u002A,1*%
%TO.N,row_2*%
X143248000Y-135436000D03*
%TD*%
%TO.P,REF\u002A\u002A,1*%
%TO.N,inner_home*%
X230838000Y-124226000D03*
%TD*%
%TO.P,REF\u002A\u002A,1*%
%TO.N,pinkie_home*%
X154838000Y-126436000D03*
%TD*%
%TO.P,REF\u002A\u002A,1*%
%TO.N,inner_bottom*%
X230838000Y-143226000D03*
%TD*%
D18*
%TO.P,S3,1*%
%TO.N,col_0*%
X148673000Y-109896000D03*
%TO.P,S3,2*%
%TO.N,outer_top*%
X135746000Y-107356000D03*
%TD*%
D16*
%TO.P,REF\u002A\u002A,1*%
%TO.N,outer_top*%
X139928000Y-116436000D03*
%TD*%
%TO.P,REF\u002A\u002A,1*%
%TO.N,outer_home*%
X139928000Y-135436000D03*
%TD*%
%TO.P,REF\u002A\u002A,1*%
%TO.N,col_1*%
X167588000Y-128936000D03*
%TD*%
D17*
%TO.P,D12,1*%
%TO.N,row_3*%
X200238000Y-99776000D03*
%TO.P,D12,2*%
%TO.N,middle_top*%
X196938000Y-99776000D03*
%TD*%
D16*
%TO.P,REF\u002A\u002A,1*%
%TO.N,col_0*%
X148588000Y-128936000D03*
%TD*%
%TO.P,REF\u002A\u002A,1*%
%TO.N,near_fan*%
X202285694Y-184366100D03*
%TD*%
D18*
%TO.P,S6,1*%
%TO.N,col_1*%
X167673000Y-109896000D03*
%TO.P,S6,2*%
%TO.N,pinkie_top*%
X154746000Y-107356000D03*
%TD*%
D16*
%TO.P,REF\u002A\u002A,1*%
%TO.N,col_0*%
X148588000Y-147936000D03*
%TD*%
D32*
%TO.P,D21,1*%
%TO.N,row_0*%
X250993925Y-187785867D03*
%TO.P,D21,2*%
%TO.N,far_fan*%
X249444669Y-190699595D03*
%TD*%
D16*
%TO.P,REF\u002A\u002A,1*%
%TO.N,outer_bottom*%
X139928000Y-154436000D03*
%TD*%
%TO.P,REF\u002A\u002A,1*%
%TO.N,pinkie_home*%
X158928000Y-135436000D03*
%TD*%
%TO.P,REF\u002A\u002A,1*%
%TO.N,row_2*%
X162248000Y-135436000D03*
%TD*%
%TO.P,REF\u002A\u002A,1*%
%TO.N,row_2*%
X238248000Y-133226000D03*
%TD*%
D18*
%TO.P,S10,1*%
%TO.N,col_3*%
X205673000Y-131236000D03*
%TO.P,S10,2*%
%TO.N,middle_bottom*%
X192746000Y-128696000D03*
%TD*%
D16*
%TO.P,REF\u002A\u002A,1*%
%TO.N,pinkie_bottom*%
X158928000Y-154436000D03*
%TD*%
%TO.P,REF\u002A\u002A,1*%
%TO.N,col_4*%
X224588000Y-103476000D03*
%TD*%
%TO.P,REF\u002A\u002A,1*%
%TO.N,outer_home*%
X135838000Y-126436000D03*
%TD*%
%TO.P,REF\u002A\u002A,1*%
%TO.N,row_0*%
X225056410Y-188292692D03*
%TD*%
D33*
%TO.P,JST REV1,1*%
%TO.N,GND*%
X255661600Y-102867100D03*
D34*
%TO.N,JST*%
X257911600Y-102867100D03*
D33*
%TO.P,JST REV1,2*%
%TO.N,GND*%
X260161600Y-102867100D03*
%TD*%
D16*
%TO.P,REF\u002A\u002A,1*%
%TO.N,inner_home*%
X234928000Y-133226000D03*
%TD*%
D17*
%TO.P,D9,1*%
%TO.N,row_3*%
X181238000Y-104536000D03*
%TO.P,D9,2*%
%TO.N,ring_top*%
X177938000Y-104536000D03*
%TD*%
D35*
%TO.P,MCU1,1*%
%TO.N,RAW*%
X265531600Y-100228400D03*
D36*
%TO.P,MCU1,2*%
%TO.N,GND*%
X265531600Y-102768400D03*
%TO.P,MCU1,3*%
%TO.N,RST*%
X265531600Y-105308400D03*
%TO.P,MCU1,4*%
%TO.N,VCC*%
X265531600Y-107848400D03*
%TO.P,MCU1,5*%
%TO.N,ENCB*%
X265531600Y-110388400D03*
%TO.P,MCU1,6*%
%TO.N,ENCA*%
X265531600Y-112928400D03*
%TO.P,MCU1,7*%
%TO.N,P19*%
X265531600Y-115468400D03*
%TO.P,MCU1,8*%
%TO.N,P18*%
X265531600Y-118008400D03*
%TO.P,MCU1,9*%
%TO.N,row_3*%
X265531600Y-120548400D03*
%TO.P,MCU1,10*%
%TO.N,row_2*%
X265531600Y-123088400D03*
%TO.P,MCU1,11*%
%TO.N,row_1*%
X265531600Y-125628400D03*
%TO.P,MCU1,12*%
%TO.N,row_0*%
X265531600Y-128168400D03*
%TO.P,MCU1,13*%
%TO.N,CS*%
X250291600Y-100228400D03*
%TO.P,MCU1,14*%
%TO.N,P0*%
X250291600Y-102768400D03*
%TO.P,MCU1,15*%
%TO.N,GND*%
X250291600Y-105308400D03*
%TO.P,MCU1,16*%
X250291600Y-107848400D03*
%TO.P,MCU1,17*%
%TO.N,SDA*%
X250291600Y-110388400D03*
%TO.P,MCU1,18*%
%TO.N,SCL*%
X250291600Y-112928400D03*
%TO.P,MCU1,19*%
%TO.N,col_0*%
X250291600Y-115468400D03*
%TO.P,MCU1,20*%
%TO.N,col_1*%
X250291600Y-118008400D03*
%TO.P,MCU1,21*%
%TO.N,col_2*%
X250291600Y-120548400D03*
%TO.P,MCU1,22*%
%TO.N,col_3*%
X250291600Y-123088400D03*
%TO.P,MCU1,23*%
%TO.N,col_4*%
X250291600Y-125628400D03*
%TO.P,MCU1,24*%
%TO.N,col_5*%
X250291600Y-128168400D03*
%TD*%
D18*
%TO.P,S18,1*%
%TO.N,col_5*%
X243673000Y-107686000D03*
%TO.P,S18,2*%
%TO.N,inner_top*%
X230746000Y-105146000D03*
%TD*%
D37*
%TO.P,D22,1*%
%TO.N,row_0*%
X250588000Y-151576000D03*
%TO.P,D22,2*%
%TO.N,r_diode*%
X250588000Y-154876000D03*
%TD*%
D16*
%TO.P,REF\u002A\u002A,1*%
%TO.N,col_2*%
X211479252Y-178645603D03*
%TD*%
D38*
%TO.N,col_0*%
X189230000Y-156159200D03*
%TO.N,col_1*%
X175209200Y-155434700D03*
%TO.N,col_2*%
X196138800Y-157937200D03*
%TO.N,col_3*%
X213207600Y-158394400D03*
%TO.N,col_4*%
X228142800Y-158851600D03*
%TO.N,col_5*%
X248666000Y-155651200D03*
%TO.N,row_1*%
X244805200Y-150825200D03*
%TO.N,row_2*%
X244805200Y-138734800D03*
%TO.N,row_3*%
X245008400Y-117957600D03*
%TO.N,row_0*%
X250596400Y-151536400D03*
%TO.N,GND*%
X257860800Y-108712000D03*
%TO.N,VCC*%
X257860800Y-113741200D03*
%TO.N,CS*%
X254812800Y-107797600D03*
%TO.N,SDA*%
X260705600Y-107035600D03*
%TO.N,SCL*%
X257860800Y-109931200D03*
%TO.N,r_diode*%
X250596400Y-154940000D03*
%TO.N,J_pad4*%
X260858000Y-111963200D03*
%TO.N,J_pad3*%
X258876800Y-111963200D03*
%TO.N,J_pad2*%
X256844800Y-111963200D03*
%TO.N,J_pad1*%
X254812800Y-111963200D03*
%TD*%
D39*
%TO.N,col_0*%
X246024400Y-154330400D02*
X246024400Y-119735600D01*
X246024400Y-119735600D02*
X250291600Y-115468400D01*
X189230000Y-156159200D02*
X244195600Y-156159200D01*
X244195600Y-156159200D02*
X246024400Y-154330400D01*
%TO.N,outer_bottom*%
X134272000Y-146989000D02*
X134272000Y-150781000D01*
X134272000Y-150781000D02*
X137991000Y-154500000D01*
X137991000Y-154500000D02*
X139851000Y-154500000D01*
X135761000Y-145500000D02*
X134272000Y-146989000D01*
%TO.N,outer_home*%
X134272000Y-131731000D02*
X137991000Y-135450000D01*
X135761000Y-126450000D02*
X134272000Y-127939000D01*
X137991000Y-135450000D02*
X139851000Y-135450000D01*
X134272000Y-127939000D02*
X134272000Y-131731000D01*
%TO.N,outer_top*%
X134349000Y-112717000D02*
X138068000Y-116436000D01*
X138068000Y-116436000D02*
X139928000Y-116436000D01*
X135838000Y-107436000D02*
X134349000Y-108925000D01*
X134349000Y-108925000D02*
X134349000Y-112717000D01*
%TO.N,col_1*%
X175209200Y-155434700D02*
X175209700Y-155434200D01*
X176658700Y-156884200D02*
X189920200Y-156884200D01*
X190195200Y-156609200D02*
X244381996Y-156609200D01*
X189920200Y-156884200D02*
X190195200Y-156609200D01*
X244381996Y-156609200D02*
X246474400Y-154516796D01*
X246474400Y-154516796D02*
X246474400Y-121825600D01*
X246474400Y-121825600D02*
X250291600Y-118008400D01*
X175209200Y-155434700D02*
X176658700Y-156884200D01*
%TO.N,pinkie_bottom*%
X154811000Y-145500000D02*
X153322000Y-146989000D01*
X153322000Y-146989000D02*
X153322000Y-150781000D01*
X157041000Y-154500000D02*
X158901000Y-154500000D01*
X153322000Y-150781000D02*
X157041000Y-154500000D01*
%TO.N,pinkie_home*%
X154811000Y-126450000D02*
X153322000Y-127939000D01*
X157041000Y-135450000D02*
X158901000Y-135450000D01*
X153322000Y-131731000D02*
X157041000Y-135450000D01*
X153322000Y-127939000D02*
X153322000Y-131731000D01*
%TO.N,pinkie_top*%
X154811000Y-107527000D02*
X153322000Y-109016000D01*
X157041000Y-116527000D02*
X158901000Y-116527000D01*
X153322000Y-112808000D02*
X157041000Y-116527000D01*
X153322000Y-109016000D02*
X153322000Y-112808000D01*
%TO.N,col_2*%
X244568392Y-157059200D02*
X246924400Y-154703192D01*
X246924400Y-154703192D02*
X246924400Y-123915600D01*
X246924400Y-123915600D02*
X250291600Y-120548400D01*
X196138800Y-157937200D02*
X197016800Y-157059200D01*
X197016800Y-157059200D02*
X244568392Y-157059200D01*
%TO.N,ring_bottom*%
X172245000Y-138843000D02*
X175964000Y-142562000D01*
X175964000Y-142562000D02*
X177824000Y-142562000D01*
X172245000Y-135051000D02*
X172245000Y-138843000D01*
X173734000Y-133562000D02*
X172245000Y-135051000D01*
%TO.N,ring_home*%
X172372000Y-116001000D02*
X172372000Y-119793000D01*
X173861000Y-114512000D02*
X172372000Y-116001000D01*
X172372000Y-119793000D02*
X176091000Y-123512000D01*
X176091000Y-123512000D02*
X177951000Y-123512000D01*
%TO.N,ring_top*%
X172245000Y-97078000D02*
X172245000Y-100870000D01*
X175964000Y-104589000D02*
X177824000Y-104589000D01*
X173734000Y-95589000D02*
X172245000Y-97078000D01*
X172245000Y-100870000D02*
X175964000Y-104589000D01*
%TO.N,col_3*%
X244754788Y-157509200D02*
X247374400Y-154889588D01*
X214092800Y-157509200D02*
X244754788Y-157509200D01*
X247374400Y-154889588D02*
X247374400Y-126005600D01*
X247374400Y-126005600D02*
X250291600Y-123088400D01*
X213207600Y-158394400D02*
X214092800Y-157509200D01*
%TO.N,middle_bottom*%
X195014000Y-137863000D02*
X196874000Y-137863000D01*
X191295000Y-134144000D02*
X195014000Y-137863000D01*
X192784000Y-128863000D02*
X191295000Y-130352000D01*
X191295000Y-130352000D02*
X191295000Y-134144000D01*
%TO.N,middle_home*%
X191295000Y-111302000D02*
X191295000Y-115094000D01*
X192784000Y-109813000D02*
X191295000Y-111302000D01*
X191295000Y-115094000D02*
X195014000Y-118813000D01*
X195014000Y-118813000D02*
X196874000Y-118813000D01*
%TO.N,middle_top*%
X191295000Y-92252000D02*
X191295000Y-96044000D01*
X195014000Y-99763000D02*
X196874000Y-99763000D01*
X192784000Y-90763000D02*
X191295000Y-92252000D01*
X191295000Y-96044000D02*
X195014000Y-99763000D01*
%TO.N,col_4*%
X229035200Y-157959200D02*
X244941184Y-157959200D01*
X247824400Y-128095600D02*
X250291600Y-125628400D01*
X244941184Y-157959200D02*
X247824400Y-155075984D01*
X247824400Y-155075984D02*
X247824400Y-128095600D01*
X228142800Y-158851600D02*
X229035200Y-157959200D01*
X224673000Y-141436000D02*
X224756000Y-141436000D01*
%TO.N,index_bottom*%
X210345000Y-140512000D02*
X210345000Y-144304000D01*
X210345000Y-144304000D02*
X214064000Y-148023000D01*
X214064000Y-148023000D02*
X215924000Y-148023000D01*
X211834000Y-139023000D02*
X210345000Y-140512000D01*
%TO.N,index_home*%
X210218000Y-121462000D02*
X210218000Y-125254000D01*
X213937000Y-128973000D02*
X215797000Y-128973000D01*
X211707000Y-119973000D02*
X210218000Y-121462000D01*
X210218000Y-125254000D02*
X213937000Y-128973000D01*
%TO.N,index_top*%
X210345000Y-106331000D02*
X214064000Y-110050000D01*
X210345000Y-102539000D02*
X210345000Y-106331000D01*
X214064000Y-110050000D02*
X215924000Y-110050000D01*
X211834000Y-101050000D02*
X210345000Y-102539000D01*
%TO.N,col_5*%
X248666000Y-155651200D02*
X248274400Y-155259600D01*
X248274400Y-155259600D02*
X248274400Y-130185600D01*
X248274400Y-130185600D02*
X250291600Y-128168400D01*
%TO.N,inner_bottom*%
X229268000Y-148495000D02*
X232987000Y-152214000D01*
X229268000Y-144703000D02*
X229268000Y-148495000D01*
X232987000Y-152214000D02*
X234847000Y-152214000D01*
X230757000Y-143214000D02*
X229268000Y-144703000D01*
%TO.N,inner_home*%
X229268000Y-129572000D02*
X232987000Y-133291000D01*
X229268000Y-125780000D02*
X229268000Y-129572000D01*
X232987000Y-133291000D02*
X234847000Y-133291000D01*
X230757000Y-124291000D02*
X229268000Y-125780000D01*
%TO.N,inner_top*%
X230757000Y-105241000D02*
X229268000Y-106730000D01*
X229268000Y-110522000D02*
X232987000Y-114241000D01*
X232987000Y-114241000D02*
X234847000Y-114241000D01*
X229268000Y-106730000D02*
X229268000Y-110522000D01*
%TO.N,near_fan*%
X198910982Y-174956167D02*
X197087000Y-176780149D01*
X200791972Y-184366972D02*
X202295656Y-184366972D01*
X197087000Y-180662000D02*
X200791972Y-184366972D01*
X197087000Y-176780149D02*
X197087000Y-180662000D01*
%TO.N,home_fan*%
X220368412Y-187433412D02*
X221849536Y-187433412D01*
X217661000Y-180248781D02*
X217661000Y-184726000D01*
X217661000Y-184726000D02*
X220368412Y-187433412D01*
X220228271Y-177681510D02*
X217661000Y-180248781D01*
%TO.N,far_fan*%
X243729872Y-194251000D02*
X245897398Y-194251000D01*
X245897398Y-194251000D02*
X249439974Y-190708424D01*
X239573307Y-190094435D02*
X243729872Y-194251000D01*
%TO.N,row_1*%
X238238000Y-152226000D02*
X243353600Y-152226000D01*
X183236000Y-140530000D02*
X197476000Y-140530000D01*
X236355000Y-154119000D02*
X238248000Y-152226000D01*
X243353600Y-152226000D02*
X244754400Y-150825200D01*
X227012000Y-147976000D02*
X233155000Y-154119000D01*
X181257000Y-142509000D02*
X183236000Y-140530000D01*
X200248000Y-137876000D02*
X202434000Y-137876000D01*
X165509500Y-154454500D02*
X175832500Y-144131500D01*
X244805200Y-150825200D02*
X244805200Y-150774400D01*
X202434000Y-137876000D02*
X213978000Y-149420000D01*
X143269000Y-154536000D02*
X144630000Y-155897000D01*
X179742500Y-144131500D02*
X181319500Y-142554500D01*
X162329500Y-154454500D02*
X165509500Y-154454500D01*
X144630000Y-155897000D02*
X160898000Y-155897000D01*
X244805200Y-150774400D02*
X244856000Y-150723600D01*
X213978000Y-149420000D02*
X217894000Y-149420000D01*
X160898000Y-155897000D02*
X162259000Y-154536000D01*
X217894000Y-149420000D02*
X219238000Y-148076000D01*
X244754400Y-150825200D02*
X244805200Y-150825200D01*
X175832500Y-144131500D02*
X179742500Y-144131500D01*
X197476000Y-140530000D02*
X200257000Y-137749000D01*
X233155000Y-154119000D02*
X236355000Y-154119000D01*
X219238000Y-147976000D02*
X227012000Y-147976000D01*
%TO.N,row_2*%
X197476000Y-121480000D02*
X200257000Y-118699000D01*
X233202000Y-135116000D02*
X236402000Y-135116000D01*
X175832500Y-125081500D02*
X179742500Y-125081500D01*
X143269000Y-135486000D02*
X144630000Y-136847000D01*
X162329500Y-135404500D02*
X165509500Y-135404500D01*
X227059000Y-128973000D02*
X233202000Y-135116000D01*
X160898000Y-136847000D02*
X162259000Y-135486000D01*
X181257000Y-123459000D02*
X183236000Y-121480000D01*
X202434000Y-118826000D02*
X213978000Y-130370000D01*
X213978000Y-130370000D02*
X217894000Y-130370000D01*
X144630000Y-136847000D02*
X160898000Y-136847000D01*
X244805200Y-138734800D02*
X244856000Y-138785600D01*
X219285000Y-128973000D02*
X227059000Y-128973000D01*
X165509500Y-135404500D02*
X175832500Y-125081500D01*
X239296400Y-133226000D02*
X244805200Y-138734800D01*
X179742500Y-125081500D02*
X181319500Y-123504500D01*
X236402000Y-135116000D02*
X238295000Y-133223000D01*
X217894000Y-130370000D02*
X219238000Y-129026000D01*
X183236000Y-121480000D02*
X197476000Y-121480000D01*
X200248000Y-118826000D02*
X202434000Y-118826000D01*
X238238000Y-133226000D02*
X239296400Y-133226000D01*
%TO.N,row_3*%
X213978000Y-111320000D02*
X217894000Y-111320000D01*
X179661000Y-106113000D02*
X181238000Y-104536000D01*
X162248000Y-116436000D02*
X165428000Y-116436000D01*
X200248000Y-99776000D02*
X202434000Y-99776000D01*
X143248000Y-116436000D02*
X144609000Y-117797000D01*
X165428000Y-116436000D02*
X175751000Y-106113000D01*
X233202000Y-116066000D02*
X236402000Y-116066000D01*
X238248000Y-114226000D02*
X241276800Y-114226000D01*
X202434000Y-99776000D02*
X213978000Y-111320000D01*
X181238000Y-104536000D02*
X183217000Y-102557000D01*
X144609000Y-117797000D02*
X160877000Y-117797000D01*
X183217000Y-102557000D02*
X197457000Y-102557000D01*
X197457000Y-102557000D02*
X200238000Y-99776000D01*
X241276800Y-114226000D02*
X245008400Y-117957600D01*
X160877000Y-117797000D02*
X162238000Y-116436000D01*
X217894000Y-111320000D02*
X219238000Y-109976000D01*
X227059000Y-109923000D02*
X233202000Y-116066000D01*
X175751000Y-106113000D02*
X179661000Y-106113000D01*
X236402000Y-116066000D02*
X238295000Y-114173000D01*
X219285000Y-109923000D02*
X227059000Y-109923000D01*
%TO.N,row_0*%
X248903000Y-196410000D02*
X250993925Y-194319075D01*
X209660000Y-188731488D02*
X209660000Y-188917000D01*
X239886000Y-196410000D02*
X248903000Y-196410000D01*
X250596400Y-151536400D02*
X252668000Y-151576000D01*
X250588000Y-151576000D02*
X250430000Y-151576000D01*
X254889000Y-183890792D02*
X250993925Y-187785867D01*
X209660000Y-188917000D02*
X224432102Y-188917000D01*
X225056410Y-188292692D02*
X231768692Y-188292692D01*
X252668000Y-151576000D02*
X254889000Y-153797000D01*
X250588000Y-151576000D02*
X250596400Y-151536400D01*
X254889000Y-153797000D02*
X254889000Y-183890792D01*
X224432102Y-188917000D02*
X225056410Y-188292692D01*
X250993925Y-194319075D02*
X250993925Y-187785867D01*
X205583098Y-184654586D02*
X209660000Y-188731488D01*
X231768692Y-188292692D02*
X239886000Y-196410000D01*
%TO.N,RAW*%
X260322400Y-100101400D02*
X265404600Y-100101400D01*
X265404600Y-100101400D02*
X265531600Y-100228400D01*
%TO.N,GND*%
X255661600Y-102867100D02*
X252732900Y-102867100D01*
X258858000Y-109709200D02*
X258858000Y-110947200D01*
X260161600Y-102867100D02*
X265432900Y-102867100D01*
X264928000Y-145694400D02*
X263406400Y-144172800D01*
X265531600Y-102768400D02*
X267981400Y-105218200D01*
X265432900Y-102867100D02*
X265531600Y-102768400D01*
X250291600Y-105308400D02*
X250291600Y-107848400D01*
X267981400Y-105218200D02*
X267981400Y-136409400D01*
X263406400Y-153464400D02*
X267208000Y-157266000D01*
X252732900Y-102867100D02*
X250291600Y-105308400D01*
X268274800Y-136702800D02*
X268274800Y-145694400D01*
X257860800Y-108712000D02*
X258858000Y-109709200D01*
X263406400Y-137972800D02*
X263406400Y-144172800D01*
X268274800Y-145694400D02*
X264928000Y-145694400D01*
X263406400Y-144172800D02*
X263406400Y-153464400D01*
X267981400Y-136409400D02*
X268274800Y-136702800D01*
%TO.N,RST*%
X267106400Y-106883200D02*
X267106400Y-137972800D01*
X267106400Y-137972800D02*
X267106400Y-144172800D01*
X265531600Y-105308400D02*
X267106400Y-106883200D01*
%TO.N,VCC*%
X265531600Y-107848400D02*
X262432800Y-110947200D01*
X262432800Y-110947200D02*
X262432800Y-112166400D01*
X260858000Y-113741200D02*
X257860800Y-113741200D01*
X262432800Y-112166400D02*
X260858000Y-113741200D01*
%TO.N,CS*%
X260858000Y-108915200D02*
X260858000Y-110947200D01*
X259740400Y-107797600D02*
X260858000Y-108915200D01*
X254812800Y-107797600D02*
X259740400Y-107797600D01*
%TO.N,SDA*%
X254299200Y-110388400D02*
X254858000Y-110947200D01*
X253949200Y-107035600D02*
X260705600Y-107035600D01*
X260705600Y-107035600D02*
X260756400Y-107035600D01*
X250291600Y-110388400D02*
X253034800Y-110388400D01*
X253034800Y-110388400D02*
X253034800Y-107950000D01*
X253034800Y-107950000D02*
X253949200Y-107035600D01*
X253034800Y-110388400D02*
X254299200Y-110388400D01*
%TO.N,SCL*%
X250291600Y-112928400D02*
X257397560Y-112928400D01*
X257860800Y-109944400D02*
X256858000Y-110947200D01*
X257860800Y-109931200D02*
X257860800Y-109944400D01*
X257860800Y-112465160D02*
X257860800Y-109931200D01*
X257397560Y-112928400D02*
X257860800Y-112465160D01*
%TO.N,JST*%
X257322400Y-100101400D02*
X257322400Y-102277900D01*
X257322400Y-102277900D02*
X257911600Y-102867100D01*
%TD*%
M02*
