M48
; DRILL file {KiCad 7.0.10} date Thu 08 Feb 2024 10:53:12 AM
; FORMAT={-:-/ absolute / inch / decimal}
; #@! TF.CreationDate,2024-02-08T10:53:12-05:00
; #@! TF.GenerationSoftware,Kicad,Pcbnew,7.0.10
; #@! TF.FileFunction,NonPlated,1,2,NPTH
FMAT,2
INCH
; #@! TA.AperFunction,NonPlated,NPTH,ComponentDrill
T1C0.0354
; #@! TA.AperFunction,NonPlated,NPTH,ComponentDrill
T2C0.0670
; #@! TA.AperFunction,NonPlated,NPTH,ComponentDrill
T3C0.1181
; #@! TA.AperFunction,NonPlated,NPTH,ComponentDrill
T4C0.1570
%
G90
G05
T1
X10.1013Y-3.8593
X10.2194Y-3.8593
T2
X5.3743Y-4.4266
X5.3743Y-5.1746
X5.3743Y-5.9227
X5.7743Y-4.4266
X5.7743Y-5.1746
X5.7743Y-5.9227
X6.1224Y-4.4266
X6.1224Y-5.1746
X6.1224Y-5.9227
X6.5224Y-4.4266
X6.5224Y-5.1746
X6.5224Y-5.9227
X6.8704Y-3.9581
X6.8704Y-4.7061
X6.8704Y-5.4542
X7.2704Y-3.9581
X7.2704Y-4.7061
X7.2704Y-5.4542
X7.6184Y-3.7707
X7.6184Y-4.5187
X7.6184Y-5.2668
X7.8436Y-7.0899
X8.0184Y-3.7707
X8.0184Y-4.5187
X8.0184Y-5.2668
X8.2421Y-7.1248
X8.3665Y-4.1723
X8.3665Y-4.9203
X8.3665Y-5.6683
X8.6449Y-7.1923
X8.7665Y-4.1723
X8.7665Y-4.9203
X8.7665Y-5.6683
X9.0313Y-7.2958
X9.1145Y-4.3396
X9.1145Y-5.0876
X9.1145Y-5.8357
X9.5145Y-4.3396
X9.5145Y-5.0876
X9.5145Y-5.8357
X9.6182Y-7.5532
X9.806Y-7.2
T3
X5.4243Y-4.3266
X5.4243Y-5.0746
X5.4243Y-5.8227
X5.4743Y-4.2266
X5.4743Y-4.9746
X5.4743Y-5.7227
X5.6743Y-4.2266
X5.6743Y-4.9746
X5.6743Y-5.7227
X5.7243Y-4.3266
X5.7243Y-5.0746
X5.7243Y-5.8227
X6.1724Y-4.3266
X6.1724Y-5.0746
X6.1724Y-5.8227
X6.2224Y-4.2266
X6.2224Y-4.9746
X6.2224Y-5.7227
X6.4224Y-4.2266
X6.4224Y-4.9746
X6.4224Y-5.7227
X6.4724Y-4.3266
X6.4724Y-5.0746
X6.4724Y-5.8227
X6.9204Y-3.8581
X6.9204Y-4.6061
X6.9204Y-5.3542
X6.9704Y-3.7581
X6.9704Y-4.5061
X6.9704Y-5.2542
X7.1704Y-3.7581
X7.1704Y-4.5061
X7.1704Y-5.2542
X7.2204Y-3.8581
X7.2204Y-4.6061
X7.2204Y-5.3542
X7.6684Y-3.6707
X7.6684Y-4.4187
X7.6684Y-5.1668
X7.7184Y-3.5707
X7.7184Y-4.3187
X7.7184Y-5.0668
X7.9021Y-6.9946
X7.9184Y-3.5707
X7.9184Y-4.3187
X7.9184Y-5.0668
X7.9606Y-6.8994
X7.9684Y-3.6707
X7.9684Y-4.4187
X7.9684Y-5.1668
X8.1599Y-6.9168
X8.201Y-7.0208
X8.4165Y-4.0723
X8.4165Y-4.8203
X8.4165Y-5.5683
X8.4665Y-3.9723
X8.4665Y-4.7203
X8.4665Y-5.4683
X8.6665Y-3.9723
X8.6665Y-4.7203
X8.6665Y-5.4683
X8.7165Y-4.0723
X8.7165Y-4.8203
X8.7165Y-5.5683
X8.7191Y-7.1087
X8.7933Y-7.025
X8.9865Y-7.0768
X9.0089Y-7.1863
X9.1645Y-4.2396
X9.1645Y-4.9876
X9.1645Y-5.7357
X9.2145Y-4.1396
X9.2145Y-4.8876
X9.2145Y-5.6357
X9.4145Y-4.1396
X9.4145Y-4.8876
X9.4145Y-5.6357
X9.4645Y-4.2396
X9.4645Y-4.9876
X9.4645Y-5.7357
X9.4886Y-7.371
X9.5534Y-7.4621
X9.5825Y-7.1944
X9.6942Y-7.1972
T4
X5.5743Y-4.4266
X5.5743Y-5.1746
X5.5743Y-5.9227
X6.3224Y-4.4266
X6.3224Y-5.1746
X6.3224Y-5.9227
X7.0704Y-3.9581
X7.0704Y-4.7061
X7.0704Y-5.4542
X7.8184Y-3.7707
X7.8184Y-4.5187
X7.8184Y-5.2668
X8.0428Y-7.1073
X8.5665Y-4.1723
X8.5665Y-4.9203
X8.5665Y-5.6683
X8.8381Y-7.2441
X9.3145Y-4.3396
X9.3145Y-5.0876
X9.3145Y-5.8357
X9.7121Y-7.3766
M30
