%TF.GenerationSoftware,KiCad,Pcbnew,7.0.10*%
%TF.CreationDate,2024-02-08T10:53:14-05:00*%
%TF.ProjectId,kestrel,6b657374-7265-46c2-9e6b-696361645f70,v1.0.0*%
%TF.SameCoordinates,Original*%
%TF.FileFunction,Legend,Bot*%
%TF.FilePolarity,Positive*%
%FSLAX46Y46*%
G04 Gerber Fmt 4.6, Leading zero omitted, Abs format (unit mm)*
G04 Created by KiCad (PCBNEW 7.0.10) date 2024-02-08 10:53:14*
%MOMM*%
%LPD*%
G01*
G04 APERTURE LIST*
%ADD10C,0.100000*%
%ADD11C,0.150000*%
%ADD12R,1.752600X1.752600*%
%ADD13C,1.752600*%
G04 APERTURE END LIST*
D10*
%TO.C,D13*%
X218338000Y-147976000D02*
X217938000Y-147976000D01*
X217938000Y-147976000D02*
X217938000Y-148526000D01*
X217938000Y-147976000D02*
X217938000Y-147426000D01*
X217938000Y-147976000D02*
X217338000Y-148376000D01*
X217338000Y-148376000D02*
X217338000Y-147576000D01*
X217338000Y-147976000D02*
X216838000Y-147976000D01*
X217338000Y-147576000D02*
X217938000Y-147976000D01*
%TO.C,D14*%
X218338000Y-128976000D02*
X217938000Y-128976000D01*
X217938000Y-128976000D02*
X217938000Y-129526000D01*
X217938000Y-128976000D02*
X217938000Y-128426000D01*
X217938000Y-128976000D02*
X217338000Y-129376000D01*
X217338000Y-129376000D02*
X217338000Y-128576000D01*
X217338000Y-128976000D02*
X216838000Y-128976000D01*
X217338000Y-128576000D02*
X217938000Y-128976000D01*
%TO.C,D19*%
X204686523Y-184576146D02*
X204288045Y-184541284D01*
X204288045Y-184541284D02*
X204240109Y-185089191D01*
X204288045Y-184541284D02*
X204335981Y-183993376D01*
X204288045Y-184541284D02*
X203655466Y-184887468D01*
X203655466Y-184887468D02*
X203725191Y-184090512D01*
X203690328Y-184488990D02*
X203192231Y-184445412D01*
X203725191Y-184090512D02*
X204288045Y-184541284D01*
%TO.C,D7*%
X180338000Y-142536000D02*
X179938000Y-142536000D01*
X179938000Y-142536000D02*
X179938000Y-143086000D01*
X179938000Y-142536000D02*
X179938000Y-141986000D01*
X179938000Y-142536000D02*
X179338000Y-142936000D01*
X179338000Y-142936000D02*
X179338000Y-142136000D01*
X179338000Y-142536000D02*
X178838000Y-142536000D01*
X179338000Y-142136000D02*
X179938000Y-142536000D01*
%TO.C,D18*%
X237338000Y-114226000D02*
X236938000Y-114226000D01*
X236938000Y-114226000D02*
X236938000Y-114776000D01*
X236938000Y-114226000D02*
X236938000Y-113676000D01*
X236938000Y-114226000D02*
X236338000Y-114626000D01*
X236338000Y-114626000D02*
X236338000Y-113826000D01*
X236338000Y-114226000D02*
X235838000Y-114226000D01*
X236338000Y-113826000D02*
X236938000Y-114226000D01*
%TO.C,D8*%
X180338000Y-123536000D02*
X179938000Y-123536000D01*
X179938000Y-123536000D02*
X179938000Y-124086000D01*
X179938000Y-123536000D02*
X179938000Y-122986000D01*
X179938000Y-123536000D02*
X179338000Y-123936000D01*
X179338000Y-123936000D02*
X179338000Y-123136000D01*
X179338000Y-123536000D02*
X178838000Y-123536000D01*
X179338000Y-123136000D02*
X179938000Y-123536000D01*
%TO.C,D17*%
X237338000Y-133226000D02*
X236938000Y-133226000D01*
X236938000Y-133226000D02*
X236938000Y-133776000D01*
X236938000Y-133226000D02*
X236938000Y-132676000D01*
X236938000Y-133226000D02*
X236338000Y-133626000D01*
X236338000Y-133626000D02*
X236338000Y-132826000D01*
X236338000Y-133226000D02*
X235838000Y-133226000D01*
X236338000Y-132826000D02*
X236938000Y-133226000D01*
%TO.C,D2*%
X142338000Y-135436000D02*
X141938000Y-135436000D01*
X141938000Y-135436000D02*
X141938000Y-135986000D01*
X141938000Y-135436000D02*
X141938000Y-134886000D01*
X141938000Y-135436000D02*
X141338000Y-135836000D01*
X141338000Y-135836000D02*
X141338000Y-135036000D01*
X141338000Y-135436000D02*
X140838000Y-135436000D01*
X141338000Y-135036000D02*
X141938000Y-135436000D01*
%TO.C,D4*%
X161338000Y-154436000D02*
X160938000Y-154436000D01*
X160938000Y-154436000D02*
X160938000Y-154986000D01*
X160938000Y-154436000D02*
X160938000Y-153886000D01*
X160938000Y-154436000D02*
X160338000Y-154836000D01*
X160338000Y-154836000D02*
X160338000Y-154036000D01*
X160338000Y-154436000D02*
X159838000Y-154436000D01*
X160338000Y-154036000D02*
X160938000Y-154436000D01*
%TO.C,D5*%
X161338000Y-135436000D02*
X160938000Y-135436000D01*
X160938000Y-135436000D02*
X160938000Y-135986000D01*
X160938000Y-135436000D02*
X160938000Y-134886000D01*
X160938000Y-135436000D02*
X160338000Y-135836000D01*
X160338000Y-135836000D02*
X160338000Y-135036000D01*
X160338000Y-135436000D02*
X159838000Y-135436000D01*
X160338000Y-135036000D02*
X160938000Y-135436000D01*
%TO.C,D3*%
X142338000Y-116436000D02*
X141938000Y-116436000D01*
X141938000Y-116436000D02*
X141938000Y-116986000D01*
X141938000Y-116436000D02*
X141938000Y-115886000D01*
X141938000Y-116436000D02*
X141338000Y-116836000D01*
X141338000Y-116836000D02*
X141338000Y-116036000D01*
X141338000Y-116436000D02*
X140838000Y-116436000D01*
X141338000Y-116036000D02*
X141938000Y-116436000D01*
%TO.C,D11*%
X199338000Y-118776000D02*
X198938000Y-118776000D01*
X198938000Y-118776000D02*
X198938000Y-119326000D01*
X198938000Y-118776000D02*
X198938000Y-118226000D01*
X198938000Y-118776000D02*
X198338000Y-119176000D01*
X198338000Y-119176000D02*
X198338000Y-118376000D01*
X198338000Y-118776000D02*
X197838000Y-118776000D01*
X198338000Y-118376000D02*
X198938000Y-118776000D01*
%TO.C,D10*%
X199338000Y-137776000D02*
X198938000Y-137776000D01*
X198938000Y-137776000D02*
X198938000Y-138326000D01*
X198938000Y-137776000D02*
X198938000Y-137226000D01*
X198938000Y-137776000D02*
X198338000Y-138176000D01*
X198338000Y-138176000D02*
X198338000Y-137376000D01*
X198338000Y-137776000D02*
X197838000Y-137776000D01*
X198338000Y-137376000D02*
X198938000Y-137776000D01*
%TO.C,D20*%
X224177417Y-188057166D02*
X223791047Y-187953639D01*
X223791047Y-187953639D02*
X223648697Y-188484898D01*
X223791047Y-187953639D02*
X223933398Y-187422379D01*
X223791047Y-187953639D02*
X223107964Y-188184718D01*
X223107964Y-188184718D02*
X223315019Y-187411977D01*
X223211492Y-187798347D02*
X222728529Y-187668938D01*
X223315019Y-187411977D02*
X223791047Y-187953639D01*
%TO.C,D1*%
X142338000Y-154436000D02*
X141938000Y-154436000D01*
X141938000Y-154436000D02*
X141938000Y-154986000D01*
X141938000Y-154436000D02*
X141938000Y-153886000D01*
X141938000Y-154436000D02*
X141338000Y-154836000D01*
X141338000Y-154836000D02*
X141338000Y-154036000D01*
X141338000Y-154436000D02*
X140838000Y-154436000D01*
X141338000Y-154036000D02*
X141938000Y-154436000D01*
%TO.C,D6*%
X161338000Y-116436000D02*
X160938000Y-116436000D01*
X160938000Y-116436000D02*
X160938000Y-116986000D01*
X160938000Y-116436000D02*
X160938000Y-115886000D01*
X160938000Y-116436000D02*
X160338000Y-116836000D01*
X160338000Y-116836000D02*
X160338000Y-116036000D01*
X160338000Y-116436000D02*
X159838000Y-116436000D01*
X160338000Y-116036000D02*
X160938000Y-116436000D01*
%TO.C,D15*%
X218338000Y-109976000D02*
X217938000Y-109976000D01*
X217938000Y-109976000D02*
X217938000Y-110526000D01*
X217938000Y-109976000D02*
X217938000Y-109426000D01*
X217938000Y-109976000D02*
X217338000Y-110376000D01*
X217338000Y-110376000D02*
X217338000Y-109576000D01*
X217338000Y-109976000D02*
X216838000Y-109976000D01*
X217338000Y-109576000D02*
X217938000Y-109976000D01*
%TO.C,D16*%
X237338000Y-152226000D02*
X236938000Y-152226000D01*
X236938000Y-152226000D02*
X236938000Y-152776000D01*
X236938000Y-152226000D02*
X236938000Y-151676000D01*
X236938000Y-152226000D02*
X236338000Y-152626000D01*
X236338000Y-152626000D02*
X236338000Y-151826000D01*
X236338000Y-152226000D02*
X235838000Y-152226000D01*
X236338000Y-151826000D02*
X236938000Y-152226000D01*
%TO.C,D12*%
X199338000Y-99776000D02*
X198938000Y-99776000D01*
X198938000Y-99776000D02*
X198938000Y-100326000D01*
X198938000Y-99776000D02*
X198938000Y-99226000D01*
X198938000Y-99776000D02*
X198338000Y-100176000D01*
X198338000Y-100176000D02*
X198338000Y-99376000D01*
X198338000Y-99776000D02*
X197838000Y-99776000D01*
X198338000Y-99376000D02*
X198938000Y-99776000D01*
%TO.C,D21*%
X250571401Y-188580520D02*
X250383612Y-188933699D01*
X250383612Y-188933699D02*
X250869233Y-189191909D01*
X250383612Y-188933699D02*
X249897991Y-188675490D01*
X250383612Y-188933699D02*
X250455108Y-189651257D01*
X250455108Y-189651257D02*
X249748750Y-189275679D01*
X250101929Y-189463468D02*
X249867193Y-189904942D01*
X249748750Y-189275679D02*
X250383612Y-188933699D01*
D11*
%TO.C,JST REV1*%
X257661600Y-104617100D02*
X258161600Y-104617100D01*
X257911600Y-104367100D02*
X257911600Y-104867100D01*
D10*
%TO.C,D9*%
X180338000Y-104536000D02*
X179938000Y-104536000D01*
X179938000Y-104536000D02*
X179938000Y-105086000D01*
X179938000Y-104536000D02*
X179938000Y-103986000D01*
X179938000Y-104536000D02*
X179338000Y-104936000D01*
X179338000Y-104936000D02*
X179338000Y-104136000D01*
X179338000Y-104536000D02*
X178838000Y-104536000D01*
X179338000Y-104136000D02*
X179938000Y-104536000D01*
%TO.C,D22*%
X250588000Y-152476000D02*
X250588000Y-152876000D01*
X250588000Y-152876000D02*
X251138000Y-152876000D01*
X250588000Y-152876000D02*
X250038000Y-152876000D01*
X250588000Y-152876000D02*
X250988000Y-153476000D01*
X250988000Y-153476000D02*
X250188000Y-153476000D01*
X250588000Y-153476000D02*
X250588000Y-153976000D01*
X250188000Y-153476000D02*
X250588000Y-152876000D01*
%TD*%
D12*
%TO.C,MCU1*%
X265531600Y-100228400D03*
D13*
X265531600Y-102768400D03*
X265531600Y-105308400D03*
X265531600Y-107848400D03*
X265531600Y-110388400D03*
X265531600Y-112928400D03*
X265531600Y-115468400D03*
X265531600Y-118008400D03*
X265531600Y-120548400D03*
X265531600Y-123088400D03*
X265531600Y-125628400D03*
X265531600Y-128168400D03*
X250291600Y-100228400D03*
X250291600Y-102768400D03*
X250291600Y-105308400D03*
X250291600Y-107848400D03*
X250291600Y-110388400D03*
X250291600Y-112928400D03*
X250291600Y-115468400D03*
X250291600Y-118008400D03*
X250291600Y-120548400D03*
X250291600Y-123088400D03*
X250291600Y-125628400D03*
X250291600Y-128168400D03*
%TD*%
M02*
