%TF.GenerationSoftware,KiCad,Pcbnew,7.0.10*%
%TF.CreationDate,2024-02-08T10:53:14-05:00*%
%TF.ProjectId,kestrel,6b657374-7265-46c2-9e6b-696361645f70,v1.0.0*%
%TF.SameCoordinates,Original*%
%TF.FileFunction,Paste,Top*%
%TF.FilePolarity,Positive*%
%FSLAX46Y46*%
G04 Gerber Fmt 4.6, Leading zero omitted, Abs format (unit mm)*
G04 Created by KiCad (PCBNEW 7.0.10) date 2024-02-08 10:53:14*
%MOMM*%
%LPD*%
G01*
G04 APERTURE LIST*
G04 Aperture macros list*
%AMRotRect*
0 Rectangle, with rotation*
0 The origin of the aperture is its center*
0 $1 length*
0 $2 width*
0 $3 Rotation angle, in degrees counterclockwise*
0 Add horizontal line*
21,1,$1,$2,0,0,$3*%
G04 Aperture macros list end*
%ADD10R,0.900000X0.900000*%
%ADD11R,0.900000X1.250000*%
%ADD12R,1.100000X1.800000*%
%ADD13R,0.900000X1.200000*%
%ADD14R,2.550000X2.500000*%
%ADD15R,1.143000X0.635000*%
%ADD16RotRect,0.900000X1.200000X175.000000*%
%ADD17RotRect,0.900000X1.200000X165.000000*%
%ADD18RotRect,2.550000X2.500000X355.000000*%
%ADD19RotRect,2.550000X2.500000X345.000000*%
%ADD20RotRect,2.550000X2.500000X62.000000*%
%ADD21RotRect,0.900000X1.200000X242.000000*%
%ADD22R,1.200000X0.900000*%
G04 APERTURE END LIST*
D10*
%TO.C,T1*%
X254372400Y-96926400D03*
X254372400Y-99126400D03*
X261772400Y-96926400D03*
X261772400Y-99126400D03*
D11*
X260322400Y-100101400D03*
X257322400Y-100101400D03*
X255822400Y-100101400D03*
%TD*%
D12*
%TO.C,B1*%
X267106400Y-137972800D03*
X267106400Y-144172800D03*
X263406400Y-137972800D03*
X263406400Y-144172800D03*
%TD*%
D13*
%TO.C,D13*%
X219238000Y-147976000D03*
X215938000Y-147976000D03*
%TD*%
D14*
%TO.C,S8*%
X186673000Y-116996000D03*
X173746000Y-114456000D03*
%TD*%
%TO.C,S11*%
X205673000Y-112236000D03*
X192746000Y-109696000D03*
%TD*%
D13*
%TO.C,D14*%
X219238000Y-128976000D03*
X215938000Y-128976000D03*
%TD*%
D15*
%TO.C,J3*%
X258858000Y-110947200D03*
X258858000Y-111947960D03*
%TD*%
D14*
%TO.C,S15*%
X224673000Y-103436000D03*
X211746000Y-100896000D03*
%TD*%
%TO.C,S14*%
X224673000Y-122436000D03*
X211746000Y-119896000D03*
%TD*%
D16*
%TO.C,D19*%
X205583098Y-184654586D03*
X202295656Y-184366972D03*
%TD*%
D13*
%TO.C,D7*%
X181238000Y-142536000D03*
X177938000Y-142536000D03*
%TD*%
D15*
%TO.C,J7*%
X254858000Y-110947200D03*
X254858000Y-111947960D03*
%TD*%
D14*
%TO.C,S7*%
X186673000Y-135996000D03*
X173746000Y-133456000D03*
%TD*%
D13*
%TO.C,D18*%
X238238000Y-114226000D03*
X234938000Y-114226000D03*
%TD*%
D14*
%TO.C,S16*%
X243673000Y-145686000D03*
X230746000Y-143146000D03*
%TD*%
D13*
%TO.C,D8*%
X181238000Y-123536000D03*
X177938000Y-123536000D03*
%TD*%
%TO.C,D17*%
X238238000Y-133226000D03*
X234938000Y-133226000D03*
%TD*%
D14*
%TO.C,S13*%
X224673000Y-141436000D03*
X211746000Y-138896000D03*
%TD*%
%TO.C,S1*%
X148673000Y-147896000D03*
X135746000Y-145356000D03*
%TD*%
D13*
%TO.C,D2*%
X143238000Y-135436000D03*
X139938000Y-135436000D03*
%TD*%
D15*
%TO.C,J5*%
X256858000Y-110947200D03*
X256858000Y-111947960D03*
%TD*%
D13*
%TO.C,D4*%
X162238000Y-154436000D03*
X158938000Y-154436000D03*
%TD*%
%TO.C,D5*%
X162238000Y-135436000D03*
X158938000Y-135436000D03*
%TD*%
%TO.C,D3*%
X143238000Y-116436000D03*
X139938000Y-116436000D03*
%TD*%
%TO.C,D11*%
X200238000Y-118776000D03*
X196938000Y-118776000D03*
%TD*%
%TO.C,D10*%
X200238000Y-137776000D03*
X196938000Y-137776000D03*
%TD*%
D17*
%TO.C,D20*%
X225046751Y-188290103D03*
X221859195Y-187436001D03*
%TD*%
D14*
%TO.C,S5*%
X167673000Y-128896000D03*
X154746000Y-126356000D03*
%TD*%
D18*
%TO.C,S19*%
X211567415Y-178613164D03*
X198910982Y-174956167D03*
%TD*%
D14*
%TO.C,S4*%
X167673000Y-147896000D03*
X154746000Y-145356000D03*
%TD*%
%TO.C,S12*%
X205673000Y-93236000D03*
X192746000Y-90696000D03*
%TD*%
D13*
%TO.C,D1*%
X143238000Y-154436000D03*
X139938000Y-154436000D03*
%TD*%
%TO.C,D6*%
X162238000Y-116436000D03*
X158938000Y-116436000D03*
%TD*%
D14*
%TO.C,S17*%
X243673000Y-126686000D03*
X230746000Y-124146000D03*
%TD*%
%TO.C,S9*%
X186673000Y-97996000D03*
X173746000Y-95456000D03*
%TD*%
%TO.C,S2*%
X148673000Y-128896000D03*
X135746000Y-126356000D03*
%TD*%
D13*
%TO.C,D15*%
X219238000Y-109976000D03*
X215938000Y-109976000D03*
%TD*%
D19*
%TO.C,S20*%
X231989234Y-183379630D03*
X220160111Y-177580425D03*
%TD*%
D15*
%TO.C,J1*%
X260858000Y-110947200D03*
X260858000Y-111947960D03*
%TD*%
D20*
%TO.C,S21*%
X247771025Y-179916704D03*
X239459479Y-190138109D03*
%TD*%
D13*
%TO.C,D16*%
X238238000Y-152226000D03*
X234938000Y-152226000D03*
%TD*%
D14*
%TO.C,S3*%
X148673000Y-109896000D03*
X135746000Y-107356000D03*
%TD*%
D13*
%TO.C,D12*%
X200238000Y-99776000D03*
X196938000Y-99776000D03*
%TD*%
D14*
%TO.C,S6*%
X167673000Y-109896000D03*
X154746000Y-107356000D03*
%TD*%
D21*
%TO.C,D21*%
X250993925Y-187785867D03*
X249444669Y-190699595D03*
%TD*%
D14*
%TO.C,S10*%
X205673000Y-131236000D03*
X192746000Y-128696000D03*
%TD*%
D13*
%TO.C,D9*%
X181238000Y-104536000D03*
X177938000Y-104536000D03*
%TD*%
D14*
%TO.C,S18*%
X243673000Y-107686000D03*
X230746000Y-105146000D03*
%TD*%
D22*
%TO.C,D22*%
X250588000Y-151576000D03*
X250588000Y-154876000D03*
%TD*%
M02*
