%TF.GenerationSoftware,KiCad,Pcbnew,7.0.10*%
%TF.CreationDate,2024-02-08T10:53:14-05:00*%
%TF.ProjectId,kestrel,6b657374-7265-46c2-9e6b-696361645f70,v1.0.0*%
%TF.SameCoordinates,Original*%
%TF.FileFunction,Paste,Bot*%
%TF.FilePolarity,Positive*%
%FSLAX46Y46*%
G04 Gerber Fmt 4.6, Leading zero omitted, Abs format (unit mm)*
G04 Created by KiCad (PCBNEW 7.0.10) date 2024-02-08 10:53:14*
%MOMM*%
%LPD*%
G01*
G04 APERTURE LIST*
G04 Aperture macros list*
%AMRotRect*
0 Rectangle, with rotation*
0 The origin of the aperture is its center*
0 $1 length*
0 $2 width*
0 $3 Rotation angle, in degrees counterclockwise*
0 Add horizontal line*
21,1,$1,$2,0,0,$3*%
G04 Aperture macros list end*
%ADD10R,0.900000X1.200000*%
%ADD11R,2.550000X2.500000*%
%ADD12RotRect,0.900000X1.200000X175.000000*%
%ADD13R,1.143000X0.635000*%
%ADD14RotRect,0.900000X1.200000X165.000000*%
%ADD15RotRect,2.550000X2.500000X355.000000*%
%ADD16RotRect,2.550000X2.500000X345.000000*%
%ADD17RotRect,2.550000X2.500000X62.000000*%
%ADD18RotRect,0.900000X1.200000X242.000000*%
%ADD19R,1.200000X0.900000*%
G04 APERTURE END LIST*
D10*
%TO.C,D13*%
X219238000Y-147976000D03*
X215938000Y-147976000D03*
%TD*%
D11*
%TO.C,S8*%
X172503000Y-116996000D03*
X185430000Y-114456000D03*
%TD*%
%TO.C,S11*%
X191503000Y-112236000D03*
X204430000Y-109696000D03*
%TD*%
D10*
%TO.C,D14*%
X219238000Y-128976000D03*
X215938000Y-128976000D03*
%TD*%
D11*
%TO.C,S15*%
X210503000Y-103436000D03*
X223430000Y-100896000D03*
%TD*%
%TO.C,S14*%
X210503000Y-122436000D03*
X223430000Y-119896000D03*
%TD*%
D12*
%TO.C,D19*%
X205583098Y-184654586D03*
X202295656Y-184366972D03*
%TD*%
D10*
%TO.C,D7*%
X181238000Y-142536000D03*
X177938000Y-142536000D03*
%TD*%
D11*
%TO.C,S7*%
X172503000Y-135996000D03*
X185430000Y-133456000D03*
%TD*%
D10*
%TO.C,D18*%
X238238000Y-114226000D03*
X234938000Y-114226000D03*
%TD*%
D11*
%TO.C,S16*%
X229503000Y-145686000D03*
X242430000Y-143146000D03*
%TD*%
D10*
%TO.C,D8*%
X181238000Y-123536000D03*
X177938000Y-123536000D03*
%TD*%
%TO.C,D17*%
X238238000Y-133226000D03*
X234938000Y-133226000D03*
%TD*%
D11*
%TO.C,S13*%
X210503000Y-141436000D03*
X223430000Y-138896000D03*
%TD*%
%TO.C,S1*%
X134503000Y-147896000D03*
X147430000Y-145356000D03*
%TD*%
D10*
%TO.C,D2*%
X143238000Y-135436000D03*
X139938000Y-135436000D03*
%TD*%
%TO.C,D4*%
X162238000Y-154436000D03*
X158938000Y-154436000D03*
%TD*%
%TO.C,D5*%
X162238000Y-135436000D03*
X158938000Y-135436000D03*
%TD*%
%TO.C,D3*%
X143238000Y-116436000D03*
X139938000Y-116436000D03*
%TD*%
%TO.C,D11*%
X200238000Y-118776000D03*
X196938000Y-118776000D03*
%TD*%
D13*
%TO.C,J4*%
X258858000Y-110947200D03*
X258858000Y-111947960D03*
%TD*%
D10*
%TO.C,D10*%
X200238000Y-137776000D03*
X196938000Y-137776000D03*
%TD*%
D14*
%TO.C,D20*%
X225046751Y-188290103D03*
X221859195Y-187436001D03*
%TD*%
D11*
%TO.C,S5*%
X153503000Y-128896000D03*
X166430000Y-126356000D03*
%TD*%
D15*
%TO.C,S19*%
X197451336Y-177378167D03*
X210550521Y-175974495D03*
%TD*%
D11*
%TO.C,S4*%
X153503000Y-147896000D03*
X166430000Y-145356000D03*
%TD*%
%TO.C,S12*%
X191503000Y-93236000D03*
X204430000Y-90696000D03*
%TD*%
D10*
%TO.C,D1*%
X143238000Y-154436000D03*
X139938000Y-154436000D03*
%TD*%
%TO.C,D6*%
X162238000Y-116436000D03*
X158938000Y-116436000D03*
%TD*%
D11*
%TO.C,S17*%
X229503000Y-126686000D03*
X242430000Y-124146000D03*
%TD*%
%TO.C,S9*%
X172503000Y-97996000D03*
X185430000Y-95456000D03*
%TD*%
D13*
%TO.C,J6*%
X256858000Y-110947200D03*
X256858000Y-111947960D03*
%TD*%
D11*
%TO.C,S2*%
X134503000Y-128896000D03*
X147430000Y-126356000D03*
%TD*%
D10*
%TO.C,D15*%
X219238000Y-109976000D03*
X215938000Y-109976000D03*
%TD*%
D16*
%TO.C,S20*%
X218302065Y-179712164D03*
X231445988Y-180604467D03*
%TD*%
D17*
%TO.C,S21*%
X241118613Y-192428071D03*
X244944785Y-179821750D03*
%TD*%
D10*
%TO.C,D16*%
X238238000Y-152226000D03*
X234938000Y-152226000D03*
%TD*%
D11*
%TO.C,S3*%
X134503000Y-109896000D03*
X147430000Y-107356000D03*
%TD*%
D10*
%TO.C,D12*%
X200238000Y-99776000D03*
X196938000Y-99776000D03*
%TD*%
D11*
%TO.C,S6*%
X153503000Y-109896000D03*
X166430000Y-107356000D03*
%TD*%
D18*
%TO.C,D21*%
X250993925Y-187785867D03*
X249444669Y-190699595D03*
%TD*%
D13*
%TO.C,J2*%
X260858000Y-110947200D03*
X260858000Y-111947960D03*
%TD*%
%TO.C,J8*%
X254858000Y-110947200D03*
X254858000Y-111947960D03*
%TD*%
D11*
%TO.C,S10*%
X191503000Y-131236000D03*
X204430000Y-128696000D03*
%TD*%
D10*
%TO.C,D9*%
X181238000Y-104536000D03*
X177938000Y-104536000D03*
%TD*%
D11*
%TO.C,S18*%
X229503000Y-107686000D03*
X242430000Y-105146000D03*
%TD*%
D19*
%TO.C,D22*%
X250588000Y-151576000D03*
X250588000Y-154876000D03*
%TD*%
M02*
