%TF.GenerationSoftware,KiCad,Pcbnew,7.0.1-3b83917a11~171~ubuntu22.04.1*%
%TF.CreationDate,2023-03-24T21:35:45-04:00*%
%TF.ProjectId,whisper_plate,77686973-7065-4725-9f70-6c6174652e6b,v1.0.0*%
%TF.SameCoordinates,Original*%
%TF.FileFunction,Legend,Bot*%
%TF.FilePolarity,Positive*%
%FSLAX46Y46*%
G04 Gerber Fmt 4.6, Leading zero omitted, Abs format (unit mm)*
G04 Created by KiCad (PCBNEW 7.0.1-3b83917a11~171~ubuntu22.04.1) date 2023-03-24 21:35:45*
%MOMM*%
%LPD*%
G01*
G04 APERTURE LIST*
G04 APERTURE END LIST*
%TO.C,G\u002A\u002A\u002A*%
G36*
X242617400Y-98273315D02*
G01*
X242804607Y-98447922D01*
X242905927Y-98695274D01*
X242903426Y-98968194D01*
X242779167Y-99219502D01*
X242754518Y-99236866D01*
X242586292Y-99320492D01*
X242265529Y-99463788D01*
X241795805Y-99665290D01*
X241180696Y-99923536D01*
X240423777Y-100237060D01*
X239528623Y-100604398D01*
X238498810Y-101024087D01*
X237337914Y-101494662D01*
X236049509Y-102014660D01*
X234637172Y-102582615D01*
X233104477Y-103197065D01*
X231455000Y-103856545D01*
X230337187Y-104302928D01*
X229060999Y-104812605D01*
X227835897Y-105301932D01*
X226670728Y-105767374D01*
X225574341Y-106205394D01*
X224555583Y-106612455D01*
X223623304Y-106985021D01*
X222786351Y-107319556D01*
X222053572Y-107612523D01*
X221433816Y-107860387D01*
X220935930Y-108059610D01*
X220568763Y-108206656D01*
X220341163Y-108297990D01*
X220261978Y-108330074D01*
X220260705Y-108333470D01*
X220228276Y-108445804D01*
X220154412Y-108709961D01*
X220041761Y-109116300D01*
X219892970Y-109655181D01*
X219710688Y-110316964D01*
X219497563Y-111092009D01*
X219256241Y-111970677D01*
X218989372Y-112943327D01*
X218699603Y-114000319D01*
X218389582Y-115132014D01*
X218061956Y-116328771D01*
X217719374Y-117580950D01*
X217364483Y-118878912D01*
X217300030Y-119114675D01*
X216946114Y-120407977D01*
X216604191Y-121655314D01*
X216276973Y-122846900D01*
X215967170Y-123972953D01*
X215677492Y-125023687D01*
X215410651Y-125989318D01*
X215169356Y-126860063D01*
X214956319Y-127626138D01*
X214774249Y-128277757D01*
X214625858Y-128805137D01*
X214513857Y-129198493D01*
X214440954Y-129448042D01*
X214409862Y-129544000D01*
X214314794Y-129649700D01*
X214132357Y-129774980D01*
X214086800Y-129795481D01*
X213813139Y-129825820D01*
X213551998Y-129730421D01*
X213354206Y-129538519D01*
X213270591Y-129279346D01*
X213278910Y-129231615D01*
X213326896Y-129030115D01*
X213414740Y-128684588D01*
X213539231Y-128206797D01*
X213697159Y-127608508D01*
X213885314Y-126901483D01*
X214100485Y-126097488D01*
X214339462Y-125208287D01*
X214599034Y-124245643D01*
X214875990Y-123221321D01*
X215167120Y-122147085D01*
X215469214Y-121034699D01*
X215779060Y-119895927D01*
X216093449Y-118742535D01*
X216409171Y-117586285D01*
X216723013Y-116438942D01*
X217031767Y-115312270D01*
X217332221Y-114218034D01*
X217621165Y-113167997D01*
X217895388Y-112173924D01*
X218151680Y-111247579D01*
X218386831Y-110400725D01*
X218597630Y-109645129D01*
X218780866Y-108992552D01*
X218933329Y-108454760D01*
X219051808Y-108043518D01*
X219133093Y-107770588D01*
X219173974Y-107647735D01*
X219174862Y-107645765D01*
X219196141Y-107607731D01*
X219230600Y-107567253D01*
X219285822Y-107521154D01*
X219369390Y-107466260D01*
X219488890Y-107399394D01*
X219651902Y-107317382D01*
X219866012Y-107217047D01*
X220138803Y-107095215D01*
X220477858Y-106948709D01*
X220890760Y-106774355D01*
X221385094Y-106568977D01*
X221968442Y-106329399D01*
X222648389Y-106052446D01*
X223432517Y-105734943D01*
X224328410Y-105373713D01*
X225343651Y-104965582D01*
X226485825Y-104507374D01*
X227762514Y-103995913D01*
X229181302Y-103428025D01*
X230749773Y-102800533D01*
X230756639Y-102797786D01*
X232088657Y-102265486D01*
X233379299Y-101750728D01*
X234619657Y-101257016D01*
X235800829Y-100787853D01*
X236913908Y-100346745D01*
X237949990Y-99937193D01*
X238900170Y-99562703D01*
X239755544Y-99226778D01*
X240507205Y-98932921D01*
X241146250Y-98684636D01*
X241663774Y-98485428D01*
X242050871Y-98338800D01*
X242298637Y-98248255D01*
X242398167Y-98217297D01*
X242617400Y-98273315D01*
G37*
G36*
X178617088Y-98333057D02*
G01*
X178865173Y-98423728D01*
X179252566Y-98570475D01*
X179770361Y-98769791D01*
X180409649Y-99018172D01*
X181161524Y-99312115D01*
X182017081Y-99648115D01*
X182967411Y-100022666D01*
X184003608Y-100432266D01*
X185116765Y-100873408D01*
X186297976Y-101342589D01*
X187538334Y-101836304D01*
X188828931Y-102351049D01*
X190160862Y-102883319D01*
X191143101Y-103276415D01*
X192782850Y-103933641D01*
X194270840Y-104531443D01*
X195610847Y-105071372D01*
X196806643Y-105554980D01*
X197862003Y-105983820D01*
X198780701Y-106359442D01*
X199566509Y-106683399D01*
X200223202Y-106957243D01*
X200754553Y-107182524D01*
X201164337Y-107360796D01*
X201456326Y-107493609D01*
X201634295Y-107582515D01*
X201702017Y-107629067D01*
X201707752Y-107643832D01*
X201754167Y-107794341D01*
X201841624Y-108095383D01*
X201967421Y-108537243D01*
X202128859Y-109110201D01*
X202323238Y-109804541D01*
X202547856Y-110610545D01*
X202800016Y-111518495D01*
X203077015Y-112518674D01*
X203376154Y-113601363D01*
X203694733Y-114756846D01*
X204030051Y-115975404D01*
X204379409Y-117247321D01*
X204740107Y-118562878D01*
X204848327Y-118957896D01*
X205267201Y-120486361D01*
X205644023Y-121861655D01*
X205980649Y-123092024D01*
X206278935Y-124185713D01*
X206540737Y-125150969D01*
X206767913Y-125996038D01*
X206962318Y-126729167D01*
X207125809Y-127358602D01*
X207260242Y-127892589D01*
X207367474Y-128339375D01*
X207449361Y-128707206D01*
X207507759Y-129004328D01*
X207544526Y-129238987D01*
X207561516Y-129419430D01*
X207560587Y-129553904D01*
X207543596Y-129650653D01*
X207512397Y-129717926D01*
X207468849Y-129763967D01*
X207414807Y-129797024D01*
X207352128Y-129825343D01*
X207282667Y-129857169D01*
X207154094Y-129905717D01*
X206862799Y-129897600D01*
X206593467Y-129725652D01*
X206584305Y-129709941D01*
X206528087Y-129555950D01*
X206430371Y-129246787D01*
X206292939Y-128788749D01*
X206117570Y-128188132D01*
X205906045Y-127451233D01*
X205660145Y-126584349D01*
X205381649Y-125593777D01*
X205072338Y-124485813D01*
X204733993Y-123266754D01*
X204368393Y-121942897D01*
X203977320Y-120520538D01*
X203562553Y-119005975D01*
X203482446Y-118712928D01*
X203129341Y-117421680D01*
X202789128Y-116178337D01*
X202464449Y-114992519D01*
X202157947Y-113873847D01*
X201872265Y-112831942D01*
X201610045Y-111876425D01*
X201373929Y-111016917D01*
X201166561Y-110263038D01*
X200990583Y-109624408D01*
X200848637Y-109110649D01*
X200743366Y-108731382D01*
X200677413Y-108496227D01*
X200653420Y-108414804D01*
X200595835Y-108391410D01*
X200389982Y-108308754D01*
X200043232Y-108169853D01*
X199564432Y-107978244D01*
X198962431Y-107737463D01*
X198246077Y-107451047D01*
X197424219Y-107122531D01*
X196505705Y-106755453D01*
X195499382Y-106353349D01*
X194414099Y-105919755D01*
X193258705Y-105458208D01*
X192042047Y-104972244D01*
X190772974Y-104465400D01*
X189460334Y-103941211D01*
X188729812Y-103649346D01*
X187130617Y-103009244D01*
X185649757Y-102414808D01*
X184290807Y-101867502D01*
X183057343Y-101368790D01*
X181952940Y-100920136D01*
X180981173Y-100523004D01*
X180145619Y-100178859D01*
X179449852Y-99889164D01*
X178897448Y-99655383D01*
X178491982Y-99478981D01*
X178237030Y-99361422D01*
X178136167Y-99304169D01*
X178020669Y-99087319D01*
X178003543Y-98814533D01*
X178092541Y-98561260D01*
X178269728Y-98374677D01*
X178517167Y-98301964D01*
X178517217Y-98301964D01*
X178617088Y-98333057D01*
G37*
G36*
X240702846Y-109865162D02*
G01*
X240753966Y-109886480D01*
X240957626Y-110068619D01*
X241051610Y-110337148D01*
X241015819Y-110642167D01*
X241010027Y-110657939D01*
X240868127Y-110852221D01*
X240597308Y-110987326D01*
X240591496Y-110989141D01*
X240435378Y-111021999D01*
X240128225Y-111074508D01*
X239685562Y-111144389D01*
X239122915Y-111229363D01*
X238455811Y-111327152D01*
X237699775Y-111435478D01*
X236870333Y-111552062D01*
X235983010Y-111674626D01*
X235053334Y-111800892D01*
X234939288Y-111816236D01*
X234020778Y-111938723D01*
X233151008Y-112052826D01*
X232344853Y-112156711D01*
X231617192Y-112248548D01*
X230982901Y-112326504D01*
X230456860Y-112388747D01*
X230053944Y-112433447D01*
X229789032Y-112458770D01*
X229677000Y-112462885D01*
X229516762Y-112401328D01*
X229304056Y-112206726D01*
X229196152Y-111944710D01*
X229208042Y-111664084D01*
X229354716Y-111413654D01*
X229360586Y-111408054D01*
X229414902Y-111371425D01*
X229504596Y-111334303D01*
X229641721Y-111294765D01*
X229838328Y-111250888D01*
X230106467Y-111200748D01*
X230458191Y-111142423D01*
X230905551Y-111073987D01*
X231460598Y-110993519D01*
X232135383Y-110899094D01*
X232941958Y-110788789D01*
X233892373Y-110660681D01*
X234998681Y-110512845D01*
X235953380Y-110386208D01*
X237000354Y-110249136D01*
X237896185Y-110134281D01*
X238650014Y-110040604D01*
X239270983Y-109967067D01*
X239768232Y-109912633D01*
X240150902Y-109876263D01*
X240428133Y-109856920D01*
X240609068Y-109853566D01*
X240702846Y-109865162D01*
G37*
G36*
X180659593Y-109952357D02*
G01*
X181009211Y-109982787D01*
X181471813Y-110031040D01*
X182056507Y-110098135D01*
X182772401Y-110185090D01*
X183628604Y-110292927D01*
X184634222Y-110422664D01*
X185798366Y-110575320D01*
X186025360Y-110605329D01*
X186954314Y-110729378D01*
X187833934Y-110848783D01*
X188649393Y-110961413D01*
X189385867Y-111065136D01*
X190028530Y-111157822D01*
X190562556Y-111237338D01*
X190973120Y-111301553D01*
X191245398Y-111348336D01*
X191364563Y-111375555D01*
X191534566Y-111498337D01*
X191686683Y-111701271D01*
X191707402Y-111750435D01*
X191731243Y-112035158D01*
X191611069Y-112300480D01*
X191365334Y-112500502D01*
X191192876Y-112562151D01*
X191026667Y-112571652D01*
X191022431Y-112570669D01*
X190897824Y-112550893D01*
X190621936Y-112511235D01*
X190209502Y-112453699D01*
X189675259Y-112380294D01*
X189033943Y-112293024D01*
X188300290Y-112193896D01*
X187489035Y-112084917D01*
X186614916Y-111968092D01*
X185692667Y-111845429D01*
X185601752Y-111833354D01*
X184677830Y-111709309D01*
X183799546Y-111589047D01*
X182982185Y-111474809D01*
X182241037Y-111368838D01*
X181591387Y-111273378D01*
X181048523Y-111190672D01*
X180627731Y-111122962D01*
X180344299Y-111072491D01*
X180213514Y-111041503D01*
X180185375Y-111028948D01*
X179971345Y-110850231D01*
X179866906Y-110603860D01*
X179872132Y-110338956D01*
X179987097Y-110104644D01*
X180211874Y-109950045D01*
X180262876Y-109940885D01*
X180413851Y-109938729D01*
X180659593Y-109952357D01*
G37*
G36*
X227187011Y-116760246D02*
G01*
X227343512Y-116783929D01*
X227637415Y-116836250D01*
X228045651Y-116912613D01*
X228545150Y-117008424D01*
X229112842Y-117119089D01*
X229725659Y-117240013D01*
X230360529Y-117366602D01*
X230994383Y-117494260D01*
X231604153Y-117618394D01*
X232166768Y-117734409D01*
X232659158Y-117837710D01*
X233058255Y-117923704D01*
X233340987Y-117987794D01*
X233523271Y-118060069D01*
X233739986Y-118258857D01*
X233851824Y-118519980D01*
X233843234Y-118797463D01*
X233698667Y-119045333D01*
X233538551Y-119156141D01*
X233328389Y-119214667D01*
X233327408Y-119214660D01*
X233197505Y-119197248D01*
X232922131Y-119148979D01*
X232521137Y-119073706D01*
X232014376Y-118975284D01*
X231421698Y-118857567D01*
X230762956Y-118724409D01*
X230058000Y-118579667D01*
X230013195Y-118570398D01*
X229319695Y-118427099D01*
X228681206Y-118295462D01*
X228116194Y-118179270D01*
X227643126Y-118082309D01*
X227280468Y-118008364D01*
X227046685Y-117961222D01*
X226960244Y-117944667D01*
X226859676Y-117883239D01*
X226734622Y-117721916D01*
X226630310Y-117523722D01*
X226586667Y-117352000D01*
X226590520Y-117291365D01*
X226695457Y-117029811D01*
X226906369Y-116835457D01*
X227172793Y-116759333D01*
X227187011Y-116760246D01*
G37*
G36*
X193802507Y-116847896D02*
G01*
X194061174Y-116954003D01*
X194253383Y-117167270D01*
X194328667Y-117436667D01*
X194325109Y-117500530D01*
X194213509Y-117768505D01*
X193951740Y-117973632D01*
X193548345Y-118108557D01*
X193495990Y-118119406D01*
X193247564Y-118171155D01*
X192867048Y-118250634D01*
X192379171Y-118352669D01*
X191808662Y-118472087D01*
X191180251Y-118603714D01*
X190518667Y-118742377D01*
X190246964Y-118799068D01*
X189610724Y-118929654D01*
X189026240Y-119046673D01*
X188516277Y-119145747D01*
X188103600Y-119222504D01*
X187810975Y-119272566D01*
X187661167Y-119291560D01*
X187440235Y-119262598D01*
X187217533Y-119126164D01*
X187089168Y-118913208D01*
X187057902Y-118662545D01*
X187126501Y-118412989D01*
X187297727Y-118203356D01*
X187574347Y-118072460D01*
X187628358Y-118059785D01*
X187940140Y-117990205D01*
X188362933Y-117899787D01*
X188873669Y-117793127D01*
X189449278Y-117674820D01*
X190066690Y-117549459D01*
X190702836Y-117421639D01*
X191334645Y-117295955D01*
X191939048Y-117177002D01*
X192492976Y-117069373D01*
X192973359Y-116977664D01*
X193357127Y-116906469D01*
X193621211Y-116860383D01*
X193742542Y-116844000D01*
X193802507Y-116847896D01*
G37*
G36*
X198326065Y-121540705D02*
G01*
X198546378Y-121698280D01*
X198685996Y-121931629D01*
X198719835Y-122193501D01*
X198622808Y-122436645D01*
X198616512Y-122443766D01*
X198499155Y-122541515D01*
X198271837Y-122711183D01*
X197961835Y-122933981D01*
X197596428Y-123191121D01*
X197202892Y-123463814D01*
X196808505Y-123733273D01*
X196440545Y-123980708D01*
X196126290Y-124187332D01*
X195893015Y-124334356D01*
X195768000Y-124402992D01*
X195666248Y-124437171D01*
X195506717Y-124445959D01*
X195317934Y-124366658D01*
X195155760Y-124262315D01*
X195038867Y-124090234D01*
X195007297Y-123822592D01*
X195012586Y-123713909D01*
X195041525Y-123608650D01*
X195110892Y-123498800D01*
X195237416Y-123369447D01*
X195437828Y-123205681D01*
X195728858Y-122992591D01*
X196127235Y-122715266D01*
X196649691Y-122358795D01*
X196861273Y-122216447D01*
X197323319Y-121917444D01*
X197698925Y-121692190D01*
X197971862Y-121550120D01*
X198125901Y-121500667D01*
X198326065Y-121540705D01*
G37*
G36*
X222793073Y-121416961D02*
G01*
X222981402Y-121483183D01*
X223294166Y-121650747D01*
X223724526Y-121915711D01*
X224265643Y-122274128D01*
X224762666Y-122613134D01*
X225167452Y-122894437D01*
X225463967Y-123110682D01*
X225668942Y-123276780D01*
X225799106Y-123407642D01*
X225871189Y-123518180D01*
X225901923Y-123623304D01*
X225908037Y-123737925D01*
X225894171Y-123931961D01*
X225809176Y-124128292D01*
X225613000Y-124280208D01*
X225467712Y-124329905D01*
X225237216Y-124330856D01*
X225232511Y-124329633D01*
X225092700Y-124262191D01*
X224844689Y-124116101D01*
X224516203Y-123909997D01*
X224134968Y-123662510D01*
X223728712Y-123392273D01*
X223325160Y-123117919D01*
X222952040Y-122858079D01*
X222637076Y-122631388D01*
X222407996Y-122456476D01*
X222292527Y-122351978D01*
X222209138Y-122180780D01*
X222209586Y-121919030D01*
X222321251Y-121671942D01*
X222518966Y-121488079D01*
X222777568Y-121416000D01*
X222793073Y-121416961D01*
G37*
%TD*%
M02*
