%TF.GenerationSoftware,KiCad,Pcbnew,7.0.1-3b83917a11~171~ubuntu22.04.1*%
%TF.CreationDate,2023-03-24T21:35:45-04:00*%
%TF.ProjectId,whisper_plate,77686973-7065-4725-9f70-6c6174652e6b,v1.0.0*%
%TF.SameCoordinates,Original*%
%TF.FileFunction,Legend,Top*%
%TF.FilePolarity,Positive*%
%FSLAX46Y46*%
G04 Gerber Fmt 4.6, Leading zero omitted, Abs format (unit mm)*
G04 Created by KiCad (PCBNEW 7.0.1-3b83917a11~171~ubuntu22.04.1) date 2023-03-24 21:35:45*
%MOMM*%
%LPD*%
G01*
G04 APERTURE LIST*
G04 APERTURE END LIST*
%TO.C,G\u002A\u002A\u002A*%
G36*
X198381034Y-121488079D02*
G01*
X198578749Y-121671942D01*
X198690414Y-121919030D01*
X198690862Y-122180780D01*
X198607473Y-122351978D01*
X198492004Y-122456476D01*
X198262924Y-122631388D01*
X197947960Y-122858079D01*
X197574840Y-123117919D01*
X197171288Y-123392273D01*
X196765032Y-123662510D01*
X196383797Y-123909997D01*
X196055311Y-124116101D01*
X195807300Y-124262191D01*
X195667489Y-124329633D01*
X195662784Y-124330856D01*
X195432288Y-124329905D01*
X195287000Y-124280208D01*
X195090824Y-124128292D01*
X195005829Y-123931961D01*
X194991963Y-123737925D01*
X194998077Y-123623304D01*
X195028811Y-123518180D01*
X195100894Y-123407642D01*
X195231058Y-123276780D01*
X195436033Y-123110682D01*
X195732548Y-122894437D01*
X196137334Y-122613134D01*
X196634357Y-122274128D01*
X197175474Y-121915711D01*
X197605834Y-121650747D01*
X197918598Y-121483183D01*
X198106927Y-121416961D01*
X198122432Y-121416000D01*
X198381034Y-121488079D01*
G37*
G36*
X222928138Y-121550120D02*
G01*
X223201075Y-121692190D01*
X223576681Y-121917444D01*
X224038727Y-122216447D01*
X224250309Y-122358795D01*
X224772765Y-122715266D01*
X225171142Y-122992591D01*
X225462172Y-123205681D01*
X225662584Y-123369447D01*
X225789108Y-123498800D01*
X225858475Y-123608650D01*
X225887414Y-123713909D01*
X225892703Y-123822592D01*
X225861133Y-124090234D01*
X225744240Y-124262315D01*
X225582066Y-124366658D01*
X225393283Y-124445959D01*
X225233752Y-124437171D01*
X225132000Y-124402992D01*
X225006985Y-124334356D01*
X224773710Y-124187332D01*
X224459455Y-123980708D01*
X224091495Y-123733273D01*
X223697108Y-123463814D01*
X223303572Y-123191121D01*
X222938165Y-122933981D01*
X222628163Y-122711183D01*
X222400845Y-122541515D01*
X222283488Y-122443766D01*
X222277192Y-122436645D01*
X222180165Y-122193501D01*
X222214004Y-121931629D01*
X222353622Y-121698280D01*
X222573935Y-121540705D01*
X222774099Y-121500667D01*
X222928138Y-121550120D01*
G37*
G36*
X227278789Y-116860383D02*
G01*
X227542873Y-116906469D01*
X227926641Y-116977664D01*
X228407024Y-117069373D01*
X228960952Y-117177002D01*
X229565355Y-117295955D01*
X230197164Y-117421639D01*
X230833310Y-117549459D01*
X231450722Y-117674820D01*
X232026331Y-117793127D01*
X232537067Y-117899787D01*
X232959860Y-117990205D01*
X233271642Y-118059785D01*
X233325653Y-118072460D01*
X233602273Y-118203356D01*
X233773499Y-118412989D01*
X233842098Y-118662545D01*
X233810832Y-118913208D01*
X233682467Y-119126164D01*
X233459765Y-119262598D01*
X233238833Y-119291560D01*
X233089025Y-119272566D01*
X232796400Y-119222504D01*
X232383723Y-119145747D01*
X231873760Y-119046673D01*
X231289276Y-118929654D01*
X230653036Y-118799068D01*
X230381333Y-118742377D01*
X229719749Y-118603714D01*
X229091338Y-118472087D01*
X228520829Y-118352669D01*
X228032952Y-118250634D01*
X227652436Y-118171155D01*
X227404010Y-118119406D01*
X227351655Y-118108557D01*
X226948260Y-117973632D01*
X226686491Y-117768505D01*
X226574891Y-117500530D01*
X226571333Y-117436667D01*
X226646617Y-117167270D01*
X226838826Y-116954003D01*
X227097493Y-116847896D01*
X227157458Y-116844000D01*
X227278789Y-116860383D01*
G37*
G36*
X193993631Y-116835457D02*
G01*
X194204543Y-117029811D01*
X194309480Y-117291365D01*
X194313333Y-117352000D01*
X194269690Y-117523722D01*
X194165378Y-117721916D01*
X194040324Y-117883239D01*
X193939756Y-117944667D01*
X193853315Y-117961222D01*
X193619532Y-118008364D01*
X193256874Y-118082309D01*
X192783806Y-118179270D01*
X192218794Y-118295462D01*
X191580305Y-118427099D01*
X190886805Y-118570398D01*
X190842000Y-118579667D01*
X190137044Y-118724409D01*
X189478302Y-118857567D01*
X188885624Y-118975284D01*
X188378863Y-119073706D01*
X187977869Y-119148979D01*
X187702495Y-119197248D01*
X187572592Y-119214660D01*
X187571611Y-119214667D01*
X187361449Y-119156141D01*
X187201333Y-119045333D01*
X187056766Y-118797463D01*
X187048176Y-118519980D01*
X187160014Y-118258857D01*
X187376729Y-118060069D01*
X187559013Y-117987794D01*
X187841745Y-117923704D01*
X188240842Y-117837710D01*
X188733232Y-117734409D01*
X189295847Y-117618394D01*
X189905617Y-117494260D01*
X190539471Y-117366602D01*
X191174341Y-117240013D01*
X191787158Y-117119089D01*
X192354850Y-117008424D01*
X192854349Y-116912613D01*
X193262585Y-116836250D01*
X193556488Y-116783929D01*
X193712989Y-116760246D01*
X193727207Y-116759333D01*
X193993631Y-116835457D01*
G37*
G36*
X240637124Y-109940885D02*
G01*
X240688126Y-109950045D01*
X240912903Y-110104644D01*
X241027868Y-110338956D01*
X241033094Y-110603860D01*
X240928655Y-110850231D01*
X240714625Y-111028948D01*
X240686486Y-111041503D01*
X240555701Y-111072491D01*
X240272269Y-111122962D01*
X239851477Y-111190672D01*
X239308613Y-111273378D01*
X238658963Y-111368838D01*
X237917815Y-111474809D01*
X237100454Y-111589047D01*
X236222170Y-111709309D01*
X235298248Y-111833354D01*
X235207333Y-111845429D01*
X234285084Y-111968092D01*
X233410965Y-112084917D01*
X232599710Y-112193896D01*
X231866057Y-112293024D01*
X231224741Y-112380294D01*
X230690498Y-112453699D01*
X230278064Y-112511235D01*
X230002176Y-112550893D01*
X229877569Y-112570669D01*
X229873333Y-112571652D01*
X229707124Y-112562151D01*
X229534666Y-112500502D01*
X229288931Y-112300480D01*
X229168757Y-112035158D01*
X229192598Y-111750435D01*
X229213317Y-111701271D01*
X229365434Y-111498337D01*
X229535437Y-111375555D01*
X229654602Y-111348336D01*
X229926880Y-111301553D01*
X230337444Y-111237338D01*
X230871470Y-111157822D01*
X231514133Y-111065136D01*
X232250607Y-110961413D01*
X233066066Y-110848783D01*
X233945686Y-110729378D01*
X234874640Y-110605329D01*
X235101634Y-110575320D01*
X236265778Y-110422664D01*
X237271396Y-110292927D01*
X238127599Y-110185090D01*
X238843493Y-110098135D01*
X239428187Y-110031040D01*
X239890789Y-109982787D01*
X240240407Y-109952357D01*
X240486149Y-109938729D01*
X240637124Y-109940885D01*
G37*
G36*
X180471867Y-109856920D02*
G01*
X180749098Y-109876263D01*
X181131768Y-109912633D01*
X181629017Y-109967067D01*
X182249986Y-110040604D01*
X183003815Y-110134281D01*
X183899646Y-110249136D01*
X184946620Y-110386208D01*
X185901319Y-110512845D01*
X187007627Y-110660681D01*
X187958042Y-110788789D01*
X188764617Y-110899094D01*
X189439402Y-110993519D01*
X189994449Y-111073987D01*
X190441809Y-111142423D01*
X190793533Y-111200748D01*
X191061672Y-111250888D01*
X191258279Y-111294765D01*
X191395404Y-111334303D01*
X191485098Y-111371425D01*
X191539414Y-111408054D01*
X191545284Y-111413654D01*
X191691958Y-111664084D01*
X191703848Y-111944710D01*
X191595944Y-112206726D01*
X191383238Y-112401328D01*
X191223000Y-112462885D01*
X191110968Y-112458770D01*
X190846056Y-112433447D01*
X190443140Y-112388747D01*
X189917099Y-112326504D01*
X189282808Y-112248548D01*
X188555147Y-112156711D01*
X187748992Y-112052826D01*
X186879222Y-111938723D01*
X185960712Y-111816236D01*
X185846666Y-111800892D01*
X184916990Y-111674626D01*
X184029667Y-111552062D01*
X183200225Y-111435478D01*
X182444189Y-111327152D01*
X181777085Y-111229363D01*
X181214438Y-111144389D01*
X180771775Y-111074508D01*
X180464622Y-111021999D01*
X180308504Y-110989141D01*
X180302692Y-110987326D01*
X180031873Y-110852221D01*
X179889973Y-110657939D01*
X179884181Y-110642167D01*
X179848390Y-110337148D01*
X179942374Y-110068619D01*
X180146034Y-109886480D01*
X180197154Y-109865162D01*
X180290932Y-109853566D01*
X180471867Y-109856920D01*
G37*
G36*
X242630272Y-98374677D02*
G01*
X242807459Y-98561260D01*
X242896457Y-98814533D01*
X242879331Y-99087319D01*
X242763833Y-99304169D01*
X242662970Y-99361422D01*
X242408018Y-99478981D01*
X242002552Y-99655383D01*
X241450148Y-99889164D01*
X240754381Y-100178859D01*
X239918827Y-100523004D01*
X238947060Y-100920136D01*
X237842657Y-101368790D01*
X236609193Y-101867502D01*
X235250243Y-102414808D01*
X233769383Y-103009244D01*
X232170188Y-103649346D01*
X231439666Y-103941211D01*
X230127026Y-104465400D01*
X228857953Y-104972244D01*
X227641295Y-105458208D01*
X226485901Y-105919755D01*
X225400618Y-106353349D01*
X224394295Y-106755453D01*
X223475781Y-107122531D01*
X222653923Y-107451047D01*
X221937569Y-107737463D01*
X221335568Y-107978244D01*
X220856768Y-108169853D01*
X220510018Y-108308754D01*
X220304165Y-108391410D01*
X220246580Y-108414804D01*
X220222587Y-108496227D01*
X220156634Y-108731382D01*
X220051363Y-109110649D01*
X219909417Y-109624408D01*
X219733439Y-110263038D01*
X219526071Y-111016917D01*
X219289955Y-111876425D01*
X219027735Y-112831942D01*
X218742053Y-113873847D01*
X218435551Y-114992519D01*
X218110872Y-116178337D01*
X217770659Y-117421680D01*
X217417554Y-118712928D01*
X217337447Y-119005975D01*
X216922680Y-120520538D01*
X216531607Y-121942897D01*
X216166007Y-123266754D01*
X215827662Y-124485813D01*
X215518351Y-125593777D01*
X215239855Y-126584349D01*
X214993955Y-127451233D01*
X214782430Y-128188132D01*
X214607061Y-128788749D01*
X214469629Y-129246787D01*
X214371913Y-129555950D01*
X214315695Y-129709941D01*
X214306533Y-129725652D01*
X214037201Y-129897600D01*
X213745906Y-129905717D01*
X213617333Y-129857169D01*
X213547872Y-129825343D01*
X213485193Y-129797024D01*
X213431151Y-129763967D01*
X213387603Y-129717926D01*
X213356404Y-129650653D01*
X213339413Y-129553904D01*
X213338484Y-129419430D01*
X213355474Y-129238987D01*
X213392241Y-129004328D01*
X213450639Y-128707206D01*
X213532526Y-128339375D01*
X213639758Y-127892589D01*
X213774191Y-127358602D01*
X213937682Y-126729167D01*
X214132087Y-125996038D01*
X214359263Y-125150969D01*
X214621065Y-124185713D01*
X214919351Y-123092024D01*
X215255977Y-121861655D01*
X215632799Y-120486361D01*
X216051673Y-118957896D01*
X216159893Y-118562878D01*
X216520591Y-117247321D01*
X216869949Y-115975404D01*
X217205267Y-114756846D01*
X217523846Y-113601363D01*
X217822985Y-112518674D01*
X218099984Y-111518495D01*
X218352144Y-110610545D01*
X218576762Y-109804541D01*
X218771141Y-109110201D01*
X218932579Y-108537243D01*
X219058376Y-108095383D01*
X219145833Y-107794341D01*
X219192248Y-107643832D01*
X219197983Y-107629067D01*
X219265705Y-107582515D01*
X219443674Y-107493609D01*
X219735663Y-107360796D01*
X220145447Y-107182524D01*
X220676798Y-106957243D01*
X221333491Y-106683399D01*
X222119299Y-106359442D01*
X223037997Y-105983820D01*
X224093357Y-105554980D01*
X225289153Y-105071372D01*
X226629160Y-104531443D01*
X228117150Y-103933641D01*
X229756899Y-103276415D01*
X230739138Y-102883319D01*
X232071069Y-102351049D01*
X233361666Y-101836304D01*
X234602024Y-101342589D01*
X235783235Y-100873408D01*
X236896392Y-100432266D01*
X237932589Y-100022666D01*
X238882919Y-99648115D01*
X239738476Y-99312115D01*
X240490351Y-99018172D01*
X241129639Y-98769791D01*
X241647434Y-98570475D01*
X242034827Y-98423728D01*
X242282912Y-98333057D01*
X242382783Y-98301964D01*
X242382833Y-98301964D01*
X242630272Y-98374677D01*
G37*
G36*
X178601363Y-98248255D02*
G01*
X178849129Y-98338800D01*
X179236226Y-98485428D01*
X179753750Y-98684636D01*
X180392795Y-98932921D01*
X181144456Y-99226778D01*
X181999830Y-99562703D01*
X182950010Y-99937193D01*
X183986092Y-100346745D01*
X185099171Y-100787853D01*
X186280343Y-101257016D01*
X187520701Y-101750728D01*
X188811343Y-102265486D01*
X190143361Y-102797786D01*
X190150227Y-102800533D01*
X191718698Y-103428025D01*
X193137486Y-103995913D01*
X194414175Y-104507374D01*
X195556349Y-104965582D01*
X196571590Y-105373713D01*
X197467483Y-105734943D01*
X198251611Y-106052446D01*
X198931558Y-106329399D01*
X199514906Y-106568977D01*
X200009240Y-106774355D01*
X200422142Y-106948709D01*
X200761197Y-107095215D01*
X201033988Y-107217047D01*
X201248098Y-107317382D01*
X201411110Y-107399394D01*
X201530610Y-107466260D01*
X201614178Y-107521154D01*
X201669400Y-107567253D01*
X201703859Y-107607731D01*
X201725138Y-107645765D01*
X201726026Y-107647735D01*
X201766907Y-107770588D01*
X201848192Y-108043518D01*
X201966671Y-108454760D01*
X202119134Y-108992552D01*
X202302370Y-109645129D01*
X202513169Y-110400725D01*
X202748320Y-111247579D01*
X203004612Y-112173924D01*
X203278835Y-113167997D01*
X203567779Y-114218034D01*
X203868233Y-115312270D01*
X204176987Y-116438942D01*
X204490829Y-117586285D01*
X204806551Y-118742535D01*
X205120940Y-119895927D01*
X205430786Y-121034699D01*
X205732880Y-122147085D01*
X206024010Y-123221321D01*
X206300966Y-124245643D01*
X206560538Y-125208287D01*
X206799515Y-126097488D01*
X207014686Y-126901483D01*
X207202841Y-127608508D01*
X207360769Y-128206797D01*
X207485260Y-128684588D01*
X207573104Y-129030115D01*
X207621090Y-129231615D01*
X207629409Y-129279346D01*
X207545794Y-129538519D01*
X207348002Y-129730421D01*
X207086861Y-129825820D01*
X206813200Y-129795481D01*
X206767643Y-129774980D01*
X206585206Y-129649700D01*
X206490138Y-129544000D01*
X206459046Y-129448042D01*
X206386143Y-129198493D01*
X206274142Y-128805137D01*
X206125751Y-128277757D01*
X205943681Y-127626138D01*
X205730644Y-126860063D01*
X205489349Y-125989318D01*
X205222508Y-125023687D01*
X204932830Y-123972953D01*
X204623027Y-122846900D01*
X204295809Y-121655314D01*
X203953886Y-120407977D01*
X203599970Y-119114675D01*
X203535517Y-118878912D01*
X203180626Y-117580950D01*
X202838044Y-116328771D01*
X202510418Y-115132014D01*
X202200397Y-114000319D01*
X201910628Y-112943327D01*
X201643759Y-111970677D01*
X201402437Y-111092009D01*
X201189312Y-110316964D01*
X201007030Y-109655181D01*
X200858239Y-109116300D01*
X200745588Y-108709961D01*
X200671724Y-108445804D01*
X200639295Y-108333470D01*
X200638022Y-108330074D01*
X200558837Y-108297990D01*
X200331237Y-108206656D01*
X199964070Y-108059610D01*
X199466184Y-107860387D01*
X198846428Y-107612523D01*
X198113649Y-107319556D01*
X197276696Y-106985021D01*
X196344417Y-106612455D01*
X195325659Y-106205394D01*
X194229272Y-105767374D01*
X193064103Y-105301932D01*
X191839001Y-104812605D01*
X190562813Y-104302928D01*
X189445000Y-103856545D01*
X187795523Y-103197065D01*
X186262828Y-102582615D01*
X184850491Y-102014660D01*
X183562086Y-101494662D01*
X182401190Y-101024087D01*
X181371377Y-100604398D01*
X180476223Y-100237060D01*
X179719304Y-99923536D01*
X179104195Y-99665290D01*
X178634471Y-99463788D01*
X178313708Y-99320492D01*
X178145482Y-99236866D01*
X178120833Y-99219502D01*
X177996574Y-98968194D01*
X177994073Y-98695274D01*
X178095393Y-98447922D01*
X178282600Y-98273315D01*
X178501833Y-98217297D01*
X178601363Y-98248255D01*
G37*
%TD*%
M02*
