%TF.GenerationSoftware,KiCad,Pcbnew,7.0.1-3b83917a11~171~ubuntu22.04.1*%
%TF.CreationDate,2023-03-24T21:35:46-04:00*%
%TF.ProjectId,whisper_plate,77686973-7065-4725-9f70-6c6174652e6b,v1.0.0*%
%TF.SameCoordinates,Original*%
%TF.FileFunction,Profile,NP*%
%FSLAX46Y46*%
G04 Gerber Fmt 4.6, Leading zero omitted, Abs format (unit mm)*
G04 Created by KiCad (PCBNEW 7.0.1-3b83917a11~171~ubuntu22.04.1) date 2023-03-24 21:35:46*
%MOMM*%
%LPD*%
G01*
G04 APERTURE LIST*
%TA.AperFunction,Profile*%
%ADD10C,0.150000*%
%TD*%
G04 APERTURE END LIST*
D10*
X227201673Y-81266727D02*
G75*
G03*
X227501727Y-81566727I300027J27D01*
G01*
X197459524Y-137156727D02*
X153881727Y-137156727D01*
X227201727Y-77616727D02*
X227201727Y-81266727D01*
X229964023Y-170830431D02*
X212578345Y-169309381D01*
X153581727Y-136856727D02*
X153581727Y-124706727D01*
X171581727Y-84326727D02*
X171581727Y-72176727D01*
X153581727Y-88576727D02*
X153581727Y-84926727D01*
X212305617Y-168984375D02*
G75*
G03*
X212578346Y-169309381I298883J-26125D01*
G01*
X135881727Y-88876727D02*
G75*
G03*
X135581727Y-89176727I-27J-299973D01*
G01*
X270638861Y-160822827D02*
X265990573Y-178170475D01*
X135881727Y-88876727D02*
X153281727Y-88876727D01*
X189281727Y-71876727D02*
G75*
G03*
X189581727Y-71576727I-27J300027D01*
G01*
X153281727Y-124406727D02*
X135881727Y-124406727D01*
X189581727Y-71576727D02*
X189581727Y-67416727D01*
X171281727Y-84626727D02*
G75*
G03*
X171581727Y-84326727I-27J300027D01*
G01*
X227501727Y-81566727D02*
X267491727Y-81566727D01*
X153881727Y-84626727D02*
G75*
G03*
X153581727Y-84926727I-27J-299973D01*
G01*
X267990680Y-159582898D02*
X270450131Y-160462711D01*
X153881727Y-84626727D02*
X171281727Y-84626727D01*
X247224751Y-173851349D02*
G75*
G03*
X247204734Y-173847137I-71651J-290851D01*
G01*
X265629059Y-178384098D02*
G75*
G03*
X265990572Y-178170475I71741J291298D01*
G01*
X213473046Y-154526954D02*
X197680933Y-137254296D01*
X213550498Y-154755531D02*
G75*
G03*
X213473046Y-154526953I-298898J26131D01*
G01*
X209501727Y-77316727D02*
X226901727Y-77316727D01*
X135581727Y-124106727D02*
X135581727Y-89176727D01*
X153281727Y-88876727D02*
G75*
G03*
X153581727Y-88576727I-27J300027D01*
G01*
X153581673Y-124706727D02*
G75*
G03*
X153281727Y-124406727I-299973J27D01*
G01*
X209201727Y-67416727D02*
X209201727Y-77016727D01*
X265629053Y-178384124D02*
X247224751Y-173851348D01*
X209201673Y-67416727D02*
G75*
G03*
X208901727Y-67116727I-299973J27D01*
G01*
X212305633Y-168984376D02*
X213550496Y-154755531D01*
X189881727Y-67116727D02*
X208901727Y-67116727D01*
X135581673Y-124106727D02*
G75*
G03*
X135881727Y-124406727I300027J27D01*
G01*
X247204734Y-173847136D02*
X229989602Y-170833782D01*
X153581673Y-136856727D02*
G75*
G03*
X153881727Y-137156727I300027J27D01*
G01*
X171881727Y-71876727D02*
G75*
G03*
X171581727Y-72176727I-27J-299973D01*
G01*
X171881727Y-71876727D02*
X189281727Y-71876727D01*
X189881727Y-67116727D02*
G75*
G03*
X189581727Y-67416727I-27J-299973D01*
G01*
X267791684Y-159300428D02*
G75*
G03*
X267990680Y-159582897I300016J28D01*
G01*
X267791727Y-81866727D02*
X267791727Y-159300428D01*
X270638893Y-160822835D02*
G75*
G03*
X270450132Y-160462711I-289793J77635D01*
G01*
X267791673Y-81866727D02*
G75*
G03*
X267491727Y-81566727I-299973J27D01*
G01*
X227201673Y-77616727D02*
G75*
G03*
X226901727Y-77316727I-299973J27D01*
G01*
X229989602Y-170833783D02*
G75*
G03*
X229964023Y-170830431I-51802J-296017D01*
G01*
M02*
