0
SECTION
2
HEADER
9
$INSUNITS
70
4
0
ENDSEC
0
SECTION
2
TABLES
0
TABLE
2
LTYPE
0
LTYPE
72
65
70
64
2
CONTINUOUS
3
______
73
0
40
0
0
ENDTAB
0
TABLE
2
LAYER
0
ENDTAB
0
ENDSEC
0
SECTION
2
ENTITIES
0
LINE
8
0
10
122.4
20
50.275
11
122.4
21
-27.1587006
0
LINE
8
0
10
122.5989527
20
-27.4411708
11
125.0584041
21
-28.3209842
0
LINE
8
0
10
125.2471344
20
-28.6811001
11
120.5988462
21
-46.0287477
0
LINE
8
0
10
120.2373257
20
-46.2423973
11
101.8330245
21
-41.7096209
0
LINE
8
0
10
101.8130075
20
-41.7054091
11
84.5978752
21
-38.6920548
0
LINE
8
0
10
84.5722961
20
-38.6887035
11
67.1866178
21
-37.1676537
0
LINE
8
0
10
66.9139061
20
-36.8426486
11
68.1587687
21
-22.6138041
0
LINE
8
0
10
68.0813191
20
-22.3852269
11
52.2892062
21
-5.1125695
0
LINE
8
0
10
52.0677974
20
-5.015
11
8.49
21
-5.015
0
LINE
8
0
10
8.19
20
-4.715
11
8.19
21
7.435
0
LINE
8
0
10
7.89
20
7.735
11
-9.51
21
7.735
0
LINE
8
0
10
-9.81
20
8.035
11
-9.81
21
42.965
0
LINE
8
0
10
-9.51
20
43.265
11
7.89
21
43.265
0
LINE
8
0
10
8.19
20
43.565
11
8.19
21
47.215
0
LINE
8
0
10
8.49
20
47.515
11
25.89
21
47.515
0
LINE
8
0
10
26.19
20
47.815
11
26.19
21
59.965
0
LINE
8
0
10
26.49
20
60.265
11
43.89
21
60.265
0
LINE
8
0
10
44.19
20
60.565
11
44.19
21
64.725
0
LINE
8
0
10
44.49
20
65.025
11
63.51
21
65.025
0
LINE
8
0
10
63.81
20
64.725
11
63.81
21
55.125
0
LINE
8
0
10
64.11
20
54.825
11
81.51
21
54.825
0
LINE
8
0
10
81.81
20
54.525
11
81.81
21
50.875
0
LINE
8
0
10
82.11
20
50.575
11
122.1
21
50.575
0
ARC
8
0
10
122.7
20
-27.1587006
40
0.3
50
180
51
250.316476
0
ARC
8
0
10
124.9573567
20
-28.6034544
40
0.3
50
345.0000021
51
70.316476
0
ARC
8
0
10
120.3090685
20
-45.951102
40
0.3
50
256.1640466
51
345.0000021
0
ARC
8
0
10
101.7612816
20
-42.0009162
40
0.3
50
76.1640466
51
80.0714761
0
ARC
8
0
10
84.5461494
20
-38.9875619
40
0.3
50
80.0714761
51
85.0000024
0
ARC
8
0
10
67.2127645
20
-36.8687953
40
0.3
50
175.0000024
51
265.0000024
0
ARC
8
0
10
67.8599103
20
-22.5876574
40
0.3
50
355.0000024
51
42.4361736
0
ARC
8
0
10
52.0677974
20
-5.315
40
0.3
50
42.4361736
51
90
0
ARC
8
0
10
8.49
20
-4.715
40
0.3
50
180
51
270
0
ARC
8
0
10
7.89
20
7.435
40
0.3
50
0
51
90
0
ARC
8
0
10
-9.51
20
8.035
40
0.3
50
180
51
270
0
ARC
8
0
10
-9.51
20
42.965
40
0.3
50
90
51
180
0
ARC
8
0
10
7.89
20
43.565
40
0.3
50
270
51
0
0
ARC
8
0
10
8.49
20
47.215
40
0.3
50
90
51
180
0
ARC
8
0
10
25.89
20
47.815
40
0.3
50
270
51
0
0
ARC
8
0
10
26.49
20
59.965
40
0.3
50
90
51
180
0
ARC
8
0
10
43.89
20
60.565
40
0.3
50
270
51
0
0
ARC
8
0
10
44.49
20
64.725
40
0.3
50
90
51
180
0
ARC
8
0
10
63.51
20
64.725
40
0.3
50
0
51
90
0
ARC
8
0
10
64.11
20
55.125
40
0.3
50
180
51
270
0
ARC
8
0
10
81.51
20
54.525
40
0.3
50
0
51
90
0
ARC
8
0
10
82.11
20
50.875
40
0.3
50
180
51
270
0
ARC
8
0
10
122.1
20
50.275
40
0.3
50
0
51
90
0
LINE
8
0
10
-8.75
20
8.75
11
8.75
21
8.75
0
LINE
8
0
10
8.75
20
8.75
11
8.75
21
25.25
0
LINE
8
0
10
8.75
20
25.25
11
-8.75
21
25.25
0
LINE
8
0
10
-8.75
20
25.25
11
-8.75
21
8.75
0
LINE
8
0
10
-8.75
20
25.75
11
8.75
21
25.75
0
LINE
8
0
10
8.75
20
25.75
11
8.75
21
42.25
0
LINE
8
0
10
8.75
20
42.25
11
-8.75
21
42.25
0
LINE
8
0
10
-8.75
20
42.25
11
-8.75
21
25.75
0
LINE
8
0
10
9.25
20
-4
11
26.75
21
-4
0
LINE
8
0
10
26.75
20
-4
11
26.75
21
12.5
0
LINE
8
0
10
26.75
20
12.5
11
9.25
21
12.5
0
LINE
8
0
10
9.25
20
12.5
11
9.25
21
-4
0
LINE
8
0
10
9.25
20
13
11
26.75
21
13
0
LINE
8
0
10
26.75
20
13
11
26.75
21
29.5
0
LINE
8
0
10
26.75
20
29.5
11
9.25
21
29.5
0
LINE
8
0
10
9.25
20
29.5
11
9.25
21
13
0
LINE
8
0
10
9.25
20
30
11
26.75
21
30
0
LINE
8
0
10
26.75
20
30
11
26.75
21
46.5
0
LINE
8
0
10
26.75
20
46.5
11
9.25
21
46.5
0
LINE
8
0
10
9.25
20
46.5
11
9.25
21
30
0
LINE
8
0
10
27.25
20
8.75
11
44.75
21
8.75
0
LINE
8
0
10
44.75
20
8.75
11
44.75
21
25.25
0
LINE
8
0
10
44.75
20
25.25
11
27.25
21
25.25
0
LINE
8
0
10
27.25
20
25.25
11
27.25
21
8.75
0
LINE
8
0
10
27.25
20
25.75
11
44.75
21
25.75
0
LINE
8
0
10
44.75
20
25.75
11
44.75
21
42.25
0
LINE
8
0
10
44.75
20
42.25
11
27.25
21
42.25
0
LINE
8
0
10
27.25
20
42.25
11
27.25
21
25.75
0
LINE
8
0
10
27.25
20
42.75
11
44.75
21
42.75
0
LINE
8
0
10
44.75
20
42.75
11
44.75
21
59.25
0
LINE
8
0
10
44.75
20
59.25
11
27.25
21
59.25
0
LINE
8
0
10
27.25
20
59.25
11
27.25
21
42.75
0
LINE
8
0
10
45.25
20
13.51
11
62.75
21
13.51
0
LINE
8
0
10
62.75
20
13.51
11
62.75
21
30.01
0
LINE
8
0
10
62.75
20
30.01
11
45.25
21
30.01
0
LINE
8
0
10
45.25
20
30.01
11
45.25
21
13.51
0
LINE
8
0
10
45.25
20
30.51
11
62.75
21
30.51
0
LINE
8
0
10
62.75
20
30.51
11
62.75
21
47.01
0
LINE
8
0
10
62.75
20
47.01
11
45.25
21
47.01
0
LINE
8
0
10
45.25
20
47.01
11
45.25
21
30.51
0
LINE
8
0
10
45.25
20
47.51
11
62.75
21
47.51
0
LINE
8
0
10
62.75
20
47.51
11
62.75
21
64.01
0
LINE
8
0
10
62.75
20
64.01
11
45.25
21
64.01
0
LINE
8
0
10
45.25
20
64.01
11
45.25
21
47.51
0
LINE
8
0
10
63.25
20
3.31
11
80.75
21
3.31
0
LINE
8
0
10
80.75
20
3.31
11
80.75
21
19.81
0
LINE
8
0
10
80.75
20
19.81
11
63.25
21
19.81
0
LINE
8
0
10
63.25
20
19.81
11
63.25
21
3.31
0
LINE
8
0
10
63.25
20
20.31
11
80.75
21
20.31
0
LINE
8
0
10
80.75
20
20.31
11
80.75
21
36.81
0
LINE
8
0
10
80.75
20
36.81
11
63.25
21
36.81
0
LINE
8
0
10
63.25
20
36.81
11
63.25
21
20.31
0
LINE
8
0
10
63.25
20
37.31
11
80.75
21
37.31
0
LINE
8
0
10
80.75
20
37.31
11
80.75
21
53.81
0
LINE
8
0
10
80.75
20
53.81
11
63.25
21
53.81
0
LINE
8
0
10
63.25
20
53.81
11
63.25
21
37.31
0
LINE
8
0
10
81.25
20
-0.94
11
98.75
21
-0.94
0
LINE
8
0
10
98.75
20
-0.94
11
98.75
21
15.56
0
LINE
8
0
10
98.75
20
15.56
11
81.25
21
15.56
0
LINE
8
0
10
81.25
20
15.56
11
81.25
21
-0.94
0
LINE
8
0
10
81.25
20
16.06
11
98.75
21
16.06
0
LINE
8
0
10
98.75
20
16.06
11
98.75
21
32.56
0
LINE
8
0
10
98.75
20
32.56
11
81.25
21
32.56
0
LINE
8
0
10
81.25
20
32.56
11
81.25
21
16.06
0
LINE
8
0
10
81.25
20
33.06
11
98.75
21
33.06
0
LINE
8
0
10
98.75
20
33.06
11
98.75
21
49.56
0
LINE
8
0
10
98.75
20
49.56
11
81.25
21
49.56
0
LINE
8
0
10
81.25
20
49.56
11
81.25
21
33.06
0
LINE
8
0
10
102.8578802
20
-40.528601
11
119.7615822
21
-45.0579343
0
LINE
8
0
10
119.7615822
20
-45.0579343
11
124.0320964
21
-29.1201582
0
LINE
8
0
10
124.0320964
20
-29.1201582
11
107.1283944
21
-24.5908249
0
LINE
8
0
10
107.1283944
20
-24.5908249
11
102.8578802
21
-40.528601
0
LINE
8
0
10
84.4637927
20
-37.2086146
11
86.7734199
21
-10.8094551
0
LINE
8
0
10
86.7734199
20
-10.8094551
11
70.3362073
21
-9.3713854
0
LINE
8
0
10
70.3362073
20
-9.3713854
11
68.0265801
21
-35.7705449
0
LINE
8
0
10
68.0265801
20
-35.7705449
11
84.4637927
21
-37.2086146
0
LINE
8
0
10
101.8312796
20
-40.221018
11
106.4329563
21
-14.1236125
0
LINE
8
0
10
106.4329563
20
-14.1236125
11
90.1836284
21
-11.2584176
0
LINE
8
0
10
90.1836284
20
-11.2584176
11
85.5819517
21
-37.3558231
0
LINE
8
0
10
85.5819517
20
-37.3558231
11
101.8312796
21
-40.221018
0
ENDSEC
0
EOF