0
SECTION
2
HEADER
9
$INSUNITS
70
4
0
ENDSEC
0
SECTION
2
TABLES
0
TABLE
2
LTYPE
0
LTYPE
72
65
70
64
2
CONTINUOUS
3
______
73
0
40
0
0
ENDTAB
0
TABLE
2
LAYER
0
ENDTAB
0
ENDSEC
0
SECTION
2
ENTITIES
0
LINE
8
0
10
-8.75
20
8.75
11
8.75
21
8.75
0
LINE
8
0
10
8.75
20
8.75
11
8.75
21
25.25
0
LINE
8
0
10
8.75
20
25.25
11
-8.75
21
25.25
0
LINE
8
0
10
-8.75
20
25.25
11
-8.75
21
8.75
0
LINE
8
0
10
-8.75
20
25.75
11
8.75
21
25.75
0
LINE
8
0
10
8.75
20
25.75
11
8.75
21
42.25
0
LINE
8
0
10
8.75
20
42.25
11
-8.75
21
42.25
0
LINE
8
0
10
-8.75
20
42.25
11
-8.75
21
25.75
0
LINE
8
0
10
9.25
20
-4
11
26.75
21
-4
0
LINE
8
0
10
26.75
20
-4
11
26.75
21
12.5
0
LINE
8
0
10
26.75
20
12.5
11
9.25
21
12.5
0
LINE
8
0
10
9.25
20
12.5
11
9.25
21
-4
0
LINE
8
0
10
9.25
20
13
11
26.75
21
13
0
LINE
8
0
10
26.75
20
13
11
26.75
21
29.5
0
LINE
8
0
10
26.75
20
29.5
11
9.25
21
29.5
0
LINE
8
0
10
9.25
20
29.5
11
9.25
21
13
0
LINE
8
0
10
9.25
20
30
11
26.75
21
30
0
LINE
8
0
10
26.75
20
30
11
26.75
21
46.5
0
LINE
8
0
10
26.75
20
46.5
11
9.25
21
46.5
0
LINE
8
0
10
9.25
20
46.5
11
9.25
21
30
0
LINE
8
0
10
27.25
20
8.75
11
44.75
21
8.75
0
LINE
8
0
10
44.75
20
8.75
11
44.75
21
25.25
0
LINE
8
0
10
44.75
20
25.25
11
27.25
21
25.25
0
LINE
8
0
10
27.25
20
25.25
11
27.25
21
8.75
0
LINE
8
0
10
27.25
20
25.75
11
44.75
21
25.75
0
LINE
8
0
10
44.75
20
25.75
11
44.75
21
42.25
0
LINE
8
0
10
44.75
20
42.25
11
27.25
21
42.25
0
LINE
8
0
10
27.25
20
42.25
11
27.25
21
25.75
0
LINE
8
0
10
27.25
20
42.75
11
44.75
21
42.75
0
LINE
8
0
10
44.75
20
42.75
11
44.75
21
59.25
0
LINE
8
0
10
44.75
20
59.25
11
27.25
21
59.25
0
LINE
8
0
10
27.25
20
59.25
11
27.25
21
42.75
0
LINE
8
0
10
45.25
20
13.51
11
62.75
21
13.51
0
LINE
8
0
10
62.75
20
13.51
11
62.75
21
30.01
0
LINE
8
0
10
62.75
20
30.01
11
45.25
21
30.01
0
LINE
8
0
10
45.25
20
30.01
11
45.25
21
13.51
0
LINE
8
0
10
45.25
20
30.51
11
62.75
21
30.51
0
LINE
8
0
10
62.75
20
30.51
11
62.75
21
47.01
0
LINE
8
0
10
62.75
20
47.01
11
45.25
21
47.01
0
LINE
8
0
10
45.25
20
47.01
11
45.25
21
30.51
0
LINE
8
0
10
45.25
20
47.51
11
62.75
21
47.51
0
LINE
8
0
10
62.75
20
47.51
11
62.75
21
64.01
0
LINE
8
0
10
62.75
20
64.01
11
45.25
21
64.01
0
LINE
8
0
10
45.25
20
64.01
11
45.25
21
47.51
0
LINE
8
0
10
63.25
20
3.31
11
80.75
21
3.31
0
LINE
8
0
10
80.75
20
3.31
11
80.75
21
19.81
0
LINE
8
0
10
80.75
20
19.81
11
63.25
21
19.81
0
LINE
8
0
10
63.25
20
19.81
11
63.25
21
3.31
0
LINE
8
0
10
63.25
20
20.31
11
80.75
21
20.31
0
LINE
8
0
10
80.75
20
20.31
11
80.75
21
36.81
0
LINE
8
0
10
80.75
20
36.81
11
63.25
21
36.81
0
LINE
8
0
10
63.25
20
36.81
11
63.25
21
20.31
0
LINE
8
0
10
63.25
20
37.31
11
80.75
21
37.31
0
LINE
8
0
10
80.75
20
37.31
11
80.75
21
53.81
0
LINE
8
0
10
80.75
20
53.81
11
63.25
21
53.81
0
LINE
8
0
10
63.25
20
53.81
11
63.25
21
37.31
0
LINE
8
0
10
81.25
20
-0.94
11
98.75
21
-0.94
0
LINE
8
0
10
98.75
20
-0.94
11
98.75
21
15.56
0
LINE
8
0
10
98.75
20
15.56
11
81.25
21
15.56
0
LINE
8
0
10
81.25
20
15.56
11
81.25
21
-0.94
0
LINE
8
0
10
81.25
20
16.06
11
98.75
21
16.06
0
LINE
8
0
10
98.75
20
16.06
11
98.75
21
32.56
0
LINE
8
0
10
98.75
20
32.56
11
81.25
21
32.56
0
LINE
8
0
10
81.25
20
32.56
11
81.25
21
16.06
0
LINE
8
0
10
81.25
20
33.06
11
98.75
21
33.06
0
LINE
8
0
10
98.75
20
33.06
11
98.75
21
49.56
0
LINE
8
0
10
98.75
20
49.56
11
81.25
21
49.56
0
LINE
8
0
10
81.25
20
49.56
11
81.25
21
33.06
0
LINE
8
0
10
102.8578802
20
-40.528601
11
119.7615822
21
-45.0579343
0
LINE
8
0
10
119.7615822
20
-45.0579343
11
124.0320964
21
-29.1201582
0
LINE
8
0
10
124.0320964
20
-29.1201582
11
107.1283944
21
-24.5908249
0
LINE
8
0
10
107.1283944
20
-24.5908249
11
102.8578802
21
-40.528601
0
ENDSEC
0
EOF